w<svg width="52" height="32" viewBox="0 0 52 32" fill="none" xmlns="http://www.w3.org/2000/svg">
<g clip-path="url(#clip0_6214_145926)">
<path d="M9.50615 7.70742C8.89678 8.41675 7.92178 8.97621 6.94678 8.89629C6.8249 7.9372 7.30225 6.91817 7.86084 6.28877C8.47022 5.55947 9.53662 5.03996 10.3999 5C10.5015 5.99905 10.1054 6.97812 9.50615 7.70742ZM10.3897 9.08611C8.97803 9.00619 7.76943 9.87536 7.09912 9.87536C6.41865 9.87536 5.39287 9.12607 4.27568 9.14605C2.82334 9.16603 1.47256 9.97526 0.731152 11.264C-0.792285 13.8416 0.335059 17.6579 1.80771 19.7559C2.52881 20.795 3.39209 21.9339 4.52959 21.8939C5.60615 21.854 6.03271 21.2046 7.33272 21.2046C8.64287 21.2046 9.01865 21.8939 10.1562 21.8739C11.3343 21.8539 12.0757 20.8349 12.7968 19.7959C13.6194 18.617 13.9546 17.4681 13.9749 17.4082C13.9546 17.3882 11.6999 16.539 11.6796 13.9814C11.6593 11.8435 13.4569 10.8245 13.5382 10.7645C12.5226 9.28592 10.9382 9.12607 10.3897 9.08611ZM18.5452 6.18887V21.764H21.003V16.4391H24.4054C27.5132 16.4391 29.6968 14.3411 29.6968 11.304C29.6968 8.26689 27.5538 6.18887 24.4866 6.18887H18.5452ZM21.003 8.22693H23.8366C25.9694 8.22693 27.1882 9.34586 27.1882 11.314C27.1882 13.2821 25.9694 14.411 23.8265 14.411H21.003V8.22693ZM34.1858 21.8839C35.7296 21.8839 37.1616 21.1147 37.8116 19.8958H37.8624V21.764H40.1374V14.0114C40.1374 11.7636 38.3093 10.3149 35.496 10.3149C32.8858 10.3149 30.9562 11.7835 30.8851 13.8016H33.0991C33.2819 12.8425 34.1858 12.2131 35.4249 12.2131C36.928 12.2131 37.771 12.9025 37.771 14.1713V15.0304L34.7038 15.2103C31.8499 15.3801 30.3062 16.529 30.3062 18.5271C30.3062 20.5452 31.9007 21.8839 34.1858 21.8839ZM34.846 20.0357C33.5358 20.0357 32.703 19.4163 32.703 18.4672C32.703 17.4881 33.5054 16.9186 35.039 16.8287L37.771 16.6589V17.5381C37.771 18.9967 36.5116 20.0357 34.846 20.0357ZM43.1741 26C45.571 26 46.6983 25.1009 47.6835 22.3735L51.9999 10.4648H49.5015L46.6069 19.666H46.5562L43.6616 10.4648H41.0921L45.2562 21.804L45.0327 22.4933C44.6569 23.6622 44.0476 24.1118 42.9608 24.1118C42.7679 24.1118 42.3921 24.0918 42.2397 24.0718V25.9401C42.3819 25.98 42.9913 26 43.1741 26Z" fill="black"/>
</g>
<defs>
<clipPath id="clip0_6214_145926">
<rect width="52" height="21" fill="white" transform="translate(0 5)"/>
</clipPath>
</defs>
</svg>
