<svg width="25" height="24" viewBox="0 0 25 24" fill="none" xmlns="http://www.w3.org/2000/svg">
<path d="M15.8277 3.38197L17.8277 4.43152C19.9794 5.56066 21.0552 6.12523 21.6526 7.13974C22.25 8.15425 22.25 9.41667 22.25 11.9415V12.0585C22.25 14.5833 22.25 15.8458 21.6526 16.8603C21.0552 17.8748 19.9794 18.4393 17.8277 19.5685L15.8277 20.618C14.0721 21.5393 13.1943 22 12.25 22C11.3057 22 10.4279 21.5393 8.67229 20.618L6.67229 19.5685C4.52063 18.4393 3.44479 17.8748 2.8474 16.8603C2.25 15.8458 2.25 14.5833 2.25 12.0585V11.9415C2.25 9.41667 2.25 8.15425 2.8474 7.13974C3.44479 6.12523 4.52063 5.56066 6.67229 4.43152L8.67229 3.38197C10.4279 2.46066 11.3057 2 12.25 2C13.1943 2 14.0721 2.46066 15.8277 3.38197Z" stroke="#00A0FF" stroke-width="1.5" stroke-linecap="round"/>
<path d="M21.25 7.5L17.25 9.5M12.25 12L3.25 7.5M12.25 12V21.5M12.25 12C12.25 12 14.9926 10.6287 16.75 9.75C16.9453 9.65237 17.25 9.5 17.25 9.5M17.25 9.5V13M17.25 9.5L7.75 4.5" stroke="#00A0FF" stroke-width="1.5" stroke-linecap="round"/>
</svg>
