<svg width="20" height="20" viewBox="0 0 20 20" fill="none" xmlns="http://www.w3.org/2000/svg">
<path d="M15.0743 6.73239C15.3407 6.41523 15.2996 5.94214 14.9824 5.67572C14.6652 5.4093 14.1921 5.45044 13.9257 5.76761L15.0743 6.73239ZM8.2 13.75L7.64253 14.2517C7.78775 14.4131 7.99576 14.5036 8.21281 14.4999C8.42986 14.4962 8.63465 14.3986 8.77428 14.2324L8.2 13.75ZM6.05747 10.2483C5.78038 9.94039 5.30616 9.91543 4.99828 10.1925C4.69039 10.4696 4.66544 10.9438 4.94253 11.2517L6.05747 10.2483ZM19.75 10C19.75 4.61704 15.383 0.25 10 0.25V1.75C14.5545 1.75 18.25 5.44546 18.25 10H19.75ZM10 0.25C4.61704 0.25 0.25 4.61704 0.25 10H1.75C1.75 5.44546 5.44546 1.75 10 1.75V0.25ZM0.25 10C0.25 15.383 4.61704 19.75 10 19.75V18.25C5.44546 18.25 1.75 14.5545 1.75 10H0.25ZM10 19.75C15.383 19.75 19.75 15.383 19.75 10H18.25C18.25 14.5545 14.5545 18.25 10 18.25V19.75ZM13.9257 5.76761L7.62572 13.2676L8.77428 14.2324L15.0743 6.73239L13.9257 5.76761ZM8.75747 13.2483L6.05747 10.2483L4.94253 11.2517L7.64253 14.2517L8.75747 13.2483Z" fill="#47B115"/>
</svg>
