<svg width="24" height="24" viewBox="0 0 24 24" fill="none" xmlns="http://www.w3.org/2000/svg">
<path d="M20.0644 6.49388C20.3372 6.18215 20.3056 5.70833 19.9939 5.43557C19.6822 5.16281 19.2083 5.19439 18.9356 5.50612L20.0644 6.49388ZM9 18L8.46967 18.5303C8.61645 18.6771 8.8175 18.7565 9.02496 18.7496C9.23242 18.7427 9.42774 18.6501 9.56443 18.4939L9 18ZM5.03033 12.9697C4.73744 12.6768 4.26256 12.6768 3.96967 12.9697C3.67678 13.2626 3.67678 13.7374 3.96967 14.0303L5.03033 12.9697ZM18.9356 5.50612L8.43557 17.5061L9.56443 18.4939L20.0644 6.49388L18.9356 5.50612ZM9.53033 17.4697L5.03033 12.9697L3.96967 14.0303L8.46967 18.5303L9.53033 17.4697Z" fill="#303240"/>
</svg>
