<svg width="32" height="32" viewBox="0 0 32 32" fill="none" xmlns="http://www.w3.org/2000/svg">
<path d="M0 16C0 7.16344 7.16344 0 16 0C24.8366 0 32 7.16344 32 16C32 24.8366 24.8366 32 16 32C7.16344 32 0 24.8366 0 16Z" fill="#B28F6F"/>
<path d="M18.0001 20V20.5C18.0001 21.0304 17.7894 21.5391 17.4143 21.9142C17.0393 22.2893 16.5306 22.5 16.0001 22.5C15.4697 22.5 14.961 22.2893 14.5859 21.9142C14.2108 21.5391 14.0001 21.0304 14.0001 20.5V20M21.3652 18.9822C20.5627 18 19.9961 17.5 19.9961 14.7922C19.9961 12.3125 18.7298 11.4291 17.6877 11C17.5492 10.9431 17.4189 10.8125 17.3767 10.6703C17.1939 10.0481 16.6814 9.5 16.0002 9.5C15.3189 9.5 14.8061 10.0484 14.6252 10.6709C14.583 10.8147 14.4527 10.9431 14.3142 11C13.2708 11.4297 12.0058 12.31 12.0058 14.7922C12.0042 17.5 11.4377 18 10.6352 18.9822C10.3027 19.3891 10.5939 20 11.1755 20H20.828C21.4064 20 21.6958 19.3872 21.3652 18.9822Z" stroke="white" stroke-width="1.5" stroke-linecap="round" stroke-linejoin="round"/>
</svg>
