<svg width="25" height="24" viewBox="0 0 25 24" fill="none" xmlns="http://www.w3.org/2000/svg">
<path d="M16.25 3H17.75C18.3467 3 18.919 3.23705 19.341 3.65901C19.7629 4.08097 20 4.65326 20 5.25V20.25C20 20.8467 19.7629 21.419 19.341 21.841C18.919 22.2629 18.3467 22.5 17.75 22.5H7.25C6.65326 22.5 6.08097 22.2629 5.65901 21.841C5.23705 21.419 5 20.8467 5 20.25V5.25C5 4.65326 5.23705 4.08097 5.65901 3.65901C6.08097 3.23705 6.65326 3 7.25 3H8.75" stroke="#303240" stroke-width="1.5" stroke-linejoin="round"/>
<path d="M15.0252 1.5H9.97484C9.29838 1.5 8.75 2.04838 8.75 2.72484V3.27516C8.75 3.95162 9.29838 4.5 9.97484 4.5H15.0252C15.7016 4.5 16.25 3.95162 16.25 3.27516V2.72484C16.25 2.04838 15.7016 1.5 15.0252 1.5Z" stroke="black" stroke-width="1.5" stroke-linejoin="round"/>
</svg>
