<svg width="24" height="24" viewBox="0 0 24 24" fill="none" xmlns="http://www.w3.org/2000/svg">
<path d="M18.5127 7.76923L19.1111 7.3171C18.9694 7.1295 18.7478 7.01923 18.5127 7.01923V7.76923ZM22 12.3846H22.75C22.75 12.2214 22.6968 12.0627 22.5984 11.9325L22 12.3846ZM22 17V17.75C22.4142 17.75 22.75 17.4142 22.75 17H22ZM12.8459 16.25C12.4317 16.25 12.0959 16.5858 12.0959 17C12.0959 17.4142 12.4317 17.75 12.8459 17.75V16.25ZM14.5895 11.6346C14.1753 11.6346 13.8395 11.9704 13.8395 12.3846C13.8395 12.7988 14.1753 13.1346 14.5895 13.1346V11.6346ZM7.61495 8.51923C8.02916 8.51923 8.36495 8.18344 8.36495 7.76923C8.36495 7.35502 8.02916 7.01923 7.61495 7.01923V8.51923ZM2.4878 7.01923C2.07359 7.01923 1.7378 7.35502 1.7378 7.76923C1.7378 8.18344 2.07359 8.51923 2.4878 8.51923V7.01923ZM6.74312 11.2885C7.15734 11.2885 7.49312 10.9527 7.49312 10.5385C7.49312 10.1242 7.15734 9.78846 6.74312 9.78846V11.2885ZM2 9.78846C1.58579 9.78846 1.25 10.1242 1.25 10.5385C1.25 10.9527 1.58579 11.2885 2 11.2885V9.78846ZM4.12766 5.75H13.7177V4.25H4.12766V5.75ZM13.8395 5.92308V16.0769H15.3395V5.92308H13.8395ZM4.00584 16.0769V5.92308H2.50584V16.0769H4.00584ZM5.5 16.25H4.12766V17.75H5.5V16.25ZM2.50584 16.0769C2.50584 16.96 3.19216 17.75 4.12766 17.75V16.25C4.10833 16.25 4.08322 16.243 4.05644 16.2147C4.02896 16.1856 4.00584 16.1386 4.00584 16.0769H2.50584ZM13.8395 16.0769C13.8395 16.1386 13.8164 16.1856 13.7889 16.2147C13.7621 16.243 13.737 16.25 13.7177 16.25V17.75C14.6532 17.75 15.3395 16.96 15.3395 16.0769H13.8395ZM13.7177 5.75C13.737 5.75 13.7621 5.75698 13.7889 5.78534C13.8164 5.81444 13.8395 5.86143 13.8395 5.92308H15.3395C15.3395 5.04001 14.6532 4.25 13.7177 4.25V5.75ZM4.12766 4.25C3.19216 4.25 2.50584 5.04001 2.50584 5.92308H4.00584C4.00584 5.86143 4.02896 5.81444 4.05644 5.78534C4.08322 5.75698 4.10833 5.75 4.12766 5.75V4.25ZM15.0254 8.51923H18.5127V7.01923H15.0254V8.51923ZM17.9143 8.22136L21.4016 12.8367L22.5984 11.9325L19.1111 7.3171L17.9143 8.22136ZM21.25 12.3846V17H22.75V12.3846H21.25ZM15.5 16.25H12.8459V17.75H15.5V16.25ZM22 16.25H19V17.75H22V16.25ZM22 11.6346H14.5895V13.1346H22V11.6346ZM7.61495 7.01923H2.4878V8.51923H7.61495V7.01923ZM6.74312 9.78846H2V11.2885H6.74312V9.78846ZM13.7177 16.25H11.5381V17.75H13.7177V16.25ZM11.5381 16.25H9.5V17.75H11.5381V16.25Z" fill="#8F91A8"/>
<path d="M9.25 16.5C9.25 17.4665 8.4665 18.25 7.5 18.25C6.5335 18.25 5.75 17.4665 5.75 16.5C5.75 15.5335 6.5335 14.75 7.5 14.75C8.4665 14.75 9.25 15.5335 9.25 16.5ZM19.25 16.5C19.25 17.4665 18.4665 18.25 17.5 18.25C16.5335 18.25 15.75 17.4665 15.75 16.5C15.75 15.5335 16.5335 14.75 17.5 14.75C18.4665 14.75 19.25 15.5335 19.25 16.5Z" stroke="#8F91A8" stroke-width="1.5"/>
</svg>
