<svg width="24" height="24" viewBox="0 0 24 24" fill="none" xmlns="http://www.w3.org/2000/svg">
<path d="M9 15.75L9 17.625C9 18.1223 9.19754 18.5992 9.54917 18.9508C9.90081 19.3025 10.3777 19.5 10.875 19.5L18.375 19.5C18.8723 19.5 19.3492 19.3025 19.7008 18.9508C20.0525 18.5992 20.25 18.1223 20.25 17.625L20.25 6.375C20.25 5.87772 20.0525 5.40081 19.7008 5.04918C19.3492 4.69754 18.8723 4.5 18.375 4.5L11.25 4.5C10.2145 4.5 9 5.33953 9 6.375L9 8.25" stroke="#9E9B98" stroke-width="1.5" stroke-linecap="round" stroke-linejoin="round"/>
<path d="M13.5 8.25L17.25 12L13.5 15.75" stroke="#9E9B98" stroke-width="1.5" stroke-linecap="round" stroke-linejoin="round"/>
<path d="M3.75 12L16.5 12" stroke="#9E9B98" stroke-width="1.5" stroke-linecap="round" stroke-linejoin="round"/>
</svg>
