<svg width="24" height="24" viewBox="0 0 24 24" fill="none" xmlns="http://www.w3.org/2000/svg">
<path d="M1.65932 4.08375L9.56479 13.2919C9.683 13.4276 9.74869 13.6012 9.74995 13.7813V19.3744C9.74918 19.4527 9.7732 19.5293 9.81858 19.5932C9.86395 19.6571 9.92836 19.7051 10.0026 19.7302L13.7596 20.9803C13.8158 20.9991 13.8756 21.0042 13.9341 20.9953C13.9927 20.9863 14.0482 20.9635 14.0962 20.9287C14.1441 20.894 14.1831 20.8483 14.2098 20.7955C14.2366 20.7427 14.2503 20.6842 14.2499 20.625V13.7813C14.2519 13.6009 14.3184 13.4273 14.4374 13.2919L22.3406 4.08375C22.4223 3.98856 22.475 3.87193 22.4925 3.74769C22.51 3.62345 22.4915 3.4968 22.4392 3.38275C22.3869 3.2687 22.303 3.17203 22.1975 3.10419C22.0919 3.03636 21.9692 3.0002 21.8437 3H2.15854C2.03288 2.99975 1.90978 3.03558 1.80389 3.10324C1.69799 3.1709 1.61375 3.26755 1.56117 3.38168C1.5086 3.49582 1.4899 3.62266 1.5073 3.74711C1.5247 3.87157 1.57746 3.98841 1.65932 4.08375Z" stroke="#8F91A8" stroke-width="1.5" stroke-linecap="round" stroke-linejoin="round"/>
</svg>
