<svg width="32" height="32" viewBox="0 0 32 32" fill="none" xmlns="http://www.w3.org/2000/svg">
<path d="M20.1346 3.36686L11.8646 3.36763C10.8534 3.36802 10.4857 4.19494 10.4869 5.20686L10.4888 6.12802C10.4888 8.13801 11.6719 9.43571 12.5615 10.4638C12.998 10.9688 13.245 11.8995 13.245 12.5711L13.2403 27.0926C13.2396 28.3495 14.2684 29.0968 15.5315 29.0968L16.4676 29.0968C17.7257 29.0965 18.7596 28.3557 18.76 27.0922L18.7611 12.568C18.7611 11.8957 19.0092 10.9699 19.4446 10.4599C20.3296 9.43186 21.5126 8.01878 21.5126 6.1234L21.5126 5.20494C21.513 4.19379 21.1453 3.36686 20.1346 3.36686Z" stroke="white" stroke-width="2.32076" stroke-miterlimit="10"/>
<path d="M16.7677 17.8454C17.1925 17.4206 17.1925 16.7318 16.7677 16.3069C16.3428 15.8821 15.654 15.8821 15.2292 16.3069C14.8044 16.7318 14.8044 17.4206 15.2292 17.8454C15.654 18.2702 16.3428 18.2702 16.7677 17.8454Z" fill="white"/>
<path d="M10.5383 6.66602H21.4614" stroke="white" stroke-width="2.32076" stroke-miterlimit="10" stroke-linecap="round"/>
</svg>
