<svg width="32" height="32" viewBox="0 0 32 32" fill="none" xmlns="http://www.w3.org/2000/svg">
<g clip-path="url(#clip0_2592_22643)">
<path d="M21.8859 5.36304C21.8859 4.65588 21.7365 4.06859 21.4412 3.6182C21.0536 3.02637 20.4262 2.70078 19.6752 2.70078L11.5424 2.70153C10.4733 2.70191 9.33357 3.39924 9.33092 5.36304L9.33092 5.51431C9.33089 5.57053 9.34194 5.62621 9.36344 5.67816C9.38494 5.73012 9.41647 5.77732 9.45623 5.81708C9.49599 5.85683 9.54319 5.88836 9.59514 5.90987C9.64709 5.93137 9.70277 5.94242 9.759 5.94239L21.4563 5.9439C21.5128 5.94413 21.5688 5.93318 21.621 5.91167C21.6732 5.89016 21.7207 5.85853 21.7606 5.81859C21.8006 5.77865 21.8322 5.7312 21.8537 5.67898C21.8752 5.62675 21.8862 5.57079 21.8859 5.51431L21.8859 5.36304ZM11.4948 10.9954L11.5772 11.0899C11.8287 11.3815 12.0412 12.0743 12.0408 12.6033L12.0397 26.8839C12.0393 27.7246 12.3842 28.4733 13.0097 28.9922C13.569 29.4554 14.3287 29.7107 15.1482 29.7103L16.0686 29.7103C17.022 29.7099 17.8377 29.3783 18.394 28.822C18.6473 28.5676 18.8472 28.2651 18.982 27.9324C19.1168 27.5996 19.1838 27.2433 19.179 26.8843L19.1805 12.6033C19.1805 12.0686 19.39 11.3879 19.6457 11.0892C20.2568 10.3782 21.1693 9.31749 21.6174 7.93379C21.6276 7.9018 21.6301 7.86785 21.6247 7.83472C21.6193 7.80157 21.6062 7.77016 21.5864 7.74303C21.5667 7.7159 21.5408 7.6938 21.5109 7.67852C21.481 7.66324 21.4479 7.65521 21.4144 7.65509L9.78471 7.65546C9.75099 7.65543 9.71773 7.66338 9.68766 7.67865C9.65759 7.69392 9.63156 7.71608 9.61169 7.74333C9.59181 7.77057 9.57866 7.80214 9.57331 7.83543C9.56796 7.86873 9.57055 7.90282 9.58088 7.93493C9.99195 9.26266 10.8322 10.2315 11.4948 10.9954ZM16.6711 16.9242C16.6936 17.144 16.6476 17.3653 16.5393 17.5578C16.431 17.7503 16.2658 17.9045 16.0663 17.9994C15.8668 18.0942 15.6429 18.125 15.4252 18.0874C15.2076 18.0499 15.0069 17.9459 14.8507 17.7897C14.6945 17.6335 14.5905 17.4328 14.553 17.2152C14.5155 16.9975 14.5462 16.7736 14.6411 16.5741C14.7359 16.3746 14.8902 16.2094 15.0827 16.1011C15.2752 15.9929 15.4965 15.9468 15.7162 15.9694C15.9609 15.9945 16.1894 16.1031 16.3634 16.2771C16.5373 16.451 16.646 16.6795 16.6711 16.9242Z" fill="#151111"/>
</g>
<defs>
<clipPath id="clip0_2592_22643">
<rect width="32" height="32" fill="white"/>
</clipPath>
</defs>
</svg>
