<svg width="32" height="32" viewBox="0 0 32 32" fill="none" xmlns="http://www.w3.org/2000/svg">
<path d="M0 16C0 7.16344 7.16344 0 16 0C24.8366 0 32 7.16344 32 16C32 24.8366 24.8366 32 16 32C7.16344 32 0 24.8366 0 16Z" fill="#A63B0D"/>
<path d="M20.3126 22.9844H20.3126C20.3895 22.9842 20.4652 22.9658 20.5335 22.9306C20.6018 22.8955 20.6608 22.8445 20.7055 22.7821C20.7503 22.7196 20.7795 22.6474 20.7908 22.5714C20.8022 22.4954 20.7952 22.4178 20.7707 22.345L19.2041 17.7034L19.2003 17.6922L19.2101 17.6855L23.2741 14.9012C23.3595 14.8427 23.4239 14.7584 23.4579 14.6607C23.4919 14.563 23.4937 14.457 23.4631 14.3582C23.4324 14.2593 23.371 14.1729 23.2877 14.1116C23.2044 14.0502 23.1036 14.0171 23.0002 14.0172H17.9883H17.9769L17.9734 14.0064L16.4609 9.35013L16.4609 9.35012C16.4293 9.25277 16.3678 9.16791 16.285 9.10773C16.2022 9.04755 16.1025 9.01514 16.0002 9.01514C15.8978 9.01514 15.7981 9.04755 15.7153 9.10773C15.6325 9.16791 15.571 9.25277 15.5394 9.35012L15.5394 9.35013L14.0269 14.0048L14.0234 14.0156H14.012H9.00019C8.89686 14.0159 8.79633 14.0492 8.71328 14.1107C8.63023 14.1721 8.56901 14.2586 8.53858 14.3573C8.50814 14.4561 8.51008 14.562 8.54411 14.6595C8.57815 14.7571 8.64248 14.8412 8.72773 14.8996L8.72774 14.8996L12.7902 17.6855L12.8 17.6922L12.7962 17.7034L11.2287 22.3462L11.2287 22.3462C11.1958 22.4436 11.1946 22.5489 11.2255 22.6469C11.2563 22.7449 11.3176 22.8306 11.4003 22.8915C11.483 22.9524 11.583 22.9855 11.6858 22.9859C11.7885 22.9862 11.8887 22.9539 11.9719 22.8936L15.991 19.9798L16.0002 19.9732L16.0093 19.9798L20.0283 22.8935L20.3126 22.9844ZM20.3126 22.9844C20.2107 22.9848 20.1112 22.953 20.0284 22.8936L20.3126 22.9844Z" fill="white" stroke="white" stroke-width="0.03125"/>
</svg>
