<svg width="62" height="24" viewBox="0 0 62 24" fill="none" xmlns="http://www.w3.org/2000/svg">
<path d="M28.9649 11.6725V18.7485H26.7192V1.27484H32.6725C34.1812 1.27484 35.4678 1.77777 36.5204 2.78362C37.5964 3.78947 38.1344 5.01754 38.1344 6.46783C38.1344 7.95321 37.5964 9.18128 36.5204 10.1754C35.4795 11.1696 34.1929 11.6608 32.6725 11.6608H28.9649V11.6725ZM28.9649 3.42689V9.52046H32.7192C33.6081 9.52046 34.3567 9.21637 34.9415 8.61988C35.538 8.02338 35.842 7.29824 35.842 6.47952C35.842 5.6725 35.538 4.95906 34.9415 4.36256C34.3567 3.74268 33.6198 3.43858 32.7192 3.43858H28.9649V3.42689Z" fill="#3C4043"/>
<path d="M44.0059 6.39764C45.6668 6.39764 46.9767 6.84209 47.9358 7.73098C48.8948 8.61987 49.3744 9.83624 49.3744 11.3801V18.7485H47.234V17.0877H47.1404C46.2165 18.4561 44.9767 19.1345 43.4328 19.1345C42.1112 19.1345 41.0118 18.7485 40.1229 17.9649C39.234 17.1813 38.7896 16.2105 38.7896 15.0409C38.7896 13.8012 39.2574 12.8187 40.1931 12.0936C41.1287 11.3567 42.3802 10.9941 43.9358 10.9941C45.2691 10.9941 46.3685 11.2398 47.2223 11.731V11.2164C47.2223 10.4327 46.9182 9.77776 46.2983 9.22805C45.6784 8.67834 44.9533 8.40934 44.1229 8.40934C42.8714 8.40934 41.8773 8.93566 41.1521 9.99998L39.1755 8.76022C40.2632 7.18127 41.8773 6.39764 44.0059 6.39764ZM41.1053 15.076C41.1053 15.6608 41.351 16.152 41.8539 16.538C42.3451 16.924 42.9299 17.1228 43.5966 17.1228C44.5439 17.1228 45.386 16.7719 46.1229 16.0702C46.8597 15.3684 47.234 14.5497 47.234 13.6023C46.5322 13.0526 45.5615 12.7719 44.31 12.7719C43.3977 12.7719 42.6375 12.9941 42.0293 13.4269C41.4094 13.883 41.1053 14.4327 41.1053 15.076Z" fill="#3C4043"/>
<path d="M61.5851 6.78363L54.0997 24H51.7839L54.5675 17.9766L49.6318 6.78363H52.0763L55.6318 15.3684H55.6786L59.1406 6.78363H61.5851Z" fill="#3C4043"/>
<path d="M20.0326 10.2456C20.0326 9.51343 19.9671 8.81284 19.8455 8.13916H10.4326V11.9988L15.8537 12C15.6338 13.2842 14.9262 14.3789 13.842 15.1088V17.6128H17.0689C18.9531 15.869 20.0326 13.2912 20.0326 10.2456Z" fill="#4285F4"/>
<path d="M13.8435 15.1088C12.9453 15.7146 11.7886 16.069 10.4353 16.069C7.82131 16.069 5.60376 14.3076 4.80961 11.9333H1.48096V14.5158C3.13008 17.7883 6.51956 20.0339 10.4353 20.0339C13.1418 20.0339 15.4155 19.1438 17.0704 17.6117L13.8435 15.1088Z" fill="#34A853"/>
<path d="M4.49574 10.0175C4.49574 9.35088 4.60685 8.70643 4.80919 8.10059V5.51813H1.48053C0.798663 6.87134 0.415039 8.39883 0.415039 10.0175C0.415039 11.6363 0.799833 13.1637 1.48053 14.517L4.80919 11.9345C4.60685 11.3287 4.49574 10.6842 4.49574 10.0175Z" fill="#FABB05"/>
<path d="M10.4353 3.96491C11.9125 3.96491 13.2353 4.47369 14.2798 5.46784L17.1394 2.61053C15.4026 0.992984 13.1383 0 10.4353 0C6.52072 0 3.13008 2.24561 1.48096 5.51813L4.80961 8.10059C5.60376 5.72632 7.82131 3.96491 10.4353 3.96491Z" fill="#E94235"/>
</svg>
