<svg width="24" height="24" viewBox="0 0 24 24" fill="none" xmlns="http://www.w3.org/2000/svg">
<path d="M12 8V12L15 15" stroke="#9E9B98" stroke-width="1.5" stroke-linecap="round" stroke-linejoin="round"/>
<path d="M9.9243 20.6773C9.04805 20.4777 8.20637 20.1488 7.42688 19.7015M13.9524 3C15.9545 3.45726 17.7421 4.58072 19.0224 6.18643C20.3028 7.79215 21 9.78498 21 11.8387C21 13.8923 20.3028 15.8852 19.0224 17.4909C17.7421 19.0966 15.9545 20.2201 13.9524 20.6773M4.46522 16.9674C3.91649 16.169 3.49932 15.2877 3.2296 14.3572M3 10.3281C3.16112 9.37145 3.47129 8.46512 3.90632 7.63433L4.07651 7.32719M6.80957 4.36553C7.75235 3.71789 8.8092 3.25456 9.9243 3" stroke="#9E9B98" stroke-width="1.5" stroke-linecap="round" stroke-linejoin="round"/>
</svg>
