<svg width="24" height="24" viewBox="0 0 24 24" fill="none" xmlns="http://www.w3.org/2000/svg">
<path d="M12.2444 4.76446L12.2444 4.76445C12.179 4.70186 12.0919 4.66693 12.0014 4.66693C11.9109 4.66693 11.8238 4.70186 11.7584 4.76445L11.7584 4.76446L3.12869 13.0084L3.12868 13.0084M12.2444 4.76446L2.99671 13.2628C2.99665 13.2121 3.00688 13.1619 3.02678 13.1153C3.04668 13.0686 3.07584 13.0265 3.11249 12.9914L3.12868 13.0084M12.2444 4.76446L20.8708 13.0084C20.9052 13.0412 20.9325 13.0807 20.9512 13.1245C20.9698 13.1682 20.9794 13.2153 20.9794 13.2628V21C20.9794 21.3916 20.8238 21.7672 20.5469 22.0441C20.27 22.321 19.8944 22.4766 19.5028 22.4766H15C14.8073 22.4766 14.6225 22.4 14.4862 22.2638C14.35 22.1275 14.2734 21.9427 14.2734 21.75V15.375C14.2734 15.2693 14.2314 15.168 14.1567 15.0933C14.082 15.0186 13.9807 14.9766 13.875 14.9766H10.125C10.0193 14.9766 9.91797 15.0186 9.84325 15.0933C9.76853 15.168 9.72655 15.2693 9.72655 15.375V21.75C9.72655 21.9427 9.65 22.1275 9.51374 22.2638C9.37749 22.4 9.19268 22.4766 8.99999 22.4766H4.4953C4.10369 22.4766 3.72812 22.321 3.45121 22.0441C3.1743 21.7672 3.01874 21.3916 3.01874 21L3.02014 13.2628L3.02014 13.2628C3.02009 13.2153 3.02968 13.1682 3.04834 13.1245C3.06699 13.0807 3.09432 13.0412 3.12868 13.0084M12.2444 4.76446L3.12868 13.0084" fill="white" stroke="white" stroke-width="0.046875"/>
<path d="M23.0114 11.4445L19.5052 8.09016V3C19.5052 2.80109 19.4262 2.61032 19.2855 2.46967C19.1449 2.32902 18.9541 2.25 18.7552 2.25H16.5052C16.3063 2.25 16.1155 2.32902 15.9748 2.46967C15.8342 2.61032 15.7552 2.80109 15.7552 3V4.5L13.0402 1.90406C12.7861 1.64719 12.4083 1.5 12 1.5C11.5931 1.5 11.2163 1.64719 10.9622 1.90453L0.991893 11.4436C0.70033 11.7248 0.663768 12.1875 0.92908 12.4922C0.995704 12.5691 1.07728 12.6316 1.16885 12.676C1.26041 12.7204 1.36005 12.7457 1.46169 12.7503C1.56334 12.755 1.66487 12.7389 1.7601 12.7031C1.85533 12.6672 1.94228 12.6124 2.01564 12.5419L11.7422 3.2475C11.812 3.18074 11.9048 3.14348 12.0014 3.14348C12.098 3.14348 12.1909 3.18074 12.2606 3.2475L21.9881 12.5419C22.1314 12.6793 22.3234 12.7543 22.5219 12.7504C22.7204 12.7465 22.9092 12.6641 23.047 12.5212C23.3349 12.2231 23.311 11.7309 23.0114 11.4445Z" fill="white"/>
</svg>
