<svg width="18" height="27" viewBox="0 0 18 27" fill="none" xmlns="http://www.w3.org/2000/svg">
<mask id="path-1-outside-1_10780_38240" maskUnits="userSpaceOnUse" x="-0.800049" y="-0.799805" width="19" height="28" fill="black">
<rect fill="white" x="-0.800049" y="-0.799805" width="19" height="28"/>
<path fill-rule="evenodd" clip-rule="evenodd" d="M2.98496 2.10066C3.30801 1.99811 5.41518 2.06376 5.8983 2.06466L11.1199 2.06556L13.2341 2.05633C13.4529 2.05512 14.1636 2.03735 14.342 2.08131C14.86 2.19988 15.0807 2.60049 15.0805 3.09221C15.0803 4.07638 15.0712 5.06053 15.0695 6.04478L15.0686 12.1194L15.0741 14.7022C15.0788 15.2105 15.0813 15.7252 15.0828 16.2285C15.0847 16.8539 14.6845 17.2831 14.0379 17.2666C13.502 17.2631 12.9733 17.2579 12.4423 17.2524C11.6723 17.2468 10.9021 17.245 10.132 17.247L5.88038 17.2484C5.40607 17.2492 4.93147 17.2526 4.45714 17.2587C3.60017 17.2682 2.33229 17.4943 2.31744 16.2631C2.30851 15.5227 2.31734 14.7809 2.31859 14.0404L2.31951 5.31947C2.31919 4.84037 2.26394 2.95935 2.38268 2.65877C2.47908 2.41728 2.67156 2.2246 2.91582 2.12474C2.93986 2.1151 2.96007 2.10686 2.98496 2.10066ZM5.76301 2.58743C4.92829 2.58781 4.04739 2.5747 3.2149 2.59059C2.91395 2.67457 2.86676 2.88107 2.86506 3.15432C2.85924 4.08091 2.85485 5.00784 2.85219 5.93451L2.85012 11.7343L2.85839 14.8553C2.85966 15.229 2.8402 16.1261 2.88251 16.4652C2.95071 16.562 3.04718 16.7008 3.17217 16.7146C3.44174 16.7439 3.76979 16.7355 4.04229 16.7375L5.96492 16.7476C8.69182 16.7579 11.4189 16.7515 14.1456 16.7285C14.3475 16.7108 14.4102 16.6024 14.5196 16.4528C14.5395 16.1415 14.532 15.7678 14.5322 15.4521L14.5315 4.9531L14.5327 3.69127C14.5327 3.43722 14.5396 3.10349 14.5168 2.85456C14.4231 2.73603 14.3504 2.61521 14.1932 2.60454C13.8117 2.5787 13.3983 2.5882 13.0155 2.58788L5.76301 2.58743Z"/>
<path fill-rule="evenodd" clip-rule="evenodd" d="M8.88564 4.96695C9.86117 4.96486 10.6372 4.87327 11.4558 5.50548C12.0122 5.9301 12.3796 6.58818 12.4506 7.27522C12.473 7.49141 12.5295 7.9106 12.2161 7.93843C11.9471 7.96227 11.6717 7.95339 11.4018 7.95283L9.9664 7.95126L6.88193 7.95261C6.36327 7.95266 5.83767 7.95619 5.31902 7.94923C5.25154 7.94832 5.09033 7.93076 5.04383 7.88869C4.96998 7.82203 4.93166 7.70231 4.93082 7.60739C4.92473 6.96773 5.16968 6.27139 5.61763 5.80546C6.15879 5.24255 6.72114 5.01127 7.48467 4.96942C7.94651 4.957 8.42211 4.96793 8.88564 4.96695ZM8.27003 5.50525C7.41337 5.50629 6.76698 5.44665 6.08922 6.10094C5.70928 6.46766 5.55411 6.90046 5.48647 7.41025L9.1831 7.4161L10.9645 7.41385C11.2384 7.41342 11.6611 7.42564 11.9161 7.40642C11.8251 6.79643 11.6253 6.30602 11.1055 5.92181C10.5168 5.48664 10.014 5.50676 9.32299 5.5057L8.27003 5.50525Z"/>
<path fill-rule="evenodd" clip-rule="evenodd" d="M11.6509 11.3711C11.7821 11.3707 12.2788 11.3489 12.3733 11.4379C12.4587 11.5183 12.4668 11.6486 12.465 11.7595C12.4509 12.5581 12.1749 13.1459 11.5976 13.6978C11.1283 14.1045 10.457 14.3795 9.83554 14.3525C8.97731 14.315 7.92265 14.4206 7.09149 14.318C5.97338 14.18 4.97766 13.0655 4.9472 11.9704C4.94026 11.7165 4.86578 11.5513 5.11879 11.3805C5.35027 11.3607 5.74113 11.3725 5.9811 11.3736L7.44087 11.3801C8.84415 11.3846 10.2476 11.3815 11.6509 11.3711ZM11.9052 11.9166C10.4429 11.8957 8.88794 11.8795 7.42938 11.9024L5.49275 11.9119C5.56225 12.5076 5.76096 12.9783 6.25307 13.3632C6.503 13.5581 6.79454 13.6951 7.10619 13.7642C7.44339 13.8377 7.98364 13.8198 8.34384 13.8198C8.89071 13.8208 9.43745 13.8173 9.98415 13.8099C11.0597 13.7033 11.8117 12.9774 11.9052 11.9166Z"/>
<path d="M8.96942 8.49807C9.24727 8.56536 9.367 8.73423 9.57247 8.90609C10.0159 9.27721 10.2826 8.67354 10.6578 8.52586C11.3195 8.26551 11.5837 8.66748 12.0127 9.00343C12.1572 9.01985 12.3295 9.02682 12.4042 9.14851C12.6148 9.49091 12.2101 9.6409 11.9228 9.53753C11.6752 9.44853 11.5972 9.36937 11.4146 9.20032C11.2675 9.05269 11.0586 8.93046 10.8509 9.04087C10.7471 9.09613 10.6191 9.20957 10.5376 9.28586C10.0147 9.77458 9.44259 9.5865 9.00206 9.1231C8.90313 9.01899 8.66282 8.95402 8.52483 9.03835C8.1286 9.32205 7.86378 9.70651 7.29506 9.53589C7.19765 9.50759 7.01061 9.4247 6.93942 9.35732C6.77809 9.20442 6.47115 8.86378 6.20582 9.02918C5.97008 9.17605 5.73687 9.49563 5.41692 9.5507C5.33642 9.56454 5.24679 9.59905 5.15885 9.57522C5.00784 9.54923 4.90789 9.32107 4.95457 9.19086C5.0102 9.03552 5.25998 9.01865 5.39595 9.00169C5.75869 8.68327 5.90277 8.45326 6.43631 8.4526C7.06862 8.4518 7.23063 9.22529 7.75977 8.97311C8.08666 8.66185 8.46496 8.31142 8.96942 8.49807Z"/>
<path d="M7.75977 8.97311C8.08666 8.66185 8.46496 8.31142 8.96942 8.49807L8.9591 8.53012C8.86237 8.52226 8.64507 8.50285 8.54208 8.51562C8.4171 8.53113 7.83266 9.0167 7.75977 8.97311Z"/>
<path d="M5.12605 10.1755C5.54544 10.1519 6.13597 10.1706 6.56332 10.1721L9.29158 10.1769L11.2867 10.1709C11.5861 10.1702 11.9764 10.1518 12.2671 10.1861C12.5233 10.2164 12.5287 10.5588 12.2755 10.6992C11.948 10.7254 11.328 10.7047 10.9857 10.7028L8.47274 10.6944L6.21816 10.7029C5.88569 10.7042 5.47002 10.7213 5.14313 10.693C4.89822 10.6717 4.86731 10.3329 5.12605 10.1755Z"/>
<path fill-rule="evenodd" clip-rule="evenodd" d="M2.77443 18.3123C3.93445 18.2837 5.23276 18.3208 6.40468 18.3204L7.5911 18.3141C7.8084 18.3125 8.03636 18.3035 8.25196 18.3261C8.42621 18.3443 8.46337 18.497 8.4649 18.6409C8.4742 19.5963 8.44574 20.5523 8.46788 21.5077C8.47296 21.7259 8.49901 21.9078 8.2894 22.0301C8.2118 22.0362 8.13397 22.0401 8.05603 22.0418C7.01335 22.0582 5.92533 22.0359 4.87761 22.0384L3.60665 22.042C3.34972 22.0428 3.09291 22.0457 2.83622 22.0316C2.71977 22.0328 2.61603 21.9558 2.60721 21.8354C2.58533 21.5357 2.59169 21.2215 2.59388 20.9201C2.59985 20.1059 2.58152 19.2888 2.59779 18.4748C2.66226 18.4015 2.69731 18.3741 2.77443 18.3123ZM3.14793 18.8522C3.10975 19.6408 3.12113 20.7138 3.14058 21.5082C3.2683 21.509 3.98694 21.5359 4.02977 21.4738C4.07345 20.6526 4.14964 19.6613 4.1584 18.8513C3.82159 18.8483 3.48474 18.8487 3.14793 18.8522ZM4.7453 18.8538C4.67157 18.9523 4.58943 21.1912 4.58083 21.5098L6.34289 21.5111C6.41798 21.5103 6.42083 21.523 6.47038 21.4877C6.47917 21.2415 6.44296 20.8527 6.42926 20.5902L6.33715 18.8518C5.82324 18.8384 5.26166 18.847 4.7453 18.8538ZM7.91246 18.8563C7.60251 18.8505 7.29257 18.8494 6.98262 18.8533L6.91531 18.8626C6.87954 18.9224 7.01316 21.2448 7.0304 21.5116C7.29569 21.5102 7.57014 21.5053 7.83459 21.5084L7.89431 21.4967C7.93387 21.4303 7.91618 19.1271 7.91246 18.8563Z"/>
<path fill-rule="evenodd" clip-rule="evenodd" d="M3.64972 0.202542L12.3624 0.203892C13.2884 0.203742 14.2212 0.19755 15.1471 0.205467C15.3641 0.207348 15.6091 0.246085 15.8146 0.317314C16.33 0.496111 16.7519 0.868437 16.9873 1.35184C17.2767 1.94628 17.1893 2.83732 17.1818 3.49718L17.1729 5.33512L17.1747 18.6143L17.1883 20.7466C17.1991 22.2522 17.3297 23.0999 15.7423 23.8195L15.7469 23.998C15.7521 24.2128 15.793 24.7958 15.6518 24.8658C15.4675 24.956 14.3679 24.9226 14.1656 24.9227C13.4619 24.926 12.7579 24.9243 12.0541 24.9182C11.8382 24.7642 11.8684 24.6195 11.8692 24.3738C11.8696 24.2137 11.8735 24.0519 11.8745 23.8918L9.52671 23.8864L8.97496 23.892C8.95704 24.4532 8.97136 25.083 8.9722 25.6494C9.6536 25.6649 10.3475 25.6393 11.0294 25.6557C11.149 25.6753 11.2485 25.7842 11.2532 25.9037C11.2607 26.0961 11.1454 26.1769 10.9647 26.1859C10.7038 26.1988 10.4489 26.1936 10.1901 26.1924L8.79717 26.1888L7.25838 26.1911C7.04338 26.1914 6.39784 26.2388 6.22724 26.1143C6.0747 26.0026 6.13741 25.6761 6.39837 25.6604C6.63603 25.6463 6.88551 25.6518 7.13296 25.6528L8.42344 25.6525L8.42298 23.8911C6.98631 23.8563 5.52222 23.8884 4.08249 23.8803C3.36693 23.8599 2.58183 23.9456 1.87434 23.8556C1.25748 23.7768 0.66442 23.2689 0.40515 22.733C0.156986 22.2198 0.207299 21.6616 0.208753 21.1127L0.207375 3.44947C0.20654 2.99796 0.185127 2.51158 0.21909 2.06388C0.295426 1.05927 1.06529 0.347976 2.05213 0.214019C2.18742 0.197203 2.47836 0.200587 2.62547 0.200291L3.64972 0.202542ZM14.5853 20.4484C14.4012 20.4097 13.9091 20.4221 13.6981 20.4223L12.1846 20.4234C12.2529 20.5523 12.3752 20.7705 12.3943 20.905C12.4513 21.3081 12.4302 21.7952 12.4288 22.2062L12.4263 24.3824C13.3323 24.3897 14.2909 24.3965 15.1956 24.3799L15.1999 22.1607C15.2003 21.8053 15.214 21.3915 15.1758 21.0391C15.1631 20.9218 15.0539 20.7478 14.9682 20.6608C14.8649 20.5545 14.7315 20.4804 14.5853 20.4484ZM4.8033 0.742647C3.97438 0.742727 2.93449 0.715055 2.11875 0.750298C1.67287 0.812185 1.33113 0.99437 1.05613 1.34959C0.88525 1.57043 0.774636 1.88305 0.764408 2.15907C0.74711 2.62934 0.750663 3.11924 0.748788 3.59148L0.741897 6.30438L0.742127 19.7134L0.750855 21.2777C0.753442 21.5081 0.748585 21.9231 0.783014 22.1295C0.850249 22.5181 1.07529 22.8635 1.40666 23.0868C1.60466 23.2231 1.83387 23.31 2.07395 23.3395C2.35615 23.3726 2.87085 23.3589 3.17837 23.3596L5.10421 23.3652L11.8752 23.3589C11.8749 22.8427 11.8872 22.271 11.872 21.7595C11.2388 21.7436 10.6033 21.7714 9.97096 21.7505C9.84556 21.7463 9.73365 21.6318 9.73528 21.5131C9.74914 20.5418 9.67828 19.482 9.7339 18.5189C9.78359 18.4702 9.84069 18.4105 9.89493 18.369L12.9833 18.3692L14.0523 18.3652C14.8758 18.3587 14.8192 18.353 14.8113 19.1917C14.8079 19.4398 14.8066 19.6879 14.8076 19.936C15.1892 20.0865 15.4649 20.2888 15.6336 20.6689C15.6857 20.7883 15.7196 20.9146 15.7345 21.0434C15.7541 21.206 15.7545 21.3706 15.7519 21.534C15.7435 22.0972 15.7519 22.6609 15.743 23.2241C16.7775 22.6769 16.644 21.9644 16.6407 20.9525L16.6377 19.5853L16.642 3.71368C16.6419 3.05878 16.7387 2.13088 16.4645 1.53683C16.3183 1.22001 15.9057 0.890856 15.5544 0.806559C14.9512 0.696685 13.9919 0.743996 13.3552 0.743772L4.8033 0.742647ZM11.8878 21.2156C11.8078 20.669 11.4931 20.3734 10.9141 20.4331C10.4934 20.5578 10.3137 20.7886 10.2684 21.2153C10.5971 21.218 10.9259 21.2187 11.2548 21.2174L11.8878 21.2156ZM14.2572 18.9064C12.9473 18.8964 11.5914 18.891 10.2815 18.9046C10.2766 19.3112 10.2746 19.718 10.2753 20.1248C10.8433 19.8034 11.3362 19.88 11.9715 19.8815C12.6409 19.8853 13.3106 19.8856 13.9802 19.8824L14.2575 19.8799L14.2572 18.9064Z"/>
</mask>
<path fill-rule="evenodd" clip-rule="evenodd" d="M2.98496 2.10066C3.30801 1.99811 5.41518 2.06376 5.8983 2.06466L11.1199 2.06556L13.2341 2.05633C13.4529 2.05512 14.1636 2.03735 14.342 2.08131C14.86 2.19988 15.0807 2.60049 15.0805 3.09221C15.0803 4.07638 15.0712 5.06053 15.0695 6.04478L15.0686 12.1194L15.0741 14.7022C15.0788 15.2105 15.0813 15.7252 15.0828 16.2285C15.0847 16.8539 14.6845 17.2831 14.0379 17.2666C13.502 17.2631 12.9733 17.2579 12.4423 17.2524C11.6723 17.2468 10.9021 17.245 10.132 17.247L5.88038 17.2484C5.40607 17.2492 4.93147 17.2526 4.45714 17.2587C3.60017 17.2682 2.33229 17.4943 2.31744 16.2631C2.30851 15.5227 2.31734 14.7809 2.31859 14.0404L2.31951 5.31947C2.31919 4.84037 2.26394 2.95935 2.38268 2.65877C2.47908 2.41728 2.67156 2.2246 2.91582 2.12474C2.93986 2.1151 2.96007 2.10686 2.98496 2.10066ZM5.76301 2.58743C4.92829 2.58781 4.04739 2.5747 3.2149 2.59059C2.91395 2.67457 2.86676 2.88107 2.86506 3.15432C2.85924 4.08091 2.85485 5.00784 2.85219 5.93451L2.85012 11.7343L2.85839 14.8553C2.85966 15.229 2.8402 16.1261 2.88251 16.4652C2.95071 16.562 3.04718 16.7008 3.17217 16.7146C3.44174 16.7439 3.76979 16.7355 4.04229 16.7375L5.96492 16.7476C8.69182 16.7579 11.4189 16.7515 14.1456 16.7285C14.3475 16.7108 14.4102 16.6024 14.5196 16.4528C14.5395 16.1415 14.532 15.7678 14.5322 15.4521L14.5315 4.9531L14.5327 3.69127C14.5327 3.43722 14.5396 3.10349 14.5168 2.85456C14.4231 2.73603 14.3504 2.61521 14.1932 2.60454C13.8117 2.5787 13.3983 2.5882 13.0155 2.58788L5.76301 2.58743Z" fill="#9E9B98"/>
<path fill-rule="evenodd" clip-rule="evenodd" d="M8.88564 4.96695C9.86117 4.96486 10.6372 4.87327 11.4558 5.50548C12.0122 5.9301 12.3796 6.58818 12.4506 7.27522C12.473 7.49141 12.5295 7.9106 12.2161 7.93843C11.9471 7.96227 11.6717 7.95339 11.4018 7.95283L9.9664 7.95126L6.88193 7.95261C6.36327 7.95266 5.83767 7.95619 5.31902 7.94923C5.25154 7.94832 5.09033 7.93076 5.04383 7.88869C4.96998 7.82203 4.93166 7.70231 4.93082 7.60739C4.92473 6.96773 5.16968 6.27139 5.61763 5.80546C6.15879 5.24255 6.72114 5.01127 7.48467 4.96942C7.94651 4.957 8.42211 4.96793 8.88564 4.96695ZM8.27003 5.50525C7.41337 5.50629 6.76698 5.44665 6.08922 6.10094C5.70928 6.46766 5.55411 6.90046 5.48647 7.41025L9.1831 7.4161L10.9645 7.41385C11.2384 7.41342 11.6611 7.42564 11.9161 7.40642C11.8251 6.79643 11.6253 6.30602 11.1055 5.92181C10.5168 5.48664 10.014 5.50676 9.32299 5.5057L8.27003 5.50525Z" fill="#9E9B98"/>
<path fill-rule="evenodd" clip-rule="evenodd" d="M11.6509 11.3711C11.7821 11.3707 12.2788 11.3489 12.3733 11.4379C12.4587 11.5183 12.4668 11.6486 12.465 11.7595C12.4509 12.5581 12.1749 13.1459 11.5976 13.6978C11.1283 14.1045 10.457 14.3795 9.83554 14.3525C8.97731 14.315 7.92265 14.4206 7.09149 14.318C5.97338 14.18 4.97766 13.0655 4.9472 11.9704C4.94026 11.7165 4.86578 11.5513 5.11879 11.3805C5.35027 11.3607 5.74113 11.3725 5.9811 11.3736L7.44087 11.3801C8.84415 11.3846 10.2476 11.3815 11.6509 11.3711ZM11.9052 11.9166C10.4429 11.8957 8.88794 11.8795 7.42938 11.9024L5.49275 11.9119C5.56225 12.5076 5.76096 12.9783 6.25307 13.3632C6.503 13.5581 6.79454 13.6951 7.10619 13.7642C7.44339 13.8377 7.98364 13.8198 8.34384 13.8198C8.89071 13.8208 9.43745 13.8173 9.98415 13.8099C11.0597 13.7033 11.8117 12.9774 11.9052 11.9166Z" fill="#9E9B98"/>
<path d="M8.96942 8.49807C9.24727 8.56536 9.367 8.73423 9.57247 8.90609C10.0159 9.27721 10.2826 8.67354 10.6578 8.52586C11.3195 8.26551 11.5837 8.66748 12.0127 9.00343C12.1572 9.01985 12.3295 9.02682 12.4042 9.14851C12.6148 9.49091 12.2101 9.6409 11.9228 9.53753C11.6752 9.44853 11.5972 9.36937 11.4146 9.20032C11.2675 9.05269 11.0586 8.93046 10.8509 9.04087C10.7471 9.09613 10.6191 9.20957 10.5376 9.28586C10.0147 9.77458 9.44259 9.5865 9.00206 9.1231C8.90313 9.01899 8.66282 8.95402 8.52483 9.03835C8.1286 9.32205 7.86378 9.70651 7.29506 9.53589C7.19765 9.50759 7.01061 9.4247 6.93942 9.35732C6.77809 9.20442 6.47115 8.86378 6.20582 9.02918C5.97008 9.17605 5.73687 9.49563 5.41692 9.5507C5.33642 9.56454 5.24679 9.59905 5.15885 9.57522C5.00784 9.54923 4.90789 9.32107 4.95457 9.19086C5.0102 9.03552 5.25998 9.01865 5.39595 9.00169C5.75869 8.68327 5.90277 8.45326 6.43631 8.4526C7.06862 8.4518 7.23063 9.22529 7.75977 8.97311C8.08666 8.66185 8.46496 8.31142 8.96942 8.49807Z" fill="#9E9B98"/>
<path d="M7.75977 8.97311C8.08666 8.66185 8.46496 8.31142 8.96942 8.49807L8.9591 8.53012C8.86237 8.52226 8.64507 8.50285 8.54208 8.51562C8.4171 8.53113 7.83266 9.0167 7.75977 8.97311Z" fill="#9E9B98"/>
<path d="M5.12605 10.1755C5.54544 10.1519 6.13597 10.1706 6.56332 10.1721L9.29158 10.1769L11.2867 10.1709C11.5861 10.1702 11.9764 10.1518 12.2671 10.1861C12.5233 10.2164 12.5287 10.5588 12.2755 10.6992C11.948 10.7254 11.328 10.7047 10.9857 10.7028L8.47274 10.6944L6.21816 10.7029C5.88569 10.7042 5.47002 10.7213 5.14313 10.693C4.89822 10.6717 4.86731 10.3329 5.12605 10.1755Z" fill="#9E9B98"/>
<path fill-rule="evenodd" clip-rule="evenodd" d="M2.77443 18.3123C3.93445 18.2837 5.23276 18.3208 6.40468 18.3204L7.5911 18.3141C7.8084 18.3125 8.03636 18.3035 8.25196 18.3261C8.42621 18.3443 8.46337 18.497 8.4649 18.6409C8.4742 19.5963 8.44574 20.5523 8.46788 21.5077C8.47296 21.7259 8.49901 21.9078 8.2894 22.0301C8.2118 22.0362 8.13397 22.0401 8.05603 22.0418C7.01335 22.0582 5.92533 22.0359 4.87761 22.0384L3.60665 22.042C3.34972 22.0428 3.09291 22.0457 2.83622 22.0316C2.71977 22.0328 2.61603 21.9558 2.60721 21.8354C2.58533 21.5357 2.59169 21.2215 2.59388 20.9201C2.59985 20.1059 2.58152 19.2888 2.59779 18.4748C2.66226 18.4015 2.69731 18.3741 2.77443 18.3123ZM3.14793 18.8522C3.10975 19.6408 3.12113 20.7138 3.14058 21.5082C3.2683 21.509 3.98694 21.5359 4.02977 21.4738C4.07345 20.6526 4.14964 19.6613 4.1584 18.8513C3.82159 18.8483 3.48474 18.8487 3.14793 18.8522ZM4.7453 18.8538C4.67157 18.9523 4.58943 21.1912 4.58083 21.5098L6.34289 21.5111C6.41798 21.5103 6.42083 21.523 6.47038 21.4877C6.47917 21.2415 6.44296 20.8527 6.42926 20.5902L6.33715 18.8518C5.82324 18.8384 5.26166 18.847 4.7453 18.8538ZM7.91246 18.8563C7.60251 18.8505 7.29257 18.8494 6.98262 18.8533L6.91531 18.8626C6.87954 18.9224 7.01316 21.2448 7.0304 21.5116C7.29569 21.5102 7.57014 21.5053 7.83459 21.5084L7.89431 21.4967C7.93387 21.4303 7.91618 19.1271 7.91246 18.8563Z" fill="#9E9B98"/>
<path fill-rule="evenodd" clip-rule="evenodd" d="M3.64972 0.202542L12.3624 0.203892C13.2884 0.203742 14.2212 0.19755 15.1471 0.205467C15.3641 0.207348 15.6091 0.246085 15.8146 0.317314C16.33 0.496111 16.7519 0.868437 16.9873 1.35184C17.2767 1.94628 17.1893 2.83732 17.1818 3.49718L17.1729 5.33512L17.1747 18.6143L17.1883 20.7466C17.1991 22.2522 17.3297 23.0999 15.7423 23.8195L15.7469 23.998C15.7521 24.2128 15.793 24.7958 15.6518 24.8658C15.4675 24.956 14.3679 24.9226 14.1656 24.9227C13.4619 24.926 12.7579 24.9243 12.0541 24.9182C11.8382 24.7642 11.8684 24.6195 11.8692 24.3738C11.8696 24.2137 11.8735 24.0519 11.8745 23.8918L9.52671 23.8864L8.97496 23.892C8.95704 24.4532 8.97136 25.083 8.9722 25.6494C9.6536 25.6649 10.3475 25.6393 11.0294 25.6557C11.149 25.6753 11.2485 25.7842 11.2532 25.9037C11.2607 26.0961 11.1454 26.1769 10.9647 26.1859C10.7038 26.1988 10.4489 26.1936 10.1901 26.1924L8.79717 26.1888L7.25838 26.1911C7.04338 26.1914 6.39784 26.2388 6.22724 26.1143C6.0747 26.0026 6.13741 25.6761 6.39837 25.6604C6.63603 25.6463 6.88551 25.6518 7.13296 25.6528L8.42344 25.6525L8.42298 23.8911C6.98631 23.8563 5.52222 23.8884 4.08249 23.8803C3.36693 23.8599 2.58183 23.9456 1.87434 23.8556C1.25748 23.7768 0.66442 23.2689 0.40515 22.733C0.156986 22.2198 0.207299 21.6616 0.208753 21.1127L0.207375 3.44947C0.20654 2.99796 0.185127 2.51158 0.21909 2.06388C0.295426 1.05927 1.06529 0.347976 2.05213 0.214019C2.18742 0.197203 2.47836 0.200587 2.62547 0.200291L3.64972 0.202542ZM14.5853 20.4484C14.4012 20.4097 13.9091 20.4221 13.6981 20.4223L12.1846 20.4234C12.2529 20.5523 12.3752 20.7705 12.3943 20.905C12.4513 21.3081 12.4302 21.7952 12.4288 22.2062L12.4263 24.3824C13.3323 24.3897 14.2909 24.3965 15.1956 24.3799L15.1999 22.1607C15.2003 21.8053 15.214 21.3915 15.1758 21.0391C15.1631 20.9218 15.0539 20.7478 14.9682 20.6608C14.8649 20.5545 14.7315 20.4804 14.5853 20.4484ZM4.8033 0.742647C3.97438 0.742727 2.93449 0.715055 2.11875 0.750298C1.67287 0.812185 1.33113 0.99437 1.05613 1.34959C0.88525 1.57043 0.774636 1.88305 0.764408 2.15907C0.74711 2.62934 0.750663 3.11924 0.748788 3.59148L0.741897 6.30438L0.742127 19.7134L0.750855 21.2777C0.753442 21.5081 0.748585 21.9231 0.783014 22.1295C0.850249 22.5181 1.07529 22.8635 1.40666 23.0868C1.60466 23.2231 1.83387 23.31 2.07395 23.3395C2.35615 23.3726 2.87085 23.3589 3.17837 23.3596L5.10421 23.3652L11.8752 23.3589C11.8749 22.8427 11.8872 22.271 11.872 21.7595C11.2388 21.7436 10.6033 21.7714 9.97096 21.7505C9.84556 21.7463 9.73365 21.6318 9.73528 21.5131C9.74914 20.5418 9.67828 19.482 9.7339 18.5189C9.78359 18.4702 9.84069 18.4105 9.89493 18.369L12.9833 18.3692L14.0523 18.3652C14.8758 18.3587 14.8192 18.353 14.8113 19.1917C14.8079 19.4398 14.8066 19.6879 14.8076 19.936C15.1892 20.0865 15.4649 20.2888 15.6336 20.6689C15.6857 20.7883 15.7196 20.9146 15.7345 21.0434C15.7541 21.206 15.7545 21.3706 15.7519 21.534C15.7435 22.0972 15.7519 22.6609 15.743 23.2241C16.7775 22.6769 16.644 21.9644 16.6407 20.9525L16.6377 19.5853L16.642 3.71368C16.6419 3.05878 16.7387 2.13088 16.4645 1.53683C16.3183 1.22001 15.9057 0.890856 15.5544 0.806559C14.9512 0.696685 13.9919 0.743996 13.3552 0.743772L4.8033 0.742647ZM11.8878 21.2156C11.8078 20.669 11.4931 20.3734 10.9141 20.4331C10.4934 20.5578 10.3137 20.7886 10.2684 21.2153C10.5971 21.218 10.9259 21.2187 11.2548 21.2174L11.8878 21.2156ZM14.2572 18.9064C12.9473 18.8964 11.5914 18.891 10.2815 18.9046C10.2766 19.3112 10.2746 19.718 10.2753 20.1248C10.8433 19.8034 11.3362 19.88 11.9715 19.8815C12.6409 19.8853 13.3106 19.8856 13.9802 19.8824L14.2575 19.8799L14.2572 18.9064Z" fill="#9E9B98"/>
<path d="M7.75977 8.97311L7.82873 9.04553C7.99385 8.88831 8.16026 8.73318 8.34413 8.6376C8.52301 8.54462 8.71416 8.51025 8.93472 8.59186L8.96942 8.49807L9.00412 8.40429C8.72022 8.29924 8.47 8.34676 8.25189 8.46015C8.03877 8.57093 7.85259 8.74665 7.69081 8.90069L7.75977 8.97311ZM2.98496 2.10066L3.03335 2.29514L3.04547 2.29129L2.98496 2.10066ZM5.8983 2.06466L5.89793 2.26466L5.89827 2.26466L5.8983 2.06466ZM11.1199 2.06556L11.1199 2.26556L11.1208 2.26556L11.1199 2.06556ZM13.2341 2.05633L13.235 2.25633L13.2352 2.25633L13.2341 2.05633ZM14.342 2.08131L14.2941 2.27553L14.2974 2.27627L14.342 2.08131ZM15.0805 3.09221L14.8805 3.09214L14.8805 3.09217L15.0805 3.09221ZM15.0695 6.04478L14.8695 6.04444L14.8695 6.04475L15.0695 6.04478ZM15.0686 12.1194L14.8686 12.1194L14.8686 12.1198L15.0686 12.1194ZM15.0741 14.7022L14.8741 14.7026L14.8741 14.7041L15.0741 14.7022ZM15.0828 16.2285L15.2828 16.2279L15.2828 16.2279L15.0828 16.2285ZM14.0379 17.2666L14.043 17.0666L14.0392 17.0666L14.0379 17.2666ZM12.4423 17.2524L12.4444 17.0524L12.4438 17.0524L12.4423 17.2524ZM10.132 17.247L10.132 17.447L10.1325 17.447L10.132 17.247ZM5.88038 17.2484L5.88032 17.0484L5.88004 17.0484L5.88038 17.2484ZM4.45714 17.2587L4.45934 17.4587L4.45972 17.4587L4.45714 17.2587ZM2.31744 16.2631L2.11745 16.2655L2.11745 16.2655L2.31744 16.2631ZM2.31859 14.0404L2.51859 14.0407L2.51859 14.0404L2.31859 14.0404ZM2.31951 5.31947L2.51951 5.31949L2.51951 5.31933L2.31951 5.31947ZM2.38268 2.65877L2.19693 2.58462L2.19666 2.58529L2.38268 2.65877ZM2.91582 2.12474L2.84136 1.93912L2.84014 1.93962L2.91582 2.12474ZM5.76301 2.58743L5.76302 2.38743L5.76291 2.38743L5.76301 2.58743ZM3.2149 2.59059L3.21108 2.39062L3.18564 2.39111L3.16114 2.39795L3.2149 2.59059ZM2.86506 3.15432L3.06505 3.15558L3.06505 3.15557L2.86506 3.15432ZM2.85219 5.93451L2.65219 5.93394L2.65219 5.93444L2.85219 5.93451ZM2.85012 11.7343L2.65012 11.7343L2.65013 11.7349L2.85012 11.7343ZM2.85839 14.8553L2.65839 14.8558L2.6584 14.8559L2.85839 14.8553ZM2.88251 16.4652L2.68405 16.49L2.69024 16.5396L2.71904 16.5804L2.88251 16.4652ZM3.17217 16.7146L3.1503 16.9134L3.15054 16.9134L3.17217 16.7146ZM4.04229 16.7375L4.04083 16.9375L4.04124 16.9375L4.04229 16.7375ZM5.96492 16.7476L5.96386 16.9476L5.96416 16.9476L5.96492 16.7476ZM14.1456 16.7285L14.1473 16.9285L14.1552 16.9284L14.1631 16.9277L14.1456 16.7285ZM14.5196 16.4528L14.681 16.5709L14.7154 16.5238L14.7192 16.4656L14.5196 16.4528ZM14.5322 15.4521L14.7322 15.4522L14.7322 15.4521L14.5322 15.4521ZM14.5315 4.9531L14.3315 4.95291L14.3315 4.95311L14.5315 4.9531ZM14.5327 3.69127L14.7327 3.69146V3.69127H14.5327ZM14.5168 2.85456L14.716 2.8363L14.7105 2.77714L14.6737 2.73054L14.5168 2.85456ZM14.1932 2.60454L14.2067 2.405L14.2067 2.405L14.1932 2.60454ZM13.0155 2.58788L13.0156 2.38788L13.0155 2.38788L13.0155 2.58788ZM8.88564 4.96695L8.88606 5.16695L8.88607 5.16695L8.88564 4.96695ZM11.4558 5.50548L11.3336 5.66377L11.3345 5.66447L11.4558 5.50548ZM12.4506 7.27522L12.6496 7.25468L12.6496 7.25466L12.4506 7.27522ZM12.2161 7.93843L12.2338 8.13765L12.2338 8.13764L12.2161 7.93843ZM11.4018 7.95283L11.4022 7.75283L11.402 7.75283L11.4018 7.95283ZM9.9664 7.95126L9.96662 7.75126L9.96631 7.75126L9.9664 7.95126ZM6.88193 7.95261L6.88194 8.15261L6.88201 8.15261L6.88193 7.95261ZM5.31902 7.94923L5.31631 8.14921L5.31633 8.14921L5.31902 7.94923ZM5.04383 7.88869L5.178 7.74037L5.17784 7.74023L5.04383 7.88869ZM4.93082 7.60739L5.13081 7.60561L5.13081 7.60549L4.93082 7.60739ZM5.61763 5.80546L5.76181 5.94408L5.76181 5.94407L5.61763 5.80546ZM7.48467 4.96942L7.47929 4.76942L7.47372 4.76972L7.48467 4.96942ZM8.27003 5.50525L8.27011 5.30525L8.26979 5.30525L8.27003 5.50525ZM6.08922 6.10094L6.22811 6.24485L6.22812 6.24484L6.08922 6.10094ZM5.48647 7.41025L5.28821 7.38394L5.25823 7.60989L5.48615 7.61025L5.48647 7.41025ZM9.1831 7.4161L9.18279 7.6161L9.18336 7.6161L9.1831 7.4161ZM10.9645 7.41385L10.9647 7.61385L10.9648 7.61385L10.9645 7.41385ZM11.9161 7.40642L11.9312 7.60586L12.1457 7.58969L12.1139 7.37692L11.9161 7.40642ZM11.1055 5.92181L10.9866 6.08264L10.9866 6.08264L11.1055 5.92181ZM9.32299 5.5057L9.3233 5.3057L9.32308 5.3057L9.32299 5.5057ZM11.6509 11.3711L11.6503 11.1711L11.6494 11.1711L11.6509 11.3711ZM12.3733 11.4379L12.2362 11.5835L12.2362 11.5835L12.3733 11.4379ZM12.465 11.7595L12.6649 11.763L12.6649 11.7628L12.465 11.7595ZM11.5976 13.6978L11.7287 13.8491L11.7358 13.8424L11.5976 13.6978ZM9.83554 14.3525L9.82682 14.5523L9.82685 14.5523L9.83554 14.3525ZM7.09149 14.318L7.06698 14.5165L7.067 14.5165L7.09149 14.318ZM4.9472 11.9704L4.74727 11.9758L4.74727 11.9759L4.9472 11.9704ZM5.11879 11.3805L5.10175 11.1813L5.04996 11.1857L5.00688 11.2148L5.11879 11.3805ZM5.9811 11.3736L5.9802 11.5736L5.9802 11.5736L5.9811 11.3736ZM7.44087 11.3801L7.43997 11.5801L7.44023 11.5801L7.44087 11.3801ZM11.9052 11.9166L12.1044 11.9341L12.1233 11.7197L11.908 11.7166L11.9052 11.9166ZM7.42938 11.9024L7.43036 12.1024L7.43252 12.1024L7.42938 11.9024ZM5.49275 11.9119L5.49177 11.7119L5.26818 11.713L5.29409 11.935L5.49275 11.9119ZM6.25307 13.3632L6.12986 13.5207L6.13005 13.5209L6.25307 13.3632ZM7.10619 13.7642L7.06291 13.9595L7.06356 13.9596L7.10619 13.7642ZM8.34384 13.8198L8.3442 13.6198L8.34383 13.6198L8.34384 13.8198ZM9.98415 13.8099L9.98688 14.0099L9.9954 14.0097L10.0039 14.0089L9.98415 13.8099ZM8.96942 8.49807L9.01649 8.30369L8.83597 8.25998L8.77905 8.43678L8.96942 8.49807ZM9.57247 8.90609L9.70084 8.75272L9.70079 8.75268L9.57247 8.90609ZM10.6578 8.52586L10.5846 8.33974L10.5846 8.33975L10.6578 8.52586ZM12.0127 9.00343L11.8894 9.1609L11.934 9.19576L11.9901 9.20215L12.0127 9.00343ZM12.4042 9.14851L12.2338 9.25319L12.2339 9.25328L12.4042 9.14851ZM11.9228 9.53753L11.9905 9.34934L11.9904 9.34932L11.9228 9.53753ZM11.4146 9.20032L11.2728 9.34161L11.2787 9.3471L11.4146 9.20032ZM10.8509 9.04087L10.7571 8.86428L10.757 8.86431L10.8509 9.04087ZM10.5376 9.28586L10.6741 9.43198L10.6743 9.43188L10.5376 9.28586ZM9.00206 9.1231L8.85707 9.26087L8.8571 9.2609L9.00206 9.1231ZM8.52483 9.03835L8.42054 8.8677L8.41432 8.8715L8.4084 8.87574L8.52483 9.03835ZM7.29506 9.53589L7.35253 9.34432L7.35085 9.34383L7.29506 9.53589ZM6.93942 9.35732L6.80184 9.50248L6.80194 9.50258L6.93942 9.35732ZM6.20582 9.02918L6.31158 9.19892L6.31161 9.1989L6.20582 9.02918ZM5.41692 9.5507L5.45079 9.74781L5.45084 9.7478L5.41692 9.5507ZM5.15885 9.57522L5.21115 9.38218L5.20206 9.37972L5.19278 9.37812L5.15885 9.57522ZM4.95457 9.19086L5.14284 9.25835L5.14286 9.2583L4.95457 9.19086ZM5.39595 9.00169L5.42071 9.20015L5.4817 9.19254L5.52789 9.15199L5.39595 9.00169ZM6.43631 8.4526L6.43656 8.65259L6.43657 8.65259L6.43631 8.4526ZM7.75977 8.97311L7.86243 8.80146L7.77046 8.74646L7.67373 8.79257L7.75977 8.97311ZM8.9591 8.53012L8.94292 8.72946L9.1009 8.74229L9.14948 8.59141L8.9591 8.53012ZM8.54208 8.51562L8.51746 8.31714L8.51745 8.31714L8.54208 8.51562ZM5.12605 10.1755L5.11484 9.97577L5.06485 9.97858L5.02207 10.0046L5.12605 10.1755ZM6.56332 10.1721L6.56263 10.3721L6.56296 10.3721L6.56332 10.1721ZM9.29158 10.1769L9.29123 10.3769L9.29217 10.3769L9.29158 10.1769ZM11.2867 10.1709L11.2862 9.97094L11.2861 9.97094L11.2867 10.1709ZM12.2671 10.1861L12.2906 9.98753L12.2906 9.98753L12.2671 10.1861ZM12.2755 10.6992L12.2915 10.8986L12.3346 10.8952L12.3725 10.8741L12.2755 10.6992ZM10.9857 10.7028L10.9868 10.5028L10.9864 10.5028L10.9857 10.7028ZM8.47274 10.6944L8.47341 10.4943L8.47198 10.4944L8.47274 10.6944ZM6.21816 10.7029L6.2174 10.5029L6.21737 10.5029L6.21816 10.7029ZM5.14313 10.693L5.12585 10.8922L5.12585 10.8922L5.14313 10.693ZM2.77443 18.3123L2.76949 18.1124L2.70206 18.1141L2.64941 18.1562L2.77443 18.3123ZM6.40468 18.3204L6.40474 18.5204L6.40574 18.5204L6.40468 18.3204ZM7.5911 18.3141L7.59217 18.5141L7.59263 18.5141L7.5911 18.3141ZM8.25196 18.3261L8.27281 18.1272L8.27275 18.1271L8.25196 18.3261ZM8.4649 18.6409L8.66489 18.639L8.66489 18.6388L8.4649 18.6409ZM8.46788 21.5077L8.26794 21.5124L8.26794 21.5124L8.46788 21.5077ZM8.2894 22.0301L8.30515 22.2294L8.35071 22.2258L8.39018 22.2028L8.2894 22.0301ZM8.05603 22.0418L8.05917 22.2417L8.06028 22.2417L8.05603 22.0418ZM4.87761 22.0384L4.87713 21.8384L4.87704 21.8384L4.87761 22.0384ZM3.60665 22.042L3.60608 21.842L3.60601 21.842L3.60665 22.042ZM2.83622 22.0316L2.8472 21.8315L2.83429 21.8316L2.83622 22.0316ZM2.60721 21.8354L2.40774 21.85L2.40774 21.85L2.60721 21.8354ZM2.59388 20.9201L2.39389 20.9187L2.39389 20.9187L2.59388 20.9201ZM2.59779 18.4748L2.4476 18.3427L2.39929 18.3977L2.39783 18.4708L2.59779 18.4748ZM3.14793 18.8522L3.14587 18.6522L2.95729 18.6542L2.94817 18.8425L3.14793 18.8522ZM3.14058 21.5082L2.94064 21.5131L2.94539 21.7069L3.13927 21.7082L3.14058 21.5082ZM4.02977 21.4738L4.19442 21.5873L4.22648 21.5408L4.22948 21.4844L4.02977 21.4738ZM4.1584 18.8513L4.35839 18.8535L4.36056 18.6531L4.16017 18.6513L4.1584 18.8513ZM4.7453 18.8538L4.74267 18.6538L4.64421 18.6551L4.5852 18.7339L4.7453 18.8538ZM4.58083 21.5098L4.3809 21.5044L4.37536 21.7096L4.58067 21.7098L4.58083 21.5098ZM6.34289 21.5111L6.34274 21.7111L6.3451 21.7111L6.34289 21.5111ZM6.47038 21.4877L6.5864 21.6506L6.66673 21.5934L6.67025 21.4948L6.47038 21.4877ZM6.42926 20.5902L6.62899 20.5798L6.62898 20.5797L6.42926 20.5902ZM6.33715 18.8518L6.53687 18.8412L6.52709 18.6567L6.34237 18.6518L6.33715 18.8518ZM7.91246 18.8563L8.11244 18.8535L8.10978 18.6599L7.9162 18.6563L7.91246 18.8563ZM6.98262 18.8533L6.98005 18.6534L6.9677 18.6535L6.95545 18.6552L6.98262 18.8533ZM6.91531 18.8626L6.88815 18.6644L6.79296 18.6775L6.74366 18.7599L6.91531 18.8626ZM7.0304 21.5116L6.83081 21.5245L6.84296 21.7125L7.03139 21.7116L7.0304 21.5116ZM7.83459 21.5084L7.83221 21.7084L7.85282 21.7086L7.87305 21.7047L7.83459 21.5084ZM7.89431 21.4967L7.93277 21.693L8.02041 21.6758L8.06612 21.5991L7.89431 21.4967ZM3.64972 0.202542L3.64929 0.402542L3.64969 0.402542L3.64972 0.202542ZM12.3624 0.203892L12.3624 0.403892L12.3624 0.403892L12.3624 0.203892ZM15.1471 0.205467L15.1489 0.00547471L15.1488 0.00547451L15.1471 0.205467ZM15.8146 0.317314L15.8802 0.128363L15.8801 0.128341L15.8146 0.317314ZM16.9873 1.35184L17.1671 1.26429L17.1671 1.26428L16.9873 1.35184ZM17.1818 3.49718L16.9818 3.49492L16.9818 3.49621L17.1818 3.49718ZM17.1729 5.33512L16.9729 5.33414L16.9729 5.33515L17.1729 5.33512ZM17.1747 18.6143L16.9747 18.6143L16.9747 18.6156L17.1747 18.6143ZM17.1883 20.7466L16.9883 20.7478L16.9883 20.748L17.1883 20.7466ZM15.7423 23.8195L15.6597 23.6374L15.5389 23.6921L15.5423 23.8247L15.7423 23.8195ZM15.7469 23.998L15.9468 23.9931L15.9468 23.9929L15.7469 23.998ZM15.6518 24.8658L15.7398 25.0454L15.7406 25.045L15.6518 24.8658ZM14.1656 24.9227L14.1654 24.7227L14.1646 24.7227L14.1656 24.9227ZM12.0541 24.9182L11.938 25.081L11.9893 25.1177L12.0524 25.1182L12.0541 24.9182ZM11.8692 24.3738L12.0692 24.3745L12.0692 24.3743L11.8692 24.3738ZM11.8745 23.8918L12.0745 23.8931L12.0758 23.6922L11.875 23.6918L11.8745 23.8918ZM9.52671 23.8864L9.52717 23.6864L9.52467 23.6864L9.52671 23.8864ZM8.97496 23.892L8.97292 23.692L8.78118 23.694L8.77506 23.8856L8.97496 23.892ZM8.9722 25.6494L8.7722 25.6497L8.7725 25.8449L8.96764 25.8493L8.9722 25.6494ZM11.0294 25.6557L11.0618 25.4583L11.0481 25.4561L11.0342 25.4557L11.0294 25.6557ZM11.2532 25.9037L11.0533 25.9115L11.0533 25.9115L11.2532 25.9037ZM10.9647 26.1859L10.9745 26.3856L10.9746 26.3856L10.9647 26.1859ZM10.1901 26.1924L10.191 25.9924L10.1906 25.9924L10.1901 26.1924ZM8.79717 26.1888L8.79769 25.9888L8.79688 25.9888L8.79717 26.1888ZM7.25838 26.1911L7.25809 25.9911L7.25806 25.9911L7.25838 26.1911ZM6.22724 26.1143L6.10905 26.2757L6.10936 26.2759L6.22724 26.1143ZM6.39837 25.6604L6.38655 25.4608L6.3864 25.4608L6.39837 25.6604ZM7.13296 25.6528L7.13216 25.8528L7.133 25.8528L7.13296 25.6528ZM8.42344 25.6525L8.42348 25.8525L8.62349 25.8525L8.62344 25.6525L8.42344 25.6525ZM8.42298 23.8911L8.62298 23.8911L8.62293 23.6959L8.42782 23.6912L8.42298 23.8911ZM4.08249 23.8803L4.0768 24.0803L4.08136 24.0803L4.08249 23.8803ZM1.87434 23.8556L1.84901 24.0539L1.84908 24.054L1.87434 23.8556ZM0.40515 22.733L0.225095 22.8201L0.225113 22.8201L0.40515 22.733ZM0.208753 21.1127L0.408753 21.1133L0.408753 21.1127L0.208753 21.1127ZM0.207375 3.44947L0.407375 3.44946L0.407374 3.44911L0.207375 3.44947ZM0.21909 2.06388L0.0196646 2.04873L0.0196627 2.04875L0.21909 2.06388ZM2.05213 0.214019L2.02746 0.0155337L2.02523 0.0158364L2.05213 0.214019ZM2.62547 0.200291L2.62591 0.000289904L2.62507 0.000291597L2.62547 0.200291ZM14.5853 20.4484L14.628 20.253L14.6265 20.2527L14.5853 20.4484ZM13.6981 20.4223L13.6983 20.6223L13.6983 20.6223L13.6981 20.4223ZM12.1846 20.4234L12.1845 20.2234L11.8524 20.2237L12.0079 20.5171L12.1846 20.4234ZM12.3943 20.905L12.5924 20.877L12.5923 20.8768L12.3943 20.905ZM12.4288 22.2062L12.2288 22.2055L12.2288 22.206L12.4288 22.2062ZM12.4263 24.3824L12.2263 24.3822L12.226 24.5808L12.4247 24.5824L12.4263 24.3824ZM15.1956 24.3799L15.1992 24.5799L15.3952 24.5763L15.3956 24.3803L15.1956 24.3799ZM15.1999 22.1607L15.3999 22.1611L15.3999 22.1609L15.1999 22.1607ZM15.1758 21.0391L15.3747 21.0176L15.3747 21.0176L15.1758 21.0391ZM14.9682 20.6608L14.8247 20.8002L14.8257 20.8012L14.9682 20.6608ZM4.8033 0.742647L4.80333 0.542647L4.80328 0.542647L4.8033 0.742647ZM2.11875 0.750298L2.11011 0.550485L2.10064 0.550894L2.09125 0.552198L2.11875 0.750298ZM1.05613 1.34959L0.897985 1.22716L0.897957 1.2272L1.05613 1.34959ZM0.764408 2.15907L0.564545 2.15167L0.564543 2.15172L0.764408 2.15907ZM0.748788 3.59148L0.548789 3.59068L0.548789 3.59097L0.748788 3.59148ZM0.741897 6.30438L0.541897 6.30387L0.541897 6.30438L0.741897 6.30438ZM0.742127 19.7134L0.542123 19.7134L0.54213 19.7145L0.742127 19.7134ZM0.750855 21.2777L0.550855 21.2788L0.550868 21.2799L0.750855 21.2777ZM0.783014 22.1295L0.585738 22.1624L0.585942 22.1636L0.783014 22.1295ZM1.40666 23.0868L1.52006 22.9221L1.51844 22.921L1.40666 23.0868ZM2.07395 23.3395L2.04956 23.538L2.05065 23.5382L2.07395 23.3395ZM3.17837 23.3596L3.17896 23.1596L3.1788 23.1596L3.17837 23.3596ZM5.10421 23.3652L5.10363 23.5652L5.1044 23.5652L5.10421 23.3652ZM11.8752 23.3589L11.8754 23.5589L12.0753 23.5587L12.0752 23.3588L11.8752 23.3589ZM11.872 21.7595L12.0719 21.7535L12.0663 21.5643L11.877 21.5596L11.872 21.7595ZM9.97096 21.7505L9.96426 21.9504L9.96436 21.9504L9.97096 21.7505ZM9.73528 21.5131L9.5353 21.5102L9.5353 21.5103L9.73528 21.5131ZM9.7339 18.5189L9.59393 18.376L9.5387 18.4301L9.53424 18.5073L9.7339 18.5189ZM9.89493 18.369L9.89494 18.169L9.82713 18.169L9.7733 18.2102L9.89493 18.369ZM12.9833 18.3692L12.9833 18.5692L12.9841 18.5692L12.9833 18.3692ZM14.0523 18.3652L14.0531 18.5652L14.0539 18.5652L14.0523 18.3652ZM14.8113 19.1917L15.0113 19.1945L15.0113 19.1936L14.8113 19.1917ZM14.8076 19.936L14.6076 19.9368L14.6082 20.0723L14.7342 20.122L14.8076 19.936ZM15.6336 20.6689L15.817 20.589L15.8164 20.5878L15.6336 20.6689ZM15.7345 21.0434L15.5358 21.0664L15.5359 21.0673L15.7345 21.0434ZM15.7519 21.534L15.552 21.5309L15.552 21.531L15.7519 21.534ZM15.743 23.2241L15.543 23.2209L15.5376 23.559L15.8365 23.4009L15.743 23.2241ZM16.6407 20.9525L16.4407 20.9529L16.4407 20.9532L16.6407 20.9525ZM16.6377 19.5853L16.4377 19.5853L16.4377 19.5858L16.6377 19.5853ZM16.642 3.71368L16.842 3.71373L16.842 3.71363L16.642 3.71368ZM16.4645 1.53683L16.2829 1.62062L16.2829 1.62066L16.4645 1.53683ZM15.5544 0.806559L15.6011 0.611783L15.5902 0.609797L15.5544 0.806559ZM13.3552 0.743772L13.3553 0.543772L13.3552 0.543772L13.3552 0.743772ZM11.8878 21.2156L11.8884 21.4156L12.1192 21.4149L12.0857 21.1866L11.8878 21.2156ZM10.9141 20.4331L10.8936 20.2341L10.8751 20.236L10.8573 20.2413L10.9141 20.4331ZM10.2684 21.2153L10.0695 21.1942L10.0463 21.4136L10.2668 21.4153L10.2684 21.2153ZM11.2548 21.2174L11.2542 21.0174L11.254 21.0174L11.2548 21.2174ZM14.2572 18.9064L14.4572 18.9063L14.4572 18.7079L14.2588 18.7064L14.2572 18.9064ZM10.2815 18.9046L10.2794 18.7046L10.0839 18.7066L10.0815 18.9022L10.2815 18.9046ZM10.2753 20.1248L10.0753 20.1251L10.0759 20.4674L10.3738 20.2988L10.2753 20.1248ZM11.9715 19.8815L11.9726 19.6815L11.9719 19.6815L11.9715 19.8815ZM13.9802 19.8824L13.9812 20.0824L13.982 20.0824L13.9802 19.8824ZM14.2575 19.8799L14.2593 20.0799L14.4575 20.0782L14.4575 19.8799L14.2575 19.8799ZM2.98496 2.10066L3.04547 2.29129C3.06287 2.28577 3.1115 2.27685 3.20093 2.26884C3.28512 2.2613 3.39165 2.25561 3.5151 2.25154C3.76173 2.24342 4.06747 2.24202 4.38043 2.24386C4.99281 2.24748 5.6644 2.26422 5.89793 2.26466L5.8983 2.06466L5.89867 1.86466C5.64909 1.86419 5.02553 1.84766 4.38279 1.84387C4.06818 1.84201 3.75635 1.84338 3.50193 1.85176C3.37486 1.85594 3.26 1.86194 3.16523 1.87044C3.0757 1.87846 2.98781 1.88992 2.92445 1.91004L2.98496 2.10066ZM5.8983 2.06466L5.89827 2.26466L11.1199 2.26556L11.1199 2.06556L11.12 1.86556L5.89834 1.86466L5.8983 2.06466ZM11.1199 2.06556L11.1208 2.26556L13.235 2.25633L13.2341 2.05633L13.2333 1.85633L11.1191 1.86556L11.1199 2.06556ZM13.2341 2.05633L13.2352 2.25633C13.3501 2.25569 13.5754 2.25098 13.8024 2.25188C13.9149 2.25232 14.024 2.25417 14.115 2.25847C14.2116 2.26304 14.271 2.2698 14.2941 2.2755L14.342 2.08131L14.3899 1.88712C14.3238 1.87084 14.2275 1.86334 14.1339 1.85891C14.0346 1.85422 13.9189 1.85234 13.804 1.85188C13.5764 1.85098 13.337 1.85576 13.233 1.85633L13.2341 2.05633ZM14.342 2.08131L14.2974 2.27627C14.5113 2.32524 14.651 2.42801 14.7401 2.55924C14.8317 2.69402 14.8806 2.87474 14.8805 3.09214L15.0805 3.09221L15.2805 3.09227C15.2806 2.81796 15.2192 2.55252 15.071 2.33442C14.9204 2.11277 14.6907 1.95595 14.3866 1.88635L14.342 2.08131ZM15.0805 3.09221L14.8805 3.09217C14.8803 4.07814 14.8712 5.05616 14.8695 6.04444L15.0695 6.04478L15.2695 6.04513C15.2712 5.06491 15.2803 4.07461 15.2805 3.09224L15.0805 3.09221ZM15.0695 6.04478L14.8695 6.04475L14.8686 12.1194L15.0686 12.1194L15.2686 12.1194L15.2695 6.04481L15.0695 6.04478ZM15.0686 12.1194L14.8686 12.1198L14.8741 14.7026L15.0741 14.7022L15.2741 14.7018L15.2686 12.119L15.0686 12.1194ZM15.0741 14.7022L14.8741 14.7041C14.8788 15.2118 14.8813 15.726 14.8828 16.2291L15.0828 16.2285L15.2828 16.2279C15.2813 15.7244 15.2788 15.2092 15.2741 14.7004L15.0741 14.7022ZM15.0828 16.2285L14.8828 16.2291C14.8836 16.4989 14.7983 16.7086 14.661 16.8479C14.5248 16.9863 14.3194 17.0737 14.043 17.0667L14.0379 17.2666L14.0328 17.4665C14.403 17.476 14.721 17.3571 14.946 17.1286C15.17 16.9011 15.2839 16.5835 15.2828 16.2279L15.0828 16.2285ZM14.0379 17.2666L14.0392 17.0666C13.5037 17.0631 12.9754 17.0579 12.4444 17.0524L12.4423 17.2524L12.4403 17.4524C12.9713 17.4579 13.5003 17.4631 14.0366 17.4666L14.0379 17.2666ZM12.4423 17.2524L12.4438 17.0524C11.673 17.0468 10.9022 17.045 10.1315 17.047L10.132 17.247L10.1325 17.447C10.9019 17.445 11.6715 17.4468 12.4409 17.4524L12.4423 17.2524ZM10.132 17.247L10.1319 17.047L5.88032 17.0484L5.88038 17.2484L5.88045 17.4484L10.132 17.447L10.132 17.247ZM5.88038 17.2484L5.88004 17.0484C5.405 17.0492 4.92966 17.0526 4.45455 17.0587L4.45714 17.2587L4.45972 17.4587C4.93329 17.4526 5.40714 17.4492 5.88073 17.4484L5.88038 17.2484ZM4.45714 17.2587L4.45493 17.0587C4.34437 17.06 4.22781 17.0647 4.11174 17.0693C3.99463 17.074 3.87736 17.0787 3.76062 17.0803C3.52557 17.0835 3.30515 17.0739 3.11555 17.0311C2.9269 16.9885 2.78434 16.9165 2.68729 16.8069C2.59224 16.6995 2.52071 16.5331 2.51743 16.2607L2.31744 16.2631L2.11745 16.2655C2.12159 16.6087 2.21412 16.8758 2.38776 17.072C2.55938 17.2659 2.79014 17.3677 3.02744 17.4212C3.26379 17.4746 3.52195 17.4836 3.76611 17.4803C3.88898 17.4786 4.01147 17.4737 4.12778 17.469C4.24514 17.4643 4.35567 17.4599 4.45934 17.4587L4.45714 17.2587ZM2.31744 16.2631L2.51743 16.2607C2.50852 15.5221 2.51733 14.7841 2.51859 14.0407L2.31859 14.0404L2.11859 14.04C2.11734 14.7778 2.1085 15.5233 2.11745 16.2655L2.31744 16.2631ZM2.31951 5.31947L2.51951 5.31933C2.51943 5.19784 2.51587 4.98797 2.51253 4.74117C2.50916 4.49301 2.50595 4.20481 2.50645 3.92252C2.50694 3.63976 2.51115 3.36531 2.52241 3.14411C2.52805 3.03336 2.53534 2.93849 2.5444 2.86386C2.55413 2.78372 2.56408 2.74391 2.56869 2.73225L2.38268 2.65877L2.19666 2.58529C2.17158 2.64878 2.15729 2.73351 2.14732 2.81564C2.13668 2.90327 2.1288 3.00842 2.12293 3.12377C2.11117 3.35477 2.10694 3.63688 2.10645 3.92183C2.10595 4.20726 2.10919 4.49793 2.11256 4.7466C2.11595 4.99663 2.11943 5.20155 2.11951 5.3196L2.31951 5.31947ZM2.38268 2.65877L2.56842 2.73293C2.64435 2.54273 2.79656 2.38957 2.9915 2.30987L2.91582 2.12474L2.84014 1.93962C2.54657 2.05963 2.31382 2.29184 2.19693 2.58462L2.38268 2.65877ZM2.91582 2.12474L2.99027 2.31037C3.01648 2.29986 3.02397 2.29706 3.03325 2.29475L2.98496 2.10066L2.93667 1.90658C2.89618 1.91666 2.86325 1.93034 2.84137 1.93912L2.91582 2.12474ZM5.76301 2.58743L5.76291 2.38743C4.93264 2.38781 4.0459 2.37469 3.21108 2.39062L3.2149 2.59059L3.21871 2.79055C4.04889 2.7747 4.92394 2.78782 5.7631 2.78743L5.76301 2.58743ZM3.2149 2.59059L3.16114 2.39795C2.9673 2.45204 2.82959 2.5554 2.74999 2.70984C2.67726 2.85093 2.66594 3.012 2.66506 3.15307L2.86506 3.15432L3.06505 3.15557C3.06588 3.02338 3.079 2.94458 3.10553 2.89311C3.12518 2.85499 3.16154 2.81312 3.26865 2.78322L3.2149 2.59059ZM2.86506 3.15432L2.66506 3.15306C2.65924 4.07986 2.65485 5.00702 2.65219 5.93394L2.85219 5.93451L3.05219 5.93509C3.05485 5.00866 3.05924 4.08196 3.06505 3.15558L2.86506 3.15432ZM2.85219 5.93451L2.65219 5.93444L2.65012 11.7343L2.85012 11.7343L3.05012 11.7344L3.05219 5.93458L2.85219 5.93451ZM2.85012 11.7343L2.65013 11.7349L2.65839 14.8558L2.85839 14.8553L3.05839 14.8547L3.05012 11.7338L2.85012 11.7343ZM2.85839 14.8553L2.6584 14.8559C2.65871 14.9481 2.65774 15.0729 2.65675 15.2154C2.65577 15.3574 2.65477 15.5159 2.65506 15.6736C2.65564 15.984 2.66109 16.3059 2.68405 16.49L2.88251 16.4652L3.08097 16.4405C3.06162 16.2854 3.05565 15.9892 3.05506 15.6729C3.05477 15.5171 3.05576 15.3602 3.05674 15.2182C3.05772 15.0768 3.05871 14.9493 3.05839 14.8546L2.85839 14.8553ZM2.88251 16.4652L2.71904 16.5804C2.75108 16.6259 2.8019 16.6994 2.86425 16.7621C2.9251 16.8232 3.02086 16.8991 3.1503 16.9134L3.17217 16.7146L3.19404 16.5158C3.19849 16.5163 3.18352 16.5158 3.14784 16.48C3.11366 16.4456 3.08214 16.4013 3.04598 16.35L2.88251 16.4652ZM3.17217 16.7146L3.15054 16.9134C3.43345 16.9442 3.77927 16.9356 4.04083 16.9375L4.04229 16.7375L4.04375 16.5375C3.76031 16.5355 3.45002 16.5436 3.1938 16.5157L3.17217 16.7146ZM4.04229 16.7375L4.04124 16.9375L5.96386 16.9476L5.96492 16.7476L5.96597 16.5476L4.04334 16.5375L4.04229 16.7375ZM5.96492 16.7476L5.96416 16.9476C8.69188 16.9579 11.4197 16.9515 14.1473 16.9285L14.1456 16.7285L14.1439 16.5285C11.418 16.5515 8.69176 16.5579 5.96567 16.5476L5.96492 16.7476ZM14.1456 16.7285L14.1631 16.9277C14.3037 16.9154 14.4107 16.8682 14.4993 16.7903C14.5751 16.7237 14.6352 16.6336 14.681 16.5709L14.5196 16.4528L14.3581 16.3348C14.2946 16.4217 14.2686 16.4605 14.2352 16.4899C14.2146 16.508 14.1893 16.5239 14.1281 16.5293L14.1456 16.7285ZM14.5196 16.4528L14.7192 16.4656C14.7396 16.1459 14.732 15.7612 14.7322 15.4522L14.5322 15.4521L14.3322 15.452C14.332 15.7745 14.3394 16.1371 14.32 16.44L14.5196 16.4528ZM14.5315 4.9531L14.7315 4.95328L14.7327 3.69146L14.5327 3.69127L14.3327 3.69109L14.3315 4.95291L14.5315 4.9531ZM14.5327 3.69127H14.7327C14.7327 3.44555 14.7399 3.09721 14.716 2.8363L14.5168 2.85456L14.3176 2.87283C14.3394 3.10978 14.3327 3.42889 14.3327 3.69127H14.5327ZM14.5168 2.85456L14.6737 2.73054C14.6379 2.68529 14.5796 2.60307 14.5155 2.54306C14.441 2.47339 14.342 2.41417 14.2067 2.405L14.1932 2.60454L14.1796 2.80408C14.2016 2.80557 14.2176 2.81211 14.2422 2.83514C14.2566 2.84861 14.2724 2.8665 14.2924 2.89165C14.3024 2.90411 14.3125 2.91722 14.3238 2.93202C14.3348 2.94638 14.3471 2.96244 14.3599 2.97858L14.5168 2.85456ZM14.1932 2.60454L14.2067 2.405C13.8164 2.37856 13.3914 2.38819 13.0156 2.38788L13.0155 2.58788L13.0153 2.78788C13.4051 2.7882 13.807 2.77884 14.1796 2.80408L14.1932 2.60454ZM8.88564 4.96695L8.88607 5.16695C9.88741 5.1648 10.5809 5.08254 11.3336 5.66377L11.4558 5.50548L11.578 5.34719C10.6934 4.66401 9.83493 4.76491 8.88521 4.76695L8.88564 4.96695ZM11.4558 5.50548L11.3345 5.66447C11.8471 6.05569 12.1864 6.66373 12.2517 7.29579L12.4506 7.27522L12.6496 7.25466C12.5729 6.51264 12.1773 5.80451 11.5771 5.34649L11.4558 5.50548ZM12.4506 7.27522L12.2517 7.29577C12.2639 7.41422 12.2788 7.54215 12.2619 7.64501C12.2539 7.69408 12.2412 7.71726 12.2338 7.72621C12.2316 7.72896 12.2268 7.73669 12.1984 7.73921L12.2161 7.93843L12.2338 8.13764C12.3621 8.12625 12.4678 8.07115 12.5424 7.98071C12.6119 7.89648 12.6425 7.79614 12.6566 7.70991C12.6842 7.54217 12.6597 7.35242 12.6496 7.25468L12.4506 7.27522ZM12.2161 7.93843L12.1985 7.73921C11.9413 7.762 11.6805 7.75341 11.4022 7.75283L11.4018 7.95283L11.4014 8.15283C11.6629 8.15338 11.9528 8.16254 12.2338 8.13765L12.2161 7.93843ZM11.4018 7.95283L11.402 7.75283L9.96662 7.75126L9.9664 7.95126L9.96618 8.15126L11.4016 8.15283L11.4018 7.95283ZM9.9664 7.95126L9.96631 7.75126L6.88184 7.75261L6.88193 7.95261L6.88201 8.15261L9.96648 8.15126L9.9664 7.95126ZM6.88193 7.95261L6.88191 7.75261C6.36146 7.75266 5.83855 7.75618 5.3217 7.74925L5.31902 7.94923L5.31633 8.14921C5.83679 8.1562 6.36508 8.15266 6.88194 8.15261L6.88193 7.95261ZM5.31902 7.94923L5.32172 7.74925C5.299 7.74894 5.25271 7.74538 5.20879 7.73752C5.18704 7.73363 5.17062 7.72951 5.16026 7.72605C5.15522 7.72437 5.15414 7.72368 5.15588 7.72455C5.1569 7.72506 5.16613 7.72964 5.178 7.74037L5.04383 7.88869L4.90967 8.03702C4.95274 8.07598 5.00375 8.09551 5.03366 8.10549C5.06871 8.11718 5.10552 8.1254 5.13832 8.13127C5.2035 8.14293 5.27155 8.14861 5.31631 8.14921L5.31902 7.94923ZM5.04383 7.88869L5.17784 7.74023C5.15797 7.72229 5.13133 7.66383 5.13081 7.60561L4.93082 7.60739L4.73082 7.60917C4.732 7.74078 4.78199 7.92177 4.90982 8.03716L5.04383 7.88869ZM4.93082 7.60739L5.13081 7.60549C5.12516 7.01193 5.35424 6.368 5.76181 5.94408L5.61763 5.80546L5.47346 5.66685C4.98512 6.17478 4.7243 6.92354 4.73083 7.60929L4.93082 7.60739ZM5.61763 5.80546L5.76181 5.94407C6.26478 5.42088 6.77796 5.20846 7.49562 5.16912L7.48467 4.96942L7.47372 4.76972C6.66431 4.81409 6.0528 5.06422 5.47345 5.66685L5.61763 5.80546ZM7.48467 4.96942L7.49005 5.16935C7.94905 5.157 8.41523 5.16794 8.88606 5.16695L8.88564 4.96695L8.88521 4.76695C8.42899 4.76791 7.94396 4.757 7.47929 4.7695L7.48467 4.96942ZM8.27003 5.50525L8.26979 5.30525C7.4315 5.30627 6.69588 5.23731 5.95031 5.95705L6.08922 6.10094L6.22812 6.24484C6.83809 5.656 7.39523 5.70631 8.27027 5.70525L8.27003 5.50525ZM6.08922 6.10094L5.95032 5.95704C5.52723 6.36541 5.35949 6.84667 5.28821 7.38394L5.48647 7.41025L5.68473 7.43656C5.74873 6.95424 5.89133 6.56991 6.22811 6.24485L6.08922 6.10094ZM5.48647 7.41025L5.48615 7.61025L9.18279 7.6161L9.1831 7.4161L9.18342 7.2161L5.48679 7.21025L5.48647 7.41025ZM9.1831 7.4161L9.18336 7.6161L10.9647 7.61385L10.9645 7.41385L10.9642 7.21385L9.18285 7.2161L9.1831 7.4161ZM10.9645 7.41385L10.9648 7.61385C11.2261 7.61344 11.6664 7.62581 11.9312 7.60586L11.9161 7.40642L11.9011 7.20699C11.6558 7.22547 11.2507 7.2134 10.9641 7.21385L10.9645 7.41385ZM11.9161 7.40642L12.1139 7.37692C12.0183 6.73549 11.8014 6.18749 11.2244 5.76098L11.1055 5.92181L10.9866 6.08264C11.4492 6.42455 11.632 6.85737 11.7183 7.43593L11.9161 7.40642ZM11.1055 5.92181L11.2244 5.76098C10.5757 5.28142 10.0065 5.30675 9.3233 5.3057L9.32299 5.5057L9.32269 5.7057C10.0215 5.70678 10.458 5.69185 10.9866 6.08264L11.1055 5.92181ZM9.32299 5.5057L9.32308 5.3057L8.27011 5.30525L8.27003 5.50525L8.26994 5.70525L9.32291 5.7057L9.32299 5.5057ZM11.6509 11.3711L11.6514 11.5711C11.7269 11.5709 11.8709 11.5654 12.0185 11.5708C12.0912 11.5735 12.1563 11.5787 12.2057 11.5871C12.2304 11.5912 12.2463 11.5954 12.2551 11.5985C12.267 11.6026 12.2543 11.6006 12.2362 11.5835L12.3733 11.4379L12.5104 11.2923C12.4687 11.253 12.4198 11.2322 12.3859 11.2205C12.3489 11.2077 12.3095 11.199 12.2723 11.1927C12.1979 11.1801 12.1129 11.1741 12.0332 11.1711C11.876 11.1653 11.706 11.1709 11.6503 11.1711L11.6509 11.3711ZM12.3733 11.4379L12.2362 11.5835C12.2405 11.5875 12.2496 11.5987 12.2566 11.6304C12.2638 11.6634 12.2659 11.7047 12.265 11.7562L12.465 11.7595L12.6649 11.7628C12.6667 11.6593 12.6673 11.44 12.5104 11.2923L12.3733 11.4379ZM12.465 11.7595L12.265 11.756C12.252 12.4977 12.0007 13.0358 11.4594 13.5532L11.5976 13.6978L11.7358 13.8424C12.3491 13.2561 12.6499 12.6185 12.6649 11.763L12.465 11.7595ZM11.5976 13.6978L11.4666 13.5467C11.0293 13.9257 10.4065 14.1771 9.84422 14.1526L9.83554 14.3525L9.82685 14.5523C10.5076 14.5819 11.2273 14.2834 11.7286 13.8489L11.5976 13.6978ZM9.83554 14.3525L9.84425 14.1526C9.40697 14.1336 8.91905 14.1509 8.44962 14.1597C7.97461 14.1686 7.51596 14.1689 7.11598 14.1195L7.09149 14.318L7.067 14.5165C7.49818 14.5697 7.98245 14.5685 8.45711 14.5596C8.93736 14.5506 9.40587 14.5339 9.82682 14.5523L9.83554 14.3525ZM7.09149 14.318L7.116 14.1195C6.61347 14.0575 6.12656 13.7733 5.75962 13.3687C5.39249 12.9639 5.16077 12.4555 5.14712 11.9648L4.9472 11.9704L4.74727 11.9759C4.76409 12.5803 5.04546 13.1767 5.46333 13.6374C5.88139 14.0984 6.4514 14.4405 7.06698 14.5165L7.09149 14.318ZM4.9472 11.9704L5.14712 11.9649C5.14522 11.8952 5.13844 11.8272 5.13495 11.7803C5.13108 11.7282 5.13057 11.6956 5.13388 11.6698C5.13672 11.6478 5.14215 11.633 5.15154 11.6187C5.16194 11.6028 5.18337 11.5782 5.23069 11.5463L5.11879 11.3805L5.00688 11.2148C4.9277 11.2682 4.86357 11.3283 4.81699 11.3994C4.7694 11.472 4.74645 11.5464 4.73715 11.6188C4.72832 11.6874 4.73192 11.7543 4.73605 11.8099C4.74058 11.8707 4.74571 11.9186 4.74727 11.9758L4.9472 11.9704ZM5.11879 11.3805L5.13582 11.5798C5.35537 11.561 5.72863 11.5724 5.9802 11.5736L5.9811 11.3736L5.982 11.1736C5.75364 11.1725 5.34516 11.1604 5.10175 11.1813L5.11879 11.3805ZM5.9811 11.3736L5.9802 11.5736L7.43997 11.5801L7.44087 11.3801L7.44176 11.1801L5.98199 11.1736L5.9811 11.3736ZM7.44087 11.3801L7.44023 11.5801C8.84422 11.5846 10.2484 11.5815 11.6524 11.5711L11.6509 11.3711L11.6494 11.1711C10.2468 11.1815 8.84407 11.1846 7.44151 11.1801L7.44087 11.3801ZM11.9052 11.9166L11.908 11.7166C10.4456 11.6957 8.88804 11.6795 7.42625 11.7024L7.42938 11.9024L7.43252 12.1024C8.88785 12.0796 10.4402 12.0957 11.9023 12.1166L11.9052 11.9166ZM7.42938 11.9024L7.42841 11.7024L5.49177 11.7119L5.49275 11.9119L5.49372 12.1119L7.43036 12.1024L7.42938 11.9024ZM5.49275 11.9119L5.29409 11.935C5.36806 12.5691 5.58521 13.0947 6.12986 13.5207L6.25307 13.3632L6.37628 13.2056C5.9367 12.8618 5.75644 12.4462 5.6914 11.8887L5.49275 11.9119ZM6.25307 13.3632L6.13005 13.5209C6.40364 13.7343 6.72247 13.884 7.06291 13.9595L7.10619 13.7642L7.14947 13.5689C6.86661 13.5062 6.60236 13.382 6.37609 13.2055L6.25307 13.3632ZM7.10619 13.7642L7.06356 13.9596C7.25223 14.0008 7.48794 14.0148 7.71216 14.0195C7.9369 14.0243 8.16955 14.0198 8.34384 14.0198L8.34384 13.8198L8.34383 13.6198C8.15792 13.6198 7.94035 13.6243 7.72062 13.6196C7.50036 13.615 7.29734 13.6012 7.14881 13.5688L7.10619 13.7642ZM8.34384 13.8198L8.34347 14.0198C8.89143 14.0208 9.4392 14.0173 9.98688 14.0099L9.98415 13.8099L9.98143 13.6099C9.4357 13.6173 8.88999 13.6208 8.3442 13.6198L8.34384 13.8198ZM9.98415 13.8099L10.0039 14.0089C11.1697 13.8934 12.002 13.0961 12.1044 11.9341L11.9052 11.9166L11.7059 11.899C11.6213 12.8588 10.9497 13.5133 9.96444 13.6109L9.98415 13.8099ZM8.96942 8.49807L8.92235 8.69246C9.13996 8.74515 9.20007 8.85534 9.44415 9.0595L9.57247 8.90609L9.70079 8.75268C9.53393 8.61312 9.35458 8.38556 9.01649 8.30369L8.96942 8.49807ZM9.57247 8.90609L9.4441 9.05946C9.58481 9.17723 9.73411 9.23478 9.89071 9.2235C10.0391 9.21281 10.1625 9.14204 10.2584 9.07224C10.3503 9.00532 10.4488 8.91382 10.5214 8.85254C10.6035 8.78313 10.6696 8.73616 10.7311 8.71196L10.6578 8.52586L10.5846 8.33975C10.4584 8.3894 10.3505 8.47327 10.2632 8.54699C10.1663 8.62884 10.1001 8.69275 10.023 8.74882C9.94993 8.802 9.90004 8.82179 9.86198 8.82453C9.83214 8.82668 9.78183 8.82051 9.70084 8.75272L9.57247 8.90609ZM10.6578 8.52586L10.731 8.71197C11.0099 8.60227 11.1793 8.63653 11.3271 8.71677C11.4095 8.76155 11.4906 8.82412 11.5838 8.90306C11.672 8.97782 11.7784 9.07397 11.8894 9.1609L12.0127 9.00343L12.136 8.84596C12.0325 8.76492 11.945 8.68484 11.8424 8.59788C11.7447 8.5151 11.638 8.43046 11.518 8.36529C11.261 8.22565 10.9675 8.18909 10.5846 8.33974L10.6578 8.52586ZM12.0127 9.00343L11.9901 9.20215C12.0746 9.21175 12.131 9.2157 12.1825 9.2296C12.2053 9.23575 12.2187 9.24196 12.2261 9.24656C12.2322 9.25041 12.2334 9.25252 12.2338 9.25319L12.4042 9.14851L12.5746 9.04384C12.4992 8.92106 12.3806 8.86872 12.2867 8.84339C12.1972 8.81927 12.0953 8.81153 12.0353 8.80471L12.0127 9.00343ZM12.4042 9.14851L12.2339 9.25328C12.2688 9.31012 12.2616 9.3313 12.2626 9.32688C12.2638 9.32112 12.2666 9.32695 12.2463 9.33931C12.2243 9.35266 12.1863 9.36564 12.1358 9.36892C12.0863 9.37214 12.0348 9.36528 11.9905 9.34934L11.9228 9.53753L11.8551 9.72572C12.0453 9.79417 12.283 9.78513 12.4541 9.68105C12.5446 9.62603 12.627 9.53664 12.6539 9.40968C12.6805 9.28407 12.6449 9.1581 12.5746 9.04375L12.4042 9.14851ZM11.9228 9.53753L11.9904 9.34932C11.8794 9.30942 11.8152 9.27503 11.7601 9.23589C11.7001 9.1932 11.6462 9.14222 11.5504 9.05354L11.4146 9.20032L11.2787 9.3471C11.3656 9.42747 11.4421 9.50059 11.5285 9.56199C11.6199 9.62694 11.7185 9.67664 11.8551 9.72574L11.9228 9.53753ZM11.4146 9.20032L11.5563 9.05915C11.4711 8.97368 11.358 8.8848 11.224 8.83593C11.0841 8.78493 10.9196 8.77784 10.7571 8.86428L10.8509 9.04087L10.9448 9.21747C10.9899 9.1935 11.0337 9.19231 11.087 9.21173C11.1461 9.23328 11.211 9.27933 11.2729 9.3415L11.4146 9.20032ZM10.8509 9.04087L10.757 8.86431C10.6264 8.93378 10.4804 9.06542 10.4009 9.13985L10.5376 9.28586L10.6743 9.43188C10.7578 9.35371 10.8678 9.25847 10.9449 9.21743L10.8509 9.04087ZM10.5376 9.28586L10.401 9.13975C10.1799 9.34638 9.96734 9.3968 9.77178 9.36424C9.56584 9.32996 9.34956 9.19836 9.14701 8.9853L9.00206 9.1231L8.8571 9.2609C9.09509 9.51124 9.38512 9.70538 9.70609 9.75881C10.0374 9.81397 10.3723 9.71407 10.6741 9.43198L10.5376 9.28586ZM9.00206 9.1231L9.14704 8.98533C9.06199 8.89582 8.93609 8.83872 8.81894 8.81428C8.70295 8.79008 8.54984 8.78868 8.42054 8.8677L8.52483 9.03835L8.62912 9.20901C8.63781 9.2037 8.67385 9.19262 8.73724 9.20584C8.79947 9.21883 8.8432 9.24626 8.85707 9.26087L9.00206 9.1231ZM8.52483 9.03835L8.4084 8.87574C8.30248 8.95157 8.20441 9.03488 8.11874 9.10506C8.02982 9.17792 7.95204 9.23859 7.87298 9.28524C7.72732 9.3712 7.57629 9.41145 7.35253 9.34432L7.29506 9.53589L7.23759 9.72745C7.58255 9.83094 7.84829 9.76427 8.07627 9.62973C8.18404 9.56614 8.2823 9.48816 8.37225 9.41448C8.46545 9.33812 8.54906 9.26698 8.64126 9.20097L8.52483 9.03835ZM7.29506 9.53589L7.35085 9.34383C7.31545 9.33354 7.2549 9.31032 7.19422 9.28108C7.12866 9.2495 7.08841 9.22296 7.07689 9.21206L6.93942 9.35732L6.80194 9.50258C6.86162 9.55906 6.95049 9.60766 7.0206 9.64144C7.09558 9.67757 7.17726 9.70994 7.23926 9.72795L7.29506 9.53589ZM6.93942 9.35732L7.077 9.21216C7.00794 9.14671 6.87051 9.00254 6.71975 8.90564C6.57001 8.80939 6.33416 8.7135 6.10002 8.85945L6.20582 9.02918L6.31161 9.1989C6.34281 9.17946 6.39309 9.17118 6.50348 9.24213C6.61286 9.31243 6.70957 9.41503 6.80184 9.50248L6.93942 9.35732ZM6.20582 9.02918L6.10006 8.85943C6.02763 8.90455 5.95938 8.96032 5.89788 9.01307C5.83175 9.06979 5.77834 9.11852 5.71586 9.16993C5.59356 9.27058 5.48911 9.33533 5.38299 9.3536L5.41692 9.5507L5.45084 9.7478C5.66467 9.711 5.83681 9.58843 5.97003 9.4788C6.03532 9.42507 6.1044 9.36292 6.1583 9.31669C6.21682 9.26649 6.26613 9.22724 6.31158 9.19892L6.20582 9.02918ZM5.41692 9.5507L5.38304 9.35359C5.35656 9.35814 5.33028 9.36422 5.31055 9.36872C5.28886 9.37366 5.2726 9.37729 5.2572 9.3799C5.22638 9.38514 5.21493 9.3832 5.21115 9.38218L5.15885 9.57522L5.10655 9.76826C5.19071 9.79106 5.26805 9.78379 5.32415 9.77426C5.35221 9.7695 5.37895 9.76339 5.39945 9.75872C5.42191 9.7536 5.43702 9.75018 5.45079 9.74781L5.41692 9.5507ZM5.15885 9.57522L5.19278 9.37812C5.20032 9.37942 5.19928 9.38185 5.19097 9.37432C5.18252 9.36665 5.1715 9.35289 5.1617 9.33315C5.15198 9.31358 5.14608 9.29339 5.14392 9.27664C5.14162 9.2588 5.14456 9.25354 5.14284 9.25835L4.95457 9.19086L4.7663 9.12337C4.71835 9.25715 4.75093 9.40535 4.80345 9.51109C4.85588 9.61663 4.96092 9.74409 5.12493 9.77232L5.15885 9.57522ZM4.95457 9.19086L5.14286 9.2583C5.13704 9.27454 5.13106 9.25728 5.20227 9.23605C5.26822 9.21639 5.3417 9.21001 5.42071 9.20015L5.39595 9.00169L5.37118 8.80323C5.31423 8.81033 5.19484 8.82087 5.088 8.85272C4.98642 8.883 4.82774 8.95184 4.76628 9.12342L4.95457 9.19086ZM5.39595 9.00169L5.52789 9.15199C5.61964 9.07145 5.70416 8.99055 5.77117 8.92952C5.84198 8.86503 5.90138 8.81494 5.96199 8.77508C6.07385 8.70149 6.20419 8.65288 6.43656 8.65259L6.43631 8.4526L6.43607 8.2526C6.13489 8.25297 5.92642 8.3197 5.74217 8.44089C5.65472 8.49841 5.57674 8.56557 5.50184 8.63379C5.42314 8.70546 5.35362 8.77272 5.26401 8.85138L5.39595 9.00169ZM6.43631 8.4526L6.43657 8.65259C6.66428 8.65231 6.80545 8.78379 7.00536 8.95793C7.0961 9.03697 7.21084 9.13409 7.34888 9.18549C7.50146 9.2423 7.66699 9.23888 7.84582 9.15365L7.75977 8.97311L7.67373 8.79257C7.58798 8.83343 7.53483 8.82789 7.48845 8.81063C7.42754 8.78795 7.36304 8.73902 7.2681 8.65632C7.09663 8.50695 6.84065 8.25209 6.43606 8.2526L6.43631 8.4526ZM8.96942 8.49807L8.77905 8.43678L8.76873 8.46882L8.9591 8.53012L9.14948 8.59141L9.1598 8.55937L8.96942 8.49807ZM8.9591 8.53012L8.97529 8.33077C8.92836 8.32696 8.84638 8.31984 8.76361 8.31542C8.68527 8.31123 8.58874 8.3083 8.51746 8.31714L8.54208 8.51562L8.56669 8.7141C8.5984 8.71017 8.66202 8.71056 8.74226 8.71485C8.81808 8.7189 8.89312 8.72542 8.94292 8.72946L8.9591 8.53012ZM8.54208 8.51562L8.51745 8.31714C8.46245 8.32397 8.41127 8.34946 8.38294 8.36426C8.34729 8.38289 8.3083 8.40654 8.26959 8.4313C8.19231 8.48074 8.10128 8.54431 8.01781 8.60191C7.93135 8.66156 7.85331 8.71459 7.79335 8.75007C7.76257 8.76828 7.74413 8.77728 7.73591 8.78051C7.73139 8.78229 7.73776 8.77918 7.75143 8.77726C7.76006 8.77605 7.80883 8.76941 7.86243 8.80146L7.75977 8.97311L7.65712 9.14476C7.71983 9.18226 7.78171 9.17693 7.80697 9.17339C7.83726 9.16914 7.86378 9.16005 7.88247 9.1527C7.92065 9.13766 7.9608 9.11575 7.99702 9.09433C8.07104 9.05053 8.16059 8.98937 8.24498 8.93114C8.33235 8.87086 8.41542 8.81285 8.48515 8.76825C8.51995 8.74599 8.54768 8.7295 8.5682 8.71877C8.59604 8.70422 8.59046 8.71115 8.56671 8.7141L8.54208 8.51562ZM5.12605 10.1755L5.13725 10.3751C5.5488 10.3521 6.12508 10.3706 6.56263 10.3721L6.56332 10.1721L6.56401 9.9721C6.14686 9.97066 5.54208 9.95181 5.11484 9.97577L5.12605 10.1755ZM6.56332 10.1721L6.56296 10.3721L9.29123 10.3769L9.29158 10.1769L9.29193 9.97689L6.56367 9.9721L6.56332 10.1721ZM9.29158 10.1769L9.29217 10.3769L11.2873 10.3709L11.2867 10.1709L11.2861 9.97094L9.29098 9.97689L9.29158 10.1769ZM11.2867 10.1709L11.2873 10.3709C11.6025 10.3701 11.9688 10.3523 12.2436 10.3848L12.2671 10.1861L12.2906 9.98753C11.9839 9.95127 11.5696 9.97022 11.2862 9.97094L11.2867 10.1709ZM12.2671 10.1861L12.2436 10.3848C12.2617 10.3869 12.2622 10.3918 12.2593 10.3884C12.258 10.3869 12.2621 10.3905 12.2623 10.4046C12.2628 10.434 12.2438 10.4881 12.1785 10.5243L12.2755 10.6992L12.3725 10.8741C12.5604 10.77 12.6653 10.5827 12.6623 10.3982C12.6608 10.3053 12.6313 10.2089 12.5648 10.1303C12.4968 10.0498 12.4006 10.0005 12.2906 9.98753L12.2671 10.1861ZM12.2755 10.6992L12.2596 10.4999C11.9433 10.5251 11.3424 10.5047 10.9868 10.5028L10.9857 10.7028L10.9846 10.9028C11.3136 10.9046 11.9526 10.9257 12.2915 10.8986L12.2755 10.6992ZM10.9857 10.7028L10.9864 10.5028L8.47341 10.4944L8.47274 10.6944L8.47207 10.8944L10.9851 10.9028L10.9857 10.7028ZM8.47274 10.6944L8.47198 10.4944L6.2174 10.5029L6.21816 10.7029L6.21892 10.9029L8.4735 10.8944L8.47274 10.6944ZM6.21816 10.7029L6.21737 10.5029C5.8724 10.5043 5.47528 10.521 5.16041 10.4937L5.14313 10.693L5.12585 10.8922C5.46476 10.9216 5.89898 10.9042 6.21895 10.9029L6.21816 10.7029ZM5.14313 10.693L5.16041 10.4937C5.14709 10.4926 5.14733 10.4892 5.1498 10.4919C5.15063 10.4929 5.14621 10.4885 5.14541 10.4741C5.14382 10.4458 5.15929 10.3894 5.23002 10.3463L5.12605 10.1755L5.02207 10.0046C4.83406 10.119 4.73562 10.3107 4.74603 10.4965C4.75679 10.6884 4.89048 10.8718 5.12585 10.8922L5.14313 10.693ZM2.77443 18.3123L2.77937 18.5123C3.93711 18.4837 5.22354 18.5208 6.40474 18.5204L6.40468 18.3204L6.40462 18.1204C5.24198 18.1208 3.93179 18.0837 2.76949 18.1124L2.77443 18.3123ZM6.40468 18.3204L6.40574 18.5204L7.59217 18.5141L7.5911 18.3141L7.59004 18.1141L6.40362 18.1204L6.40468 18.3204ZM7.5911 18.3141L7.59263 18.5141C7.81927 18.5124 8.03012 18.504 8.23118 18.525L8.25196 18.3261L8.27275 18.1271C8.0426 18.1031 7.79753 18.1126 7.58958 18.1141L7.5911 18.3141ZM8.25196 18.3261L8.23111 18.525C8.24582 18.5265 8.24833 18.5297 8.24574 18.5279C8.24333 18.5262 8.24404 18.5255 8.24685 18.5307C8.2502 18.537 8.255 18.5492 8.2588 18.5698C8.26256 18.5902 8.26461 18.6147 8.26491 18.643L8.4649 18.6409L8.66489 18.6388C8.66401 18.5561 8.65364 18.4431 8.59955 18.342C8.53802 18.227 8.42803 18.1434 8.27281 18.1272L8.25196 18.3261ZM8.4649 18.6409L8.26491 18.6428C8.27405 19.5824 8.24587 20.5605 8.26794 21.5124L8.46788 21.5077L8.66783 21.5031C8.6456 20.5441 8.67434 19.6102 8.66489 18.639L8.4649 18.6409ZM8.46788 21.5077L8.26794 21.5124C8.27091 21.6402 8.27619 21.7047 8.26368 21.7626C8.25608 21.7977 8.2433 21.8254 8.18863 21.8573L8.2894 22.0301L8.39018 22.2028C8.54512 22.1124 8.62412 21.9881 8.65462 21.8472C8.68022 21.7289 8.66993 21.5935 8.66783 21.5031L8.46788 21.5077ZM8.2894 22.0301L8.27366 21.8307C8.19985 21.8365 8.12585 21.8402 8.05177 21.8418L8.05603 22.0418L8.06028 22.2417C8.14209 22.24 8.22375 22.2359 8.30515 22.2294L8.2894 22.0301ZM8.05603 22.0418L8.05288 21.8418C7.01058 21.8582 5.9325 21.8359 4.87713 21.8384L4.87761 22.0384L4.87808 22.2384C5.91815 22.2359 7.01611 22.2581 8.05917 22.2417L8.05603 22.0418ZM4.87761 22.0384L4.87704 21.8384L3.60608 21.842L3.60665 22.042L3.60722 22.242L4.87817 22.2384L4.87761 22.0384ZM3.60665 22.042L3.60601 21.842C3.34643 21.8428 3.09665 21.8456 2.84718 21.8319L2.83622 22.0316L2.82527 22.2313C3.08918 22.2458 3.35302 22.2428 3.6073 22.242L3.60665 22.042ZM2.83622 22.0316L2.83429 21.8316C2.81998 21.8318 2.8113 21.827 2.80827 21.8245C2.80697 21.8234 2.80686 21.823 2.80706 21.8234C2.80735 21.8239 2.80687 21.8235 2.80667 21.8208L2.60721 21.8354L2.40774 21.85C2.42574 22.0956 2.63747 22.2336 2.83816 22.2316L2.83622 22.0316ZM2.60721 21.8354L2.80668 21.8208C2.78554 21.5313 2.79165 21.2273 2.79388 20.9216L2.59388 20.9201L2.39389 20.9187C2.39172 21.2157 2.38512 21.5402 2.40774 21.85L2.60721 21.8354ZM2.59388 20.9201L2.79388 20.9216C2.79993 20.0965 2.78146 19.294 2.79775 18.4788L2.59779 18.4748L2.39783 18.4708C2.38159 19.2836 2.39978 20.1153 2.39389 20.9187L2.59388 20.9201ZM2.59779 18.4748L2.74798 18.6069C2.80024 18.5475 2.82371 18.5291 2.89945 18.4684L2.77443 18.3123L2.64941 18.1562C2.57091 18.2191 2.52428 18.2556 2.4476 18.3427L2.59779 18.4748ZM3.14793 18.8522L2.94817 18.8425C2.90961 19.6389 2.92118 20.7179 2.94064 21.5131L3.14058 21.5082L3.34052 21.5033C3.32109 20.7096 3.30989 19.6428 3.3477 18.8619L3.14793 18.8522ZM3.14058 21.5082L3.13927 21.7082C3.19091 21.7085 3.41936 21.7155 3.61795 21.7146C3.71979 21.7141 3.82384 21.7116 3.90713 21.7048C3.948 21.7014 3.99022 21.6965 4.02693 21.6886C4.04493 21.6846 4.06814 21.6786 4.09165 21.6688C4.10856 21.6616 4.15827 21.6397 4.19442 21.5873L4.02977 21.4738L3.86511 21.3602C3.89591 21.3156 3.93498 21.3007 3.9366 21.3C3.94482 21.2966 3.94807 21.2964 3.94208 21.2977C3.93079 21.3001 3.90884 21.3033 3.87432 21.3061C3.80682 21.3117 3.7152 21.3141 3.61607 21.3146C3.4127 21.3155 3.21797 21.3087 3.14189 21.3082L3.14058 21.5082ZM4.02977 21.4738L4.22948 21.4844C4.27276 20.6708 4.34957 19.6691 4.35839 18.8535L4.1584 18.8513L3.95841 18.8492C3.94971 19.6536 3.87413 20.6345 3.83005 21.4631L4.02977 21.4738ZM4.1584 18.8513L4.16017 18.6513C3.82202 18.6483 3.48389 18.6487 3.14587 18.6522L3.14793 18.8522L3.15 19.0522C3.48559 19.0487 3.82116 19.0483 4.15663 19.0513L4.1584 18.8513ZM4.7453 18.8538L4.5852 18.7339C4.56225 18.7646 4.55184 18.796 4.54815 18.8074C4.54286 18.8237 4.53886 18.8402 4.53577 18.8548C4.52951 18.8842 4.52404 18.9194 4.5191 18.9572C4.50913 19.0335 4.49952 19.1342 4.49033 19.2497C4.4719 19.4813 4.45433 19.7827 4.43889 20.0892C4.408 20.7024 4.38525 21.3434 4.3809 21.5044L4.58083 21.5098L4.78075 21.5152C4.78501 21.3576 4.80763 20.7198 4.83839 20.1093C4.85377 19.8039 4.8711 19.5072 4.88907 19.2814C4.89809 19.1681 4.90706 19.0753 4.91573 19.0091C4.92011 18.9756 4.92397 18.9523 4.92702 18.9379C4.92858 18.9306 4.92923 18.929 4.92857 18.931C4.92821 18.9321 4.92686 18.9362 4.92422 18.942C4.92196 18.947 4.91617 18.9593 4.90539 18.9737L4.7453 18.8538ZM4.58083 21.5098L4.58067 21.7098L6.34274 21.7111L6.34289 21.5111L6.34304 21.3111L4.58098 21.3098L4.58083 21.5098ZM6.34289 21.5111L6.3451 21.7111C6.35792 21.711 6.36748 21.7114 6.37849 21.7119C6.38613 21.7122 6.40907 21.7136 6.43256 21.7117C6.50208 21.706 6.55075 21.676 6.5864 21.6506L6.47038 21.4877L6.35435 21.3248C6.35064 21.3274 6.34928 21.3283 6.34956 21.3281C6.34991 21.3279 6.35293 21.3261 6.35804 21.3238C6.36348 21.3213 6.3705 21.3187 6.3788 21.3166C6.3871 21.3145 6.39438 21.3135 6.39986 21.313C6.40482 21.3126 6.40775 21.3127 6.40674 21.3127C6.40531 21.3127 6.40311 21.3126 6.39654 21.3123C6.38435 21.3117 6.3654 21.3109 6.34068 21.3111L6.34289 21.5111ZM6.47038 21.4877L6.67025 21.4948C6.67945 21.2371 6.64185 20.8261 6.62899 20.5798L6.42926 20.5902L6.22953 20.6007C6.24407 20.8792 6.27888 21.2459 6.2705 21.4806L6.47038 21.4877ZM6.42926 20.5902L6.62898 20.5797L6.53687 18.8412L6.33715 18.8518L6.13743 18.8624L6.22954 20.6008L6.42926 20.5902ZM6.33715 18.8518L6.34237 18.6518C5.82369 18.6383 5.25771 18.647 4.74267 18.6538L4.7453 18.8538L4.74793 19.0538C5.26561 19.047 5.8228 19.0384 6.33193 19.0517L6.33715 18.8518ZM7.91246 18.8563L7.9162 18.6563C7.60423 18.6505 7.29218 18.6494 6.98005 18.6534L6.98262 18.8533L6.98518 19.0533C7.29295 19.0494 7.60079 19.0505 7.90872 19.0562L7.91246 18.8563ZM6.98262 18.8533L6.95545 18.6552L6.88815 18.6644L6.91531 18.8626L6.94248 19.0607L7.00978 19.0515L6.98262 18.8533ZM6.91531 18.8626L6.74366 18.7599C6.72682 18.7881 6.72075 18.8141 6.7191 18.8211C6.71646 18.8323 6.71498 18.8422 6.7141 18.849C6.71231 18.8629 6.71135 18.8772 6.71075 18.8896C6.70952 18.9152 6.70915 18.9474 6.70928 18.9834C6.70956 19.0562 6.71199 19.1552 6.71589 19.2709C6.72372 19.5029 6.73767 19.8085 6.75323 20.1195C6.78435 20.7415 6.82211 21.3898 6.83081 21.5245L7.0304 21.5116L7.22998 21.4987C7.22144 21.3665 7.18378 20.7203 7.15273 20.0995C7.1372 19.7891 7.12338 19.4861 7.11567 19.2575C7.1118 19.1429 7.10953 19.0486 7.10928 18.9819C7.10915 18.9481 7.10956 18.9241 7.11029 18.9089C7.11067 18.9009 7.111 18.8988 7.1108 18.9003C7.11071 18.901 7.1101 18.9058 7.10842 18.9129C7.10773 18.9159 7.10268 18.9389 7.08697 18.9652L6.91531 18.8626ZM7.0304 21.5116L7.03139 21.7116C7.3004 21.7102 7.56991 21.7053 7.83221 21.7084L7.83459 21.5084L7.83697 21.3084C7.57036 21.3053 7.29099 21.3103 7.0294 21.3116L7.0304 21.5116ZM7.83459 21.5084L7.87305 21.7047L7.93277 21.693L7.89431 21.4967L7.85586 21.3004L7.79613 21.3121L7.83459 21.5084ZM7.89431 21.4967L8.06612 21.5991C8.08043 21.5751 8.08668 21.5532 8.08875 21.5458C8.09166 21.5354 8.09354 21.526 8.09475 21.5192C8.09718 21.5056 8.09885 21.4914 8.1001 21.4788C8.10265 21.4531 8.10468 21.4208 8.10638 21.3847C8.10982 21.3118 8.1124 21.2129 8.11433 21.0976C8.11821 20.8664 8.11959 20.5625 8.11962 20.2532C8.11967 19.6345 8.11432 18.99 8.11244 18.8535L7.91246 18.8563L7.71248 18.859C7.71433 18.9933 7.71967 19.6359 7.71962 20.2531C7.71959 20.5618 7.71821 20.8631 7.71439 21.0909C7.71248 21.205 7.70997 21.2991 7.70682 21.3659C7.70523 21.3996 7.70359 21.4239 7.70205 21.4393C7.70126 21.4474 7.70079 21.4499 7.70097 21.4489C7.70105 21.4485 7.70177 21.4444 7.7035 21.4382C7.70439 21.435 7.70943 21.4163 7.72251 21.3943L7.89431 21.4967ZM12.3624 0.203892L12.3624 0.403892C13.2902 0.403742 14.2206 0.397552 15.1454 0.40546L15.1471 0.205467L15.1488 0.00547451C14.2217 -0.00245275 13.2866 0.00374237 12.3624 0.0038919L12.3624 0.203892ZM15.1471 0.205467L15.1454 0.40546C15.3428 0.407171 15.566 0.442823 15.7491 0.506287L15.8146 0.317314L15.8801 0.128341C15.6522 0.0493463 15.3855 0.00752601 15.1489 0.00547472L15.1471 0.205467ZM15.8146 0.317314L15.7491 0.506265C16.2152 0.667984 16.5956 1.00432 16.8075 1.4394L16.9873 1.35184L17.1671 1.26428C16.9082 0.732556 16.4448 0.324237 15.8802 0.128363L15.8146 0.317314ZM16.9873 1.35184L16.8075 1.43939C16.9335 1.69823 16.9829 2.0355 16.996 2.40703C17.0092 2.78151 16.9858 3.15011 16.9819 3.49492L17.1818 3.49718L17.3818 3.49945C17.3854 3.18439 17.4093 2.77754 17.3958 2.39292C17.3821 2.00536 17.3305 1.59989 17.1671 1.26429L16.9873 1.35184ZM17.1818 3.49718L16.9818 3.49621L16.9729 5.33414L17.1729 5.33512L17.3729 5.33609L17.3818 3.49816L17.1818 3.49718ZM17.1747 18.6143L16.9747 18.6156L16.9883 20.7478L17.1883 20.7466L17.3883 20.7453L17.3747 18.613L17.1747 18.6143ZM17.1883 20.7466L16.9883 20.748C16.991 21.1312 17.0011 21.4568 16.9903 21.7534C16.9795 22.0475 16.9484 22.2953 16.875 22.5142C16.734 22.9346 16.4219 23.2918 15.6597 23.6374L15.7423 23.8195L15.8249 24.0017C16.6501 23.6276 17.0664 23.2012 17.2542 22.6414C17.3452 22.3701 17.3787 22.0787 17.39 21.768C17.4012 21.4597 17.3909 21.1148 17.3883 20.7451L17.1883 20.7466ZM15.7423 23.8195L15.5423 23.8247L15.5469 24.0032L15.7469 23.998L15.9468 23.9929L15.9422 23.8144L15.7423 23.8195ZM15.7469 23.998L15.5469 24.0029C15.5498 24.1202 15.5609 24.3055 15.5544 24.4787C15.5512 24.565 15.5438 24.636 15.5323 24.6851C15.5265 24.7097 15.5215 24.7206 15.5204 24.7226C15.5187 24.7258 15.5294 24.7032 15.563 24.6866L15.6518 24.8658L15.7406 25.045C15.8094 25.0109 15.8498 24.9548 15.8728 24.9119C15.8965 24.8677 15.9115 24.8199 15.9217 24.7766C15.942 24.69 15.9506 24.5887 15.9541 24.4936C15.9612 24.3041 15.9492 24.0906 15.9468 23.9931L15.7469 23.998ZM15.6518 24.8658L15.5638 24.6862C15.5693 24.6835 15.5573 24.6893 15.5116 24.6967C15.4715 24.7031 15.419 24.7087 15.3559 24.7132C15.2299 24.7224 15.0737 24.7266 14.9137 24.728C14.5858 24.731 14.2806 24.7226 14.1654 24.7227L14.1656 24.9227L14.1657 25.1227C14.2529 25.1226 14.5987 25.1309 14.9173 25.128C15.0804 25.1265 15.2463 25.1222 15.3847 25.1122C15.4537 25.1072 15.519 25.1006 15.575 25.0916C15.6256 25.0835 15.6882 25.0706 15.7398 25.0454L15.6518 24.8658ZM14.1656 24.9227L14.1646 24.7227C13.4619 24.726 12.7588 24.7243 12.0559 24.7182L12.0541 24.9182L12.0524 25.1182C12.757 25.1243 13.4619 25.126 14.1665 25.1227L14.1656 24.9227ZM12.0541 24.9182L12.1703 24.7554C12.0957 24.7022 12.0824 24.6672 12.0755 24.6366C12.0627 24.5796 12.0687 24.5212 12.0692 24.3745L11.8692 24.3738L11.6692 24.3731C11.6689 24.4721 11.6594 24.6089 11.6853 24.7242C11.7171 24.8658 11.7966 24.9802 11.938 25.081L12.0541 24.9182ZM11.8692 24.3738L12.0692 24.3743C12.0696 24.2107 12.0734 24.062 12.0745 23.8931L11.8745 23.8918L11.6745 23.8905C11.6736 24.0418 11.6696 24.2168 11.6692 24.3734L11.8692 24.3738ZM11.8745 23.8918L11.875 23.6918L9.52717 23.6864L9.52671 23.8864L9.52625 24.0864L11.8741 24.0918L11.8745 23.8918ZM9.52671 23.8864L9.52467 23.6864L8.97292 23.692L8.97496 23.892L8.977 24.092L9.52875 24.0864L9.52671 23.8864ZM8.97496 23.892L8.77506 23.8856C8.757 24.4512 8.77137 25.0896 8.7722 25.6497L8.9722 25.6494L9.1722 25.6491C9.17135 25.0764 9.15708 24.4553 9.17486 23.8984L8.97496 23.892ZM8.9722 25.6494L8.96764 25.8493C9.31184 25.8572 9.65872 25.8546 10.002 25.8522C10.3464 25.8498 10.6873 25.8475 11.0246 25.8556L11.0294 25.6557L11.0342 25.4557C10.6897 25.4475 10.3426 25.4498 9.99922 25.4522C9.65475 25.4546 9.31396 25.4571 8.97677 25.4494L8.9722 25.6494ZM11.0294 25.6557L10.9971 25.853C11.0271 25.858 11.0525 25.8911 11.0533 25.9115L11.2532 25.9037L11.453 25.8959C11.4445 25.6773 11.271 25.4926 11.0618 25.4583L11.0294 25.6557ZM11.2532 25.9037L11.0533 25.9115C11.0544 25.9395 11.0507 25.954 11.0486 25.9597C11.047 25.9642 11.046 25.9647 11.0458 25.9648C11.0435 25.967 11.0223 25.9828 10.9547 25.9861L10.9647 26.1859L10.9746 26.3856C11.0878 26.38 11.2147 26.3509 11.3133 26.2623C11.4189 26.1673 11.4585 26.0351 11.453 25.8958L11.2532 25.9037ZM10.9647 26.1859L10.9548 25.9861C10.701 25.9987 10.4541 25.9936 10.191 25.9924L10.1901 26.1924L10.1892 26.3924C10.4437 26.3936 10.7067 26.3989 10.9745 26.3856L10.9647 26.1859ZM10.1901 26.1924L10.1906 25.9924L8.79769 25.9888L8.79717 26.1888L8.79665 26.3888L10.1896 26.3924L10.1901 26.1924ZM8.79717 26.1888L8.79688 25.9888L7.25809 25.9911L7.25838 26.1911L7.25867 26.3911L8.79746 26.3888L8.79717 26.1888ZM7.25838 26.1911L7.25806 25.9911C7.12518 25.9913 6.94586 26.0033 6.72966 25.9995C6.62854 25.9978 6.53495 25.9923 6.45949 25.981C6.42188 25.9755 6.3924 25.969 6.37069 25.9623C6.34748 25.9551 6.34176 25.9503 6.34511 25.9527L6.22724 26.1143L6.10936 26.2759C6.19437 26.3379 6.30956 26.3632 6.4007 26.3767C6.50098 26.3916 6.6142 26.3976 6.72266 26.3995C6.92563 26.403 7.17659 26.3912 7.2587 26.3911L7.25838 26.1911ZM6.22724 26.1143L6.34542 25.953C6.35137 25.9573 6.34935 25.9597 6.3471 25.9505C6.3447 25.9408 6.34432 25.9255 6.34933 25.9087C6.35419 25.8925 6.36233 25.8809 6.37048 25.8739C6.37715 25.8681 6.38829 25.8614 6.41034 25.86L6.39837 25.6604L6.3864 25.4608C6.1594 25.4744 6.0156 25.6289 5.96616 25.7939C5.92072 25.9456 5.94422 26.1549 6.10905 26.2757L6.22724 26.1143ZM6.39837 25.6604L6.41018 25.8601C6.6396 25.8465 6.87947 25.8517 7.13216 25.8528L7.13296 25.6528L7.13377 25.4528C6.89154 25.4518 6.63245 25.4462 6.38655 25.4608L6.39837 25.6604ZM7.13296 25.6528L7.133 25.8528L8.42348 25.8525L8.42344 25.6525L8.42341 25.4525L7.13293 25.4528L7.13296 25.6528ZM8.42344 25.6525L8.62344 25.6525L8.62298 23.8911L8.42298 23.8911L8.22298 23.8912L8.22344 25.6526L8.42344 25.6525ZM8.42298 23.8911L8.42782 23.6912C6.98992 23.6564 5.51466 23.6884 4.08361 23.6803L4.08249 23.8803L4.08136 24.0803C5.52977 24.0885 6.98271 24.0563 8.41814 24.0911L8.42298 23.8911ZM4.08249 23.8803L4.08818 23.6804C3.72389 23.67 3.339 23.6866 2.97132 23.6941C2.59869 23.7017 2.2379 23.7002 1.8996 23.6572L1.87434 23.8556L1.84908 24.054C2.21828 24.101 2.60378 24.1017 2.97946 24.094C3.3601 24.0863 3.72553 24.0702 4.0768 24.0802L4.08249 23.8803ZM1.87434 23.8556L1.89966 23.6572C1.36296 23.5887 0.821257 23.1339 0.585187 22.6459L0.40515 22.733L0.225113 22.8201C0.507582 23.404 1.15201 23.965 1.84901 24.0539L1.87434 23.8556ZM0.40515 22.733L0.585206 22.646C0.362512 22.1854 0.407226 21.6891 0.408752 21.1133L0.208753 21.1127L0.00875373 21.1122C0.00737097 21.634 -0.0485398 22.2542 0.225095 22.8201L0.40515 22.733ZM0.207375 3.44947L0.407374 3.44911C0.406517 2.98543 0.385334 2.51643 0.418517 2.07901L0.21909 2.06388L0.0196627 2.04875C-0.0150794 2.50673 0.00656294 3.01049 0.00737514 3.44984L0.207375 3.44947ZM0.21909 2.06388L0.418515 2.07903C0.486749 1.18105 1.17259 0.535245 2.07903 0.412201L2.05213 0.214019L2.02523 0.0158364C0.957996 0.160706 0.104103 0.937489 0.0196646 2.04873L0.21909 2.06388ZM2.05213 0.214019L2.0768 0.412491C2.19619 0.397652 2.46762 0.400609 2.62588 0.400291L2.62547 0.200291L2.62507 0.000291597C2.48911 0.00056501 2.17865 -0.00324649 2.02746 0.0155463L2.05213 0.214019ZM2.62547 0.200291L2.62503 0.400291L3.64929 0.402541L3.64972 0.202542L3.65016 0.00254211L2.62591 0.000291675L2.62547 0.200291ZM14.5853 20.4484L14.6265 20.2527C14.5115 20.2285 14.3218 20.2224 14.1538 20.2208C13.981 20.219 13.7974 20.2222 13.698 20.2223L13.6981 20.4223L13.6983 20.6223C13.8098 20.6222 13.9777 20.619 14.1498 20.6207C14.3266 20.6225 14.475 20.6296 14.5441 20.6441L14.5853 20.4484ZM13.6981 20.4223L13.698 20.2223L12.1845 20.2234L12.1846 20.4234L12.1848 20.6234L13.6983 20.6223L13.6981 20.4223ZM12.1846 20.4234L12.0079 20.5171C12.0439 20.5851 12.0882 20.6656 12.1272 20.7478C12.1684 20.8347 12.1914 20.8988 12.1963 20.9332L12.3943 20.905L12.5923 20.8768C12.5781 20.7767 12.5304 20.6645 12.4886 20.5764C12.4446 20.4836 12.3936 20.3907 12.3613 20.3297L12.1846 20.4234ZM12.3943 20.905L12.1963 20.933C12.2506 21.3173 12.2302 21.7808 12.2288 22.2055L12.4288 22.2062L12.6288 22.2069C12.6301 21.8095 12.652 21.2989 12.5924 20.877L12.3943 20.905ZM12.4288 22.2062L12.2288 22.206L12.2263 24.3822L12.4263 24.3824L12.6263 24.3826L12.6288 22.2064L12.4288 22.2062ZM12.4263 24.3824L12.4247 24.5824C13.3303 24.5897 14.2916 24.5965 15.1992 24.5799L15.1956 24.3799L15.1919 24.1799C14.2903 24.1964 13.3342 24.1897 12.4279 24.1824L12.4263 24.3824ZM15.1956 24.3799L15.3956 24.3803L15.3999 22.1611L15.1999 22.1607L15 22.1604L14.9956 24.3795L15.1956 24.3799ZM15.1999 22.1607L15.3999 22.1609C15.4003 21.816 15.4144 21.3842 15.3747 21.0176L15.1758 21.0391L14.977 21.0607C15.0136 21.3987 15.0003 21.7945 14.9999 22.1606L15.1999 22.1607ZM15.1758 21.0391L15.3747 21.0176C15.3638 20.9178 15.3172 20.8164 15.2729 20.7391C15.2264 20.6581 15.1677 20.5784 15.1106 20.5204L14.9682 20.6608L14.8257 20.8012C14.8543 20.8302 14.8931 20.881 14.9259 20.9381C14.9608 20.999 14.9751 21.0431 14.977 21.0607L15.1758 21.0391ZM14.9682 20.6608L15.1116 20.5215C14.9808 20.3868 14.8123 20.2933 14.628 20.253L14.5853 20.4484L14.5425 20.6438C14.6507 20.6674 14.749 20.7222 14.8247 20.8002L14.9682 20.6608ZM4.8033 0.742647L4.80328 0.542647C3.98321 0.542726 2.93141 0.515001 2.11011 0.550485L2.11875 0.750298L2.12738 0.950112C2.93757 0.915108 3.96555 0.942728 4.80332 0.942647L4.8033 0.742647ZM2.11875 0.750298L2.09125 0.552198C1.59861 0.620575 1.20794 0.826788 0.897985 1.22716L1.05613 1.34959L1.21428 1.47202C1.45432 1.16195 1.74713 1.0038 2.14624 0.948399L2.11875 0.750298ZM1.05613 1.34959L0.897957 1.2272C0.700911 1.48184 0.576283 1.83489 0.564545 2.15167L0.764408 2.15907L0.964271 2.16648C0.972989 1.93121 1.06959 1.65901 1.21431 1.47199L1.05613 1.34959ZM0.764408 2.15907L0.564543 2.15172C0.547086 2.62631 0.550652 3.12163 0.54879 3.59068L0.748788 3.59148L0.948786 3.59227C0.950674 3.11684 0.947134 2.63236 0.964273 2.16642L0.764408 2.15907ZM0.748788 3.59148L0.548789 3.59097L0.541898 6.30387L0.741897 6.30438L0.941896 6.30489L0.948787 3.59199L0.748788 3.59148ZM0.742127 19.7134L0.54213 19.7145L0.550858 21.2788L0.750855 21.2777L0.950852 21.2766L0.942123 19.7123L0.742127 19.7134ZM0.750855 21.2777L0.550868 21.2799C0.553283 21.495 0.547954 21.9359 0.585741 22.1624L0.783014 22.1295L0.980287 22.0966C0.949216 21.9103 0.953601 21.5211 0.950843 21.2754L0.750855 21.2777ZM0.783014 22.1295L0.585942 22.1636C0.66261 22.6067 0.919015 22.9993 1.29488 23.2527L1.40666 23.0868L1.51844 22.921C1.23157 22.7276 1.03789 22.4295 0.980086 22.0954L0.783014 22.1295ZM1.40666 23.0868L1.29327 23.2516C1.51786 23.4061 1.77763 23.5046 2.04956 23.538L2.07395 23.3395L2.09835 23.141C1.89011 23.1154 1.69145 23.04 1.52006 22.9221L1.40666 23.0868ZM2.07395 23.3395L2.05065 23.5382C2.34803 23.5731 2.88481 23.5589 3.17794 23.5596L3.17837 23.3596L3.1788 23.1596C2.8569 23.1589 2.36426 23.1722 2.09726 23.1409L2.07395 23.3395ZM3.17837 23.3596L3.17779 23.5596L5.10363 23.5652L5.10421 23.3652L5.1048 23.1652L3.17896 23.1596L3.17837 23.3596ZM5.10421 23.3652L5.1044 23.5652L11.8754 23.5589L11.8752 23.3589L11.875 23.1589L5.10403 23.1652L5.10421 23.3652ZM11.8752 23.3589L12.0752 23.3588C12.0749 22.8492 12.0872 22.2688 12.0719 21.7535L11.872 21.7595L11.6721 21.7654C11.6872 22.2733 11.6749 22.8361 11.6752 23.359L11.8752 23.3589ZM11.872 21.7595L11.877 21.5596C11.5565 21.5515 11.2358 21.5545 10.9197 21.5569C10.6023 21.5592 10.2892 21.5609 9.97755 21.5506L9.97096 21.7505L9.96436 21.9504C10.2851 21.961 10.6059 21.9592 10.9226 21.9569C11.2406 21.9545 11.5543 21.9516 11.867 21.9594L11.872 21.7595ZM9.97096 21.7505L9.97766 21.5506C9.9733 21.5505 9.9607 21.5473 9.94778 21.5342C9.93445 21.5207 9.93532 21.5118 9.93526 21.5158L9.73528 21.5131L9.5353 21.5103C9.53362 21.6331 9.58962 21.7408 9.66319 21.8153C9.73716 21.8902 9.84321 21.9463 9.96426 21.9504L9.97096 21.7505ZM9.73528 21.5131L9.93526 21.5159C9.94225 21.026 9.92787 20.5131 9.9189 20.0094C9.90987 19.5031 9.90623 19.0039 9.93357 18.5304L9.7339 18.5189L9.53424 18.5073C9.50595 18.997 9.50992 19.5093 9.51896 20.0165C9.52804 20.5262 9.54217 21.0288 9.5353 21.5102L9.73528 21.5131ZM9.7339 18.5189L9.87388 18.6617C9.93152 18.6052 9.97503 18.5596 10.0166 18.5277L9.89493 18.369L9.7733 18.2102C9.70636 18.2615 9.63566 18.3351 9.59393 18.376L9.7339 18.5189ZM9.89493 18.369L9.89491 18.569L12.9833 18.5692L12.9833 18.3692L12.9833 18.1692L9.89494 18.169L9.89493 18.369ZM12.9833 18.3692L12.9841 18.5692L14.0531 18.5652L14.0523 18.3652L14.0516 18.1652L12.9825 18.1692L12.9833 18.3692ZM14.0523 18.3652L14.0539 18.5652C14.2656 18.5635 14.4022 18.5624 14.4984 18.5725C14.5965 18.5829 14.5997 18.6009 14.5916 18.5915C14.5888 18.5882 14.6059 18.6052 14.6122 18.7188C14.6181 18.8276 14.6134 18.972 14.6113 19.1898L14.8113 19.1917L15.0113 19.1936C15.0132 18.9921 15.0185 18.8228 15.0116 18.6969C15.0049 18.5759 14.9862 18.4374 14.8955 18.3315C14.7997 18.2195 14.6631 18.1877 14.5404 18.1748C14.4159 18.1616 14.2508 18.1636 14.0508 18.1652L14.0523 18.3652ZM14.8113 19.1917L14.6113 19.189C14.6079 19.4382 14.6066 19.6875 14.6076 19.9368L14.8076 19.936L15.0076 19.9351C15.0066 19.6883 15.0079 19.4414 15.0113 19.1945L14.8113 19.1917ZM14.8076 19.936L14.7342 20.122C15.0844 20.2602 15.3099 20.4327 15.4508 20.7501L15.6336 20.6689L15.8164 20.5878C15.6198 20.145 15.294 19.9129 14.881 19.7499L14.8076 19.936ZM15.6336 20.6689L15.4503 20.7489C15.4944 20.85 15.5232 20.9572 15.5358 21.0664L15.7345 21.0434L15.9331 21.0204C15.916 20.8721 15.8769 20.7265 15.817 20.589L15.6336 20.6689ZM15.7345 21.0434L15.5359 21.0673C15.5538 21.2156 15.5545 21.3686 15.552 21.5309L15.7519 21.534L15.9519 21.5371C15.9545 21.3725 15.9544 21.1965 15.933 21.0195L15.7345 21.0434ZM15.7519 21.534L15.552 21.531C15.5477 21.8144 15.5477 22.0976 15.5476 22.379C15.5476 22.6609 15.5474 22.9411 15.543 23.2209L15.743 23.2241L15.9429 23.2273C15.9475 22.9438 15.9476 22.6606 15.9476 22.3791C15.9477 22.0971 15.9477 21.8169 15.9519 21.537L15.7519 21.534ZM15.743 23.2241L15.8365 23.4009C16.3964 23.1047 16.6633 22.7472 16.7748 22.3122C16.8283 22.1032 16.844 21.884 16.8473 21.6603C16.8505 21.4429 16.8415 21.1927 16.8407 20.9518L16.6407 20.9525L16.4407 20.9532C16.4415 21.2182 16.4505 21.4366 16.4473 21.6544C16.4442 21.866 16.4293 22.0488 16.3873 22.2129C16.3076 22.5239 16.1241 22.7962 15.6495 23.0473L15.743 23.2241ZM16.6407 20.9525L16.8407 20.9521L16.8377 19.5849L16.6377 19.5853L16.4377 19.5858L16.4407 20.9529L16.6407 20.9525ZM16.642 3.71368L16.842 3.71363C16.842 3.41001 16.866 2.98201 16.856 2.59724C16.8457 2.20333 16.801 1.78866 16.6461 1.453L16.4645 1.53683L16.2829 1.62066C16.4022 1.87904 16.4462 2.22535 16.4561 2.60763C16.4663 2.99905 16.442 3.36245 16.442 3.71372L16.642 3.71368ZM16.4645 1.53683L16.6461 1.45304C16.5561 1.258 16.3924 1.0734 16.2114 0.928394C16.0299 0.783019 15.8127 0.662879 15.6011 0.612081L15.5544 0.806559L15.5077 1.00104C15.6473 1.03454 15.8121 1.12112 15.9613 1.2406C16.1109 1.36045 16.2267 1.49883 16.2829 1.62062L16.4645 1.53683ZM15.5544 0.806559L15.5902 0.609797C15.2701 0.55148 14.8644 0.53599 14.4683 0.534049C14.2688 0.533072 14.0687 0.535558 13.8797 0.538246C13.69 0.540945 13.5126 0.543827 13.3553 0.543772L13.3552 0.743772L13.3551 0.943772C13.5161 0.943829 13.6974 0.940881 13.8854 0.938206C14.0743 0.935519 14.271 0.933087 14.4664 0.934044C14.86 0.935973 15.2355 0.951764 15.5185 1.00332L15.5544 0.806559ZM11.8878 21.2156L12.0857 21.1866C12.0414 20.8836 11.9276 20.6203 11.7165 20.4436C11.5028 20.2649 11.2205 20.2005 10.8936 20.2341L10.9141 20.4331L10.9346 20.632C11.1868 20.6061 11.3513 20.6596 11.4598 20.7504C11.5707 20.8433 11.6543 21.001 11.69 21.2445L11.8878 21.2156ZM10.9141 20.4331L10.8573 20.2413C10.6225 20.311 10.432 20.4171 10.2954 20.5846C10.1594 20.7516 10.0946 20.958 10.0695 21.1942L10.2684 21.2153L10.4673 21.2365C10.4875 21.0459 10.5353 20.9235 10.6055 20.8373C10.6753 20.7516 10.785 20.68 10.971 20.6248L10.9141 20.4331ZM10.2684 21.2153L10.2668 21.4153C10.5963 21.418 10.9259 21.4187 11.2556 21.4174L11.2548 21.2174L11.254 21.0174C10.9259 21.0187 10.598 21.018 10.27 21.0153L10.2684 21.2153ZM11.2548 21.2174L11.2553 21.4174L11.8884 21.4156L11.8878 21.2156L11.8873 21.0156L11.2542 21.0174L11.2548 21.2174ZM14.2572 18.9064L14.2588 18.7064C12.9485 18.6965 11.5912 18.691 10.2794 18.7046L10.2815 18.9046L10.2836 19.1046C11.5917 19.091 12.9462 19.0964 14.2557 19.1064L14.2572 18.9064ZM10.2815 18.9046L10.0815 18.9022C10.0766 19.3097 10.0746 19.7175 10.0753 20.1251L10.2753 20.1248L10.4753 20.1244C10.4746 19.7186 10.4766 19.3126 10.4815 18.907L10.2815 18.9046ZM10.2753 20.1248L10.3738 20.2988C10.8833 20.0106 11.304 20.0799 11.971 20.0815L11.9715 19.8815L11.9719 19.6815C11.3683 19.6801 10.8033 19.5962 10.1768 19.9507L10.2753 20.1248ZM11.9715 19.8815L11.9703 20.0815C12.6405 20.0853 13.3108 20.0856 13.9812 20.0824L13.9802 19.8824L13.9793 19.6824C13.3103 19.6856 12.6414 19.6853 11.9726 19.6815L11.9715 19.8815ZM13.9802 19.8824L13.982 20.0824L14.2593 20.0799L14.2575 19.8799L14.2557 19.6799L13.9784 19.6824L13.9802 19.8824ZM14.2575 19.8799L14.4575 19.8799L14.4572 18.9063L14.2572 18.9064L14.0572 18.9064L14.0575 19.88L14.2575 19.8799ZM2.31859 14.0404L2.51859 14.0404L2.51951 5.31949L2.31951 5.31947L2.11951 5.31945L2.11859 14.0403L2.31859 14.0404ZM14.5322 15.4521L14.7322 15.4521L14.7315 4.95308L14.5315 4.9531L14.3315 4.95311L14.3322 15.4521L14.5322 15.4521ZM13.0155 2.58788L13.0155 2.38788L5.76302 2.38743L5.76301 2.58743L5.76299 2.78743L13.0154 2.78788L13.0155 2.58788ZM3.64972 0.202542L3.64969 0.402542L12.3624 0.403892L12.3624 0.203892L12.3624 0.0038919L3.64976 0.00254163L3.64972 0.202542ZM17.1729 5.33512L16.9729 5.33515L16.9747 18.6143L17.1747 18.6143L17.3747 18.6143L17.3729 5.33509L17.1729 5.33512ZM0.208753 21.1127L0.408753 21.1127L0.407375 3.44946L0.207375 3.44947L0.0073748 3.44949L0.00875303 21.1127L0.208753 21.1127ZM0.741897 6.30438L0.541897 6.30438L0.542127 19.7134L0.742127 19.7134L0.942127 19.7134L0.941897 6.30438L0.741897 6.30438ZM16.6377 19.5853L16.8377 19.5854L16.842 3.71373L16.642 3.71368L16.442 3.71362L16.4377 19.5853L16.6377 19.5853ZM13.3552 0.743772L13.3552 0.543772L4.80333 0.542647L4.8033 0.742647L4.80327 0.942647L13.3552 0.943772L13.3552 0.743772Z" fill="#9E9B98" mask="url(#path-1-outside-1_10780_38240)"/>
</svg>
