<svg width="24" height="24" viewBox="0 0 24 24" fill="none" xmlns="http://www.w3.org/2000/svg">
<path d="M10.6304 9.88043C10.2162 9.88043 9.88043 10.2162 9.88043 10.6304C9.88043 11.0446 10.2162 11.3804 10.6304 11.3804V9.88043ZM12.1957 10.6304H12.9457C12.9457 10.2162 12.6099 9.88043 12.1957 9.88043V10.6304ZM11.4457 16.3043C11.4457 16.7186 11.7814 17.0543 12.1957 17.0543C12.6099 17.0543 12.9457 16.7186 12.9457 16.3043H11.4457ZM10.0435 15.75C9.62926 15.75 9.29348 16.0858 9.29348 16.5C9.29348 16.9142 9.62926 17.25 10.0435 17.25V15.75ZM14.3478 17.25C14.762 17.25 15.0978 16.9142 15.0978 16.5C15.0978 16.0858 14.762 15.75 14.3478 15.75V17.25ZM12 2.25C6.61573 2.25 2.25 6.61573 2.25 12H3.75C3.75 7.44416 7.44416 3.75 12 3.75V2.25ZM2.25 12C2.25 17.3843 6.61573 21.75 12 21.75V20.25C7.44416 20.25 3.75 16.5558 3.75 12H2.25ZM12 21.75C17.3843 21.75 21.75 17.3843 21.75 12H20.25C20.25 16.5558 16.5558 20.25 12 20.25V21.75ZM21.75 12C21.75 6.61573 17.3843 2.25 12 2.25V3.75C16.5558 3.75 20.25 7.44416 20.25 12H21.75ZM10.6304 11.3804H12.1957V9.88043H10.6304V11.3804ZM11.4457 10.6304V16.3043H12.9457V10.6304H11.4457ZM10.0435 17.25H14.3478V15.75H10.0435V17.25Z" fill="#9E9B98"/>
<path d="M11.625 6.09375C11.384 6.09375 11.1483 6.16523 10.9479 6.29915C10.7475 6.43306 10.5913 6.62341 10.499 6.8461C10.4068 7.0688 10.3826 7.31385 10.4297 7.55027C10.4767 7.78668 10.5928 8.00384 10.7632 8.17429C10.9337 8.34473 11.1508 8.46081 11.3872 8.50783C11.6236 8.55486 11.8687 8.53072 12.0914 8.43848C12.3141 8.34623 12.5044 8.19002 12.6384 7.9896C12.7723 7.78918 12.8438 7.55355 12.8438 7.3125C12.8438 6.98927 12.7153 6.67927 12.4868 6.45071C12.2582 6.22215 11.9482 6.09375 11.625 6.09375Z" fill="#9E9B98"/>
</svg>
