<svg width="204" height="160" viewBox="0 0 204 160" fill="none" xmlns="http://www.w3.org/2000/svg">
<rect x="0.888672" y="0.667969" width="202.222" height="158.889" rx="21.6667" fill="#D5AE6C"/>
<path d="M98.9238 84.4873C100.135 83.463 101.856 83.1234 104.193 83.4912C113.076 84.8624 113.838 90.3406 114.524 95.1768L114.602 95.7139L115.011 98.4365C115.811 103.636 117.481 114.429 117.481 120.061C117.481 121.468 117.357 122.548 117.131 123.142C116.754 124.056 115.655 124.934 114.139 125.666C110.469 126.569 106.632 127.059 102.681 127.059C102.262 127.059 101.851 127.038 101.438 127.025C99.8409 126.572 98.6404 125.815 98.0049 124.78C96.0122 121.536 95.9642 114.156 95.9277 105.621L95.9121 103.184C95.8494 94.5743 95.7961 87.151 98.9238 84.4873ZM85.8711 102.236C87.6921 102.134 88.8635 111.091 89.0986 117.882C89.2637 122.609 88.7673 124.554 87.9746 125.253C87.0773 124.954 86.195 124.63 85.3262 124.277C84.7464 123.224 84.303 121.566 84.0215 119.396C83.1621 112.575 83.9084 102.358 85.8711 102.236ZM123.951 102.598C126.815 101.214 131.944 113.457 131.52 115.62C131.406 116.242 131.246 116.723 131.049 117.128C129.492 118.377 127.856 119.524 126.144 120.556C125.598 120.648 125.114 120.584 124.877 120.184C122.608 116.196 121.755 103.687 123.951 102.598ZM102.001 33.1699C127.861 33.1699 148.836 53.8842 148.943 79.4805V79.8828C148.896 91.263 144.708 101.675 137.809 109.733C137.558 109.607 137.102 109.196 136.275 107.96C135.42 106.716 128.038 95.3566 128.038 82.3379C128.039 79.783 131.721 75.7922 134.979 72.2891C137.416 69.6532 139.723 67.166 140.573 65.2119C141.655 62.69 140.898 60.9289 139.7 60.332C138.616 59.8019 136.989 60.1894 135.847 62.2178C133.973 65.5003 133.372 66.114 130.639 68.3105C127.948 70.5063 123.671 72.7164 123.671 69.8555C123.671 68.3106 126.053 64.8118 127.229 62.3594C128.431 59.8799 127.136 58.085 124.654 58.085C119.782 58.0853 116.547 64.293 116.547 66.4434C116.547 68.5921 117.59 68.8983 117.59 71.4004C117.59 73.9216 112.243 77.1924 107.206 77.1924C102.137 77.1924 99.2937 76.1196 98.2314 73.0576L97.8945 72.0615C96.6997 68.5697 95.8424 66.037 94.3506 63.3906C93.5583 61.9911 92.3364 61.0206 91.2793 60.167C89.8976 59.0939 89.1809 58.106 89.0312 57.3691C88.8934 56.6381 88.8187 55.26 91.1807 52.084C93.5376 48.9259 93.868 46.5396 92.6885 45.3086C92.2608 44.8708 91.5322 44.5909 90.5967 44.5908C88.9412 44.5908 86.6411 45.4677 84.2705 47.877C80.5855 51.6529 82.6767 55.2377 82.6768 56.8115C82.6768 58.3842 82.0021 59.2738 79.791 61.4131C77.5634 63.5623 76.7938 65.4053 76.5391 72.8105C76.4415 76.6259 75.7702 78.823 75.167 80.7705C74.6457 82.4777 74.1656 84.0824 74.1396 86.4014C74.0984 88.9706 74.5263 90.6265 75.0254 92.5371C75.5154 94.303 76.0366 96.3271 76.3701 99.7119C76.9447 105.388 76.6801 110.11 75.4941 115.035L75.4336 115.361C75.2362 116.156 75.0017 117.121 74.6846 117.483C62.8031 109.044 55.0547 95.262 55.0547 79.6826C55.0549 53.9964 76.0725 33.1701 102.001 33.1699Z" fill="white"/>
</svg>
