<svg width="309" height="72" viewBox="0 0 309 72" fill="none" xmlns="http://www.w3.org/2000/svg">
<path d="M196.1 27.2812C199.384 27.2812 201.938 28.4938 203.761 30.9189C205.584 33.3441 206.495 36.6779 206.495 40.9199V41.3145C206.495 45.458 205.563 48.7676 203.699 51.2422C201.835 53.7167 199.319 54.9541 196.149 54.9541C193.703 54.9541 191.691 54.0578 190.114 52.2656V64.7207H181.812V27.7744H189.572L189.818 30.2412C191.411 28.2682 193.505 27.2813 196.1 27.2812ZM249.35 18.0605C252.388 18.0605 255.097 18.7837 257.479 20.2305C259.86 21.6774 261.711 23.7373 263.033 26.4092C264.355 29.0811 265.025 32.1438 265.041 35.5967V37.249C265.041 40.5702 264.491 43.4679 263.391 45.9424C262.29 48.417 260.772 50.4031 258.834 51.8994L264.622 56.4863L259.277 61.0244L251.567 54.8096C250.845 54.9082 250.122 54.957 249.399 54.957C246.345 54.957 243.635 54.25 241.271 52.8359C238.906 51.4219 237.062 49.3994 235.74 46.7686C234.418 44.1378 233.733 41.1123 233.684 37.6924V35.7939C233.684 32.2588 234.328 29.1508 235.617 26.4707C236.906 23.7906 238.745 21.7183 241.135 20.2549C243.524 18.7916 246.262 18.0606 249.35 18.0605ZM141.794 27.2812C145.193 27.2812 147.879 28.1118 149.85 29.7725C151.82 31.4331 152.83 33.7108 152.879 36.6045V48.418C152.912 50.8676 153.289 52.7421 154.012 54.041V54.4609H145.711C145.415 53.9183 145.153 53.1206 144.923 52.0684C143.396 53.992 141.261 54.954 138.519 54.9541C136.006 54.9541 133.87 54.1938 132.113 52.6729C130.356 51.152 129.478 49.2403 129.478 46.9385C129.478 44.0448 130.545 41.8578 132.68 40.3779C134.815 38.8981 137.919 38.1582 141.991 38.1582H144.553V36.752C144.553 34.3023 143.494 33.0773 141.376 33.0771C139.405 33.0771 138.42 34.0473 138.42 35.9873H130.118C130.118 33.4059 131.215 31.3096 133.407 29.6982C135.599 28.0871 138.395 27.2813 141.794 27.2812ZM167.023 27.2812C170.538 27.2812 173.363 28.0789 175.498 29.6738C177.633 31.2687 178.7 33.3651 178.7 35.9629H170.374C170.374 33.8254 169.249 32.7568 166.999 32.7568C166.129 32.7569 165.398 32.9994 164.807 33.4844C164.216 33.9694 163.92 34.5736 163.92 35.2969C163.92 36.0368 164.281 36.6373 165.004 37.0977C165.726 37.558 166.88 37.9365 168.465 38.2324C170.05 38.5284 171.442 38.8819 172.641 39.293C176.647 40.6741 178.65 43.1482 178.65 46.7158C178.65 49.1493 177.571 51.131 175.411 52.6602C173.252 54.1892 170.456 54.9541 167.023 54.9541C164.741 54.954 162.705 54.5428 160.915 53.7207C159.125 52.8986 157.729 51.7803 156.728 50.3662C155.726 48.9522 155.225 47.4643 155.225 45.9023H162.984C163.017 47.1355 163.428 48.0362 164.216 48.6035C165.004 49.1706 166.014 49.454 167.245 49.4541C168.378 49.4541 169.228 49.2239 169.795 48.7637C170.361 48.3033 170.645 47.7028 170.645 46.9629C170.645 46.2559 170.275 45.6882 169.536 45.2607C168.797 44.8333 167.393 44.39 165.324 43.9297C163.255 43.4693 161.547 42.8643 160.2 42.1162C158.854 41.3682 157.827 40.4602 157.121 39.3916C156.415 38.3228 156.062 37.097 156.062 35.7158C156.063 33.2661 157.072 31.2477 159.092 29.6611C161.112 28.0745 163.756 27.2813 167.023 27.2812ZM108.236 34.3867L111.241 29.8242L118.977 18.5527H129.667L117.548 34.4355L129.667 54.4629H119.42L111.783 41.0947L108.236 44.9922V54.4629H99.5898V18.5527H108.236V34.3867ZM282.783 18.5527C287.036 18.5527 290.362 19.4979 292.76 21.3887C295.157 23.2795 296.356 25.9515 296.356 29.4043C296.356 31.9036 295.852 33.9759 294.842 35.6201C293.832 37.2643 292.251 38.5958 290.1 39.6152L297.588 54.0928V54.4629H288.326L281.995 41.7861H277.315V54.4629H268.669V18.5527H282.783ZM218.128 54.46H209.803V27.7734H218.128V54.46ZM142.138 42.5996C139.247 42.5996 137.803 43.8982 137.803 46.4961C137.803 47.2524 138.057 47.8654 138.566 48.334C139.075 48.8023 139.724 49.0361 140.512 49.0361C141.546 49.0361 142.404 48.8149 143.086 48.3711C143.767 47.9272 144.256 47.4252 144.552 46.8662V42.5996H142.138ZM194.056 33.6943C192.085 33.6944 190.772 34.4018 190.115 35.8154V46.3223C190.838 47.8021 192.168 48.542 194.105 48.542C196.749 48.5419 198.112 46.2565 198.194 41.6855V40.7979C198.194 36.0625 196.815 33.6943 194.056 33.6943ZM249.35 24.8408C247.067 24.8408 245.351 25.753 244.201 27.5781C243.052 29.4032 242.469 32.0751 242.452 35.5938V37.2461C242.452 40.7812 243.035 43.4904 244.201 45.373C245.367 47.2556 247.1 48.1971 249.398 48.1973C251.599 48.1973 253.287 47.2681 254.461 45.4102C255.635 43.5522 256.231 40.8802 256.247 37.3945V35.7422C256.247 32.1742 255.651 29.465 254.461 27.6152C253.27 25.7655 251.567 24.8408 249.35 24.8408ZM277.317 25.2373V35.1025H282.786C284.428 35.1025 285.664 34.6708 286.493 33.8076C287.322 32.9444 287.737 31.7399 287.737 30.1943C287.737 28.6489 287.318 27.4363 286.48 26.5566C285.643 25.6771 284.412 25.2374 282.786 25.2373H277.317ZM213.916 16.8496C215.279 16.8496 216.388 17.228 217.242 17.9844C218.096 18.7407 218.522 19.7108 218.522 20.8945C218.522 22.0782 218.096 23.0484 217.242 23.8047C216.388 24.561 215.279 24.9395 213.916 24.9395C212.553 24.9394 211.445 24.561 210.591 23.8047C209.737 23.0484 209.311 22.0783 209.311 20.8945C209.311 19.7108 209.737 18.7407 210.591 17.9844C211.445 17.2281 212.553 16.8497 213.916 16.8496Z" fill="white"/>
<path d="M14.4209 57.915C14.6578 57.9152 14.8515 58.1016 14.8652 58.335L14.8662 58.3604V67.4922H23.7695C23.9979 67.4924 24.1865 67.6652 24.2119 67.8867L24.2139 67.9121L24.2148 67.9375V71.5547C24.2148 71.7921 24.0281 71.9859 23.7939 71.999L23.7695 72H14.4355C12.2349 71.9993 10.4362 70.2534 10.3604 68.0635L10.3584 67.9971L10.3574 67.9219V58.3604C10.358 58.1237 10.5449 57.9295 10.7783 57.916L10.8027 57.915H14.4209ZM81.9121 57.915C82.1491 57.9151 82.3427 58.1015 82.3564 58.335L82.3574 58.3604V67.9219C82.3574 70.123 80.6113 71.9212 78.4209 71.9971L78.3545 71.999L78.2793 72H68.7178C68.4808 71.9994 68.2865 71.8138 68.2734 71.5801L68.2725 71.5547V67.9375C68.2729 67.7009 68.459 67.5068 68.6924 67.4932L68.7178 67.4922H77.8496V58.3604C77.8501 58.1323 78.0226 57.9433 78.2441 57.918L78.2695 57.916L78.2949 57.915H81.9121ZM43.8203 37.8516C44.1766 37.8517 44.4718 38.1237 44.5059 38.4785L44.5078 38.5088L44.5088 38.54V42.3594H24.4434V57.916H40.001V46.0596H44.5088V61.7363C44.5086 62.0929 44.2364 62.3884 43.8809 62.4219L43.8506 62.4238L43.8203 62.4248H24.1074C21.8322 62.4243 20.0091 60.6182 19.9375 58.3359L19.9355 58.2666V38.54C19.936 38.1839 20.2085 37.8883 20.5635 37.8545L20.5928 37.8516H43.8203ZM60.6973 57.9131H68.2734V54.2129H64.1699V49.7051H72.7822V58.1953C72.7822 60.515 70.971 62.3836 68.6797 62.4209H60.5215V58.3174H52.7168V62.4209H48.8975C48.5273 62.4205 48.2242 62.1282 48.209 61.7617V53.8096H56.1895V45.6006H60.6973V57.9131ZM36.9834 54.8984H27.459V45.375H36.9834V54.8984ZM60.4688 42.3594H52.7168V50.1113H48.209V38.54C48.2094 38.1702 48.502 37.8672 48.8682 37.8516H60.4688V42.3594ZM72.0928 37.8516C72.4631 37.8516 72.7656 38.1444 72.7812 38.5107L72.7822 38.54V42.3594H68.6777V46.4639H64.1699V41.9551H68.2734V37.8516H72.0928ZM43.8203 9.5752C44.1904 9.57539 44.4921 9.86916 44.5078 10.2354L44.5088 10.2637V33.46C44.5088 33.8304 44.2155 34.1332 43.8486 34.1484H20.624C20.2538 34.148 19.9508 33.8557 19.9355 33.4893V13.8008C19.9362 11.4818 21.7473 9.61373 24.0381 9.57617L24.1074 9.5752H43.8203ZM68.6094 9.5752C70.8848 9.5752 72.7073 11.3819 72.7793 13.6641L72.7812 13.7334L72.7822 13.8008V33.46C72.7822 33.8166 72.5098 34.1119 72.1543 34.1455L72.124 34.1484H64.625V29.6406H68.2734V14.083H52.7168V34.1484H48.8975C48.5411 34.148 48.2455 33.8766 48.2119 33.5215L48.209 33.4912V10.2637C48.2096 9.90784 48.4812 9.61204 48.8359 9.57812L48.8662 9.57617L48.8975 9.5752H68.6094ZM60.9258 34.1475H56.418V29.6396H60.9258V34.1475ZM24.4434 29.6436H40V14.0869H24.4434V29.6436ZM36.9834 26.625H27.459V17.1006H36.9834V26.625ZM65.2666 26.625H55.7422V17.1006H65.2666V26.625ZM23.9971 0C24.2345 0 24.4283 0.185834 24.4414 0.419922L24.4424 0.445312V4.0625C24.4424 4.29984 24.2566 4.49371 24.0225 4.50684L23.9971 4.50781H14.8662V13.6396C14.8661 13.8684 14.6929 14.0571 14.4707 14.082L14.4463 14.084L14.4209 14.085H10.8027C10.5656 14.0848 10.3717 13.8988 10.3584 13.665L10.3574 13.6396V4.07812C10.3574 1.87699 12.1035 0.078843 14.2939 0.00292969L14.3604 0.000976562L14.4355 0H23.9971ZM78.2793 0C80.4803 5.42498e-05 82.2783 1.74543 82.3545 3.93555L82.3564 4.00293L82.3574 4.07812V13.6396C82.3573 13.8768 82.1715 14.0708 81.9375 14.084L81.9121 14.085H78.2949C78.0576 14.085 77.8629 13.8989 77.8496 13.665V4.50781H68.7178C68.489 4.5077 68.3005 4.33527 68.2754 4.11328L68.2734 4.08789L68.2725 4.0625V0.445312C68.2725 0.208073 68.4584 0.0142529 68.6924 0.000976562L68.7178 0H78.2793Z" fill="white"/>
</svg>
