<svg width="288" height="288" viewBox="0 0 288 288" fill="none" xmlns="http://www.w3.org/2000/svg">
<path fill-rule="evenodd" clip-rule="evenodd" d="M144.196 0C64.4366 0 0 64.2583 0 143.014C0 190.816 23.9673 233.524 60.1146 259.384C60.9004 258.209 61.6862 255.466 62.472 252.723V251.548C66.0082 236.267 66.794 221.769 65.2224 204.529C64.0437 193.95 62.472 188.073 60.9004 182.588C59.3288 176.71 58.1501 171.617 58.1501 163.78C58.1501 156.728 59.7217 151.634 61.2933 146.54C63.2578 140.663 65.2224 133.61 65.6153 121.856C66.4011 99.1301 68.7585 93.2529 75.4379 86.5919C82.1173 79.931 84.4748 77.1883 84.4748 72.4865C84.4748 71.4638 84.1773 70.126 83.8251 68.5416L83.8251 68.5414C82.5579 62.8415 80.5812 53.9503 89.1896 45.0592C97.0477 38.0064 104.12 35.2637 109.228 35.2637C111.978 35.2637 114.336 36.0473 115.514 37.6146C119.05 41.5328 118.265 48.5855 110.799 58.381C103.727 68.1765 103.727 72.4865 104.12 74.8374C104.513 77.1883 106.87 80.3228 111.192 83.4574C111.775 83.9661 112.385 84.4748 113.007 84.9935C115.739 87.2714 118.702 89.7422 120.622 93.2529C124.353 99.7637 126.608 106.029 129.333 113.603C130.052 115.6 130.803 117.689 131.623 119.897L132.802 123.031C135.945 132.435 144.982 135.569 160.306 135.569C175.629 135.569 192.131 125.382 192.131 117.546C192.131 113.468 191.28 111.3 190.464 109.22C189.711 107.303 188.988 105.46 188.988 102.265C188.988 95.6038 198.81 76.4047 213.741 76.4047C221.206 76.4047 225.528 81.8901 221.599 89.7265C220.43 92.1882 218.831 95.0354 217.214 97.9141C213.942 103.741 210.598 109.697 210.598 112.844C210.598 121.464 223.563 114.803 231.814 108.142C240.065 101.481 242.03 99.522 247.924 89.3347C251.46 83.0656 256.568 81.8901 259.711 83.4574C263.247 85.4165 265.604 90.902 262.461 98.3465C259.711 104.224 252.638 112.06 245.173 120.288C244.543 120.992 243.906 121.701 243.267 122.413C233.936 132.8 223.956 143.908 223.956 151.242C223.956 191.208 246.745 226.471 249.102 229.998C251.46 233.916 253.031 235.091 253.817 235.483C275.034 210.798 288 178.669 288 143.406V142.23C288 63.8665 223.563 0 144.196 0ZM188.585 273.746C187.407 276.488 183.87 279.231 179.156 281.582C167.761 284.325 155.974 285.892 143.794 286.284H139.865C134.757 284.717 131.221 282.366 129.256 279.231C123.363 269.044 122.97 246.71 122.97 220.458V213.014C122.97 212.036 122.969 211.063 122.969 210.096C122.955 185.089 122.943 163.73 132.4 155.808C135.936 152.674 141.437 151.498 148.509 152.674C176.012 156.592 178.37 173.44 180.334 188.329L180.727 189.896L182.299 198.125C182.497 199.473 182.714 200.941 182.946 202.508C185.478 219.605 189.764 248.549 189.764 264.342C189.764 268.652 189.371 271.787 188.585 273.746ZM91.9366 206.745C97.4373 206.745 100.973 234.172 101.759 255.331C102.545 270.22 100.973 276.097 98.2231 278.448C96.8484 277.86 95.4736 277.371 94.0989 276.881L94.0976 276.881L94.0963 276.88C92.7216 276.391 91.3468 275.901 89.9721 275.313C88.4005 271.787 86.8288 266.693 86.043 260.033C83.6856 238.874 86.043 207.137 91.9366 206.745ZM209.825 210.17C219.254 205.86 236.149 243.866 234.578 250.527C234.447 251.05 234.272 251.572 234.098 252.094C233.748 253.139 233.399 254.184 233.399 255.229C228.291 259.147 222.79 262.674 217.29 265.808C215.325 266.2 213.754 265.808 212.968 264.633C205.503 252.486 202.752 213.696 209.825 210.17Z" fill="#F14635"/>
</svg>
