<svg width="24" height="24" viewBox="0 0 24 24" fill="none" xmlns="http://www.w3.org/2000/svg">
<path d="M24 17.9997C24 18.7069 23.719 19.3852 23.219 19.8853C22.7189 20.3854 22.0406 20.6663 21.3333 20.6663H2.66667C1.95942 20.6663 1.28115 20.3854 0.781049 19.8853C0.280952 19.3852 0 18.7069 0 17.9997V5.99967C0 5.29243 0.280952 4.61415 0.781049 4.11406C1.28115 3.61396 1.95942 3.33301 2.66667 3.33301H21.3333C22.0406 3.33301 22.7189 3.61396 23.219 4.11406C23.719 4.61415 24 5.29243 24 5.99967V17.9997Z" fill="#00AFCA"/>
<path d="M12.6903 12.9186C13.7451 12.9186 14.6003 12.0635 14.6003 11.0086C14.6003 9.95377 13.7451 9.09863 12.6903 9.09863C11.6354 9.09863 10.7803 9.95377 10.7803 11.0086C10.7803 12.0635 11.6354 12.9186 12.6903 12.9186Z" fill="#FFCC4D"/>
<path d="M12.6918 8.9535C12.8051 8.95216 12.8464 8.88083 12.8464 8.79616C12.8464 8.68283 12.6918 7.79883 12.6918 7.79883C12.6918 7.79883 12.5344 8.68283 12.5344 8.79616C12.5344 8.88083 12.5771 8.9535 12.6918 8.9535ZM12.6918 13.0722C12.5771 13.0728 12.5344 13.1442 12.5344 13.2288C12.5344 13.3428 12.6918 14.2148 12.6918 14.2148C12.6918 14.2148 12.8464 13.3422 12.8464 13.2288C12.8471 13.1448 12.8051 13.0722 12.6918 13.0722ZM12.1578 12.9915C12.0478 12.9635 11.9898 13.0215 11.9678 13.1035C11.9384 13.2128 11.8591 14.1075 11.8591 14.1075C11.8591 14.1075 12.2398 13.2935 12.2691 13.1842C12.2918 13.1022 12.2684 13.0208 12.1578 12.9915ZM13.2244 9.01283C13.3351 9.04216 13.3951 8.98349 13.4171 8.90216C13.4464 8.79216 13.5198 7.90883 13.5198 7.90883C13.5198 7.90883 13.1451 8.71083 13.1151 8.8215C13.0931 8.90283 13.1144 8.98349 13.2244 9.01283ZM11.6624 12.7848C11.5631 12.7295 11.4918 12.7702 11.4498 12.8442C11.3931 12.9422 11.0851 13.7855 11.0851 13.7855C11.0851 13.7855 11.6631 13.0982 11.7198 13.0002C11.7624 12.9262 11.7618 12.8422 11.6624 12.7848ZM13.7218 9.21749C13.8211 9.27483 13.8944 9.23349 13.9364 9.16016C13.9938 9.06149 14.2931 8.22816 14.2931 8.22816C14.2931 8.22816 13.7224 8.90616 13.6651 9.00416C13.6238 9.0775 13.6238 9.16083 13.7218 9.21749ZM11.2371 12.4588C11.1558 12.3795 11.0764 12.4002 11.0164 12.4602C10.9364 12.5408 10.4204 13.2755 10.4204 13.2755C10.4204 13.2755 11.1571 12.7608 11.2371 12.6815C11.2971 12.6215 11.3184 12.5388 11.2371 12.4588ZM14.1498 9.54549C14.2311 9.62616 14.3118 9.60549 14.3718 9.54549C14.4524 9.46549 14.9578 8.73683 14.9578 8.73683C14.9578 8.73683 14.2318 9.24483 14.1518 9.32549C14.0918 9.38549 14.0698 9.46549 14.1498 9.54549ZM10.9118 12.0328C10.8538 11.9355 10.7718 11.9355 10.6978 11.9775C10.5991 12.0342 9.91109 12.6102 9.91109 12.6102C9.91109 12.6102 10.7558 12.3048 10.8538 12.2482C10.9278 12.2055 10.9691 12.1322 10.9118 12.0328ZM14.4784 9.9735C14.5364 10.0728 14.6204 10.0735 14.6931 10.0315C14.7918 9.97416 15.4684 9.40216 15.4684 9.40216C15.4684 9.40216 14.6358 9.70416 14.5371 9.76083C14.4638 9.80349 14.4224 9.87483 14.4784 9.9735ZM10.7071 11.5375C10.6764 11.4282 10.5964 11.4068 10.5144 11.4282C10.4051 11.4575 9.59109 11.8362 9.59109 11.8362C9.59109 11.8362 10.4858 11.7595 10.5951 11.7302C10.6771 11.7075 10.7364 11.6482 10.7071 11.5375ZM14.6844 10.4708C14.7151 10.5815 14.7951 10.6042 14.8771 10.5822C14.9871 10.5528 15.7891 10.1755 15.7891 10.1755C15.7891 10.1755 14.9064 10.2515 14.7958 10.2808C14.7144 10.3022 14.6551 10.3615 14.6844 10.4708ZM10.6371 11.0062C10.6358 10.8928 10.5644 10.8515 10.4798 10.8515C10.3664 10.8515 9.48242 11.0062 9.48242 11.0062C9.48242 11.0062 10.3664 11.1635 10.4798 11.1635C10.5644 11.1635 10.6371 11.1208 10.6371 11.0062ZM14.7558 11.0062C14.7564 11.1208 14.8278 11.1635 14.9124 11.1635C15.0264 11.1635 15.8984 11.0062 15.8984 11.0062C15.8984 11.0062 15.0258 10.8515 14.9124 10.8515C14.8278 10.8508 14.7558 10.8928 14.7558 11.0062ZM10.7071 10.4748C10.7351 10.3648 10.6771 10.3068 10.5951 10.2848C10.4858 10.2555 9.59109 10.1762 9.59109 10.1762C9.59109 10.1762 10.4051 10.5568 10.5144 10.5862C10.5964 10.6082 10.6778 10.5855 10.7071 10.4748ZM14.6851 11.5408C14.6558 11.6515 14.7144 11.7115 14.7958 11.7335C14.9058 11.7628 15.7891 11.8362 15.7891 11.8362C15.7891 11.8362 14.9871 11.4608 14.8764 11.4315C14.7951 11.4102 14.7144 11.4308 14.6851 11.5408ZM10.9124 9.97949C10.9678 9.88083 10.9271 9.80883 10.8531 9.76683C10.7551 9.71016 9.91176 9.40216 9.91176 9.40216C9.91176 9.40216 10.5991 9.98016 10.6971 10.0368C10.7711 10.0795 10.8551 10.0782 10.9124 9.97949ZM14.4798 12.0388C14.4224 12.1382 14.4638 12.2115 14.5371 12.2535C14.6351 12.3108 15.4691 12.6102 15.4691 12.6102C15.4691 12.6102 14.7911 12.0402 14.6931 11.9828C14.6198 11.9408 14.5364 11.9408 14.4798 12.0388ZM11.2384 9.55416C11.3178 9.47283 11.2971 9.39349 11.2371 9.33349C11.1564 9.25349 10.4218 8.73749 10.4218 8.73749C10.4218 8.73749 10.9364 9.47416 11.0158 9.55416C11.0758 9.61416 11.1578 9.6355 11.2384 9.55416ZM14.1518 12.4668C14.0711 12.5482 14.0918 12.6295 14.1518 12.6888C14.2318 12.7695 14.9604 13.2748 14.9604 13.2748C14.9604 13.2748 14.4524 12.5488 14.3718 12.4682C14.3118 12.4082 14.2318 12.3862 14.1518 12.4668ZM11.6651 9.22816C11.7618 9.17016 11.7624 9.08816 11.7204 9.01416C11.6638 8.91616 11.0878 8.2275 11.0878 8.2275C11.0878 8.2275 11.3931 9.07216 11.4498 9.17016C11.4918 9.24416 11.5658 9.28549 11.6651 9.22816ZM13.7244 12.7955C13.6258 12.8528 13.6244 12.9362 13.6664 13.0095C13.7238 13.1082 14.2958 13.7848 14.2958 13.7848C14.2958 13.7848 13.9938 12.9515 13.9371 12.8528C13.8944 12.7802 13.8224 12.7382 13.7244 12.7955ZM12.1598 9.02349C12.2691 8.99283 12.2904 8.91283 12.2691 8.83083C12.2398 8.7215 11.8611 7.90749 11.8611 7.90749C11.8611 7.90749 11.9378 8.80216 11.9671 8.9115C11.9891 8.9935 12.0491 9.05283 12.1598 9.02349ZM13.2264 13.0015C13.1158 13.0322 13.0931 13.1122 13.1151 13.1942C13.1444 13.3042 13.5218 14.1062 13.5218 14.1062C13.5218 14.1062 13.4458 13.2228 13.4164 13.1135C13.3951 13.0315 13.3358 12.9722 13.2264 13.0015Z" fill="#FFCC4D"/>
<path d="M14.5642 15.7633L14.5395 15.774L14.5122 15.778L14.4915 15.782L14.4535 15.774L14.4369 15.7673L14.4215 15.76L14.4035 15.7487L14.3735 15.7273L14.3462 15.7053L14.3309 15.6947L14.3115 15.6867L14.2982 15.6833H14.2789L14.2035 15.84L14.1882 15.862L14.1735 15.88L14.1582 15.8913L14.1449 15.9027L14.1255 15.91H14.1075L14.0909 15.9027L14.0675 15.8913L14.0609 15.88L14.0529 15.8687L14.0449 15.854L14.0369 15.8367L14.0262 15.7813L14.0042 15.7993L13.9835 15.8253L13.9422 15.888L13.9175 15.9207L13.8915 15.946L13.8775 15.9613L13.8595 15.9727L13.8415 15.9807L13.8195 15.9873H13.8089L13.7895 15.9913L13.7715 15.9873L13.7575 15.9807L13.7149 15.9293L13.6669 15.878L13.6342 15.9293L13.5962 15.9727L13.5782 15.9907L13.5615 16.0087L13.5435 16.0233L13.5095 16.042L13.4915 16.046H13.4735L13.4582 16.042L13.4435 16.034L13.4329 16.0227L13.4189 16.0053C13.4096 15.9782 13.3996 15.9513 13.3889 15.9247L13.3849 15.906L13.3782 15.892L13.3702 15.8847H13.3622L13.2635 16.046L13.2495 16.06L13.2235 16.0713L13.1662 16.0853H13.1322L13.1062 16.078L13.0982 16.074L13.0875 16.0627L13.0849 16.056V16.0413L13.0982 15.88L13.0875 15.884L13.0589 15.898C13.0326 15.9254 13.0071 15.9534 12.9822 15.982L12.9495 16.0227L12.9089 16.0567L12.8709 16.0853L12.8495 16.0973L12.8055 16.104L12.7875 16.1L12.7795 16.0973L12.7722 16.0893L12.7682 16.078V16.0667L12.7722 16.02L12.7835 15.946L12.7762 15.9027L12.7609 15.8773L12.7389 15.91L12.7029 15.9573C12.6729 15.99 12.6422 16.022 12.6109 16.0533C12.5933 16.065 12.5762 16.0772 12.5595 16.09L12.5195 16.104L12.5115 16.1H12.5002L12.4922 16.0933L12.4895 16.0893L12.4815 16.078L12.4789 16.0667V16.0527L12.4749 16.034L12.4789 15.8953C12.4122 15.9407 12.3449 15.9847 12.2769 16.0267L12.2515 16.038L12.2229 16.0527C12.1955 16.0593 12.1689 16.066 12.1422 16.074H12.1155L12.0909 16.0707L12.0682 16.0627L12.0795 16.0333L12.1015 15.982L12.1155 15.9607L12.1315 15.9387L12.1455 15.9167L12.1829 15.88L12.2235 15.8513L12.2702 15.8213L12.3182 15.7993L12.3735 15.7813L12.4282 15.7673L12.5529 15.7453L12.6149 15.7373C12.7989 15.7267 12.9835 15.7253 13.1675 15.7267L13.3695 15.7153L13.4322 15.708L13.5482 15.686L13.6042 15.6707L13.6562 15.6493L13.7042 15.6273C13.7295 15.6073 13.7555 15.5873 13.7822 15.5687L13.8175 15.5273L13.7795 15.4547L13.8095 15.4507L13.8382 15.444L13.8682 15.4293L13.8929 15.4107L13.9035 15.404L13.9155 15.3927L13.9235 15.378L13.9315 15.3673L13.9342 15.3527V15.3273L13.9262 15.3127L13.9889 15.3013L14.0555 15.294L14.1255 15.29H14.1982C14.3002 15.294 14.4015 15.3 14.5029 15.308C14.6562 15.3267 14.8102 15.3413 14.9642 15.356L15.1022 15.3633V15.414L15.0995 15.4367L15.0915 15.458L15.0849 15.48L15.0769 15.498L15.0662 15.5127C15.0535 15.5273 15.0395 15.542 15.0255 15.556L14.9929 15.5773L14.9575 15.592L14.9222 15.6L14.8815 15.6073L14.8035 15.6L14.7629 15.5887L14.7275 15.57L14.6895 15.552L14.6609 15.526L14.6322 15.4973V15.56C14.6269 15.6007 14.6202 15.6407 14.6142 15.6813L14.6002 15.7193L14.5922 15.7347L14.5815 15.7453L14.5735 15.7567L14.5642 15.7633ZM11.6189 15.4187L11.7022 15.4553C11.7189 15.4414 11.736 15.4281 11.7535 15.4153L11.7862 15.398L11.8155 15.3793L11.9255 15.3353L12.0202 15.2913L12.0682 15.2733L12.1495 15.23L12.1822 15.2073C12.2649 15.1533 12.3482 15.1 12.4315 15.0473L12.5042 14.996L12.5595 14.952C12.6142 14.9027 12.6675 14.8527 12.7209 14.802L12.7429 14.7873L12.7682 14.7727C12.7986 14.7573 12.8292 14.7427 12.8602 14.7287L12.9222 14.7073C13.0462 14.6733 13.1722 14.6467 13.2989 14.6267C13.4282 14.6113 13.5575 14.594 13.6869 14.5793L13.8589 14.55C13.9015 14.538 13.9442 14.5273 13.9875 14.5173L14.0315 14.462L14.1022 14.3853L14.1502 14.338L14.2035 14.2933L14.2662 14.246L14.3389 14.198L14.4495 14.1327C14.5289 14.0927 14.6075 14.0527 14.6862 14.0113C14.8262 13.946 14.9642 13.8767 15.1015 13.806L15.1669 13.762L15.1849 13.7067L15.2109 13.6527L15.2435 13.5973L15.3282 13.484C15.3669 13.4427 15.4042 13.4013 15.4415 13.3587C15.4869 13.3147 15.5335 13.272 15.5809 13.2307L15.6515 13.1727L15.6869 13.1467L15.7249 13.1213C15.7515 13.106 15.7782 13.0913 15.8055 13.0773L15.8462 13.0587L15.8855 13.0447L15.9715 13.022L16.0142 13.0193L16.0549 13.0153L16.0975 13.0193L16.1382 13.026L16.1355 13.07L16.1249 13.1133L16.0922 13.2053L16.0649 13.2527L16.0322 13.3007L15.9922 13.3513L15.9442 13.4027L15.9822 13.3987L16.0149 13.3913L16.0409 13.3833L16.0655 13.3727L16.1135 13.358L16.1822 13.3507L16.1862 13.3767V13.402L16.1822 13.4273L16.1755 13.4493L16.1649 13.4713L16.1495 13.4933L16.1355 13.5107L16.1175 13.5293C16.0672 13.5779 16.0158 13.6255 15.9635 13.672L16.0069 13.676C16.0389 13.686 16.0709 13.696 16.1035 13.7047L16.1389 13.7127L16.0962 13.746C16.0624 13.7686 16.0282 13.7906 15.9935 13.812L15.8762 13.878L15.8175 13.9147L15.7589 13.9553L15.7042 13.9993L15.7289 14.0027L15.7629 14.0173L15.7775 14.0213L15.7915 14.0287L15.8035 14.032L15.8142 14.0287L15.7415 14.0693C15.6961 14.0907 15.651 14.1127 15.6062 14.1353L15.5502 14.1687L15.5395 14.18L15.5329 14.1913L15.5249 14.202L15.5275 14.2167L15.5355 14.228L15.5495 14.2387L15.5629 14.2507L15.5575 14.2647L15.5495 14.2767L15.5355 14.2873L15.5222 14.2987L15.4869 14.316L15.4442 14.3347L15.3609 14.364L15.3089 14.39L15.3815 14.4627L15.3555 14.488L15.3309 14.5067L15.3089 14.518L15.2829 14.5287L15.2322 14.536H15.1602L15.1682 14.5693L15.1789 14.602L15.1942 14.676C15.1488 14.7114 15.1023 14.7454 15.0549 14.778L14.9702 14.8327L14.8762 14.8873L14.8202 14.9133L14.7655 14.9387C14.7038 14.9627 14.6413 14.9847 14.5782 15.0047L14.4362 15.0347L14.3582 15.046C14.4429 15.0487 14.5275 15.05 14.6122 15.0493L14.8202 15.0273L14.9115 15.0093L14.9922 14.9873C15.0455 14.9693 15.0975 14.9493 15.1495 14.9287L15.2509 14.882L15.3509 14.8267L15.4449 14.7673L15.5449 14.7093L15.4849 14.68L15.4275 14.662L15.4002 14.6493C15.3795 14.6393 15.3589 14.6293 15.3375 14.6207L15.3035 14.602L15.3322 14.5807L15.3675 14.566L15.4055 14.552C15.4495 14.5413 15.4942 14.5313 15.5382 14.522C15.5955 14.516 15.6529 14.5087 15.7102 14.5007L15.7829 14.4933L15.8389 14.4793L15.8535 14.4713L15.8642 14.46L15.8615 14.456L15.8535 14.4487L15.8429 14.4447L15.8289 14.438L15.7882 14.43L15.7362 14.4227L15.6855 14.4187L15.6349 14.4113L15.5895 14.4L15.5622 14.3887L15.9202 14.3087L15.9829 14.29C16.0102 14.28 16.0369 14.2687 16.0635 14.2573L16.0989 14.2347L16.1142 14.2207L16.1102 14.2173L16.1035 14.2093L16.0695 14.202L16.0229 14.198H15.9669C15.9289 14.1953 15.8915 14.1927 15.8535 14.1913L15.8069 14.1833L15.7769 14.176L15.8289 14.1547C15.9062 14.1307 15.9849 14.1087 16.0635 14.088C16.1082 14.0727 16.1535 14.0573 16.1989 14.044L16.2682 14.0147L16.3009 13.9967L16.3309 13.9787L16.3415 13.9673L16.3529 13.9527L16.3635 13.942L16.3675 13.9307L16.3635 13.9193L16.3529 13.9113L16.3415 13.9087H16.2402L16.1922 13.9113H16.1269L16.1075 13.9087L16.0949 13.9007L16.0789 13.8933C16.2122 13.8053 16.3469 13.718 16.4822 13.6327L16.5875 13.5593C16.6159 13.5358 16.6437 13.5116 16.6709 13.4867L16.7035 13.45L16.7335 13.4133L16.7555 13.3733L16.7735 13.3333L16.7842 13.2887V13.2413H16.7595L16.7335 13.2453L16.6762 13.2667C16.6254 13.2986 16.5739 13.3293 16.5215 13.3587L16.4929 13.3773L16.4589 13.3913L16.4262 13.4027L16.3962 13.41L16.3675 13.414H16.3335L16.3049 13.4027L16.3935 13.3367C16.4649 13.276 16.5355 13.2147 16.6055 13.1533C16.6829 13.0794 16.7585 13.0036 16.8322 12.926L16.9375 12.8087C16.9689 12.7673 17.0009 12.7273 17.0335 12.6873C17.0595 12.65 17.0855 12.612 17.1102 12.574L17.1182 12.56L17.1209 12.5487L17.1182 12.5333L17.1142 12.5227L17.1102 12.5107L17.0995 12.5033L17.0882 12.492L17.0775 12.488L17.0635 12.4813L17.0475 12.4773H17.0189L17.0049 12.4813L16.9855 12.484L16.9749 12.496L16.9595 12.5073C16.8849 12.582 16.8109 12.658 16.7382 12.7347L16.6495 12.8187C16.5913 12.8694 16.5327 12.9196 16.4735 12.9693C16.4457 12.9882 16.4175 13.0064 16.3889 13.024L16.3082 13.0647L16.3329 13.0427C16.3595 13.0173 16.3855 12.992 16.4109 12.966C16.5049 12.858 16.5949 12.746 16.6815 12.6327L16.8509 12.3947L16.8962 12.3147L16.9415 12.2413L16.9782 12.1747L17.0069 12.112L17.0249 12.0613L17.0289 12.0433V12.014L17.0249 12.0027L17.0115 11.9807L17.0035 11.9733L16.9915 11.97L16.9709 11.958L16.9435 11.9507H16.8935L16.8795 11.9547L16.8689 11.958L16.8535 11.966L16.8429 11.9767L16.8129 12.0027C16.78 12.0423 16.7482 12.0827 16.7175 12.124C16.6442 12.2387 16.5669 12.3507 16.4869 12.4607L16.3942 12.5707L16.3475 12.6187L16.2969 12.6627L16.3622 12.5407L16.4649 12.3253L16.5315 12.168L16.5602 12.0873L16.6109 11.922C16.6235 11.8687 16.6349 11.8153 16.6449 11.7613C16.6495 11.7113 16.6535 11.6613 16.6569 11.6107L16.6515 11.574L16.6489 11.5413L16.6449 11.5073L16.6342 11.4647L16.6262 11.4527L16.6082 11.4347L16.5835 11.424L16.5562 11.416H16.5315L16.5082 11.42L16.5015 11.424L16.4909 11.4267L16.4869 11.4347C16.4209 11.6427 16.3709 11.8547 16.3135 12.0647C16.2922 12.1233 16.2709 12.182 16.2482 12.2407L16.1935 12.3467L16.1595 12.394L16.1815 12.2887C16.1922 12.2273 16.2015 12.1667 16.2102 12.1053L16.2255 11.9547L16.2295 11.892C16.2275 11.8602 16.2249 11.8284 16.2215 11.7967L16.2149 11.76L16.2042 11.7307L16.1889 11.7087L16.1809 11.7013L16.1589 11.694L16.1482 11.69H16.1362L16.1255 11.694L16.0955 11.7013L16.0669 11.716C16.0442 11.8293 16.0169 11.942 15.9862 12.0533C15.9426 12.1938 15.8914 12.3318 15.8329 12.4667C15.7934 12.5496 15.7516 12.6314 15.7075 12.712L15.6269 12.8513L15.5395 12.9827C15.481 13.0647 15.4203 13.1451 15.3575 13.224C15.2962 13.2933 15.2335 13.3613 15.1702 13.4293C15.1042 13.494 15.0369 13.558 14.9682 13.6207C14.8975 13.6793 14.8262 13.736 14.7535 13.792C14.6649 13.8561 14.5742 13.9172 14.4815 13.9753L14.3202 14.07L14.0635 14.188L13.7995 14.2827L13.5809 14.3493L13.3542 14.4L13.2409 14.4187L13.0089 14.448L12.8915 14.4553L12.8802 14.4593L12.8689 14.4627L12.8469 14.4747L12.8222 14.492C12.7935 14.517 12.7653 14.5426 12.7375 14.5687L12.6789 14.628L12.4662 14.8653L12.3855 14.946L12.2909 15.0187L12.2535 15.044L12.2169 15.0667L12.1369 15.1033C12.0129 15.154 11.8869 15.2 11.7622 15.25L11.7295 15.268L11.7002 15.2833L11.6789 15.2973L11.6382 15.338L11.6269 15.356L11.6189 15.374L11.6162 15.4V15.4187" fill="#FFCC4D"/>
<path d="M12.9608 15.5839L13.0221 15.5919L13.0521 15.6032L13.0588 15.6065V15.6105H13.0521L13.0441 15.6139L12.9855 15.6252H12.9388L12.7855 15.6139L12.3968 15.6065C12.2941 15.6079 12.1915 15.6105 12.0888 15.6139C11.9981 15.6205 11.9081 15.6279 11.8175 15.6359L11.7475 15.6472L11.6855 15.6612C11.6708 15.6665 11.6568 15.6719 11.6421 15.6759L11.6235 15.6839L11.6088 15.6952L11.6155 15.6579L11.6315 15.6205L11.5801 15.6352L11.5361 15.6572L11.5188 15.6685L11.5035 15.6832L11.4921 15.7005L11.4895 15.7192L11.4788 15.6939L11.4708 15.6712C11.4688 15.6553 11.4662 15.6395 11.4628 15.6239C11.4668 15.6045 11.4708 15.5852 11.4735 15.5659L11.4855 15.5472L11.4921 15.5325L11.5075 15.5152L11.5368 15.4859L11.5768 15.4599L11.6221 15.4345C11.646 15.4485 11.6715 15.4595 11.6981 15.4672C11.7244 15.4696 11.7508 15.4671 11.7761 15.4599C11.8168 15.4959 11.9221 15.4885 11.9368 15.4232C11.9425 15.3991 11.9425 15.374 11.9368 15.3499L11.9808 15.3465L12.0321 15.3385L12.1455 15.3092L12.2048 15.2979L12.2595 15.2839L12.3108 15.2765L12.3541 15.2725L12.3361 15.2879L12.2408 15.3605L12.2048 15.3859L12.2515 15.3979L12.2921 15.4052L12.2055 15.5039L12.1828 15.5332L12.2115 15.5445L12.2408 15.5525L12.2741 15.5599H12.3401L12.4055 15.5452L12.4315 15.5299L12.4615 15.5452L12.4908 15.5565C12.5095 15.5619 12.5288 15.5672 12.5481 15.5712C12.5935 15.5759 12.6388 15.5812 12.6848 15.5852H12.9608V15.5839ZM12.6268 14.4705L12.5941 14.5365L12.5568 14.6212C12.5376 14.6557 12.5196 14.6908 12.5028 14.7265L12.4841 14.7452L12.4408 14.7085L12.3928 14.6752L12.3415 14.6492L12.2875 14.6279L12.1695 14.5979L12.1115 14.5872C12.048 14.5799 11.9845 14.5739 11.9208 14.5692C11.8365 14.5679 11.7522 14.5639 11.6681 14.5572L11.5508 14.5432L11.4848 14.5319L11.4228 14.5179L11.3575 14.4952L11.3021 14.4665L11.2615 14.4399L11.1775 14.3779C11.0548 14.2625 10.9335 14.1459 10.8075 14.0332L10.7348 13.9825L10.7015 13.9679L10.6668 13.9572L10.6048 13.9432C10.5686 13.9303 10.5321 13.9181 10.4955 13.9065C10.4613 13.8901 10.4269 13.8743 10.3921 13.8592C10.3317 13.8218 10.2731 13.7813 10.2168 13.7379L10.1801 13.7039L10.1075 13.6312L10.0375 13.5545C9.92212 13.4139 9.81346 13.2685 9.70079 13.1259C9.64692 13.0687 9.59202 13.0124 9.53612 12.9572L9.48879 12.9139L9.44079 12.8739L9.33546 12.7972L9.32479 12.8005L9.31279 12.8119L9.30146 12.8265C9.29479 12.8432 9.28946 12.8605 9.28412 12.8779L9.28012 12.8925L9.25346 12.8805L9.23146 12.8692L9.20479 12.8579L9.18279 12.8505H9.13546L9.10946 12.8579L9.08412 12.8692C9.10412 12.8945 9.12346 12.9199 9.14212 12.9459L9.17479 12.9972L9.23412 13.1105L9.25546 13.1659L9.26346 13.1952L9.27146 13.2172L9.27479 13.2425V13.2639H9.07746L9.10612 13.3079C9.12812 13.3379 9.15146 13.3672 9.17479 13.3959L9.29612 13.5172L9.33679 13.5499L9.37412 13.5759C9.3424 13.5792 9.31062 13.5819 9.27879 13.5839L9.18279 13.5945L9.21546 13.6245C9.24412 13.6445 9.27212 13.6652 9.30012 13.6865L9.34746 13.7192L9.39546 13.7485L9.44279 13.7745L9.48679 13.7892L9.52746 13.7999L9.56012 13.8072L9.57079 13.8112L9.57879 13.8192L9.58146 13.8225V13.8365L9.57079 13.8665L9.56812 13.8879L9.56346 13.9025V13.9132L9.56812 13.9319L9.57079 13.9465L9.57879 13.9532L9.58946 13.9612L9.60346 13.9685L9.62212 13.9725L9.65946 13.9872L9.67746 13.9939L9.69212 14.0052L9.69546 14.0092V14.0165L9.69212 14.0205L9.66279 14.0419L9.64812 14.0565L9.63346 14.0745V14.0899L9.63012 14.1045L9.63746 14.1439L9.76546 14.1879L9.79479 14.1945L9.82412 14.2065L9.84612 14.2179L9.86479 14.2292L9.74346 14.3245L9.77612 14.3539L9.81679 14.3759L9.86812 14.4012C9.90479 14.4145 9.94146 14.4265 9.97879 14.4385L10.0335 14.4492L10.0815 14.4605H10.1248L10.0841 14.4899L10.0328 14.5225L9.97812 14.5525L9.93746 14.5819L9.97412 14.6072C10.0855 14.6645 10.1995 14.7179 10.3155 14.7652C10.5181 14.8479 10.7255 14.9199 10.9341 14.9845C10.9808 14.9959 11.0268 15.0079 11.0728 15.0212L11.1315 15.0325L11.0135 15.0212C10.9401 15.0117 10.867 15.0006 10.7941 14.9879L10.6915 14.9659L10.4895 14.9079L10.3948 14.8745C10.1415 14.7759 9.89412 14.6625 9.64012 14.5665L9.65879 14.5559L9.71012 14.5372L9.74279 14.5299C9.78746 14.5165 9.83079 14.5019 9.87479 14.4859C9.7875 14.4726 9.70058 14.4571 9.61412 14.4392C9.56932 14.4246 9.5242 14.4111 9.47879 14.3985L9.45279 14.3872L9.43079 14.3759L9.41279 14.3639L9.40079 14.3532V14.3499L9.40479 14.3459L9.41612 14.3419L9.42679 14.3345L9.45612 14.3232L9.58412 14.2859L9.65812 14.2605C9.55212 14.2405 9.44546 14.2225 9.33879 14.2059L9.28746 14.1939L9.24679 14.1799L9.23212 14.1719L9.21812 14.1605L9.20612 14.1539L9.19879 14.1419L9.21012 14.1345L9.24279 14.1272C9.27679 14.1219 9.31146 14.1159 9.34546 14.1092L9.40412 14.1019C9.43746 14.0925 9.47012 14.0825 9.50279 14.0719L9.51812 14.0612L9.53279 14.0492L9.47479 14.0272L9.43746 14.0205L9.40079 14.0125L9.23279 13.9905L9.18879 13.9799L9.14812 13.9719L9.06746 13.9432L9.03012 13.9245L9.00012 13.9032L8.97079 13.8772L8.94879 13.8445L8.95679 13.8405L8.97079 13.8365H8.98946L9.01879 13.8405L9.15812 13.8479L9.23946 13.8559H9.34146L9.37012 13.8519L9.39279 13.8445L9.40746 13.8365C9.33848 13.8085 9.27003 13.7791 9.20212 13.7485C9.15718 13.7257 9.11184 13.7037 9.06612 13.6825L8.92746 13.6099L8.86146 13.5692C8.8208 13.5405 8.78058 13.5111 8.74079 13.4812L8.68946 13.4372L8.66679 13.4119L8.64412 13.3899L8.63012 13.3679L8.61479 13.3419L8.60012 13.3205L8.59212 13.2952L8.58612 13.2479H8.61079L8.64012 13.2512L8.66946 13.2632L8.69879 13.2739L8.75679 13.3105L8.82279 13.3472L8.85212 13.3659L8.88479 13.3832L8.91746 13.3979L8.94679 13.4092L8.97946 13.4172L9.00879 13.4205H9.04212L9.07079 13.4092L8.98412 13.3425C8.91232 13.283 8.84142 13.2223 8.77146 13.1605C8.65543 13.0501 8.544 12.9349 8.43746 12.8152L8.39079 12.7532L8.34279 12.6945C8.31647 12.6569 8.29069 12.6189 8.26546 12.5805L8.25879 12.5659V12.5405L8.26212 12.5292L8.26546 12.5185L8.27679 12.5112L8.28746 12.4999L8.29946 12.4919L8.31346 12.4879L8.32812 12.4852H8.35746L8.37546 12.4879L8.39146 12.4919L8.40546 12.5032C8.48479 12.5819 8.56279 12.6612 8.63946 12.7419C8.72412 12.8232 8.81212 12.9019 8.90346 12.9765L8.98746 13.0305L9.03079 13.0532L9.07146 13.0672L9.04279 13.0492L8.96612 12.9725C8.87212 12.8645 8.78279 12.7525 8.69479 12.6392C8.65603 12.586 8.61803 12.5322 8.58079 12.4779C8.54758 12.4248 8.51335 12.3723 8.47812 12.3205C8.4502 12.2747 8.4233 12.2282 8.39746 12.1812C8.38259 12.1432 8.36703 12.1054 8.35079 12.0679L8.34612 12.0499V12.0199L8.35079 12.0092L8.36479 11.9872L8.37279 11.9792L8.38412 11.9725L8.43146 11.9572H8.48279L8.49746 11.9605L8.50812 11.9645L8.52279 11.9725L8.56346 12.0092L8.65879 12.1305C8.73346 12.2452 8.81212 12.3572 8.89346 12.4672L8.98012 12.5772L9.02812 12.6245L9.07946 12.6685C9.02106 12.5578 8.96505 12.4457 8.91146 12.3325C8.88877 12.2804 8.86677 12.2279 8.84546 12.1752L8.81612 12.0945C8.80063 12.0389 8.78351 11.9838 8.76479 11.9292L8.74679 11.8485L8.73346 11.7665L8.72546 11.6899L8.72212 11.6172L8.72546 11.5805L8.73012 11.5472L8.73346 11.5139L8.74079 11.4812L8.74812 11.4692L8.75212 11.4585L8.76279 11.4465L8.77012 11.4399L8.79546 11.4285L8.82146 11.4219H8.84679L8.86879 11.4259L8.87946 11.4285L8.88746 11.4325L8.89146 11.4405L8.89546 11.4512C8.95812 11.6559 9.00946 11.8639 9.06346 12.0712C9.08479 12.1292 9.10679 12.1865 9.13012 12.2432L9.15546 12.2979L9.18479 12.3492L9.21746 12.4005L9.19612 12.2939C9.18775 12.233 9.17797 12.1723 9.16679 12.1119C9.15947 12.0411 9.15346 11.9702 9.14879 11.8992L9.15612 11.8039L9.16346 11.7665L9.17479 11.7379L9.18946 11.7159L9.19679 11.7079L9.20746 11.7005L9.21812 11.6972H9.25146L9.28146 11.7079L9.31012 11.7225L9.36146 11.9532C9.38012 12.0232 9.40079 12.0932 9.42346 12.1619C9.46079 12.2665 9.50146 12.3705 9.54479 12.4732L9.59612 12.5792L9.66946 12.7192L9.74946 12.8579L9.83812 12.9899L9.93279 13.1212L10.0215 13.2312C10.0828 13.3005 10.1448 13.3692 10.2081 13.4365C10.2741 13.5012 10.3415 13.5645 10.4101 13.6265L10.5161 13.7152C10.6135 13.7912 10.7135 13.8632 10.8168 13.9312C10.8975 13.9792 10.9795 14.0259 11.0621 14.0705L11.3141 14.1919C11.4421 14.2425 11.5715 14.2892 11.7021 14.3305C11.8301 14.3645 11.9601 14.3939 12.0908 14.4185C12.2661 14.4465 12.4461 14.4632 12.6268 14.4705Z" fill="#FFCC4D"/>
<path d="M2.3047 19.0129C2.3047 19.0129 2.1467 19.1442 2.09337 19.0782C2.00737 18.9715 2.35803 18.4389 2.35803 18.2509C2.35803 17.9435 2.15203 17.8582 1.8987 17.8149C1.72803 17.7855 1.45137 17.8275 1.45137 17.8275C1.50337 17.8975 1.53737 17.9195 1.62537 17.9235C1.56473 17.9554 1.51417 18.0036 1.47932 18.0625C1.44447 18.1215 1.42671 18.189 1.42803 18.2575C1.42803 18.5215 1.53737 18.6309 1.53737 18.9302C1.53737 19.0962 1.40137 19.3069 1.40137 19.3069C1.64137 19.2829 1.76137 19.0609 1.69337 18.8822C1.71174 18.8788 1.73067 18.8798 1.74854 18.8853C1.76642 18.8907 1.78271 18.9004 1.79603 18.9135C1.81337 18.8649 1.78603 18.8069 1.7487 18.7582C1.7787 18.7429 1.8007 18.7522 1.84803 18.7615C1.84337 18.7109 1.8127 18.6575 1.7387 18.6069C1.9547 18.6622 2.08737 18.5122 2.08737 18.3549C2.08737 18.2349 2.00403 18.1495 1.92203 18.1495C1.89098 18.1505 1.86078 18.16 1.8347 18.1769C1.81937 18.1449 1.82737 18.1009 1.8427 18.0682C1.78337 18.0835 1.74537 18.1189 1.7727 18.1935C1.75237 18.1939 1.73233 18.1984 1.71385 18.2069C1.69537 18.2154 1.67886 18.2277 1.66537 18.2429C1.67812 18.2589 1.69452 18.2716 1.7132 18.2799C1.73187 18.2883 1.75228 18.292 1.7727 18.2909C1.73937 18.3602 1.7767 18.3995 1.8307 18.4302C1.8307 18.4302 1.79603 18.2909 1.8847 18.2909C1.9247 18.2909 1.9607 18.3049 1.9607 18.3629C1.9607 18.4129 1.91603 18.4835 1.81337 18.4795C1.71003 18.4749 1.6267 18.4082 1.6267 18.2449C1.6267 18.0922 1.7487 18.0169 1.90937 18.0122C2.0547 18.0075 2.16403 18.0862 2.16403 18.2362C2.16403 18.4349 1.87603 18.8895 1.87603 19.0669C1.87603 19.2002 1.99537 19.2742 2.1127 19.2742C2.2647 19.2742 2.3927 19.1235 2.3927 19.1235L2.3047 19.0129ZM2.27137 15.4115C2.27137 15.0795 2.57003 14.9082 2.8047 14.9082C3.1207 14.9082 3.28937 15.0975 3.28937 15.3442C3.28937 15.4855 3.26337 15.5735 3.1987 15.7075L2.47403 17.2122C2.44751 17.2754 2.43588 17.3438 2.44003 17.4122C2.44003 17.5469 2.57137 17.6575 2.7087 17.6609C2.83337 17.6642 2.97003 17.5442 2.97003 17.4075C2.97003 17.2415 2.8847 17.1682 2.79603 17.1682C2.68737 17.1682 2.64403 17.2122 2.64403 17.2889C2.64403 17.3429 2.67003 17.3655 2.7067 17.3655C2.80003 17.3655 2.77403 17.2402 2.77403 17.2402C2.78645 17.2428 2.79815 17.2481 2.80831 17.2557C2.81846 17.2633 2.82682 17.273 2.8328 17.2842C2.83878 17.2954 2.84222 17.3078 2.8429 17.3204C2.84357 17.3331 2.84146 17.3458 2.8367 17.3575C2.87161 17.3649 2.9032 17.3834 2.9267 17.4102C2.90269 17.4358 2.87117 17.4531 2.8367 17.4595C2.8587 17.5315 2.82937 17.5669 2.7667 17.5822C2.7775 17.5579 2.78053 17.5309 2.77537 17.5049C2.67603 17.5329 2.52403 17.4889 2.52403 17.3169C2.52403 17.1462 2.64203 17.0029 2.86403 17.0382C2.8107 17.0142 2.7847 16.9629 2.77937 16.9042C2.81937 16.9209 2.86403 16.9229 2.86403 16.9229C2.83803 16.8775 2.80203 16.8382 2.80337 16.7475C2.8447 16.7669 2.8827 16.8009 2.93537 16.7789C2.8527 16.6169 2.95403 16.3942 3.2127 16.3402C3.12489 16.4357 3.07488 16.5599 3.07203 16.6895C3.07203 17.0762 3.18003 17.1402 3.18003 17.4082C3.17824 17.4707 3.16174 17.5319 3.13185 17.5868C3.10196 17.6417 3.05954 17.6888 3.00803 17.7242V17.7195C3.0827 17.7395 3.13137 17.7775 3.15937 17.8275C2.9867 17.8762 2.73537 17.8755 2.60137 17.8229C2.54063 17.8141 2.48261 17.7919 2.43152 17.7578C2.38044 17.7238 2.33757 17.6789 2.30603 17.6262C2.27345 17.5511 2.25663 17.4701 2.25663 17.3882C2.25663 17.3063 2.27345 17.2253 2.30603 17.1502C2.4087 16.9362 2.8927 15.9102 3.04337 15.5869C3.0766 15.5183 3.09414 15.4431 3.0947 15.3669C3.0947 15.1702 2.91403 15.1009 2.81137 15.1009C2.68803 15.1009 2.5627 15.1955 2.5627 15.3115C2.5627 15.3862 2.60337 15.4302 2.6607 15.4302C2.80003 15.4302 2.79137 15.3122 2.76337 15.2375C2.84937 15.2775 2.90003 15.3455 2.88603 15.4189C2.93537 15.4255 2.98203 15.4489 3.0247 15.4969C2.9907 15.5409 2.94937 15.5729 2.88603 15.5735C2.91403 15.6869 2.83803 15.7349 2.76337 15.7609C2.7867 15.6782 2.80203 15.5815 2.6607 15.5815C2.55737 15.5815 2.47603 15.5635 2.4287 15.4962C2.42537 15.5862 2.4167 15.9395 2.4167 15.9395C2.41137 16.0729 2.5947 16.0689 2.71137 16.0295C2.6667 16.1829 2.5767 16.2662 2.3667 16.2449C2.39886 16.2573 2.42633 16.2794 2.44523 16.3083C2.46412 16.3371 2.4735 16.3711 2.47203 16.4055C2.47203 16.5309 2.3707 16.6689 2.3047 16.7102L2.27137 15.4115Z" fill="#FFCC4D"/>
<path d="M2.33734 15.4127C2.33734 15.0807 2.03867 14.9094 1.804 14.9094C1.488 14.9094 1.31934 15.0987 1.31934 15.3454C1.31934 15.4867 1.34534 15.5747 1.41 15.7087L2.13467 17.2134C2.16096 17.2766 2.17237 17.3451 2.168 17.4134C2.168 17.5481 2.03667 17.6587 1.9 17.6621C1.77467 17.6654 1.63867 17.5454 1.63867 17.4087C1.63867 17.2427 1.724 17.1694 1.81267 17.1694C1.92134 17.1694 1.96467 17.2134 1.96467 17.2901C1.96467 17.3441 1.93867 17.3667 1.902 17.3667C1.80867 17.3667 1.83467 17.2414 1.83467 17.2414C1.82225 17.244 1.81055 17.2493 1.80039 17.2569C1.79024 17.2645 1.78188 17.2742 1.7759 17.2854C1.76993 17.2966 1.76648 17.309 1.7658 17.3217C1.76513 17.3343 1.76725 17.347 1.772 17.3587C1.73709 17.3661 1.70551 17.3846 1.682 17.4114C1.70601 17.437 1.73753 17.4543 1.772 17.4607C1.75067 17.5327 1.78 17.5681 1.84267 17.5827C1.83187 17.5585 1.82884 17.5315 1.834 17.5054C1.93334 17.5334 2.08534 17.4894 2.08534 17.3174C2.08534 17.1467 1.96734 17.0034 1.746 17.0387C1.79867 17.0147 1.82534 16.9634 1.83 16.9047C1.80312 16.9152 1.77479 16.9215 1.746 16.9234C1.77134 16.8781 1.80734 16.8387 1.806 16.7481C1.76467 16.7674 1.72734 16.8014 1.674 16.7794C1.75667 16.6174 1.65534 16.3947 1.39667 16.3407C1.48448 16.4362 1.53449 16.5604 1.53734 16.6901C1.53734 17.0767 1.43 17.1407 1.43 17.4087C1.43 17.5207 1.488 17.6427 1.602 17.7247V17.7201C1.57062 17.7265 1.54093 17.7394 1.51486 17.758C1.48879 17.7766 1.46692 17.8005 1.45067 17.8281C1.62334 17.8767 1.874 17.8761 2.00867 17.8234C2.06941 17.8146 2.12743 17.7924 2.17851 17.7584C2.2296 17.7244 2.27246 17.6794 2.304 17.6267C2.33659 17.5516 2.3534 17.4706 2.3534 17.3887C2.3534 17.3069 2.33659 17.2259 2.304 17.1507C2.20134 16.9367 1.71734 15.9107 1.56667 15.5874C1.53343 15.5188 1.5159 15.4436 1.51534 15.3674C1.51534 15.1707 1.696 15.1014 1.79867 15.1014C1.922 15.1014 2.04734 15.1961 2.04734 15.3121C2.04734 15.3867 2.00667 15.4307 1.94934 15.4307C1.81 15.4307 1.81867 15.3127 1.846 15.2381C1.76 15.2781 1.70934 15.3461 1.72334 15.4194C1.66915 15.4276 1.61983 15.4554 1.58467 15.4974C1.61867 15.5414 1.66 15.5734 1.72334 15.5741C1.69534 15.6874 1.77134 15.7354 1.846 15.7614C1.82267 15.6787 1.80734 15.5821 1.94934 15.5821C2.05267 15.5821 2.134 15.5641 2.18134 15.4967L2.19334 15.9401C2.19867 16.0734 2.01467 16.0694 1.898 16.0301C1.942 16.1827 2.03267 16.2661 2.242 16.2447C2.20984 16.2571 2.18237 16.2793 2.16348 16.3081C2.14458 16.3369 2.1352 16.371 2.13667 16.4054C2.13667 16.5307 2.23734 16.6687 2.304 16.7101L2.33734 15.4127ZM2.30467 19.0141C2.30467 19.0141 2.46267 19.1454 2.516 19.0794C2.602 18.9727 2.25134 18.4401 2.25134 18.2521C2.25134 17.9447 2.45734 17.8594 2.71067 17.8161C2.88134 17.7867 3.15867 17.8287 3.15867 17.8287C3.106 17.8987 3.07267 17.9207 2.98467 17.9247C3.04525 17.9567 3.09578 18.0048 3.13062 18.0638C3.16546 18.1228 3.18325 18.1903 3.182 18.2587C3.182 18.5227 3.07267 18.6321 3.07267 18.9314C3.07267 19.0974 3.20867 19.3081 3.20867 19.3081C2.96867 19.2841 2.84867 19.0621 2.91667 18.8834C2.8983 18.8801 2.8794 18.8812 2.86154 18.8866C2.84369 18.8921 2.82739 18.9017 2.814 18.9147C2.79667 18.8661 2.82467 18.8081 2.86134 18.7594C2.83134 18.7441 2.80934 18.7534 2.762 18.7627C2.76667 18.7121 2.79667 18.6587 2.87134 18.6081C2.65534 18.6634 2.52267 18.5134 2.52267 18.3561C2.52267 18.2361 2.606 18.1507 2.688 18.1507C2.71467 18.1507 2.75334 18.1621 2.77534 18.1781C2.79067 18.1461 2.78267 18.1021 2.76667 18.0694C2.82667 18.0847 2.864 18.1201 2.83734 18.1947C2.85766 18.1951 2.87769 18.1997 2.89616 18.2082C2.91464 18.2167 2.93115 18.2289 2.94467 18.2441C2.93192 18.2601 2.91552 18.2728 2.89684 18.2811C2.87817 18.2895 2.85776 18.2932 2.83734 18.2921C2.87067 18.3614 2.83334 18.4007 2.77934 18.4314C2.77934 18.4314 2.814 18.2921 2.72534 18.2921C2.68534 18.2921 2.64934 18.3061 2.64934 18.3641C2.64934 18.4141 2.694 18.4847 2.79667 18.4807C2.89934 18.4761 2.98267 18.4094 2.98267 18.2461C2.98267 18.0934 2.86067 18.0181 2.7 18.0134C2.55467 18.0087 2.44534 18.0874 2.44534 18.2374C2.44534 18.4361 2.73334 18.8907 2.73334 19.0681C2.73334 19.2014 2.614 19.2754 2.49667 19.2754C2.34467 19.2754 2.21667 19.1247 2.21667 19.1247L2.30467 19.0141ZM2.27134 9.58408C2.27134 9.25074 2.57 9.08008 2.80467 9.08008C3.12067 9.08008 3.28934 9.26941 3.28934 9.51674C3.28934 9.65741 3.26334 9.74541 3.19867 9.87941L2.474 11.3847C2.44744 11.4477 2.43581 11.5159 2.44 11.5841C2.44 11.7194 2.57134 11.8294 2.70867 11.8334C2.83334 11.8361 2.97 11.7161 2.97 11.5801C2.97 11.4147 2.88467 11.3407 2.796 11.3407C2.68734 11.3407 2.644 11.3854 2.644 11.4621C2.644 11.5147 2.67 11.5381 2.70667 11.5381C2.8 11.5381 2.774 11.4127 2.774 11.4127C2.78632 11.4153 2.79793 11.4205 2.80802 11.428C2.81811 11.4354 2.82643 11.4451 2.83241 11.4561C2.83838 11.4672 2.84186 11.4794 2.8426 11.492C2.84333 11.5045 2.84131 11.5171 2.83667 11.5287C2.87162 11.5364 2.90317 11.5551 2.92667 11.5821C2.90256 11.6076 2.87112 11.6251 2.83667 11.6321C2.85867 11.7041 2.82934 11.7387 2.76667 11.7541C2.77751 11.7298 2.78054 11.7028 2.77534 11.6767C2.676 11.7047 2.524 11.6607 2.524 11.4887C2.524 11.3187 2.642 11.1754 2.864 11.2107C2.81067 11.1854 2.78467 11.1341 2.77934 11.0767C2.81934 11.0927 2.864 11.0941 2.864 11.0941C2.838 11.0487 2.802 11.0094 2.80334 10.9194C2.84467 10.9381 2.88267 10.9727 2.93534 10.9507C2.85267 10.7881 2.954 10.5647 3.21267 10.5121C3.12507 10.6077 3.0751 10.7318 3.072 10.8614C3.072 11.2474 3.18 11.3121 3.18 11.5807C3.18 11.6927 3.122 11.8141 3.008 11.8967V11.8921C3.08134 11.9121 3.12934 11.9487 3.158 11.9994C2.98534 12.0487 2.734 12.0474 2.6 11.9947C2.53931 11.9858 2.48134 11.9635 2.43028 11.9295C2.37921 11.8955 2.33632 11.8506 2.30467 11.7981C2.27208 11.7232 2.25526 11.6424 2.25526 11.5607C2.25526 11.4791 2.27208 11.3983 2.30467 11.3234C2.40734 11.1087 2.89134 10.0827 3.042 9.75941C3.07489 9.69068 3.0924 9.6156 3.09334 9.53941C3.09334 9.34208 2.91267 9.27274 2.81 9.27274C2.68667 9.27274 2.56134 9.36674 2.56134 9.48274C2.56134 9.55741 2.602 9.60208 2.65934 9.60208C2.79867 9.60208 2.79 9.48341 2.762 9.40941C2.848 9.44808 2.89867 9.51741 2.88467 9.59074C2.934 9.59741 2.98067 9.62008 3.02334 9.66941C2.98934 9.71208 2.948 9.74408 2.88467 9.74541C2.91267 9.85941 2.83667 9.90741 2.762 9.93341C2.78534 9.85074 2.80067 9.75474 2.65934 9.75474C2.556 9.75474 2.47467 9.73674 2.42734 9.67008C2.424 9.75941 2.41534 10.1134 2.41534 10.1134C2.41 10.2461 2.59334 10.2427 2.71 10.2027C2.66667 10.3561 2.57667 10.4387 2.36667 10.4174C2.39889 10.4299 2.42637 10.4522 2.44527 10.4811C2.46416 10.5101 2.47351 10.5442 2.472 10.5787C2.472 10.7034 2.37067 10.8421 2.30467 10.8827L2.27134 9.58408Z" fill="#FFCC4D"/>
<path d="M2.33734 9.58408C2.33734 9.25074 2.03867 9.08008 1.804 9.08008C1.488 9.08008 1.31934 9.26941 1.31934 9.51674C1.31934 9.65741 1.34534 9.74541 1.41 9.87941L2.13467 11.3847C2.16 11.4374 2.168 11.4967 2.168 11.5841C2.168 11.7194 2.03667 11.8294 1.9 11.8334C1.77467 11.8361 1.63867 11.7161 1.63867 11.5801C1.63867 11.4147 1.724 11.3407 1.81267 11.3407C1.92134 11.3407 1.96467 11.3854 1.96467 11.4621C1.96467 11.5147 1.93867 11.5381 1.902 11.5381C1.80867 11.5381 1.83467 11.4127 1.83467 11.4127C1.8223 11.4152 1.81061 11.4203 1.80045 11.4278C1.7903 11.4352 1.78192 11.4448 1.77593 11.4559C1.76994 11.467 1.76648 11.4793 1.7658 11.4919C1.76512 11.5045 1.76724 11.5171 1.772 11.5287C1.73706 11.5364 1.7055 11.5551 1.682 11.5821C1.70611 11.6076 1.73756 11.6251 1.772 11.6321C1.75067 11.7041 1.77934 11.7387 1.842 11.7541C1.83116 11.7298 1.82813 11.7028 1.83334 11.6767C1.93267 11.7047 2.08467 11.6607 2.08467 11.4887C2.08467 11.3187 1.96667 11.1754 1.74534 11.2107C1.798 11.1854 1.82467 11.1341 1.82934 11.0767C1.78934 11.0927 1.74534 11.0941 1.74534 11.0941C1.77067 11.0487 1.80667 11.0094 1.80534 10.9194C1.764 10.9381 1.72667 10.9727 1.67334 10.9507C1.756 10.7881 1.65467 10.5647 1.396 10.5121C1.4836 10.6077 1.53358 10.7318 1.53667 10.8614C1.53667 11.2474 1.42934 11.3121 1.42934 11.5807C1.42934 11.6927 1.48734 11.8141 1.60134 11.8967V11.8921C1.52734 11.9121 1.47867 11.9487 1.45134 11.9994C1.624 12.0487 1.87467 12.0474 2.00934 11.9947C2.07003 11.9858 2.128 11.9635 2.17906 11.9295C2.23013 11.8955 2.27302 11.8506 2.30467 11.7981C2.33726 11.7232 2.35408 11.6424 2.35408 11.5607C2.35408 11.4791 2.33726 11.3983 2.30467 11.3234C2.202 11.1087 1.718 10.0827 1.56734 9.75941C1.53415 9.69102 1.51662 9.61609 1.516 9.54008C1.516 9.34274 1.69667 9.27341 1.79934 9.27341C1.92267 9.27341 2.048 9.36741 2.048 9.48341C2.048 9.55808 2.00734 9.60274 1.95 9.60274C1.81067 9.60274 1.81934 9.48408 1.84667 9.41008C1.76067 9.44874 1.71 9.51808 1.724 9.59141C1.66957 9.59937 1.6201 9.62744 1.58534 9.67008C1.61934 9.71274 1.66067 9.74474 1.724 9.74608C1.696 9.86008 1.772 9.90808 1.84667 9.93408C1.82334 9.85141 1.808 9.75541 1.95 9.75541C2.05334 9.75541 2.13467 9.73741 2.182 9.67074L2.19334 10.1127C2.19867 10.2454 2.01467 10.2421 1.898 10.2021C1.942 10.3554 2.03267 10.4381 2.242 10.4174C2.20979 10.4299 2.1823 10.4522 2.16341 10.4811C2.14451 10.5101 2.13516 10.5442 2.13667 10.5787C2.13667 10.7034 2.23734 10.8421 2.304 10.8827L2.33734 9.58408Z" fill="#FFCC4D"/>
<path d="M2.3374 8.58279C2.3374 8.91545 2.03873 9.08679 1.80406 9.08679C1.48806 9.08679 1.3194 8.89745 1.3194 8.64945C1.3194 8.50945 1.3454 8.42145 1.41006 8.28679L2.13473 6.78145C2.16102 6.71845 2.17242 6.65024 2.16806 6.58212C2.16806 6.44745 2.03673 6.33679 1.90006 6.33345C1.77473 6.33079 1.63873 6.45012 1.63873 6.58679C1.63873 6.75279 1.72406 6.82612 1.81273 6.82612C1.9214 6.82612 1.96473 6.78145 1.96473 6.70479C1.96473 6.65145 1.93873 6.62879 1.90206 6.62879C1.80873 6.62879 1.83473 6.75412 1.83473 6.75412C1.82233 6.75162 1.81064 6.74641 1.80048 6.73888C1.79033 6.73134 1.78196 6.72165 1.77598 6.71051C1.76999 6.69937 1.76654 6.68705 1.76586 6.67442C1.76519 6.66179 1.7673 6.64917 1.77206 6.63745C1.73697 6.63059 1.70524 6.61202 1.68206 6.58479C1.70639 6.55963 1.73777 6.54243 1.77206 6.53545C1.75073 6.46345 1.78006 6.42879 1.84273 6.41345C1.83188 6.43771 1.82886 6.46473 1.83406 6.49079C1.9334 6.46279 2.0854 6.50812 2.0854 6.67879C2.0854 6.84879 1.9674 6.99212 1.74606 6.95679C1.79873 6.98212 1.8254 7.03345 1.83006 7.09079C1.80301 7.0811 1.77474 7.07527 1.74606 7.07345C1.7714 7.11879 1.8074 7.15812 1.80606 7.24812C1.76473 7.22945 1.7274 7.19479 1.67406 7.21679C1.75673 7.37945 1.6554 7.60279 1.39673 7.65612C1.48432 7.56025 1.53428 7.43594 1.5374 7.30612C1.5374 6.92079 1.43006 6.85545 1.43006 6.58745C1.43006 6.47545 1.48806 6.35412 1.60206 6.27145V6.27612C1.57076 6.26952 1.54118 6.25644 1.51523 6.23772C1.48929 6.21901 1.46754 6.19507 1.4514 6.16745C1.62406 6.11879 1.87473 6.11945 2.0094 6.17279C2.07019 6.18166 2.12825 6.20398 2.17934 6.23811C2.23043 6.27225 2.27326 6.31734 2.30473 6.37012C2.33736 6.44499 2.3542 6.52578 2.3542 6.60745C2.3542 6.68912 2.33736 6.76992 2.30473 6.84479C2.20206 7.05945 1.71806 8.08545 1.5674 8.40812C1.53415 8.47649 1.51661 8.55143 1.51606 8.62745C1.51606 8.82545 1.69673 8.89412 1.7994 8.89412C1.92273 8.89412 2.04806 8.80012 2.04806 8.68345C2.04806 8.60945 2.0074 8.56412 1.95006 8.56412C1.81073 8.56412 1.8194 8.68212 1.84673 8.75679C1.76073 8.71812 1.71006 8.64879 1.72406 8.57545C1.66971 8.56724 1.62032 8.53922 1.5854 8.49679C1.6194 8.45412 1.66073 8.42145 1.72406 8.42079C1.69606 8.30745 1.77206 8.25879 1.84673 8.23212C1.8234 8.31545 1.80806 8.41212 1.95006 8.41212C2.0534 8.41212 2.13473 8.42945 2.18206 8.49679L2.19406 8.05279C2.1994 7.92012 2.0154 7.92412 1.89873 7.96345C1.94273 7.81012 2.0334 7.72745 2.24273 7.74812C2.21051 7.73561 2.18303 7.71332 2.16413 7.68438C2.14524 7.65544 2.13589 7.62131 2.1374 7.58679C2.1374 7.46212 2.23806 7.32345 2.30473 7.28279L2.3374 8.58279ZM2.3374 14.4121C2.3374 14.7448 2.03873 14.9155 1.80406 14.9155C1.48806 14.9155 1.3194 14.7268 1.3194 14.4795C1.31778 14.3528 1.34902 14.2278 1.41006 14.1168L2.13473 12.6115C2.16102 12.5485 2.17242 12.4802 2.16806 12.4121C2.16806 12.2768 2.03673 12.1668 1.90006 12.1635C1.77473 12.1601 1.63873 12.2801 1.63873 12.4161C1.63873 12.5815 1.72406 12.6555 1.81273 12.6555C1.9214 12.6555 1.96473 12.6108 1.96473 12.5341C1.96473 12.4815 1.93873 12.4588 1.90206 12.4588C1.80873 12.4588 1.83473 12.5841 1.83473 12.5841C1.82239 12.5815 1.81077 12.5762 1.80068 12.5687C1.79059 12.5611 1.78227 12.5514 1.77631 12.5403C1.77034 12.5292 1.76687 12.517 1.76613 12.5044C1.7654 12.4918 1.76742 12.4792 1.77206 12.4675C1.7369 12.4604 1.70517 12.4416 1.68206 12.4141C1.70624 12.3888 1.73768 12.3715 1.77206 12.3648C1.75073 12.2921 1.7794 12.2575 1.84206 12.2421C1.83122 12.2664 1.82819 12.2934 1.8334 12.3195C1.93273 12.2915 2.08473 12.3361 2.08473 12.5075C2.08473 12.6775 1.96673 12.8201 1.7454 12.7855C1.79806 12.8115 1.82473 12.8621 1.8294 12.9201C1.7894 12.9048 1.7454 12.9021 1.7454 12.9021C1.77073 12.9475 1.80673 12.9875 1.8054 13.0768C1.76406 13.0581 1.72673 13.0235 1.6734 13.0455C1.75606 13.2075 1.65473 13.4321 1.39606 13.4841C1.48377 13.3886 1.53376 13.2644 1.53673 13.1348C1.53673 12.7501 1.4294 12.6841 1.4294 12.4161C1.4294 12.3035 1.4874 12.1821 1.6014 12.1001V12.1041C1.5274 12.0848 1.47873 12.0481 1.4514 11.9968C1.62406 11.9481 1.87473 11.9488 2.0094 12.0021C2.07009 12.0111 2.12806 12.0333 2.17912 12.0673C2.23019 12.1013 2.27308 12.1462 2.30473 12.1988C2.33732 12.2737 2.35414 12.3545 2.35414 12.4361C2.35414 12.5178 2.33732 12.5986 2.30473 12.6735C2.20206 12.8881 1.71806 13.9141 1.5674 14.2375C1.53406 14.3058 1.51652 14.3808 1.51606 14.4568C1.51606 14.6541 1.69673 14.7228 1.7994 14.7228C1.92273 14.7228 2.04806 14.6288 2.04806 14.5121C2.04806 14.4395 2.0074 14.3941 1.95006 14.3941C1.81073 14.3941 1.8194 14.5121 1.84673 14.5861C1.76073 14.5475 1.71006 14.4775 1.72406 14.4048C1.66966 14.3972 1.62014 14.3693 1.5854 14.3268C1.6012 14.3043 1.62189 14.2858 1.64591 14.2725C1.66993 14.2592 1.69665 14.2516 1.72406 14.2501C1.69606 14.1368 1.77206 14.0895 1.84673 14.0628C1.8234 14.1461 1.80806 14.2421 1.95006 14.2421C2.0534 14.2421 2.13473 14.2595 2.18206 14.3275L2.19406 13.8835C2.1994 13.7515 2.0154 13.7548 1.89873 13.7941C1.94273 13.6415 2.0334 13.5588 2.24273 13.5795C2.21051 13.5669 2.18303 13.5447 2.16413 13.5157C2.14524 13.4868 2.13589 13.4526 2.1374 13.4181C2.1374 13.2935 2.23806 13.1555 2.30473 13.1141L2.3374 14.4121Z" fill="#FFCC4D"/>
<path d="M2.27115 14.4135C2.27115 14.7461 2.56982 14.9168 2.80449 14.9168C3.12049 14.9168 3.28915 14.7281 3.28915 14.4808C3.29077 14.3541 3.25953 14.2291 3.19849 14.1181L2.47382 12.6128C2.44726 12.5499 2.43562 12.4816 2.43982 12.4135C2.43982 12.2781 2.57115 12.1681 2.70849 12.1648C2.83315 12.1615 2.96982 12.2815 2.96982 12.4175C2.96982 12.5828 2.88449 12.6568 2.79582 12.6568C2.68715 12.6568 2.64382 12.6121 2.64382 12.5355C2.64382 12.4828 2.66982 12.4601 2.70649 12.4601C2.79982 12.4601 2.77382 12.5855 2.77382 12.5855C2.78616 12.5828 2.79778 12.5776 2.80787 12.57C2.81796 12.5625 2.82628 12.5528 2.83224 12.5417C2.83821 12.5306 2.84168 12.5183 2.84241 12.5057C2.84315 12.4931 2.84112 12.4805 2.83649 12.4688C2.87165 12.4617 2.90338 12.4429 2.92649 12.4155C2.90231 12.3901 2.87087 12.3729 2.83649 12.3661C2.85849 12.2935 2.82915 12.2588 2.76649 12.2435C2.77915 12.2715 2.77915 12.2968 2.77515 12.3208C2.67582 12.2928 2.52382 12.3375 2.52382 12.5088C2.52382 12.6788 2.64182 12.8215 2.86382 12.7868C2.81049 12.8128 2.78449 12.8635 2.77915 12.9215C2.81915 12.9061 2.86382 12.9035 2.86382 12.9035C2.83782 12.9488 2.80182 12.9888 2.80315 13.0781C2.84449 13.0595 2.88249 13.0248 2.93515 13.0468C2.85249 13.2088 2.95382 13.4335 3.21249 13.4855C3.12478 13.3899 3.07479 13.2658 3.07182 13.1361C3.07182 12.7515 3.17982 12.6855 3.17982 12.4175C3.17814 12.3549 3.16167 12.2937 3.13178 12.2388C3.10188 12.1839 3.0594 12.1368 3.00782 12.1015V12.1055C3.03923 12.0991 3.06895 12.0862 3.09503 12.0676C3.12111 12.049 3.14296 12.0251 3.15915 11.9975C2.98649 11.9488 2.73515 11.9495 2.60115 12.0028C2.54046 12.0117 2.48249 12.034 2.43143 12.068C2.38036 12.102 2.33747 12.1469 2.30582 12.1995C2.27323 12.2743 2.25641 12.3551 2.25641 12.4368C2.25641 12.5185 2.27323 12.5992 2.30582 12.6741C2.40849 12.8888 2.89249 13.9148 3.04315 14.2381C3.07515 14.3061 3.09449 14.3781 3.09449 14.4575C3.09449 14.6548 2.91382 14.7235 2.81115 14.7235C2.68782 14.7235 2.56249 14.6295 2.56249 14.5128C2.56249 14.4401 2.60315 14.3948 2.66049 14.3948C2.79982 14.3948 2.79115 14.5128 2.76315 14.5868C2.84915 14.5481 2.89982 14.4781 2.88582 14.4055C2.94031 14.3981 2.98992 14.3702 3.02449 14.3275C3.00868 14.305 2.98799 14.2865 2.96397 14.2732C2.93995 14.2599 2.91323 14.2522 2.88582 14.2508C2.91382 14.1375 2.83782 14.0901 2.76315 14.0635C2.78649 14.1468 2.80182 14.2428 2.66049 14.2428C2.55715 14.2428 2.47582 14.2601 2.42849 14.3281C2.42515 14.2388 2.41649 13.8841 2.41649 13.8841C2.41115 13.7521 2.59449 13.7555 2.71115 13.7948C2.66649 13.6421 2.57649 13.5595 2.36649 13.5801C2.3987 13.5676 2.42619 13.5453 2.44508 13.5164C2.46398 13.4874 2.47333 13.4533 2.47182 13.4188C2.47182 13.2941 2.37049 13.1561 2.30449 13.1148L2.27115 14.4135ZM2.30449 4.98412C2.30449 4.98412 2.46249 4.85145 2.51582 4.91745C2.60182 5.02479 2.25115 5.55745 2.25115 5.74545C2.25115 6.05345 2.45715 6.13679 2.71049 6.18079C2.88115 6.21079 3.15849 6.16879 3.15849 6.16879C3.10515 6.09879 3.07182 6.07812 2.98382 6.07279C3.04445 6.04124 3.09505 5.99337 3.12992 5.93459C3.16479 5.87581 3.18253 5.80845 3.18115 5.74012C3.18115 5.47479 3.07182 5.36545 3.07182 5.06679C3.07182 4.90079 3.20782 4.68945 3.20782 4.68945C2.96782 4.71412 2.84782 4.93612 2.91582 5.11412C2.89755 5.1175 2.87874 5.11641 2.86098 5.11096C2.84322 5.1055 2.82704 5.09584 2.81382 5.08279C2.79649 5.13212 2.82449 5.18945 2.86115 5.23879C2.83115 5.25479 2.80915 5.24479 2.76182 5.23479C2.76649 5.28612 2.79649 5.33945 2.87115 5.39012C2.65449 5.33412 2.52182 5.48479 2.52182 5.64279C2.52182 5.76212 2.60515 5.84679 2.68715 5.84679C2.71382 5.84679 2.75249 5.83612 2.77449 5.81945C2.78982 5.85212 2.78182 5.89612 2.76582 5.92879C2.82582 5.91345 2.86315 5.87745 2.83649 5.80345C2.87737 5.80179 2.91594 5.78406 2.94382 5.75412C2.93092 5.73807 2.91442 5.7253 2.89565 5.71684C2.87688 5.70839 2.85638 5.70448 2.83582 5.70545C2.86915 5.63612 2.83182 5.59745 2.77782 5.56679C2.77782 5.56679 2.81249 5.70545 2.72382 5.70545C2.68382 5.70545 2.64782 5.69212 2.64782 5.63412C2.64782 5.58345 2.69249 5.51279 2.79515 5.51745C2.89782 5.52145 2.98115 5.58812 2.98115 5.75279C2.98115 5.90412 2.85915 5.97879 2.69849 5.98412C2.55382 5.98812 2.44449 5.90945 2.44449 5.76012C2.44449 5.56079 2.73249 5.10745 2.73249 4.92945C2.73249 4.79612 2.61315 4.72145 2.49582 4.72145C2.34382 4.72145 2.21582 4.87212 2.21582 4.87212L2.30449 4.98412Z" fill="#FFCC4D"/>
<path d="M2.30439 4.98412C2.30439 4.98412 2.14639 4.85145 2.09306 4.91745C2.00639 5.02545 2.35772 5.55812 2.35772 5.74612C2.35772 6.05412 2.15172 6.13745 1.89839 6.18145C1.72772 6.21079 1.45106 6.16879 1.45106 6.16879C1.50306 6.09879 1.53706 6.07812 1.62506 6.07279C1.56425 6.04139 1.51347 5.99358 1.47847 5.93477C1.44347 5.87597 1.42566 5.80854 1.42706 5.74012C1.42706 5.47479 1.53639 5.36545 1.53639 5.06679C1.53639 4.90079 1.40039 4.68945 1.40039 4.68945C1.64039 4.71412 1.76039 4.93612 1.69239 5.11412C1.71076 5.11739 1.72965 5.11625 1.74749 5.1108C1.76534 5.10536 1.78164 5.09575 1.79506 5.08279C1.81239 5.13212 1.78506 5.18945 1.74772 5.23879C1.77706 5.25479 1.79906 5.24479 1.84706 5.23479C1.84239 5.28612 1.81172 5.33945 1.73772 5.39012C1.95372 5.33412 2.08639 5.48479 2.08639 5.64279C2.08639 5.76212 2.00306 5.84679 1.92106 5.84679C1.88995 5.84611 1.85967 5.83663 1.83372 5.81945C1.81906 5.85279 1.82706 5.89612 1.84239 5.92879C1.78306 5.91345 1.74572 5.87745 1.77239 5.80412C1.75213 5.8034 1.73221 5.79867 1.71378 5.7902C1.69536 5.78174 1.6788 5.7697 1.66506 5.75479C1.67774 5.73863 1.6941 5.72573 1.71276 5.71715C1.73143 5.70857 1.75187 5.70456 1.77239 5.70545C1.73906 5.63612 1.77639 5.59745 1.83039 5.56679C1.83039 5.56679 1.79572 5.70545 1.88439 5.70545C1.92439 5.70545 1.96039 5.69212 1.96039 5.63412C1.96039 5.58345 1.91572 5.51279 1.81306 5.51745C1.70972 5.52145 1.62639 5.58812 1.62639 5.75212C1.62639 5.90345 1.74839 5.97812 1.90906 5.98345C2.05439 5.98745 2.16372 5.90945 2.16372 5.75945C2.16372 5.56012 1.87572 5.10679 1.87572 4.92879C1.87572 4.79545 1.99506 4.72079 2.11239 4.72079C2.26439 4.72079 2.39239 4.87145 2.39239 4.87145L2.30439 4.98412ZM2.27106 8.58412C2.27106 8.91679 2.56972 9.08812 2.80439 9.08812C3.12039 9.08812 3.28906 8.89879 3.28906 8.65079C3.28906 8.51079 3.26306 8.42279 3.19839 8.28812L2.47372 6.78279C2.44763 6.71997 2.43623 6.65202 2.44039 6.58412C2.44039 6.44945 2.57172 6.33879 2.70906 6.33545C2.83372 6.33279 2.97039 6.45212 2.97039 6.58879C2.97039 6.75479 2.88506 6.82812 2.79639 6.82812C2.68772 6.82812 2.64439 6.78345 2.64439 6.70679C2.64439 6.65345 2.67039 6.63079 2.70706 6.63079C2.80039 6.63079 2.77439 6.75612 2.77439 6.75612C2.78673 6.75351 2.79835 6.74824 2.80844 6.74068C2.81853 6.73312 2.82685 6.72345 2.83281 6.71234C2.83878 6.70123 2.84225 6.68895 2.84299 6.67636C2.84372 6.66378 2.8417 6.65118 2.83706 6.63945C2.87191 6.63203 2.90332 6.61327 2.92639 6.58612C2.90188 6.56085 2.87026 6.54364 2.83572 6.53679C2.85772 6.46479 2.82839 6.43012 2.76572 6.41479C2.77839 6.44279 2.77839 6.46812 2.77439 6.49212C2.67506 6.46412 2.52306 6.50879 2.52306 6.68012C2.52306 6.85012 2.64106 6.99345 2.86306 6.95812C2.80972 6.98345 2.78372 7.03479 2.77839 7.09212C2.80566 7.08241 2.83416 7.07657 2.86306 7.07479C2.83706 7.12012 2.80106 7.15945 2.80239 7.24945C2.84372 7.23079 2.88172 7.19612 2.93439 7.21812C2.85172 7.38079 2.95306 7.60412 3.21172 7.65745C3.12413 7.56159 3.07417 7.43727 3.07106 7.30745C3.07106 6.92212 3.17906 6.85679 3.17906 6.58879C3.17722 6.52631 3.16068 6.46514 3.1308 6.41024C3.10092 6.35534 3.05853 6.30825 3.00706 6.27279V6.27745C3.03841 6.27074 3.06803 6.25763 3.09408 6.23893C3.12012 6.22023 3.14201 6.19635 3.15839 6.16879C2.98506 6.12079 2.73372 6.12145 2.59906 6.17479C2.53836 6.18345 2.48038 6.20562 2.42939 6.23965C2.37839 6.27369 2.33568 6.31873 2.30439 6.37145C2.27176 6.44632 2.25492 6.52712 2.25492 6.60879C2.25492 6.69046 2.27176 6.77125 2.30439 6.84612C2.40706 7.06079 2.89106 8.08679 3.04172 8.40945C3.07451 8.47798 3.09203 8.55282 3.09306 8.62879C3.09306 8.82679 2.91239 8.89545 2.80972 8.89545C2.68639 8.89545 2.56106 8.80145 2.56106 8.68479C2.56106 8.61079 2.60172 8.56545 2.65906 8.56545C2.79839 8.56545 2.78972 8.68345 2.76172 8.75812C2.84772 8.71945 2.89839 8.65012 2.88439 8.57679C2.93884 8.56889 2.98834 8.54081 3.02306 8.49812C2.98906 8.45545 2.94772 8.42279 2.88439 8.42212C2.91239 8.30879 2.83639 8.26012 2.76172 8.23345C2.78506 8.31679 2.80039 8.41345 2.65906 8.41345C2.55572 8.41345 2.47439 8.43079 2.42706 8.49812C2.42372 8.40879 2.41506 8.05412 2.41506 8.05412C2.40972 7.92145 2.59306 7.92545 2.70972 7.96479C2.66639 7.81279 2.57639 7.73012 2.36639 7.75079C2.39861 7.73828 2.42609 7.71599 2.44499 7.68705C2.46388 7.65811 2.47323 7.62398 2.47172 7.58945C2.47172 7.46479 2.37039 7.32612 2.30439 7.28545L2.27106 8.58412Z" fill="#FFCC4D"/>
</svg>
