<svg width="67" height="102" viewBox="0 0 67 102" fill="none" xmlns="http://www.w3.org/2000/svg">
<mask id="path-1-outside-1_10781_40338" maskUnits="userSpaceOnUse" x="-0.230957" y="-0.230469" width="68" height="102" fill="black">
<rect fill="white" x="-0.230957" y="-0.230469" width="68" height="102"/>
<path fill-rule="evenodd" clip-rule="evenodd" d="M11.4806 8.07903C12.7231 7.6846 20.8276 7.93707 22.6858 7.94054L42.769 7.944L50.9005 7.90851C51.7421 7.90386 54.4755 7.8355 55.1616 8.00459C57.1538 8.46064 58.0025 10.0014 58.0019 11.8927C58.0013 15.6779 57.966 19.4631 57.9595 23.2487L57.956 46.6126L57.9772 56.5466C57.9954 58.5014 58.0049 60.481 58.0108 62.4167C58.0179 64.8222 56.4789 66.4732 53.9918 66.4095C51.9307 66.3962 49.8974 66.376 47.8552 66.355C44.8933 66.3333 41.9311 66.3266 38.9692 66.3342L22.6169 66.3394C20.7926 66.3426 18.9672 66.3557 17.1428 66.3792C13.8468 66.4156 8.97034 67.2853 8.91323 62.55C8.87889 59.7023 8.91284 56.8493 8.91765 54.001L8.92118 20.459C8.91995 18.6164 8.70748 11.3817 9.16414 10.2256C9.53494 9.2968 10.2752 8.5557 11.2147 8.17164C11.3072 8.13455 11.3849 8.10285 11.4806 8.07903ZM22.1654 9.95122C18.955 9.95268 15.5669 9.90223 12.365 9.96334C11.2075 10.2863 11.026 11.0806 11.0194 12.1315C10.9971 15.6954 10.9802 19.2605 10.97 22.8246L10.962 45.1316L10.9938 57.1351C10.9987 58.5728 10.9239 62.0229 11.0866 63.3273C11.3489 63.6994 11.7199 64.2334 12.2007 64.2863C13.2375 64.3991 14.4992 64.367 15.5473 64.3746L22.942 64.4136C33.4301 64.4531 43.9187 64.4286 54.4062 64.34C55.1825 64.2717 55.4237 63.855 55.8445 63.2797C55.9212 62.0824 55.8924 60.6451 55.8931 59.4306L55.8904 19.0499L55.8948 14.1968C55.8948 13.2196 55.9217 11.9361 55.8339 10.9786C55.4735 10.5228 55.194 10.058 54.5891 10.017C53.1219 9.91762 51.5318 9.95416 50.0595 9.95295L22.1654 9.95122Z"/>
<path fill-rule="evenodd" clip-rule="evenodd" d="M34.1755 19.1032C37.9276 19.0952 40.9123 18.7429 44.0608 21.1745C46.2007 22.8076 47.6139 25.3387 47.8871 27.9812C47.973 28.8127 48.1905 30.4249 46.9851 30.532C45.9503 30.6237 44.8912 30.5895 43.8531 30.5874L38.3323 30.5813L26.4689 30.5865C24.4741 30.5867 22.4526 30.6003 20.4578 30.5735C20.1982 30.57 19.5782 30.5025 19.3994 30.3407C19.1153 30.0843 18.9679 29.6238 18.9647 29.2587C18.9413 26.7985 19.8834 24.1203 21.6063 22.3282C23.6876 20.1632 25.8505 19.2737 28.7872 19.1127C30.5635 19.0649 32.3927 19.107 34.1755 19.1032ZM31.8078 21.1736C28.513 21.1776 26.0269 20.9482 23.4201 23.4647C21.9588 24.8752 21.362 26.5398 21.1018 28.5005L35.3196 28.523L42.171 28.5144C43.2247 28.5127 44.8504 28.5597 45.8313 28.4858C45.4813 26.1397 44.7127 24.2535 42.7135 22.7757C40.4493 21.102 38.5153 21.1794 35.8577 21.1753L31.8078 21.1736Z"/>
<path fill-rule="evenodd" clip-rule="evenodd" d="M44.8111 43.7345C45.3157 43.7331 47.2261 43.6492 47.5897 43.9915C47.918 44.3007 47.9493 44.8018 47.9422 45.2284C47.8882 48.2998 46.8265 50.5609 44.6061 52.6834C42.8012 54.2478 40.2193 55.3052 37.829 55.2013C34.5281 55.0573 30.4717 55.4633 27.275 55.0689C22.9745 54.5379 19.1448 50.2513 19.0277 46.0394C19.001 45.0629 18.7145 44.4277 19.6876 43.7708C20.5779 43.6947 22.0813 43.7398 23.0042 43.744L28.6187 43.7691C34.0159 43.7863 39.4139 43.7747 44.8111 43.7345ZM45.7891 45.8326C40.165 45.7523 34.1844 45.6901 28.5745 45.778L21.1259 45.8144C21.3933 48.1059 22.1575 49.9161 24.0503 51.3963C25.0115 52.1463 26.1329 52.6731 27.3315 52.9388C28.6284 53.2217 30.7063 53.1526 32.0917 53.1525C34.195 53.1564 36.2979 53.1431 38.4006 53.1145C42.5373 52.7047 45.4294 49.9127 45.7891 45.8326Z"/>
<path d="M34.6233 32.8077C35.6919 33.0665 36.0269 33.5928 36.8172 34.2537C38.5226 35.6811 39.5483 33.3593 40.9916 32.7913C43.5367 31.79 44.5527 33.336 46.2028 34.6281C46.7583 34.6913 47.4211 34.7181 47.7085 35.1861C48.5183 36.503 46.9619 37.0799 45.8568 36.6824C44.9046 36.34 44.6047 36.0356 43.9023 35.3854C43.3364 34.8176 42.5331 34.3475 41.7344 34.7721C41.335 34.9846 40.8427 35.421 40.5292 35.7144C38.518 37.5941 36.3177 36.8707 34.6233 35.0884C34.2428 34.688 33.3185 34.4381 32.7878 34.7624C31.2639 35.8536 30.2453 37.3323 28.0579 36.676C27.6833 36.5672 26.9639 36.2484 26.6901 35.9892C26.0696 35.4011 24.889 34.091 23.8685 34.7271C22.9618 35.292 22.0649 36.5212 20.8343 36.733C20.5247 36.7862 20.18 36.919 19.8417 36.8273C19.2609 36.7273 18.8765 35.8498 19.056 35.349C19.27 34.7515 20.2307 34.6867 20.7536 34.6214C22.1488 33.3967 22.703 32.5121 24.7551 32.5095C27.187 32.5065 27.8101 35.4814 29.8453 34.5115C31.1026 33.3143 32.6831 32.0898 34.6233 32.8077Z"/>
<path d="M29.8453 34.5115C31.1026 33.3143 32.6831 32.0898 34.6233 32.8077L34.4612 32.7519C34.074 32.5965 33.2503 32.7028 32.8541 32.7519C32.3735 32.8116 30.1256 34.6792 29.8453 34.5115Z"/>
<path d="M19.7156 39.1359C21.3286 39.0454 23.5999 39.1173 25.2435 39.123L35.7368 39.1414L43.4105 39.1185C44.5618 39.1156 46.063 39.0448 47.1811 39.177C48.1664 39.2936 48.1873 40.6104 47.2136 41.1505C45.9537 41.2511 43.5692 41.1714 42.2528 41.1641L32.5875 41.1317L23.916 41.1647C22.6373 41.1697 21.0385 41.2353 19.7813 41.1263C18.8393 41.0446 18.7204 39.7416 19.7156 39.1359Z"/>
<path fill-rule="evenodd" clip-rule="evenodd" d="M10.6709 70.4316C10.6709 70.4316 20.126 70.464 24.6334 70.4628L29.1966 70.4385C30.0323 70.4322 30.9091 70.3978 31.7383 70.4844C32.4085 70.5547 32.5514 71.1418 32.5573 71.6953C32.5931 75.37 32.4836 79.0469 32.5688 82.7216C32.5883 83.5607 32.6885 84.2603 31.8823 84.7306C31.5838 84.7541 31.2845 84.7692 30.9847 84.7756C26.9744 84.8386 22.7897 84.753 18.76 84.7626L13.8717 84.7764C12.8836 84.7796 11.8958 84.7908 10.9086 84.7366C10.4607 84.7409 10.0617 84.4449 10.0277 83.9819C9.94358 82.8292 9.96802 81.6206 9.97648 80.4616C9.99943 77.3298 9.92893 74.1872 9.9915 71.0565C9.9915 70.5261 10.6709 70.4316 10.6709 70.4316ZM12.1074 72.5081C11.9606 75.5413 12.0044 79.6679 12.0792 82.7233C12.5704 82.7265 15.3344 82.8298 15.4991 82.5909C15.6671 79.4328 15.9602 75.62 15.9939 72.5046C14.6984 72.4931 13.4029 72.4947 12.1074 72.5081ZM18.2511 72.5141C17.9676 72.8929 17.6517 81.5041 17.6186 82.7294L24.3957 82.7346C24.6845 82.7314 24.6955 82.7803 24.8861 82.6446C24.9199 81.6977 24.7806 80.2021 24.7279 79.1927L24.3736 72.5063C22.3971 72.4547 20.2372 72.488 18.2511 72.5141ZM30.4325 72.5237C29.2404 72.5014 28.0483 72.4971 26.8562 72.5124L26.5974 72.5479C26.4598 72.778 26.9737 81.7104 27.04 82.7363C28.0604 82.7312 29.1159 82.7121 30.133 82.7242L30.3627 82.6792C30.5149 82.4239 30.4469 73.5652 30.4325 72.5237Z"/>
<path fill-rule="evenodd" clip-rule="evenodd" d="M14.0374 0.778556L47.5477 0.783749C51.1091 0.783173 54.6968 0.759355 58.2581 0.789808C59.0928 0.797043 60.035 0.94603 60.8255 1.21999C62.8076 1.90767 64.4303 3.33969 65.3357 5.19894C66.4488 7.48525 66.1127 10.9123 66.084 13.4503L66.0495 20.5192L66.0566 71.5929L66.1087 79.7941C66.1504 85.5848 66.6526 88.8452 60.5472 91.6132L60.5649 92.2996C60.5851 93.1256 60.7424 95.3679 60.1991 95.6371C59.4905 95.9842 55.2612 95.8556 54.483 95.8561C51.7765 95.8689 48.846 95.8388 46.3621 95.8388C46.0651 95.8388 45.6477 94.6898 45.6509 93.745C45.6522 93.1292 45.6673 92.5069 45.6712 91.891L36.6412 91.8703L34.5191 91.8919C34.4502 94.0505 34.5052 96.4726 34.5085 98.651C37.1292 98.7109 39.7982 98.6122 42.4209 98.6752C42.8809 98.7506 43.2635 99.1695 43.2814 99.6291C43.3105 100.369 42.8671 100.68 42.1718 100.714C41.1685 100.764 40.1881 100.744 39.1927 100.74L33.8353 100.726L27.9168 100.734C27.0899 100.736 24.6071 100.918 23.9509 100.439C23.3642 100.009 23.6054 98.7536 24.6091 98.6934C25.5232 98.6393 26.4827 98.6602 27.4345 98.664L32.3978 98.6631L32.3961 91.8884C26.8704 91.7546 21.2393 91.8781 15.7019 91.8469C12.9497 91.7686 9.93013 92.0982 7.209 91.7517C4.83647 91.4488 2.55546 89.4955 1.55827 87.4343C0.603792 85.4603 0.797303 83.3132 0.802896 81.2023L0.797595 13.2668C0.794385 11.5302 0.712029 9.65946 0.842653 7.93755C1.13625 4.07366 4.09728 1.33792 7.89281 0.822699C8.41314 0.758021 9.53216 0.771038 10.098 0.7699L14.0374 0.778556ZM56.0972 78.6472C55.3893 78.4982 53.4964 78.5461 52.6852 78.5468L46.8639 78.5511C47.1267 79.0468 47.5969 79.8861 47.6705 80.4034C47.8897 81.9536 47.8083 83.8272 47.8031 85.408L47.7933 93.7779C51.278 93.806 54.9651 93.8321 58.4446 93.7684L58.4613 85.2332C58.4627 83.8659 58.5155 82.2745 58.3686 80.9193C58.3196 80.4682 57.8996 79.7988 57.5699 79.4643C57.1726 79.0553 56.6595 78.7702 56.0972 78.6472ZM18.4742 2.85588C15.2861 2.85619 11.2865 2.74976 8.14902 2.88531C6.4341 3.12334 5.11973 3.82405 4.06205 5.19028C3.40481 6.03965 2.97937 7.24205 2.94003 8.30368C2.8735 10.1124 2.88717 11.9966 2.87995 13.8129L2.85345 24.2472L2.85433 75.8203L2.88791 81.8368C2.89785 82.7229 2.87917 84.3193 3.01159 85.1129C3.27019 86.6076 4.13574 87.936 5.41024 88.7949C6.17175 89.3191 7.05334 89.6535 7.97674 89.767C9.06211 89.8943 11.0417 89.8415 12.2245 89.844L19.6316 89.8656L45.6739 89.8414C45.6726 87.856 45.72 85.6574 45.6615 83.6899C43.2262 83.6288 40.782 83.7355 38.3498 83.6553C37.8675 83.6391 37.4371 83.1988 37.4434 82.7421C37.4967 79.0063 37.2241 74.9305 37.4381 71.2259C37.4553 70.9282 37.6531 70.6495 38.0574 70.6495C38.4618 70.6495 49.9358 70.6503 49.9358 70.6503L54.0475 70.6348C57.2145 70.6099 56.9971 70.5881 56.9665 73.8139C56.9535 74.768 56.9485 75.7223 56.9524 76.6763C58.4199 77.2555 59.4803 78.0336 60.1294 79.4954C60.3295 79.9545 60.4599 80.4404 60.5172 80.9357C60.5926 81.5612 60.5941 82.194 60.5843 82.8226C60.5518 84.9889 60.5843 87.1567 60.5499 89.3229C64.5287 87.2182 64.0155 84.4779 64.0025 80.586L63.991 75.3278L64.0078 14.2829C64.0072 11.7641 64.3797 8.19523 63.3249 5.91042C62.7627 4.69188 61.1756 3.42592 59.8246 3.1017C57.5047 2.67911 53.8148 2.86107 51.3661 2.86021L18.4742 2.85588ZM45.7225 81.5979C45.4147 79.4959 44.2043 78.359 41.9774 78.5883C40.3592 79.0682 39.6683 79.9555 39.4939 81.597C40.7583 81.6072 42.0226 81.6099 43.2876 81.6048L45.7225 81.5979ZM54.8355 72.7164C49.7974 72.6782 44.5824 72.6572 39.5443 72.7095C39.5254 74.2733 39.5178 75.8381 39.5204 77.4025C41.705 76.1665 43.6007 76.4611 46.0441 76.4669C48.619 76.4815 51.1945 76.4824 53.7701 76.4703L54.8364 76.4608L54.8355 72.7164Z"/>
</mask>
<path fill-rule="evenodd" clip-rule="evenodd" d="M11.4806 8.07903C12.7231 7.6846 20.8276 7.93707 22.6858 7.94054L42.769 7.944L50.9005 7.90851C51.7421 7.90386 54.4755 7.8355 55.1616 8.00459C57.1538 8.46064 58.0025 10.0014 58.0019 11.8927C58.0013 15.6779 57.966 19.4631 57.9595 23.2487L57.956 46.6126L57.9772 56.5466C57.9954 58.5014 58.0049 60.481 58.0108 62.4167C58.0179 64.8222 56.4789 66.4732 53.9918 66.4095C51.9307 66.3962 49.8974 66.376 47.8552 66.355C44.8933 66.3333 41.9311 66.3266 38.9692 66.3342L22.6169 66.3394C20.7926 66.3426 18.9672 66.3557 17.1428 66.3792C13.8468 66.4156 8.97034 67.2853 8.91323 62.55C8.87889 59.7023 8.91284 56.8493 8.91765 54.001L8.92118 20.459C8.91995 18.6164 8.70748 11.3817 9.16414 10.2256C9.53494 9.2968 10.2752 8.5557 11.2147 8.17164C11.3072 8.13455 11.3849 8.10285 11.4806 8.07903ZM22.1654 9.95122C18.955 9.95268 15.5669 9.90223 12.365 9.96334C11.2075 10.2863 11.026 11.0806 11.0194 12.1315C10.9971 15.6954 10.9802 19.2605 10.97 22.8246L10.962 45.1316L10.9938 57.1351C10.9987 58.5728 10.9239 62.0229 11.0866 63.3273C11.3489 63.6994 11.7199 64.2334 12.2007 64.2863C13.2375 64.3991 14.4992 64.367 15.5473 64.3746L22.942 64.4136C33.4301 64.4531 43.9187 64.4286 54.4062 64.34C55.1825 64.2717 55.4237 63.855 55.8445 63.2797C55.9212 62.0824 55.8924 60.6451 55.8931 59.4306L55.8904 19.0499L55.8948 14.1968C55.8948 13.2196 55.9217 11.9361 55.8339 10.9786C55.4735 10.5228 55.194 10.058 54.5891 10.017C53.1219 9.91762 51.5318 9.95416 50.0595 9.95295L22.1654 9.95122Z" fill="#9E9B98"/>
<path fill-rule="evenodd" clip-rule="evenodd" d="M34.1755 19.1032C37.9276 19.0952 40.9123 18.7429 44.0608 21.1745C46.2007 22.8076 47.6139 25.3387 47.8871 27.9812C47.973 28.8127 48.1905 30.4249 46.9851 30.532C45.9503 30.6237 44.8912 30.5895 43.8531 30.5874L38.3323 30.5813L26.4689 30.5865C24.4741 30.5867 22.4526 30.6003 20.4578 30.5735C20.1982 30.57 19.5782 30.5025 19.3994 30.3407C19.1153 30.0843 18.9679 29.6238 18.9647 29.2587C18.9413 26.7985 19.8834 24.1203 21.6063 22.3282C23.6876 20.1632 25.8505 19.2737 28.7872 19.1127C30.5635 19.0649 32.3927 19.107 34.1755 19.1032ZM31.8078 21.1736C28.513 21.1776 26.0269 20.9482 23.4201 23.4647C21.9588 24.8752 21.362 26.5398 21.1018 28.5005L35.3196 28.523L42.171 28.5144C43.2247 28.5127 44.8504 28.5597 45.8313 28.4858C45.4813 26.1397 44.7127 24.2535 42.7135 22.7757C40.4493 21.102 38.5153 21.1794 35.8577 21.1753L31.8078 21.1736Z" fill="#9E9B98"/>
<path fill-rule="evenodd" clip-rule="evenodd" d="M44.8111 43.7345C45.3157 43.7331 47.2261 43.6492 47.5897 43.9915C47.918 44.3007 47.9493 44.8018 47.9422 45.2284C47.8882 48.2998 46.8265 50.5609 44.6061 52.6834C42.8012 54.2478 40.2193 55.3052 37.829 55.2013C34.5281 55.0573 30.4717 55.4633 27.275 55.0689C22.9745 54.5379 19.1448 50.2513 19.0277 46.0394C19.001 45.0629 18.7145 44.4277 19.6876 43.7708C20.5779 43.6947 22.0813 43.7398 23.0042 43.744L28.6187 43.7691C34.0159 43.7863 39.4139 43.7747 44.8111 43.7345ZM45.7891 45.8326C40.165 45.7523 34.1844 45.6901 28.5745 45.778L21.1259 45.8144C21.3933 48.1059 22.1575 49.9161 24.0503 51.3963C25.0115 52.1463 26.1329 52.6731 27.3315 52.9388C28.6284 53.2217 30.7063 53.1526 32.0917 53.1525C34.195 53.1564 36.2979 53.1431 38.4006 53.1145C42.5373 52.7047 45.4294 49.9127 45.7891 45.8326Z" fill="#9E9B98"/>
<path d="M34.6233 32.8077C35.6919 33.0665 36.0269 33.5928 36.8172 34.2537C38.5226 35.6811 39.5483 33.3593 40.9916 32.7913C43.5367 31.79 44.5527 33.336 46.2028 34.6281C46.7583 34.6913 47.4211 34.7181 47.7085 35.1861C48.5183 36.503 46.9619 37.0799 45.8568 36.6824C44.9046 36.34 44.6047 36.0356 43.9023 35.3854C43.3364 34.8176 42.5331 34.3475 41.7344 34.7721C41.335 34.9846 40.8427 35.421 40.5292 35.7144C38.518 37.5941 36.3177 36.8707 34.6233 35.0884C34.2428 34.688 33.3185 34.4381 32.7878 34.7624C31.2639 35.8536 30.2453 37.3323 28.0579 36.676C27.6833 36.5672 26.9639 36.2484 26.6901 35.9892C26.0696 35.4011 24.889 34.091 23.8685 34.7271C22.9618 35.292 22.0649 36.5212 20.8343 36.733C20.5247 36.7862 20.18 36.919 19.8417 36.8273C19.2609 36.7273 18.8765 35.8498 19.056 35.349C19.27 34.7515 20.2307 34.6867 20.7536 34.6214C22.1488 33.3967 22.703 32.5121 24.7551 32.5095C27.187 32.5065 27.8101 35.4814 29.8453 34.5115C31.1026 33.3143 32.6831 32.0898 34.6233 32.8077Z" fill="#9E9B98"/>
<path d="M29.8453 34.5115C31.1026 33.3143 32.6831 32.0898 34.6233 32.8077L34.4612 32.7519C34.074 32.5965 33.2503 32.7028 32.8541 32.7519C32.3735 32.8116 30.1256 34.6792 29.8453 34.5115Z" fill="#9E9B98"/>
<path d="M19.7156 39.1359C21.3286 39.0454 23.5999 39.1173 25.2435 39.123L35.7368 39.1414L43.4105 39.1185C44.5618 39.1156 46.063 39.0448 47.1811 39.177C48.1664 39.2936 48.1873 40.6104 47.2136 41.1505C45.9537 41.2511 43.5692 41.1714 42.2528 41.1641L32.5875 41.1317L23.916 41.1647C22.6373 41.1697 21.0385 41.2353 19.7813 41.1263C18.8393 41.0446 18.7204 39.7416 19.7156 39.1359Z" fill="#9E9B98"/>
<path fill-rule="evenodd" clip-rule="evenodd" d="M10.6709 70.4316C10.6709 70.4316 20.126 70.464 24.6334 70.4628L29.1966 70.4385C30.0323 70.4322 30.9091 70.3978 31.7383 70.4844C32.4085 70.5547 32.5514 71.1418 32.5573 71.6953C32.5931 75.37 32.4836 79.0469 32.5688 82.7216C32.5883 83.5607 32.6885 84.2603 31.8823 84.7306C31.5838 84.7541 31.2845 84.7692 30.9847 84.7756C26.9744 84.8386 22.7897 84.753 18.76 84.7626L13.8717 84.7764C12.8836 84.7796 11.8958 84.7908 10.9086 84.7366C10.4607 84.7409 10.0617 84.4449 10.0277 83.9819C9.94358 82.8292 9.96802 81.6206 9.97648 80.4616C9.99943 77.3298 9.92893 74.1872 9.9915 71.0565C9.9915 70.5261 10.6709 70.4316 10.6709 70.4316ZM12.1074 72.5081C11.9606 75.5413 12.0044 79.6679 12.0792 82.7233C12.5704 82.7265 15.3344 82.8298 15.4991 82.5909C15.6671 79.4328 15.9602 75.62 15.9939 72.5046C14.6984 72.4931 13.4029 72.4947 12.1074 72.5081ZM18.2511 72.5141C17.9676 72.8929 17.6517 81.5041 17.6186 82.7294L24.3957 82.7346C24.6845 82.7314 24.6955 82.7803 24.8861 82.6446C24.9199 81.6977 24.7806 80.2021 24.7279 79.1927L24.3736 72.5063C22.3971 72.4547 20.2372 72.488 18.2511 72.5141ZM30.4325 72.5237C29.2404 72.5014 28.0483 72.4971 26.8562 72.5124L26.5974 72.5479C26.4598 72.778 26.9737 81.7104 27.04 82.7363C28.0604 82.7312 29.1159 82.7121 30.133 82.7242L30.3627 82.6792C30.5149 82.4239 30.4469 73.5652 30.4325 72.5237Z" fill="#9E9B98"/>
<path fill-rule="evenodd" clip-rule="evenodd" d="M14.0374 0.778556L47.5477 0.783749C51.1091 0.783173 54.6968 0.759355 58.2581 0.789808C59.0928 0.797043 60.035 0.94603 60.8255 1.21999C62.8076 1.90767 64.4303 3.33969 65.3357 5.19894C66.4488 7.48525 66.1127 10.9123 66.084 13.4503L66.0495 20.5192L66.0566 71.5929L66.1087 79.7941C66.1504 85.5848 66.6526 88.8452 60.5472 91.6132L60.5649 92.2996C60.5851 93.1256 60.7424 95.3679 60.1991 95.6371C59.4905 95.9842 55.2612 95.8556 54.483 95.8561C51.7765 95.8689 48.846 95.8388 46.3621 95.8388C46.0651 95.8388 45.6477 94.6898 45.6509 93.745C45.6522 93.1292 45.6673 92.5069 45.6712 91.891L36.6412 91.8703L34.5191 91.8919C34.4502 94.0505 34.5052 96.4726 34.5085 98.651C37.1292 98.7109 39.7982 98.6122 42.4209 98.6752C42.8809 98.7506 43.2635 99.1695 43.2814 99.6291C43.3105 100.369 42.8671 100.68 42.1718 100.714C41.1685 100.764 40.1881 100.744 39.1927 100.74L33.8353 100.726L27.9168 100.734C27.0899 100.736 24.6071 100.918 23.9509 100.439C23.3642 100.009 23.6054 98.7536 24.6091 98.6934C25.5232 98.6393 26.4827 98.6602 27.4345 98.664L32.3978 98.6631L32.3961 91.8884C26.8704 91.7546 21.2393 91.8781 15.7019 91.8469C12.9497 91.7686 9.93013 92.0982 7.209 91.7517C4.83647 91.4488 2.55546 89.4955 1.55827 87.4343C0.603792 85.4603 0.797303 83.3132 0.802896 81.2023L0.797595 13.2668C0.794385 11.5302 0.712029 9.65946 0.842653 7.93755C1.13625 4.07366 4.09728 1.33792 7.89281 0.822699C8.41314 0.758021 9.53216 0.771038 10.098 0.7699L14.0374 0.778556ZM56.0972 78.6472C55.3893 78.4982 53.4964 78.5461 52.6852 78.5468L46.8639 78.5511C47.1267 79.0468 47.5969 79.8861 47.6705 80.4034C47.8897 81.9536 47.8083 83.8272 47.8031 85.408L47.7933 93.7779C51.278 93.806 54.9651 93.8321 58.4446 93.7684L58.4613 85.2332C58.4627 83.8659 58.5155 82.2745 58.3686 80.9193C58.3196 80.4682 57.8996 79.7988 57.5699 79.4643C57.1726 79.0553 56.6595 78.7702 56.0972 78.6472ZM18.4742 2.85588C15.2861 2.85619 11.2865 2.74976 8.14902 2.88531C6.4341 3.12334 5.11973 3.82405 4.06205 5.19028C3.40481 6.03965 2.97937 7.24205 2.94003 8.30368C2.8735 10.1124 2.88717 11.9966 2.87995 13.8129L2.85345 24.2472L2.85433 75.8203L2.88791 81.8368C2.89785 82.7229 2.87917 84.3193 3.01159 85.1129C3.27019 86.6076 4.13574 87.936 5.41024 88.7949C6.17175 89.3191 7.05334 89.6535 7.97674 89.767C9.06211 89.8943 11.0417 89.8415 12.2245 89.844L19.6316 89.8656L45.6739 89.8414C45.6726 87.856 45.72 85.6574 45.6615 83.6899C43.2262 83.6288 40.782 83.7355 38.3498 83.6553C37.8675 83.6391 37.4371 83.1988 37.4434 82.7421C37.4967 79.0063 37.2241 74.9305 37.4381 71.2259C37.4553 70.9282 37.6531 70.6495 38.0574 70.6495C38.4618 70.6495 49.9358 70.6503 49.9358 70.6503L54.0475 70.6348C57.2145 70.6099 56.9971 70.5881 56.9665 73.8139C56.9535 74.768 56.9485 75.7223 56.9524 76.6763C58.4199 77.2555 59.4803 78.0336 60.1294 79.4954C60.3295 79.9545 60.4599 80.4404 60.5172 80.9357C60.5926 81.5612 60.5941 82.194 60.5843 82.8226C60.5518 84.9889 60.5843 87.1567 60.5499 89.3229C64.5287 87.2182 64.0155 84.4779 64.0025 80.586L63.991 75.3278L64.0078 14.2829C64.0072 11.7641 64.3797 8.19523 63.3249 5.91042C62.7627 4.69188 61.1756 3.42592 59.8246 3.1017C57.5047 2.67911 53.8148 2.86107 51.3661 2.86021L18.4742 2.85588ZM45.7225 81.5979C45.4147 79.4959 44.2043 78.359 41.9774 78.5883C40.3592 79.0682 39.6683 79.9555 39.4939 81.597C40.7583 81.6072 42.0226 81.6099 43.2876 81.6048L45.7225 81.5979ZM54.8355 72.7164C49.7974 72.6782 44.5824 72.6572 39.5443 72.7095C39.5254 74.2733 39.5178 75.8381 39.5204 77.4025C41.705 76.1665 43.6007 76.4611 46.0441 76.4669C48.619 76.4815 51.1945 76.4824 53.7701 76.4703L54.8364 76.4608L54.8355 72.7164Z" fill="#9E9B98"/>
<path d="M29.8453 34.5115L30.1105 34.79C31.3787 33.5824 32.792 32.5402 34.4898 33.1684L34.6233 32.8077L34.7568 32.447C32.5741 31.6394 30.8264 33.0462 29.5801 34.233L29.8453 34.5115ZM11.4806 8.07903L11.6664 8.8255L11.6901 8.8196L11.7134 8.8122L11.4806 8.07903ZM22.6858 7.94054L22.6843 8.70977L22.6856 8.70977L22.6858 7.94054ZM42.769 7.944L42.7689 8.71324L42.7724 8.71322L42.769 7.944ZM50.9005 7.90851L50.9039 8.67774L50.9048 8.67773L50.9005 7.90851ZM55.1616 8.00459L54.9774 8.75157L54.9899 8.75442L55.1616 8.00459ZM58.0019 11.8927L57.2327 11.8924L57.2327 11.8925L58.0019 11.8927ZM57.9595 23.2487L57.1903 23.2474L57.1903 23.2486L57.9595 23.2487ZM57.956 46.6126L57.1868 46.6125L57.1868 46.6142L57.956 46.6126ZM57.9772 56.5466L57.208 56.5482L57.208 56.5537L57.9772 56.5466ZM58.0108 62.4167L58.78 62.4144L58.78 62.4144L58.0108 62.4167ZM53.9918 66.4095L54.0115 65.6406L54.0042 65.6404L53.9968 65.6403L53.9918 66.4095ZM47.8552 66.355L47.8631 65.5858L47.8608 65.5858L47.8552 66.355ZM38.9692 66.3342L38.9694 67.1035L38.9711 67.1035L38.9692 66.3342ZM22.6169 66.3394L22.6166 65.5702L22.6155 65.5702L22.6169 66.3394ZM17.1428 66.3792L17.1513 67.1484L17.1528 67.1484L17.1428 66.3792ZM8.91323 62.55L8.14406 62.5593L8.14406 62.5593L8.91323 62.55ZM8.91765 54.001L9.68688 54.0023L9.68688 54.001L8.91765 54.001ZM8.92118 20.459L9.69041 20.4591L9.69041 20.4585L8.92118 20.459ZM9.16414 10.2256L8.44973 9.94039L8.4487 9.94299L9.16414 10.2256ZM11.2147 8.17164L10.9283 7.45769L10.9236 7.45961L11.2147 8.17164ZM22.1654 9.95122L22.1655 9.18199L22.1651 9.18199L22.1654 9.95122ZM12.365 9.96334L12.3503 9.19425L12.2525 9.19611L12.1582 9.22241L12.365 9.96334ZM11.0194 12.1315L11.7887 12.1364L11.7887 12.1364L11.0194 12.1315ZM10.97 22.8246L10.2007 22.8224L10.2007 22.8243L10.97 22.8246ZM10.962 45.1316L10.1928 45.1314L10.1928 45.1337L10.962 45.1316ZM10.9938 57.1351L10.2246 57.1372L10.2246 57.1377L10.9938 57.1351ZM11.0866 63.3273L10.3233 63.4225L10.3471 63.6133L10.4579 63.7705L11.0866 63.3273ZM12.2007 64.2863L12.1165 65.0509L12.1175 65.0511L12.2007 64.2863ZM15.5473 64.3746L15.5417 65.1438L15.5432 65.1438L15.5473 64.3746ZM22.942 64.4136L22.9379 65.1828L22.9391 65.1828L22.942 64.4136ZM54.4062 64.34L54.4127 65.1092L54.4432 65.1089L54.4736 65.1063L54.4062 64.34ZM55.8445 63.2797L56.4654 63.7338L56.5978 63.5527L56.6121 63.3289L55.8445 63.2797ZM55.8931 59.4306L56.6623 59.431L56.6623 59.4305L55.8931 59.4306ZM55.8904 19.0499L55.1212 19.0492L55.1212 19.05L55.8904 19.0499ZM55.8948 14.1968L56.6641 14.1975V14.1968H55.8948ZM55.8339 10.9786L56.5999 10.9084L56.579 10.6809L56.4374 10.5016L55.8339 10.9786ZM54.5891 10.017L54.6411 9.24953L54.641 9.24953L54.5891 10.017ZM50.0595 9.95295L50.0601 9.18372L50.0595 9.18372L50.0595 9.95295ZM34.1755 19.1032L34.1771 19.8724L34.1772 19.8724L34.1755 19.1032ZM44.0608 21.1745L43.5906 21.7833L43.5941 21.786L44.0608 21.1745ZM47.8871 27.9812L48.6523 27.9022L48.6523 27.9021L47.8871 27.9812ZM46.9851 30.532L47.053 31.2982L47.0531 31.2982L46.9851 30.532ZM43.8531 30.5874L43.8548 29.8181L43.854 29.8181L43.8531 30.5874ZM38.3323 30.5813L38.3331 29.8121L38.332 29.8121L38.3323 30.5813ZM26.4689 30.5865L26.469 31.3557L26.4693 31.3557L26.4689 30.5865ZM20.4578 30.5735L20.4474 31.3427L20.4474 31.3427L20.4578 30.5735ZM19.3994 30.3407L19.9154 29.7702L19.9148 29.7697L19.3994 30.3407ZM18.9647 29.2587L19.7339 29.2519L19.7339 29.2514L18.9647 29.2587ZM21.6063 22.3282L22.1608 22.8614L22.1608 22.8614L21.6063 22.3282ZM28.7872 19.1127L28.7665 18.3438L28.7558 18.3441L28.7451 18.3446L28.7872 19.1127ZM31.8078 21.1736L31.8081 20.4044L31.8069 20.4044L31.8078 21.1736ZM23.4201 23.4647L23.9543 24.0182L23.9543 24.0181L23.4201 23.4647ZM21.1018 28.5005L20.3393 28.3993L20.224 29.2684L21.1006 29.2697L21.1018 28.5005ZM35.3196 28.523L35.3184 29.2922L35.3206 29.2922L35.3196 28.523ZM42.171 28.5144L42.172 29.2836L42.1722 29.2836L42.171 28.5144ZM45.8313 28.4858L45.8891 29.2529L46.7141 29.1907L46.5921 28.3723L45.8313 28.4858ZM42.7135 22.7757L42.2562 23.3943L42.2562 23.3943L42.7135 22.7757ZM35.8577 21.1753L35.8588 20.4061L35.858 20.4061L35.8577 21.1753ZM44.8111 43.7345L44.809 42.9652L44.8054 42.9653L44.8111 43.7345ZM47.5897 43.9915L47.0622 44.5515L47.0624 44.5516L47.5897 43.9915ZM47.9422 45.2284L48.7113 45.2419L48.7113 45.2413L47.9422 45.2284ZM44.6061 52.6834L45.11 53.2647L45.1241 53.2524L45.1377 53.2395L44.6061 52.6834ZM37.829 55.2013L37.7955 55.9698L37.7956 55.9698L37.829 55.2013ZM27.275 55.0689L27.1807 55.8323L27.1808 55.8323L27.275 55.0689ZM19.0277 46.0394L18.2587 46.0604L18.2587 46.0608L19.0277 46.0394ZM19.6876 43.7708L19.6221 43.0044L19.4229 43.0214L19.2572 43.1333L19.6876 43.7708ZM23.0042 43.744L23.0008 44.5132L23.0008 44.5132L23.0042 43.744ZM28.6187 43.7691L28.6153 44.5383L28.6163 44.5383L28.6187 43.7691ZM45.7891 45.8326L46.5554 45.9001L46.6281 45.0752L45.8001 45.0634L45.7891 45.8326ZM28.5745 45.778L28.5783 46.5473L28.5866 46.5472L28.5745 45.778ZM21.1259 45.8144L21.1222 45.0452L20.2622 45.0494L20.3619 45.9035L21.1259 45.8144ZM24.0503 51.3963L23.5764 52.0023L23.5771 52.0028L24.0503 51.3963ZM27.3315 52.9388L27.165 53.6898L27.1676 53.6903L27.3315 52.9388ZM32.0917 53.1525L32.0931 52.3833L32.0917 52.3833L32.0917 53.1525ZM38.4006 53.1145L38.4111 53.8836L38.4438 53.8832L38.4764 53.8799L38.4006 53.1145ZM34.6233 32.8077L34.3731 33.5351L34.4072 33.5468L34.4423 33.5553L34.6233 32.8077ZM36.8172 34.2537L37.3109 33.6639L37.3107 33.6637L36.8172 34.2537ZM40.9916 32.7913L40.71 32.0755L40.7099 32.0755L40.9916 32.7913ZM46.2028 34.6281L45.7286 35.2338L45.8998 35.3679L46.1159 35.3924L46.2028 34.6281ZM47.7085 35.1861L47.0531 35.5887L47.0533 35.5891L47.7085 35.1861ZM45.8568 36.6824L46.1172 35.9585L46.117 35.9585L45.8568 36.6824ZM43.9023 35.3854L43.3574 35.9284L43.3684 35.9394L43.3798 35.9499L43.9023 35.3854ZM41.7344 34.7721L41.3733 34.0929L41.373 34.0931L41.7344 34.7721ZM40.5292 35.7144L41.0544 36.2764L41.0548 36.276L40.5292 35.7144ZM34.6233 35.0884L34.0657 35.6183L34.0658 35.6184L34.6233 35.0884ZM32.7878 34.7624L32.3867 34.1061L32.3628 34.1207L32.34 34.137L32.7878 34.7624ZM28.0579 36.676L28.279 35.9392L28.2725 35.9374L28.0579 36.676ZM26.6901 35.9892L26.1609 36.5476L26.1613 36.5479L26.6901 35.9892ZM23.8685 34.7271L24.2753 35.38L24.2754 35.3799L23.8685 34.7271ZM20.8343 36.733L20.9646 37.4911L20.9648 37.4911L20.8343 36.733ZM19.8417 36.8273L20.0429 36.0849L20.0079 36.0754L19.9722 36.0692L19.8417 36.8273ZM19.056 35.349L19.7801 35.6086L19.7802 35.6084L19.056 35.349ZM20.7536 34.6214L20.8489 35.3847L21.0834 35.3555L21.2611 35.1995L20.7536 34.6214ZM24.7551 32.5095L24.756 33.2788L24.756 33.2788L24.7551 32.5095ZM29.8453 34.5115L30.2401 33.8513L29.8864 33.6398L29.5143 33.8171L29.8453 34.5115ZM34.4612 32.7519L34.1746 33.4658L34.1926 33.473L34.211 33.4793L34.4612 32.7519ZM32.8541 32.7519L32.7595 31.9885L32.7594 31.9886L32.8541 32.7519ZM19.7156 39.1359L19.6725 38.3679L19.4802 38.3787L19.3157 38.4788L19.7156 39.1359ZM25.2435 39.123L25.2409 39.8922L25.2422 39.8922L25.2435 39.123ZM35.7368 39.1414L35.7355 39.9106L35.7391 39.9106L35.7368 39.1414ZM43.4105 39.1185L43.4086 38.3493L43.4083 38.3493L43.4105 39.1185ZM47.1811 39.177L47.2714 38.4131L47.2714 38.4131L47.1811 39.177ZM47.2136 41.1505L47.2749 41.9173L47.441 41.904L47.5867 41.8232L47.2136 41.1505ZM42.2528 41.1641L42.257 40.3949L42.2554 40.3949L42.2528 41.1641ZM32.5875 41.1317L32.5901 40.3624L32.5845 40.3624L32.5875 41.1317ZM23.916 41.1647L23.9131 40.3955L23.913 40.3955L23.916 41.1647ZM19.7813 41.1263L19.7148 41.8927L19.7148 41.8927L19.7813 41.1263ZM10.6709 70.4316L10.6735 69.6624L10.619 69.6622L10.5649 69.6697L10.6709 70.4316ZM24.6334 70.4628L24.6336 71.232L24.6375 71.232L24.6334 70.4628ZM29.1966 70.4385L29.2006 71.2078L29.2024 71.2077L29.1966 70.4385ZM31.7383 70.4844L31.8185 69.7194L31.8183 69.7194L31.7383 70.4844ZM32.5573 71.6953L33.3265 71.6878L33.3265 71.6871L32.5573 71.6953ZM32.5688 82.7216L31.7998 82.7394L31.7998 82.7395L32.5688 82.7216ZM31.8823 84.7306L31.9429 85.4974L32.1181 85.4836L32.2699 85.395L31.8823 84.7306ZM30.9847 84.7756L30.9968 85.5447L31.0011 85.5446L30.9847 84.7756ZM18.76 84.7626L18.7582 83.9934L18.7578 83.9934L18.76 84.7626ZM13.8717 84.7764L13.8696 84.0072L13.8693 84.0072L13.8717 84.7764ZM10.9086 84.7366L10.9507 83.9685L10.9259 83.9672L10.9011 83.9674L10.9086 84.7366ZM10.0277 83.9819L9.26053 84.0379L9.26055 84.0381L10.0277 83.9819ZM9.97648 80.4616L9.20727 80.456L9.20727 80.456L9.97648 80.4616ZM9.9915 71.0565L10.7606 71.0719L10.7607 71.0642V71.0565H9.9915ZM12.1074 72.5081L12.0995 71.7389L11.3742 71.7464L11.3391 72.4709L12.1074 72.5081ZM12.0792 82.7233L11.3102 82.7422L11.3284 83.4877L12.0741 83.4925L12.0792 82.7233ZM15.4991 82.5909L16.1324 83.0275L16.2557 82.8487L16.2672 82.6318L15.4991 82.5909ZM15.9939 72.5046L16.763 72.5129L16.7714 71.7422L16.0007 71.7354L15.9939 72.5046ZM18.2511 72.5141L18.241 71.745L17.8624 71.75L17.6354 72.0531L18.2511 72.5141ZM17.6186 82.7294L16.8496 82.7086L16.8283 83.498L17.618 83.4986L17.6186 82.7294ZM24.3957 82.7346L24.3951 83.5039L24.4042 83.5038L24.3957 82.7346ZM24.8861 82.6446L25.3323 83.2711L25.6413 83.0511L25.6548 82.672L24.8861 82.6446ZM24.7279 79.1927L25.4961 79.1526L25.4961 79.152L24.7279 79.1927ZM24.3736 72.5063L25.1418 72.4656L25.1042 71.7559L24.3937 71.7374L24.3736 72.5063ZM30.4325 72.5237L31.2017 72.5131L31.1915 71.7685L30.4469 71.7546L30.4325 72.5237ZM26.8562 72.5124L26.8464 71.7432L26.7988 71.7438L26.7517 71.7503L26.8562 72.5124ZM26.5974 72.5479L26.4929 71.7858L26.1268 71.836L25.9371 72.1531L26.5974 72.5479ZM27.04 82.7363L26.2724 82.7859L26.3191 83.5092L27.0438 83.5055L27.04 82.7363ZM30.133 82.7242L30.1239 83.4934L30.2032 83.4943L30.2809 83.4791L30.133 82.7242ZM30.3627 82.6792L30.5106 83.4341L30.8477 83.368L31.0235 83.073L30.3627 82.6792ZM14.0374 0.778556L14.0357 1.54779L14.0373 1.54779L14.0374 0.778556ZM47.5477 0.783749L47.5476 1.55298L47.5479 1.55298L47.5477 0.783749ZM58.2581 0.789808L58.2648 0.0206059L58.2647 0.0206051L58.2581 0.789808ZM60.8255 1.21999L61.0777 0.493254L61.0774 0.493168L60.8255 1.21999ZM65.3357 5.19894L66.0273 4.86221L66.0273 4.86216L65.3357 5.19894ZM66.084 13.4503L65.3148 13.4416L65.3148 13.4465L66.084 13.4503ZM66.0495 20.5192L65.2803 20.5155L65.2803 20.5193L66.0495 20.5192ZM66.0566 71.5929L65.2874 71.593L65.2874 71.5978L66.0566 71.5929ZM66.1087 79.7941L65.3395 79.7989L65.3395 79.7996L66.1087 79.7941ZM60.5472 91.6132L60.2296 90.9126L59.7651 91.1232L59.7783 91.633L60.5472 91.6132ZM60.5649 92.2996L61.3339 92.2808L61.3339 92.2798L60.5649 92.2996ZM60.1991 95.6371L60.5375 96.328L60.5407 96.3264L60.1991 95.6371ZM54.483 95.8561L54.4825 95.0869L54.4794 95.0869L54.483 95.8561ZM46.3621 95.8388L46.3621 95.0696L46.3621 95.0696L46.3621 95.8388ZM45.6509 93.745L46.4201 93.7477L46.4201 93.7467L45.6509 93.745ZM45.6712 91.891L46.4404 91.8959L46.4453 91.1236L45.673 91.1218L45.6712 91.891ZM36.6412 91.8703L36.643 91.101L36.6334 91.1011L36.6412 91.8703ZM34.5191 91.8919L34.5112 91.1227L33.7738 91.1302L33.7502 91.8673L34.5191 91.8919ZM34.5085 98.651L33.7392 98.6522L33.7404 99.4029L34.4909 99.42L34.5085 98.651ZM42.4209 98.6752L42.5453 97.9161L42.4927 97.9075L42.4394 97.9062L42.4209 98.6752ZM43.2814 99.6291L42.5128 99.6591L42.5128 99.6593L43.2814 99.6291ZM42.1718 100.714L42.2098 101.483L42.21 101.483L42.1718 100.714ZM39.1927 100.74L39.1961 99.9704L39.1947 99.9704L39.1927 100.74ZM33.8353 100.726L33.8373 99.9565L33.8341 99.9565L33.8353 100.726ZM27.9168 100.734L27.9157 99.9652L27.9156 99.9652L27.9168 100.734ZM23.9509 100.439L23.4964 101.06L23.4975 101.061L23.9509 100.439ZM24.6091 98.6934L24.5637 97.9255L24.5631 97.9256L24.6091 98.6934ZM27.4345 98.664L27.4314 99.4332L27.4346 99.4332L27.4345 98.664ZM32.3978 98.6631L32.398 99.4324L33.1673 99.4322L33.1671 98.6629L32.3978 98.6631ZM32.3961 91.8884L33.1653 91.8882L33.1651 91.1376L32.4147 91.1194L32.3961 91.8884ZM15.7019 91.8469L15.68 92.6158L15.6888 92.6161L15.6975 92.6161L15.7019 91.8469ZM7.209 91.7517L7.1116 92.5147L7.11183 92.5147L7.209 91.7517ZM1.55827 87.4343L0.865749 87.7692L0.86582 87.7693L1.55827 87.4343ZM0.802896 81.2023L1.57213 81.2044L1.57213 81.2023L0.802896 81.2023ZM0.797595 13.2668L1.56683 13.2667L1.56682 13.2653L0.797595 13.2668ZM0.842653 7.93755L0.0756331 7.87926L0.0756259 7.87936L0.842653 7.93755ZM7.89281 0.822699L7.79792 0.0592944L7.78934 0.0604586L7.89281 0.822699ZM10.098 0.7699L10.0997 0.000664292L10.0964 0.000670802L10.098 0.7699ZM56.0972 78.6472L56.2616 77.8957L56.2556 77.8945L56.0972 78.6472ZM52.6852 78.5468L52.6857 79.316L52.6858 79.316L52.6852 78.5468ZM46.8639 78.5511L46.8633 77.7819L45.5861 77.7828L46.1843 78.9114L46.8639 78.5511ZM47.6705 80.4034L48.4322 80.2957L48.4321 80.295L47.6705 80.4034ZM47.8031 85.408L47.0338 85.4055L47.0338 85.4071L47.8031 85.408ZM47.7933 93.7779L47.0241 93.777L47.0232 94.541L47.7872 94.5471L47.7933 93.7779ZM58.4446 93.7684L58.4586 94.5375L59.2123 94.5237L59.2138 93.7699L58.4446 93.7684ZM58.4613 85.2332L59.2306 85.2347L59.2306 85.2339L58.4613 85.2332ZM58.3686 80.9193L59.1333 80.8364L59.1333 80.8363L58.3686 80.9193ZM57.5699 79.4643L57.0182 80.0003L57.022 80.0042L57.5699 79.4643ZM18.4742 2.85588L18.4743 2.08665L18.4742 2.08665L18.4742 2.85588ZM8.14902 2.88531L8.11582 2.1168L8.07938 2.11837L8.04326 2.12339L8.14902 2.88531ZM4.06205 5.19028L3.45379 4.71939L3.45368 4.71953L4.06205 5.19028ZM2.94003 8.30368L2.17133 8.27519L2.17132 8.2754L2.94003 8.30368ZM2.87995 13.8129L2.11073 13.8099L2.11073 13.811L2.87995 13.8129ZM2.85345 24.2472L2.08422 24.2452L2.08422 24.2472L2.85345 24.2472ZM2.85433 75.8203L2.08509 75.8203L2.08511 75.8246L2.85433 75.8203ZM2.88791 81.8368L2.11867 81.8411L2.11872 81.8454L2.88791 81.8368ZM3.01159 85.1129L2.25284 85.2395L2.25362 85.244L3.01159 85.1129ZM5.41024 88.7949L5.84639 88.1613L5.84015 88.1571L5.41024 88.7949ZM7.97674 89.767L7.88292 90.5305L7.8871 90.531L7.97674 89.767ZM12.2245 89.844L12.2268 89.0748L12.2262 89.0748L12.2245 89.844ZM19.6316 89.8656L19.6293 90.6349L19.6323 90.6349L19.6316 89.8656ZM45.6739 89.8414L45.6746 90.6106L46.4436 90.6099L46.4431 89.8409L45.6739 89.8414ZM45.6615 83.6899L46.4304 83.667L46.4087 82.9392L45.6808 82.9209L45.6615 83.6899ZM38.3498 83.6553L38.3241 84.4241L38.3245 84.4241L38.3498 83.6553ZM37.4434 82.7421L36.6742 82.7312L36.6742 82.7316L37.4434 82.7421ZM37.4381 71.2259L36.6701 71.1816L36.6701 71.1816L37.4381 71.2259ZM49.9358 70.6503L49.9357 71.4196L49.9387 71.4196L49.9358 70.6503ZM54.0475 70.6348L54.0504 71.404L54.0535 71.404L54.0475 70.6348ZM56.9665 73.8139L57.7357 73.8244L57.7357 73.8212L56.9665 73.8139ZM56.9524 76.6763L56.1831 76.6795L56.1853 77.2006L56.67 77.3919L56.9524 76.6763ZM60.1294 79.4954L60.8345 79.188L60.8324 79.1833L60.1294 79.4954ZM60.5172 80.9357L59.7531 81.0241L59.7535 81.0278L60.5172 80.9357ZM60.5843 82.8226L59.8152 82.8107L59.8152 82.8111L60.5843 82.8226ZM60.5499 89.3229L59.7808 89.3107L59.7601 90.6109L60.9096 90.0029L60.5499 89.3229ZM64.0025 80.586L63.2333 80.5877L63.2333 80.5886L64.0025 80.586ZM63.991 75.3278L63.2218 75.3276L63.2218 75.3295L63.991 75.3278ZM64.0078 14.2829L64.7771 14.2831L64.7771 14.2827L64.0078 14.2829ZM63.3249 5.91042L62.6264 6.23269L62.6265 6.23285L63.3249 5.91042ZM59.8246 3.1017L60.0041 2.35371L59.9834 2.34874L59.9624 2.34492L59.8246 3.1017ZM51.3661 2.86021L51.3664 2.09098L51.3662 2.09098L51.3661 2.86021ZM45.7225 81.5979L45.7247 82.3671L46.6121 82.3646L46.4836 81.4864L45.7225 81.5979ZM41.9774 78.5883L41.8986 77.8232L41.8274 77.8305L41.7587 77.8509L41.9774 78.5883ZM39.4939 81.597L38.729 81.5158L38.6394 82.3594L39.4877 82.3662L39.4939 81.597ZM43.2876 81.6048L43.2854 80.8356L43.2845 80.8356L43.2876 81.6048ZM54.8355 72.7164L55.6048 72.7162L55.6046 71.953L54.8414 71.9472L54.8355 72.7164ZM39.5443 72.7095L39.5363 71.9403L38.7842 71.9481L38.7751 72.7002L39.5443 72.7095ZM39.5204 77.4025L38.7512 77.4038L38.7534 78.7203L39.8993 78.072L39.5204 77.4025ZM46.0441 76.4669L46.0484 75.6976L46.0459 75.6976L46.0441 76.4669ZM53.7701 76.4703L53.7737 77.2396L53.7769 77.2395L53.7701 76.4703ZM54.8364 76.4608L54.8433 77.23L55.6058 77.2232L55.6057 76.4606L54.8364 76.4608ZM11.4806 8.07903L11.7134 8.8122C11.7803 8.79096 11.9673 8.75667 12.3113 8.72585C12.6351 8.69684 13.0448 8.67496 13.5196 8.65932C14.4682 8.62807 15.6441 8.62269 16.8478 8.62979C19.2031 8.64369 21.7861 8.70809 22.6843 8.70977L22.6858 7.94054L22.6872 7.17131C21.7273 7.16952 19.329 7.10595 16.8569 7.09136C15.6468 7.08421 14.4475 7.08945 13.469 7.12169C12.9802 7.13779 12.5384 7.16087 12.174 7.19353C11.8296 7.22439 11.4916 7.26849 11.2479 7.34585L11.4806 8.07903ZM22.6858 7.94054L22.6856 8.70977L42.7689 8.71323L42.769 7.944L42.7691 7.17477L22.6859 7.17131L22.6858 7.94054ZM42.769 7.944L42.7724 8.71322L50.9039 8.67774L50.9005 7.90851L50.8972 7.13929L42.7656 7.17478L42.769 7.944ZM50.9005 7.90851L50.9048 8.67773C51.3464 8.67529 52.213 8.65716 53.0863 8.66062C53.5189 8.66234 53.9386 8.66942 54.2884 8.68596C54.66 8.70353 54.8885 8.72955 54.9775 8.75147L55.1616 8.00459L55.3456 7.25771C55.0916 7.19509 54.7211 7.16624 54.361 7.14921C53.9791 7.13116 53.5342 7.12392 53.0924 7.12217C52.2171 7.1187 51.2962 7.13708 50.8963 7.13929L50.9005 7.90851ZM55.1616 8.00459L54.9899 8.75442C55.8127 8.94278 56.3498 9.33805 56.6928 9.84278C57.0451 10.3612 57.233 11.0562 57.2327 11.8924L58.0019 11.8927L58.7712 11.8929C58.7715 10.8379 58.5353 9.81693 57.9653 8.97808C57.386 8.12561 56.5026 7.52245 55.3332 7.25476L55.1616 8.00459ZM58.0019 11.8927L57.2327 11.8925C57.2321 15.6847 57.1968 19.4463 57.1903 23.2474L57.9595 23.2487L58.7288 23.25C58.7352 19.48 58.7705 15.6711 58.7712 11.8928L58.0019 11.8927ZM57.9595 23.2487L57.1903 23.2486L57.1868 46.6125L57.956 46.6126L58.7252 46.6127L58.7288 23.2488L57.9595 23.2487ZM57.956 46.6126L57.1868 46.6142L57.208 56.5482L57.9772 56.5466L58.7464 56.5449L58.7252 46.611L57.956 46.6126ZM57.9772 56.5466L57.208 56.5537C57.2262 58.5063 57.2357 60.4842 57.2415 62.4191L58.0108 62.4167L58.78 62.4144C58.7741 60.4779 58.7646 58.4964 58.7464 56.5394L57.9772 56.5466ZM58.0108 62.4167L57.2415 62.419C57.2446 63.4569 56.9165 64.2632 56.3886 64.7993C55.8646 65.3314 55.0748 65.6678 54.0115 65.6406L53.9918 66.4095L53.9722 67.1785C55.396 67.2149 56.6192 66.7577 57.4847 65.8788C58.3463 65.0039 58.7841 63.782 58.78 62.4144L58.0108 62.4167ZM53.9918 66.4095L53.9968 65.6403C51.9373 65.6269 49.9053 65.6068 47.8631 65.5858L47.8552 66.355L47.8473 67.1242C49.8896 67.1452 51.9241 67.1654 53.9868 67.1787L53.9918 66.4095ZM47.8552 66.355L47.8608 65.5858C44.8963 65.5641 41.9316 65.5574 38.9672 65.565L38.9692 66.3342L38.9711 67.1035C41.9306 67.0958 44.8902 67.1026 47.8496 67.1242L47.8552 66.355ZM38.9692 66.3342L38.9689 65.565L22.6166 65.5702L22.6169 66.3394L22.6171 67.1087L38.9694 67.1035L38.9692 66.3342ZM22.6169 66.3394L22.6155 65.5702C20.7884 65.5734 18.9602 65.5865 17.1329 65.6101L17.1428 66.3792L17.1528 67.1484C18.9742 67.1249 20.7967 67.1118 22.6182 67.1087L22.6169 66.3394ZM17.1428 66.3792L17.1344 65.6101C16.7091 65.6147 16.2608 65.6328 15.8144 65.6507C15.3639 65.6688 14.9129 65.6868 14.4639 65.693C13.5599 65.7054 12.7121 65.6683 11.9829 65.5036C11.2573 65.3398 10.709 65.0631 10.3357 64.6413C9.97016 64.2283 9.69504 63.5886 9.68241 62.5408L8.91323 62.55L8.14406 62.5593C8.15997 63.8791 8.51583 64.9064 9.18368 65.661C9.84377 66.4068 10.7313 66.7982 11.644 67.0043C12.553 67.2096 13.546 67.2442 14.485 67.2313C14.9576 67.2248 15.4287 67.2059 15.8761 67.188C16.3275 67.1699 16.7526 67.1528 17.1513 67.1484L17.1428 66.3792ZM8.91323 62.55L9.68241 62.5408C9.64815 59.6998 9.68205 56.8613 9.68688 54.0023L8.91765 54.001L8.14842 53.9997C8.14362 56.8374 8.10963 59.7047 8.14406 62.5593L8.91323 62.55ZM8.92118 20.459L9.69041 20.4585C9.6901 19.9912 9.67644 19.184 9.66357 18.2348C9.65062 17.2803 9.63828 16.1719 9.64018 15.0862C9.64208 13.9986 9.65826 12.9431 9.70158 12.0923C9.72327 11.6663 9.7513 11.3014 9.78616 11.0144C9.82359 10.7062 9.86186 10.553 9.87958 10.5082L9.16414 10.2256L8.4487 9.94299C8.35225 10.1872 8.29727 10.513 8.25892 10.8289C8.21799 11.166 8.1877 11.5704 8.16511 12.014C8.11987 12.9025 8.10363 13.9875 8.10172 15.0835C8.0998 16.1813 8.11227 17.2993 8.12525 18.2557C8.13829 19.2174 8.15165 20.0055 8.15195 20.4596L8.92118 20.459ZM9.16414 10.2256L9.87854 10.5108C10.1706 9.77928 10.756 9.19019 11.5058 8.88367L11.2147 8.17164L10.9236 7.45961C9.79449 7.92121 8.89929 8.81431 8.44974 9.94039L9.16414 10.2256ZM11.2147 8.17164L11.5011 8.88558C11.6018 8.84515 11.6306 8.83438 11.6664 8.8255L11.4806 8.07903L11.2949 7.33256C11.1391 7.37131 11.0125 7.42395 10.9283 7.4577L11.2147 8.17164ZM22.1654 9.95122L22.1651 9.18199C18.9717 9.18344 15.5611 9.13297 12.3503 9.19425L12.365 9.96334L12.3797 10.7324C15.5726 10.6715 18.9382 10.7219 22.1658 10.7205L22.1654 9.95122ZM12.365 9.96334L12.1582 9.22241C11.4127 9.43046 10.883 9.82803 10.5769 10.422C10.2972 10.9646 10.2536 11.5842 10.2502 12.1267L11.0194 12.1315L11.7887 12.1364C11.7918 11.6279 11.8423 11.3249 11.9444 11.1269C12.0199 10.9803 12.1598 10.8192 12.5717 10.7043L12.365 9.96334ZM11.0194 12.1315L10.2502 12.1267C10.2278 15.6913 10.211 19.2573 10.2007 22.8224L10.97 22.8246L11.7392 22.8268C11.7494 19.2636 11.7663 15.6994 11.7887 12.1364L11.0194 12.1315ZM10.97 22.8246L10.2007 22.8243L10.1928 45.1314L10.962 45.1316L11.7312 45.1319L11.7392 22.8249L10.97 22.8246ZM10.962 45.1316L10.1928 45.1337L10.2246 57.1372L10.9938 57.1351L11.7631 57.1331L11.7312 45.1296L10.962 45.1316ZM10.9938 57.1351L10.2246 57.1377C10.2258 57.4921 10.2221 57.9721 10.2183 58.5204C10.2145 59.0664 10.2107 59.6763 10.2118 60.2826C10.214 61.4764 10.235 62.7147 10.3233 63.4225L11.0866 63.3273L11.8499 63.2321C11.7755 62.6355 11.7525 61.4966 11.7502 60.2798C11.7491 59.6809 11.7529 59.0771 11.7567 58.5311C11.7605 57.9874 11.7643 57.497 11.763 57.1325L10.9938 57.1351ZM11.0866 63.3273L10.4579 63.7705C10.5811 63.9453 10.7765 64.2279 11.0163 64.469C11.2504 64.7043 11.6187 64.9962 12.1165 65.0509L12.2007 64.2863L12.2848 63.5217C12.3019 63.5236 12.2443 63.522 12.1071 63.3841C11.9756 63.2519 11.8544 63.0814 11.7153 62.8841L11.0866 63.3273ZM12.2007 64.2863L12.1175 65.0511C13.2056 65.1694 14.5356 65.1365 15.5417 65.1438L15.5473 64.3746L15.5529 63.6054C14.4627 63.5975 13.2693 63.6288 12.2838 63.5216L12.2007 64.2863ZM15.5473 64.3746L15.5432 65.1438L22.9379 65.1828L22.942 64.4136L22.946 63.6443L15.5513 63.6054L15.5473 64.3746ZM22.942 64.4136L22.9391 65.1828C33.4303 65.2223 43.9221 65.1978 54.4127 65.1092L54.4062 64.34L54.3997 63.5708C43.9154 63.6593 33.4299 63.6838 22.9449 63.6443L22.942 64.4136ZM54.4062 64.34L54.4736 65.1063C55.0144 65.0587 55.426 64.8773 55.7667 64.5776C56.058 64.3214 56.2891 63.9749 56.4654 63.7338L55.8445 63.2797L55.2236 62.8256C54.9791 63.1599 54.8792 63.3093 54.7507 63.4224C54.6715 63.492 54.5743 63.553 54.3388 63.5737L54.4062 64.34ZM55.8445 63.2797L56.6121 63.3289C56.691 62.0992 56.6617 60.6194 56.6623 59.431L55.8931 59.4306L55.1238 59.4302C55.1232 60.6708 55.1515 62.0655 55.0768 63.2305L55.8445 63.2797ZM55.8904 19.0499L56.6597 19.0506L56.6641 14.1975L55.8948 14.1968L55.1256 14.1961L55.1212 19.0492L55.8904 19.0499ZM55.8948 14.1968H56.6641C56.6641 13.2517 56.6919 11.9119 56.5999 10.9084L55.8339 10.9786L55.0679 11.0489C55.1514 11.9602 55.1256 13.1876 55.1256 14.1968H55.8948ZM55.8339 10.9786L56.4374 10.5016C56.2998 10.3276 56.0754 10.0113 55.8287 9.78056C55.5423 9.51257 55.1614 9.28483 54.6411 9.24953L54.5891 10.017L54.537 10.7845C54.6216 10.7902 54.6829 10.8153 54.7776 10.9039C54.833 10.9558 54.8938 11.0245 54.9709 11.1213C55.0091 11.1692 55.0479 11.2196 55.0916 11.2765C55.134 11.3318 55.1813 11.3935 55.2304 11.4556L55.8339 10.9786ZM54.5891 10.017L54.641 9.24953C53.1399 9.14785 51.5055 9.1849 50.0601 9.18372L50.0595 9.95295L50.0588 10.7222C51.5581 10.7234 53.1039 10.6874 54.5371 10.7845L54.5891 10.017ZM34.1755 19.1032L34.1772 19.8724C38.0285 19.8642 40.6959 19.5478 43.5906 21.7833L44.0608 21.1745L44.5309 20.5657C41.1286 17.938 37.8266 18.3261 34.1739 18.334L34.1755 19.1032ZM44.0608 21.1745L43.5941 21.786C45.5657 23.2907 46.8706 25.6293 47.122 28.0603L47.8871 27.9812L48.6523 27.9021C48.3572 25.0482 46.8357 22.3246 44.5274 20.563L44.0608 21.1745ZM47.8871 27.9812L47.1219 28.0602C47.169 28.5158 47.2263 29.0078 47.1613 29.4034C47.1303 29.5922 47.0816 29.6813 47.0532 29.7158C47.0445 29.7263 47.0262 29.7561 46.917 29.7657L46.9851 30.532L47.0531 31.2982C47.5467 31.2544 47.9532 31.0424 48.2401 30.6946C48.5073 30.3706 48.6248 29.9847 48.6794 29.653C48.7854 29.0079 48.6911 28.2781 48.6523 27.9022L47.8871 27.9812ZM46.9851 30.532L46.9172 29.7657C45.928 29.8534 44.9251 29.8204 43.8548 29.8181L43.8531 30.5874L43.8515 31.3566C44.8573 31.3587 45.9725 31.3939 47.053 31.2982L46.9851 30.532ZM43.8531 30.5874L43.854 29.8181L38.3331 29.8121L38.3323 30.5813L38.3314 31.3505L43.8523 31.3566L43.8531 30.5874ZM38.3323 30.5813L38.332 29.8121L26.4686 29.8173L26.4689 30.5865L26.4693 31.3557L38.3326 31.3505L38.3323 30.5813ZM26.4689 30.5865L26.4689 29.8173C24.4672 29.8175 22.456 29.831 20.4681 29.8043L20.4578 30.5735L20.4474 31.3427C22.4492 31.3695 24.4811 31.3559 26.469 31.3557L26.4689 30.5865ZM20.4578 30.5735L20.4682 29.8044C20.3808 29.8032 20.2027 29.7895 20.0338 29.7592C19.9502 29.7443 19.887 29.7284 19.8471 29.7151C19.8278 29.7087 19.8236 29.706 19.8303 29.7093C19.8342 29.7113 19.8697 29.7289 19.9154 29.7702L19.3994 30.3407L18.8833 30.9112C19.049 31.061 19.2452 31.1361 19.3602 31.1745C19.495 31.2195 19.6366 31.2511 19.7628 31.2736C20.0135 31.3185 20.2752 31.3403 20.4474 31.3427L20.4578 30.5735ZM19.3994 30.3407L19.9148 29.7697C19.8383 29.7007 19.7359 29.4758 19.7339 29.2519L18.9647 29.2587L18.1955 29.2656C18.2 29.7718 18.3923 30.4679 18.8839 30.9117L19.3994 30.3407ZM18.9647 29.2587L19.7339 29.2514C19.7121 26.9685 20.5932 24.4918 22.1608 22.8614L21.6063 22.3282L21.0518 21.7951C19.1735 23.7487 18.1704 26.6285 18.1955 29.2661L18.9647 29.2587ZM21.6063 22.3282L22.1608 22.8614C24.0953 20.8491 26.0691 20.0321 28.8293 19.8808L28.7872 19.1127L28.7451 18.3446C25.632 18.5153 23.28 19.4773 21.0517 21.7951L21.6063 22.3282ZM28.7872 19.1127L28.8079 19.8817C30.5733 19.8342 32.3663 19.8762 34.1771 19.8724L34.1755 19.1032L34.1739 18.334C32.4192 18.3377 30.5537 18.2957 28.7665 18.3438L28.7872 19.1127ZM31.8078 21.1736L31.8069 20.4044C28.5827 20.4083 25.7534 20.143 22.8858 22.9113L23.4201 23.4647L23.9543 24.0181C26.3003 21.7534 28.4432 21.9469 31.8087 21.9428L31.8078 21.1736ZM23.4201 23.4647L22.8858 22.9112C21.2586 24.4819 20.6134 26.3329 20.3393 28.3993L21.1018 28.5005L21.8644 28.6017C22.1105 26.7466 22.659 25.2684 23.9543 24.0182L23.4201 23.4647ZM21.1018 28.5005L21.1006 29.2697L35.3184 29.2922L35.3196 28.523L35.3208 27.7538L21.103 27.7313L21.1018 28.5005ZM35.3196 28.523L35.3206 29.2922L42.172 29.2836L42.171 28.5144L42.17 27.7451L35.3187 27.7538L35.3196 28.523ZM42.171 28.5144L42.1722 29.2836C43.1773 29.282 44.8709 29.3296 45.8891 29.2529L45.8313 28.4858L45.7735 27.7187C44.8299 27.7898 43.272 27.7434 42.1698 27.7451L42.171 28.5144ZM45.8313 28.4858L46.5921 28.3723C46.2241 25.9053 45.3901 23.7976 43.1707 22.1571L42.7135 22.7757L42.2562 23.3943C44.0354 24.7094 44.7385 26.3741 45.0704 28.5993L45.8313 28.4858ZM42.7135 22.7757L43.1707 22.1572C40.6756 20.3127 38.4864 20.4101 35.8588 20.4061L35.8577 21.1753L35.8565 21.9446C38.5442 21.9487 40.223 21.8913 42.2562 23.3943L42.7135 22.7757ZM35.8577 21.1753L35.858 20.4061L31.8081 20.4044L31.8078 21.1736L31.8075 21.9428L35.8573 21.9446L35.8577 21.1753ZM44.8111 43.7345L44.8132 44.5037C45.1036 44.5029 45.6575 44.4818 46.2249 44.5028C46.5048 44.5131 46.7551 44.5331 46.9449 44.5652C47.0399 44.5813 47.1013 44.5974 47.135 44.609C47.1806 44.6249 47.132 44.6172 47.0622 44.5515L47.5897 43.9915L48.1171 43.4316C47.9564 43.2803 47.7686 43.2003 47.6382 43.1552C47.4959 43.1059 47.3444 43.0724 47.2013 43.0483C46.9149 42.9998 46.5879 42.9767 46.2817 42.9654C45.6768 42.9431 45.0232 42.9647 44.809 42.9652L44.8111 43.7345ZM47.5897 43.9915L47.0624 44.5516C47.0787 44.567 47.1137 44.6098 47.1406 44.7318C47.1686 44.8588 47.1763 45.0177 47.173 45.2155L47.9422 45.2284L48.7113 45.2413C48.7179 44.8431 48.7203 43.9995 48.117 43.4315L47.5897 43.9915ZM47.9422 45.2284L47.173 45.2149C47.1229 48.0675 46.1566 50.1372 44.0746 52.1274L44.6061 52.6834L45.1377 53.2395C47.4965 50.9846 48.6534 48.5321 48.7113 45.2419L47.9422 45.2284ZM44.6061 52.6834L44.1023 52.1021C42.4204 53.5599 40.0249 54.5268 37.8624 54.4328L37.829 55.2013L37.7956 55.9698C40.4137 56.0836 43.182 54.9357 45.11 53.2647L44.6061 52.6834ZM37.829 55.2013L37.8625 54.4328C36.1807 54.3594 34.304 54.4261 32.4985 54.4599C30.6716 54.4941 28.9076 54.4953 27.3692 54.3054L27.275 55.0689L27.1808 55.8323C28.8391 56.0369 30.7017 56.0323 32.5273 55.9981C34.3744 55.9635 36.1764 55.8992 37.7955 55.9698L37.829 55.2013ZM27.275 55.0689L27.3692 54.3055C25.4364 54.0668 23.5637 52.9738 22.1524 51.4177C20.7403 49.8608 19.8491 47.9053 19.7966 46.018L19.0277 46.0394L18.2587 46.0608C18.3234 48.3855 19.4056 50.6792 21.0128 52.4513C22.6207 54.2242 24.8131 55.54 27.1807 55.8323L27.275 55.0689ZM19.0277 46.0394L19.7966 46.0184C19.7893 45.7503 19.7632 45.4887 19.7498 45.3083C19.7349 45.1079 19.7329 44.9825 19.7457 44.8834C19.7566 44.7986 19.7775 44.7418 19.8136 44.6868C19.8536 44.6257 19.936 44.5312 20.118 44.4084L19.6876 43.7708L19.2572 43.1333C18.9527 43.3388 18.706 43.5701 18.5269 43.8434C18.3438 44.1227 18.2556 44.4089 18.2198 44.6871C18.1859 44.951 18.1997 45.2085 18.2156 45.4224C18.233 45.6563 18.2527 45.8403 18.2587 46.0604L19.0277 46.0394ZM19.6876 43.7708L19.7532 44.5373C20.5976 44.4651 22.0332 44.5089 23.0008 44.5132L23.0042 43.744L23.0077 42.9748C22.1294 42.9708 20.5583 42.9243 19.6221 43.0044L19.6876 43.7708ZM23.0042 43.744L23.0008 44.5132L28.6153 44.5383L28.6187 43.7691L28.6222 42.9999L23.0077 42.9748L23.0042 43.744ZM28.6187 43.7691L28.6163 44.5383C34.0162 44.5555 39.4169 44.5439 44.8168 44.5037L44.8111 43.7345L44.8054 42.9653C39.4109 43.0054 34.0157 43.0171 28.6212 42.9999L28.6187 43.7691ZM45.7891 45.8326L45.8001 45.0634C40.1753 44.9831 34.1848 44.9208 28.5625 45.0089L28.5745 45.778L28.5866 46.5472C34.184 46.4594 40.1547 46.5214 45.7781 46.6017L45.7891 45.8326ZM28.5745 45.778L28.5708 45.0088L21.1222 45.0452L21.1259 45.8144L21.1297 46.5836L28.5783 46.5473L28.5745 45.778ZM21.1259 45.8144L20.3619 45.9035C20.6464 48.3421 21.4816 50.364 23.5764 52.0023L24.0503 51.3963L24.5241 50.7904C22.8335 49.4682 22.1402 47.8696 21.89 45.7253L21.1259 45.8144ZM24.0503 51.3963L23.5771 52.0028C24.6294 52.8238 25.8557 53.3995 27.165 53.6898L27.3315 52.9388L27.498 52.1878C26.41 51.9466 25.3937 51.4688 24.5234 50.7898L24.0503 51.3963ZM27.3315 52.9388L27.1676 53.6903C27.8932 53.8486 28.7998 53.9026 29.6621 53.9208C30.5265 53.9391 31.4214 53.9218 32.0917 53.9218L32.0917 53.1525L32.0917 52.3833C31.3766 52.3833 30.5398 52.4006 29.6947 52.3827C28.8475 52.3648 28.0667 52.3118 27.4954 52.1872L27.3315 52.9388ZM32.0917 53.1525L32.0903 53.9218C34.1978 53.9256 36.3046 53.9123 38.4111 53.8836L38.4006 53.1145L38.3901 52.3453C36.2912 52.3739 34.1923 52.3871 32.0931 52.3833L32.0917 53.1525ZM38.4006 53.1145L38.4764 53.8799C42.9603 53.4358 46.1614 50.3691 46.5554 45.9001L45.7891 45.8326L45.0229 45.765C44.6975 49.4564 42.1143 51.9736 38.3248 52.349L38.4006 53.1145ZM34.6233 32.8077L34.4423 33.5553C35.2807 33.7583 35.4015 34.0725 36.3237 34.8438L36.8172 34.2537L37.3107 33.6637C36.6523 33.113 36.1032 32.3746 34.8043 32.0601L34.6233 32.8077ZM36.8172 34.2537L36.3235 34.8436C36.8647 35.2966 37.4389 35.5179 38.0412 35.4745C38.6119 35.4334 39.0864 35.1612 39.4553 34.8928C39.809 34.6354 40.1878 34.2835 40.4667 34.0478C40.7827 33.7808 41.0369 33.6002 41.2733 33.5071L40.9916 32.7913L40.7099 32.0755C40.2247 32.2665 39.8095 32.589 39.4738 32.8726C39.1013 33.1874 38.8464 33.4332 38.5501 33.6488C38.269 33.8534 38.0771 33.9295 37.9307 33.9401C37.8159 33.9483 37.6224 33.9246 37.3109 33.6639L36.8172 34.2537ZM40.9916 32.7913L41.2732 33.5071C42.3456 33.0852 42.9975 33.217 43.5656 33.5256C43.8826 33.6978 44.1947 33.9385 44.5531 34.2421C44.8924 34.5296 45.3016 34.8994 45.7286 35.2338L46.2028 34.6281L46.6771 34.0225C46.279 33.7108 45.9424 33.4028 45.5476 33.0683C45.1718 32.7499 44.7614 32.4244 44.3 32.1737C43.3114 31.6367 42.1827 31.4961 40.71 32.0755L40.9916 32.7913ZM46.2028 34.6281L46.1159 35.3924C46.4407 35.4293 46.6578 35.4446 46.8559 35.498C46.9436 35.5217 46.9949 35.5456 47.0233 35.5632C47.0471 35.578 47.0515 35.5862 47.0531 35.5887L47.7085 35.1861L48.364 34.7835C48.074 34.3113 47.6177 34.11 47.2565 34.0126C46.9124 33.9198 46.5204 33.89 46.2897 33.8638L46.2028 34.6281ZM47.7085 35.1861L47.0533 35.5891C47.1877 35.8077 47.1601 35.8892 47.1637 35.8722C47.1684 35.85 47.1791 35.8724 47.101 35.92C47.0166 35.9713 46.8705 36.0213 46.6763 36.0339C46.4858 36.0462 46.2876 36.0198 46.1172 35.9585L45.8568 36.6824L45.5964 37.4062C46.3281 37.6694 47.2424 37.6346 47.9005 37.2344C48.2484 37.0228 48.5655 36.6789 48.6688 36.1906C48.771 35.7075 48.6343 35.223 48.3638 34.7832L47.7085 35.1861ZM45.8568 36.6824L46.117 35.9585C45.6901 35.805 45.4433 35.6727 45.2313 35.5222C45.0002 35.358 44.7933 35.1619 44.4248 34.8209L43.9023 35.3854L43.3798 35.9499C43.7137 36.259 44.0079 36.5403 44.3404 36.7764C44.6921 37.0262 45.0712 37.2174 45.5966 37.4062L45.8568 36.6824ZM43.9023 35.3854L44.4471 34.8424C44.1195 34.5137 43.6846 34.1718 43.1692 33.9839C42.6312 33.7878 41.9986 33.7605 41.3733 34.0929L41.7344 34.7721L42.0955 35.4513C42.2689 35.3592 42.4373 35.3546 42.6421 35.4293C42.8695 35.5122 43.1191 35.6893 43.3574 35.9284L43.9023 35.3854ZM41.7344 34.7721L41.373 34.0931C40.871 34.3602 40.3093 34.8666 40.0035 35.1528L40.5292 35.7144L41.0548 36.276C41.376 35.9754 41.7991 35.6091 42.0958 35.4512L41.7344 34.7721ZM40.5292 35.7144L40.0039 35.1524C39.1536 35.9472 38.3359 36.1411 37.5838 36.0159C36.7917 35.884 35.9598 35.3779 35.1808 34.5584L34.6233 35.0884L34.0658 35.6184C34.9811 36.5812 36.0966 37.3279 37.3311 37.5334C38.6055 37.7456 39.8936 37.3613 41.0544 36.2764L40.5292 35.7144ZM34.6233 35.0884L35.1809 34.5585C34.8538 34.2142 34.3696 33.9946 33.919 33.9006C33.4729 33.8075 32.884 33.8021 32.3867 34.1061L32.7878 34.7624L33.1889 35.4188C33.2223 35.3984 33.361 35.3558 33.6048 35.4066C33.8441 35.4566 34.0123 35.5621 34.0657 35.6183L34.6233 35.0884ZM32.7878 34.7624L32.34 34.137C31.9326 34.4287 31.5554 34.7491 31.2259 35.019C30.8839 35.2992 30.5848 35.5326 30.2807 35.712C29.7204 36.0426 29.1396 36.1974 28.2789 35.9393L28.0579 36.676L27.8369 37.4128C29.1636 37.8109 30.1857 37.5544 31.0626 37.037C31.4771 36.7924 31.855 36.4925 32.2009 36.2091C32.5594 35.9154 32.881 35.6418 33.2356 35.3879L32.7878 34.7624ZM28.0579 36.676L28.2725 35.9374C28.1363 35.8978 27.9035 35.8085 27.6701 35.696C27.4179 35.5745 27.2631 35.4725 27.2188 35.4306L26.6901 35.9892L26.1613 36.5479C26.3908 36.7652 26.7326 36.9521 27.0023 37.082C27.2907 37.221 27.6048 37.3455 27.8433 37.4147L28.0579 36.676ZM26.6901 35.9892L27.2192 35.4309C26.9536 35.1792 26.425 34.6247 25.8452 34.252C25.2693 33.8818 24.3622 33.513 23.4616 34.0744L23.8685 34.7271L24.2754 35.3799C24.3954 35.3051 24.5888 35.2733 25.0134 35.5462C25.4341 35.8166 25.806 36.2112 26.1609 36.5476L26.6901 35.9892ZM23.8685 34.7271L23.4618 34.0743C23.1832 34.2478 22.9207 34.4623 22.6842 34.6652C22.4298 34.8834 22.2244 35.0708 21.9841 35.2685C21.5137 35.6556 21.112 35.9047 20.7038 35.9749L20.8343 36.733L20.9648 37.4911C21.7872 37.3495 22.4493 36.8781 22.9617 36.4565C23.2128 36.2498 23.4785 36.0108 23.6858 35.833C23.9109 35.6399 24.1005 35.4889 24.2753 35.38L23.8685 34.7271ZM20.8343 36.733L20.704 35.9749C20.6022 35.9924 20.5011 36.0158 20.4252 36.0331C20.3418 36.0521 20.2792 36.066 20.22 36.0761C20.1015 36.0962 20.0574 36.0888 20.0429 36.0849L19.8417 36.8273L19.6406 37.5698C19.9643 37.6575 20.2617 37.6295 20.4775 37.5929C20.5854 37.5745 20.6883 37.551 20.7671 37.5331C20.8535 37.5134 20.9116 37.5002 20.9646 37.4911L20.8343 36.733ZM19.8417 36.8273L19.9722 36.0692C20.0012 36.0742 19.9972 36.0836 19.9653 36.0546C19.9328 36.0251 19.8904 35.9722 19.8527 35.8963C19.8153 35.821 19.7926 35.7433 19.7843 35.6789C19.7755 35.6103 19.7868 35.5901 19.7801 35.6086L19.056 35.349L18.3319 35.0894C18.1475 35.604 18.2728 36.174 18.4748 36.5807C18.6764 36.9866 19.0805 37.4768 19.7113 37.5854L19.8417 36.8273ZM19.056 35.349L19.7802 35.6084C19.7578 35.6709 19.7348 35.6045 20.0087 35.5228C20.2624 35.4472 20.545 35.4227 20.8489 35.3847L20.7536 34.6214L20.6584 33.8581C20.4393 33.8854 19.9801 33.926 19.5692 34.0485C19.1785 34.1649 18.5682 34.4297 18.3318 35.0896L19.056 35.349ZM20.7536 34.6214L21.2611 35.1995C21.614 34.8897 21.9391 34.5786 22.1968 34.3439C22.4692 34.0958 22.6976 33.9032 22.9307 33.7498C23.361 33.4668 23.8623 33.2799 24.756 33.2788L24.7551 32.5095L24.7541 31.7403C23.5957 31.7417 22.7939 31.9984 22.0853 32.4645C21.7489 32.6857 21.449 32.9441 21.1609 33.2064C20.8582 33.4821 20.5908 33.7408 20.2462 34.0433L20.7536 34.6214ZM24.7551 32.5095L24.756 33.2788C25.6318 33.2777 26.1748 33.7833 26.9437 34.4531C27.2927 34.7571 27.734 35.1307 28.2649 35.3283C28.8518 35.5468 29.4884 35.5337 30.1762 35.2059L29.8453 34.5115L29.5143 33.8171C29.1845 33.9743 28.9801 33.953 28.8017 33.8866C28.5674 33.7993 28.3194 33.6112 27.9542 33.2931C27.2947 32.7186 26.3102 31.7383 24.7541 31.7403L24.7551 32.5095ZM34.6233 32.8077L34.8735 32.0803L34.7115 32.0245L34.4612 32.7519L34.211 33.4793L34.3731 33.5351L34.6233 32.8077ZM34.4612 32.7519L34.7478 32.0381C34.3842 31.8921 33.929 31.8935 33.6274 31.9067C33.2877 31.9216 32.9523 31.9646 32.7595 31.9885L32.8541 32.7519L32.9488 33.5153C33.1521 33.4901 33.4266 33.4554 33.6946 33.4437C33.8279 33.4379 33.9453 33.4385 34.0406 33.4462C34.1441 33.4545 34.1808 33.4683 34.1746 33.4658L34.4612 32.7519ZM32.8541 32.7519L32.7594 31.9886C32.5479 32.0148 32.351 32.1128 32.2421 32.1698C32.105 32.2414 31.955 32.3324 31.8061 32.4276C31.5089 32.6178 31.1588 32.8623 30.8377 33.0838C30.5052 33.3133 30.205 33.5172 29.9744 33.6536C29.856 33.7237 29.7851 33.7583 29.7535 33.7707C29.7361 33.7776 29.7606 33.7656 29.8132 33.7583C29.8464 33.7536 30.0339 33.728 30.2401 33.8513L29.8453 34.5115L29.4505 35.1717C29.6917 35.3159 29.9296 35.2954 30.0268 35.2818C30.1433 35.2655 30.2453 35.2305 30.3172 35.2022C30.464 35.1444 30.6185 35.0601 30.7578 34.9777C31.0425 34.8093 31.3869 34.5741 31.7115 34.3501C32.0475 34.1182 32.367 33.8951 32.6352 33.7236C32.769 33.638 32.8757 33.5745 32.9546 33.5333C33.0617 33.4773 33.0402 33.504 32.9489 33.5153L32.8541 32.7519ZM19.7156 39.1359L19.7586 39.904C21.3415 39.8152 23.558 39.8864 25.2409 39.8922L25.2435 39.123L25.2462 38.3538C23.6418 38.3482 21.3157 38.2757 19.6725 38.3679L19.7156 39.1359ZM25.2435 39.123L25.2422 39.8922L35.7355 39.9106L35.7368 39.1414L35.7382 38.3722L25.2449 38.3538L25.2435 39.123ZM35.7368 39.1414L35.7391 39.9106L43.4128 39.8878L43.4105 39.1185L43.4083 38.3493L35.7345 38.3722L35.7368 39.1414ZM43.4105 39.1185L43.4125 39.8878C44.6251 39.8847 46.034 39.816 47.0907 39.9409L47.1811 39.177L47.2714 38.4131C46.092 38.2736 44.4985 38.3465 43.4086 38.3493L43.4105 39.1185ZM47.1811 39.177L47.0907 39.9409C47.1602 39.9492 47.1623 39.9682 47.1512 39.9551C47.1462 39.9492 47.162 39.9631 47.1628 40.0174C47.1647 40.1304 47.0917 40.3384 46.8405 40.4778L47.2136 41.1505L47.5867 41.8232C48.3091 41.4225 48.7126 40.7021 48.7011 39.9925C48.6953 39.6355 48.582 39.2646 48.3263 38.9621C48.0647 38.6525 47.6946 38.4632 47.2714 38.4131L47.1811 39.177ZM47.2136 41.1505L47.1523 40.3837C45.9359 40.4809 43.6245 40.4024 42.257 40.3949L42.2528 41.1641L42.2485 41.9333C43.514 41.9403 45.9715 42.0214 47.2749 41.9173L47.2136 41.1505ZM42.2528 41.1641L42.2554 40.3949L32.5901 40.3624L32.5875 41.1317L32.5849 41.9009L42.2502 41.9333L42.2528 41.1641ZM32.5875 41.1317L32.5845 40.3624L23.9131 40.3955L23.916 41.1647L23.9189 41.9339L32.5904 41.9009L32.5875 41.1317ZM23.916 41.1647L23.913 40.3955C22.5861 40.4007 21.0588 40.465 19.8477 40.36L19.7813 41.1263L19.7148 41.8927C21.0183 42.0057 22.6884 41.9387 23.919 41.9339L23.916 41.1647ZM19.7813 41.1263L19.8477 40.36C19.7965 40.3555 19.7974 40.3425 19.8069 40.3531C19.8101 40.3567 19.7931 40.34 19.79 40.2845C19.7839 40.1756 19.8434 39.9586 20.1155 39.793L19.7156 39.1359L19.3157 38.4788C18.5925 38.9189 18.2139 39.6562 18.254 40.3706C18.2953 41.1086 18.8095 41.8142 19.7148 41.8927L19.7813 41.1263ZM10.6709 70.4316C10.6683 71.2008 10.6683 71.2008 10.6684 71.2008C10.6684 71.2008 10.6685 71.2008 10.6687 71.2008C10.669 71.2008 10.6694 71.2008 10.67 71.2009C10.6711 71.2009 10.6729 71.2009 10.6751 71.2009C10.6797 71.2009 10.6865 71.2009 10.6955 71.2009C10.7136 71.201 10.7404 71.2011 10.7756 71.2012C10.846 71.2014 10.9497 71.2018 11.0834 71.2022C11.3508 71.2031 11.7378 71.2044 12.2163 71.2059C13.1732 71.2089 14.496 71.2129 15.9598 71.2169C18.8869 71.2249 22.3786 71.2326 24.6336 71.232L24.6334 70.4628L24.6332 69.6935C22.3808 69.6942 18.8912 69.6864 15.964 69.6784C14.5005 69.6745 13.1779 69.6705 12.2211 69.6674C11.7427 69.6659 11.3558 69.6647 11.0885 69.6638C10.9549 69.6633 10.8511 69.663 10.7808 69.6628C10.7456 69.6626 10.7188 69.6625 10.7008 69.6625C10.6918 69.6625 10.685 69.6624 10.6804 69.6624C10.6781 69.6624 10.6764 69.6624 10.6753 69.6624C10.6747 69.6624 10.6742 69.6624 10.674 69.6624C10.6738 69.6624 10.6737 69.6624 10.6736 69.6624C10.6736 69.6624 10.6735 69.6624 10.6709 70.4316ZM24.6334 70.4628L24.6375 71.232L29.2006 71.2078L29.1966 70.4385L29.1925 69.6693L24.6293 69.6936L24.6334 70.4628ZM29.1966 70.4385L29.2024 71.2077C30.0741 71.2011 30.8851 71.1687 31.6584 71.2495L31.7383 70.4844L31.8183 69.7194C30.9331 69.6268 29.9905 69.6632 29.1907 69.6693L29.1966 70.4385ZM31.7383 70.4844L31.6581 71.2495C31.7147 71.2554 31.7244 71.2675 31.7144 71.2607C31.7051 71.2543 31.7078 71.2513 31.7186 71.2715C31.7316 71.2956 31.75 71.3426 31.7646 71.4219C31.7791 71.5003 31.787 71.5947 31.7881 71.7035L32.5573 71.6953L33.3265 71.6871C33.3231 71.3691 33.2832 70.9346 33.0752 70.5458C32.8385 70.1034 32.4155 69.782 31.8185 69.7194L31.7383 70.4844ZM32.5573 71.6953L31.7881 71.7028C31.8233 75.3165 31.7149 79.0783 31.7998 82.7394L32.5688 82.7216L33.3378 82.7038C33.2523 79.0155 33.3629 75.4236 33.3265 71.6878L32.5573 71.6953ZM32.5688 82.7216L31.7998 82.7395C31.8112 83.231 31.8315 83.4793 31.7834 83.7017C31.7542 83.8367 31.705 83.9435 31.4947 84.0661L31.8823 84.7306L32.2699 85.395C32.8658 85.0474 33.1697 84.5693 33.287 84.0271C33.3855 83.5723 33.3459 83.0513 33.3378 82.7037L32.5688 82.7216ZM31.8823 84.7306L31.8218 83.9637C31.5379 83.9861 31.2533 84.0005 30.9684 84.0065L30.9847 84.7756L31.0011 85.5446C31.3157 85.5379 31.6298 85.5221 31.9429 85.4974L31.8823 84.7306ZM30.9847 84.7756L30.9726 84.0064C26.9638 84.0695 22.8173 83.9837 18.7582 83.9934L18.76 84.7626L18.7618 85.5318C22.7621 85.5223 26.985 85.6078 30.9968 85.5447L30.9847 84.7756ZM18.76 84.7626L18.7578 83.9934L13.8696 84.0072L13.8717 84.7764L13.8739 85.5457L18.7622 85.5318L18.76 84.7626ZM13.8717 84.7764L13.8693 84.0072C12.8709 84.0104 11.9102 84.0212 10.9507 83.9685L10.9086 84.7366L10.8664 85.5047C11.8815 85.5604 12.8962 85.5488 13.8742 85.5457L13.8717 84.7764ZM10.9086 84.7366L10.9011 83.9674C10.8461 83.968 10.8127 83.9495 10.801 83.94C10.796 83.9359 10.7956 83.9341 10.7964 83.9356C10.7975 83.9377 10.7957 83.936 10.7949 83.9256L10.0277 83.9819L9.26055 84.0381C9.32978 84.9828 10.1441 85.5133 10.916 85.5058L10.9086 84.7366ZM10.0277 83.9819L10.7949 83.9259C10.7136 82.8121 10.7371 81.6429 10.7457 80.4673L9.97648 80.4616L9.20727 80.456C9.19894 81.5983 9.17356 82.8463 9.26053 84.0379L10.0277 83.9819ZM9.97648 80.4616L10.7457 80.4673C10.769 77.2936 10.6979 74.2072 10.7606 71.0719L9.9915 71.0565L9.22242 71.0412C9.15995 74.1671 9.22992 77.3659 9.20727 80.456L9.97648 80.4616ZM9.9915 71.0565H10.7607C10.7607 71.1024 10.7417 71.1592 10.7091 71.2018C10.6851 71.2333 10.67 71.2362 10.6911 71.225C10.7104 71.2148 10.7376 71.2048 10.7647 71.1975C10.7768 71.1942 10.7855 71.1924 10.7889 71.1917C10.7904 71.1914 10.7904 71.1915 10.7886 71.1918C10.7877 71.1919 10.7863 71.1921 10.7843 71.1924C10.7834 71.1926 10.7823 71.1927 10.781 71.1929C10.7804 71.193 10.7798 71.1931 10.7791 71.1932C10.7787 71.1933 10.7784 71.1933 10.778 71.1934C10.7778 71.1934 10.7776 71.1934 10.7775 71.1934C10.7772 71.1935 10.7769 71.1935 10.6709 70.4316C10.5649 69.6697 10.5646 69.6698 10.5643 69.6698C10.5642 69.6698 10.5639 69.6699 10.5637 69.6699C10.5633 69.6699 10.5629 69.67 10.5625 69.6701C10.5616 69.6702 10.5607 69.6703 10.5598 69.6705C10.5579 69.6707 10.5558 69.671 10.5536 69.6714C10.5491 69.6721 10.5438 69.6729 10.5379 69.6739C10.5261 69.6758 10.5115 69.6784 10.4946 69.6817C10.4608 69.6883 10.4164 69.698 10.3647 69.7119C10.2645 69.7389 10.1218 69.7856 9.97125 69.8654C9.67638 70.0215 9.22227 70.387 9.22227 71.0565H9.9915ZM12.1074 72.5081L11.3391 72.4709C11.1908 75.5337 11.2353 79.6838 11.3102 82.7422L12.0792 82.7233L12.8482 82.7045C12.7734 79.6519 12.7303 75.5488 12.8758 72.5453L12.1074 72.5081ZM12.0792 82.7233L12.0741 83.4925C12.2727 83.4938 13.1514 83.5207 13.9152 83.5171C14.3069 83.5153 14.7071 83.5059 15.0274 83.4795C15.1846 83.4665 15.347 83.4477 15.4882 83.4171C15.5574 83.402 15.6467 83.3789 15.7371 83.3409C15.8022 83.3135 15.9934 83.2292 16.1324 83.0275L15.4991 82.5909L14.8658 82.1543C14.9843 81.9825 15.1346 81.9253 15.1408 81.9227C15.1724 81.9094 15.1849 81.9086 15.1618 81.9136C15.1184 81.923 15.034 81.9353 14.9012 81.9462C14.6416 81.9676 14.2892 81.9769 13.9079 81.9787C13.1258 81.9824 12.3768 81.956 12.0842 81.9541L12.0792 82.7233ZM15.4991 82.5909L16.2672 82.6318C16.4337 79.5028 16.7291 75.6498 16.763 72.5129L15.9939 72.5046L15.2247 72.4963C15.1912 75.5903 14.9005 79.3629 14.731 82.55L15.4991 82.5909ZM15.9939 72.5046L16.0007 71.7354C14.7001 71.7239 13.3996 71.7255 12.0995 71.7389L12.1074 72.5081L12.1154 73.2773C13.4061 73.2639 14.6968 73.2624 15.987 73.2738L15.9939 72.5046ZM18.2511 72.5141L17.6354 72.0531C17.5471 72.171 17.5071 72.2919 17.4929 72.3356C17.4725 72.3982 17.4572 72.4618 17.4453 72.5178C17.4212 72.631 17.4002 72.7666 17.3812 72.9118C17.3428 73.2053 17.3059 73.5927 17.2705 74.0367C17.1996 74.9277 17.1321 76.0868 17.0727 77.2656C16.9538 79.6243 16.8663 82.0894 16.8496 82.7086L17.6186 82.7294L18.3875 82.7502C18.4039 82.1441 18.4909 79.691 18.6092 77.343C18.6683 76.1685 18.735 75.0272 18.8041 74.1588C18.8388 73.7231 18.8733 73.3661 18.9066 73.1113C18.9235 72.9824 18.9384 72.8929 18.9501 72.8378C18.9561 72.8096 18.9586 72.8032 18.956 72.811C18.9547 72.8153 18.9495 72.8309 18.9393 72.8535C18.9306 72.8728 18.9083 72.9198 18.8669 72.9752L18.2511 72.5141ZM17.6186 82.7294L17.618 83.4986L24.3951 83.5038L24.3957 82.7346L24.3963 81.9654L17.6192 81.9602L17.6186 82.7294ZM24.3957 82.7346L24.4042 83.5038C24.4536 83.5032 24.4903 83.5048 24.5327 83.5067C24.562 83.508 24.6503 83.5134 24.7406 83.5059C25.008 83.484 25.1952 83.3688 25.3323 83.2711L24.8861 82.6446L24.4398 82.018C24.4256 82.0282 24.4203 82.0313 24.4214 82.0307C24.4228 82.0298 24.4343 82.0228 24.454 82.014C24.4749 82.0046 24.5019 81.9944 24.5339 81.9863C24.5658 81.9782 24.5938 81.9744 24.6149 81.9726C24.6339 81.9711 24.6452 81.9715 24.6413 81.9714C24.6358 81.9713 24.6273 81.971 24.6021 81.9698C24.5552 81.9677 24.4823 81.9644 24.3872 81.9654L24.3957 82.7346ZM24.8861 82.6446L25.6548 82.672C25.6902 81.6809 25.5456 80.1001 25.4961 79.1526L24.7279 79.1927L23.9597 79.2328C24.0157 80.3041 24.1496 81.7146 24.1173 82.6171L24.8861 82.6446ZM24.7279 79.1927L25.4961 79.152L25.1418 72.4656L24.3736 72.5063L23.6055 72.547L23.9598 79.2334L24.7279 79.1927ZM24.3736 72.5063L24.3937 71.7374C22.3988 71.6853 20.222 71.7189 18.241 71.745L18.2511 72.5141L18.2613 73.2833C20.2524 73.2571 22.3954 73.2242 24.3536 73.2753L24.3736 72.5063ZM30.4325 72.5237L30.4469 71.7546C29.2471 71.7321 28.0469 71.7278 26.8464 71.7432L26.8562 72.5124L26.8661 73.2816C28.0498 73.2664 29.2338 73.2706 30.4182 73.2928L30.4325 72.5237ZM26.8562 72.5124L26.7517 71.7503L26.4929 71.7858L26.5974 72.5479L26.7018 73.31L26.9607 73.2745L26.8562 72.5124ZM26.5974 72.5479L25.9371 72.1531C25.8724 72.2614 25.849 72.3615 25.8427 72.3884C25.8326 72.4314 25.8268 72.4697 25.8235 72.4959C25.8166 72.5491 25.8129 72.6041 25.8106 72.6519C25.8059 72.7502 25.8044 72.874 25.8049 73.0126C25.806 73.2925 25.8154 73.6735 25.8304 74.1186C25.8604 75.0108 25.9141 76.1859 25.9739 77.3821C26.0936 79.7747 26.2389 82.2682 26.2724 82.7859L27.04 82.7363L27.8076 82.6867C27.7748 82.1786 27.6299 79.6929 27.5105 77.3053C27.4508 76.1113 27.3976 74.9461 27.368 74.0667C27.3531 73.626 27.3444 73.2633 27.3434 73.0068C27.3429 72.877 27.3445 72.7844 27.3473 72.726C27.3487 72.6955 27.35 72.6871 27.3492 72.693C27.3489 72.6956 27.3465 72.7142 27.3401 72.7416C27.3374 72.7529 27.318 72.8416 27.2576 72.9426L26.5974 72.5479ZM27.04 82.7363L27.0438 83.5055C28.0784 83.5004 29.115 83.4814 30.1239 83.4934L30.133 82.7242L30.1422 81.955C29.1168 81.9428 28.0423 81.9621 27.0361 81.9671L27.04 82.7363ZM30.133 82.7242L30.2809 83.4791L30.5106 83.4341L30.3627 82.6792L30.2148 81.9243L29.9851 81.9693L30.133 82.7242ZM30.3627 82.6792L31.0235 83.073C31.0786 82.9806 31.1026 82.8964 31.1106 82.868C31.1218 82.8278 31.129 82.7917 31.1336 82.7657C31.143 82.7132 31.1494 82.6588 31.1542 82.6105C31.164 82.5116 31.1718 82.3874 31.1784 82.2485C31.1916 81.968 31.2015 81.5876 31.209 81.144C31.2239 80.2548 31.2292 79.0859 31.2293 77.8963C31.2295 75.5168 31.2089 73.0381 31.2017 72.5131L30.4325 72.5237L29.6634 72.5342C29.6705 73.0508 29.6911 75.5222 29.6908 77.8962C29.6907 79.0834 29.6854 80.2421 29.6707 81.1183C29.6634 81.5574 29.6537 81.9191 29.6416 82.176C29.6355 82.3058 29.6292 82.3991 29.6233 82.4585C29.6202 82.4894 29.6184 82.4993 29.6191 82.4954C29.6194 82.4937 29.6222 82.4779 29.6289 82.454C29.6323 82.4418 29.6517 82.3698 29.7019 82.2854L30.3627 82.6792ZM47.5477 0.783749L47.5479 1.55298C51.1161 1.5524 54.6945 1.52859 58.2516 1.55901L58.2581 0.789808L58.2647 0.0206051C54.699 -0.00988439 51.1022 0.013943 47.5476 0.0145181L47.5477 0.783749ZM58.2581 0.789808L58.2515 1.55901C59.0107 1.56559 59.8693 1.70272 60.5736 1.94681L60.8255 1.21999L61.0774 0.493168C60.2008 0.189343 59.1749 0.0284955 58.2648 0.0206059L58.2581 0.789808ZM60.8255 1.21999L60.5734 1.94672C62.3662 2.56872 63.8292 3.86231 64.6441 5.53572L65.3357 5.19894L66.0273 4.86216C65.0314 2.81707 63.2491 1.24662 61.0777 0.493254L60.8255 1.21999ZM65.3357 5.19894L64.6441 5.53566C65.1288 6.5312 65.3188 7.82839 65.3693 9.25736C65.4201 10.6977 65.3298 12.1153 65.3148 13.4416L66.084 13.4503L66.8532 13.459C66.8669 12.2472 66.959 10.6824 66.9068 9.2031C66.8542 7.71248 66.6557 6.15298 66.0273 4.86221L65.3357 5.19894ZM66.084 13.4503L65.3148 13.4465L65.2803 20.5155L66.0495 20.5192L66.8188 20.523L66.8532 13.454L66.084 13.4503ZM66.0566 71.5929L65.2874 71.5978L65.3395 79.7989L66.1087 79.7941L66.878 79.7892L66.8258 71.588L66.0566 71.5929ZM66.1087 79.7941L65.3395 79.7996C65.3501 81.2733 65.3888 82.5255 65.3472 83.6664C65.3059 84.7977 65.1862 85.7508 64.9038 86.5925C64.3613 88.2094 63.1611 89.5835 60.2296 90.9126L60.5472 91.6132L60.8649 92.3138C64.0388 90.8748 65.6401 89.2348 66.3624 87.0818C66.7124 86.0385 66.841 84.9177 66.8846 83.7226C66.9279 82.537 66.8882 81.2102 66.8779 79.7885L66.1087 79.7941ZM60.5472 91.6132L59.7783 91.633L59.7959 92.3194L60.5649 92.2996L61.3339 92.2798L61.3162 91.5934L60.5472 91.6132ZM60.5649 92.2996L59.7959 92.3183C59.8069 92.7695 59.8495 93.4824 59.8246 94.1484C59.8122 94.4804 59.7838 94.7535 59.7395 94.9423C59.7172 95.0369 59.698 95.0788 59.694 95.0863C59.6874 95.0986 59.7286 95.0118 59.8576 94.9479L60.1991 95.6371L60.5407 96.3264C60.8055 96.1951 60.9606 95.9794 61.0493 95.8143C61.1406 95.6445 61.198 95.4606 61.2371 95.2942C61.3155 94.9609 61.3483 94.5714 61.362 94.2059C61.3892 93.4769 61.3431 92.6556 61.3339 92.2808L60.5649 92.2996ZM60.1991 95.6371L59.8608 94.9463C59.8819 94.936 59.8356 94.9585 59.6601 94.9867C59.5058 95.0115 59.3038 95.0329 59.061 95.0505C58.5766 95.0855 57.9759 95.1018 57.3602 95.1074C56.0992 95.1188 54.9255 95.0866 54.4825 95.0869L54.483 95.8561L54.4836 96.6254C54.8188 96.6251 56.1488 96.6569 57.3742 96.6458C58.0016 96.6401 58.6398 96.6234 59.172 96.5849C59.4375 96.5657 59.6883 96.5403 59.904 96.5057C60.0984 96.4745 60.3393 96.4251 60.5375 96.3279L60.1991 95.6371ZM54.483 95.8561L54.4794 95.0869C51.7713 95.0997 48.8612 95.0696 46.3621 95.0696L46.3621 95.8388L46.3621 96.6081C48.8308 96.6081 51.7816 96.6381 54.4867 96.6253L54.483 95.8561ZM46.3621 95.8388L46.3621 95.0696C46.5758 95.0696 46.7068 95.1701 46.7392 95.1972C46.7775 95.2292 46.7844 95.2468 46.7672 95.2207C46.7344 95.171 46.6794 95.0628 46.6204 94.8934C46.5035 94.5575 46.4188 94.1207 46.4201 93.7477L45.6509 93.745L44.8817 93.7424C44.8797 94.3142 45.0021 94.9242 45.1674 95.3991C45.2495 95.635 45.3544 95.8731 45.4832 96.0683C45.5469 96.1647 45.6351 96.2795 45.7531 96.378C45.8651 96.4716 46.0742 96.6081 46.3621 96.6081L46.3621 95.8388ZM45.6509 93.745L46.4201 93.7467C46.4215 93.1175 46.4363 92.5457 46.4404 91.8959L45.6712 91.891L44.902 91.8862C44.8983 92.468 44.883 93.1409 44.8817 93.7434L45.6509 93.745ZM45.6712 91.891L45.673 91.1218L36.643 91.101L36.6412 91.8703L36.6394 92.6395L45.6695 92.6603L45.6712 91.891ZM36.6412 91.8703L36.6334 91.1011L34.5112 91.1227L34.5191 91.8919L34.5269 92.6611L36.649 92.6395L36.6412 91.8703ZM34.5191 91.8919L33.7502 91.8673C33.6808 94.0427 33.736 96.4981 33.7392 98.6522L34.5085 98.651L35.2777 98.6498C35.2744 96.4471 35.2195 94.0582 35.2879 91.9164L34.5191 91.8919ZM34.5085 98.651L34.4909 99.42C35.8148 99.4503 37.1489 99.4404 38.4694 99.4311C39.7939 99.4218 41.105 99.4131 42.4024 99.4442L42.4209 98.6752L42.4394 97.9062C41.1142 97.8744 39.7794 97.8834 38.4586 97.8927C37.1336 97.902 35.8229 97.9116 34.526 97.882L34.5085 98.651ZM42.4209 98.6752L42.2965 99.4343C42.4119 99.4533 42.5097 99.5807 42.5128 99.6591L43.2814 99.6291L44.0501 99.5991C44.0172 98.7582 43.3499 98.048 42.5453 97.9161L42.4209 98.6752ZM43.2814 99.6291L42.5128 99.6593C42.517 99.7668 42.5026 99.8226 42.4947 99.8444C42.4884 99.8618 42.4846 99.8636 42.484 99.8642C42.4748 99.8724 42.3934 99.9333 42.1335 99.9462L42.1718 100.714L42.21 101.483C42.6455 101.461 43.1334 101.349 43.5126 101.008C43.9187 100.643 44.0711 100.134 44.0501 99.5988L43.2814 99.6291ZM42.1718 100.714L42.1337 99.9462C41.1575 99.9945 40.2081 99.9749 39.1961 99.9704L39.1927 100.74L39.1892 101.509C40.1682 101.513 41.1796 101.534 42.2098 101.483L42.1718 100.714ZM39.1927 100.74L39.1947 99.9704L33.8373 99.9565L33.8353 100.726L33.8333 101.495L39.1907 101.509L39.1927 100.74ZM33.8353 100.726L33.8341 99.9565L27.9157 99.9652L27.9168 100.734L27.918 101.504L33.8364 101.495L33.8353 100.726ZM27.9168 100.734L27.9156 99.9652C27.4045 99.966 26.7149 100.012 25.8833 99.9977C25.4944 99.9909 25.1344 99.9698 24.8442 99.9266C24.6995 99.9051 24.5861 99.8802 24.5026 99.8544C24.4134 99.8269 24.3914 99.8084 24.4043 99.8178L23.9509 100.439L23.4975 101.061C23.8245 101.299 24.2675 101.396 24.6181 101.448C25.0038 101.506 25.4392 101.529 25.8564 101.536C26.637 101.55 27.6023 101.504 27.9181 101.504L27.9168 100.734ZM23.9509 100.439L24.4055 99.8187C24.4284 99.8354 24.4206 99.8444 24.4119 99.8093C24.4027 99.7719 24.4012 99.7128 24.4205 99.6485C24.4392 99.5861 24.4705 99.5414 24.5018 99.5144C24.5275 99.4923 24.5703 99.4663 24.6551 99.4613L24.6091 98.6934L24.5631 97.9256C23.69 97.9779 23.1369 98.5723 22.9468 99.207C22.772 99.7902 22.8624 100.595 23.4964 101.06L23.9509 100.439ZM24.6091 98.6934L24.6545 99.4613C25.5369 99.4091 26.4595 99.4293 27.4314 99.4332L27.4345 98.664L27.4376 97.8948C26.5059 97.891 25.5094 97.8696 24.5637 97.9255L24.6091 98.6934ZM27.4345 98.664L27.4346 99.4332L32.398 99.4324L32.3978 98.6631L32.3977 97.8939L27.4343 97.8948L27.4345 98.664ZM32.3978 98.6631L33.1671 98.6629L33.1653 91.8882L32.3961 91.8884L31.6269 91.8886L31.6286 98.6633L32.3978 98.6631ZM32.3961 91.8884L32.4147 91.1194C26.8843 90.9855 21.2102 91.1087 15.7062 91.0777L15.7019 91.8469L15.6975 92.6161C21.2683 92.6475 26.8566 92.5238 32.3775 92.6574L32.3961 91.8884ZM15.7019 91.8469L15.7238 91.078C14.3227 91.0381 12.8423 91.102 11.4282 91.1308C9.99496 91.16 8.6073 91.1543 7.30616 90.9886L7.209 91.7517L7.11183 92.5147C8.53183 92.6956 10.0145 92.6983 11.4595 92.6689C12.9235 92.6391 14.3289 92.5774 15.68 92.6158L15.7019 91.8469ZM7.209 91.7517L7.3064 90.9886C5.24213 90.7251 3.15868 88.976 2.25072 87.0993L1.55827 87.4343L0.86582 87.7693C1.95224 90.0149 4.43081 92.1725 7.1116 92.5147L7.209 91.7517ZM1.55827 87.4343L2.25079 87.0994C1.39428 85.3281 1.56626 83.4192 1.57212 81.2044L0.802896 81.2023L0.0336682 81.2003C0.0283499 83.2073 -0.186692 85.5926 0.865749 87.7692L1.55827 87.4343ZM0.797595 13.2668L1.56682 13.2653C1.56353 11.482 1.48205 9.67811 1.60968 7.99573L0.842653 7.93755L0.0756259 7.87936C-0.0579975 9.6408 0.0252421 11.5784 0.0283659 13.2682L0.797595 13.2668ZM0.842653 7.93755L1.60967 7.99583C1.87211 4.54204 4.50996 2.05818 7.99628 1.58494L7.89281 0.822699L7.78934 0.0604586C3.6846 0.61765 0.400395 3.60528 0.0756331 7.87926L0.842653 7.93755ZM7.89281 0.822699L7.9877 1.58605C8.44687 1.52898 9.49083 1.54035 10.0995 1.53913L10.098 0.7699L10.0964 0.000670802C9.57349 0.00172239 8.37941 -0.0129372 7.79792 0.0593427L7.89281 0.822699ZM10.098 0.7699L10.0963 1.53913L14.0357 1.54778L14.0374 0.778556L14.0391 0.00932664L10.0997 0.000671103L10.098 0.7699ZM56.0972 78.6472L56.2556 77.8945C55.8134 77.8014 55.0838 77.7781 54.4376 77.7717C53.7732 77.7651 53.0668 77.7773 52.6845 77.7776L52.6852 78.5468L52.6858 79.316C53.1148 79.3157 53.7605 79.3035 54.4223 79.3101C55.1023 79.3168 55.6731 79.344 55.9387 79.3999L56.0972 78.6472ZM52.6852 78.5468L52.6846 77.7776L46.8633 77.7819L46.8639 78.5511L46.8645 79.3204L52.6857 79.316L52.6852 78.5468ZM46.8639 78.5511L46.1843 78.9114C46.3229 79.1728 46.4932 79.4827 46.6432 79.7989C46.8017 80.133 46.8901 80.3794 46.909 80.5118L47.6705 80.4034L48.4321 80.295C48.3773 79.9101 48.1939 79.4782 48.0331 79.1395C47.8639 78.7827 47.6677 78.4251 47.5436 78.1909L46.8639 78.5511ZM47.6705 80.4034L46.9089 80.5111C47.1178 81.989 47.0392 83.772 47.0338 85.4055L47.8031 85.408L48.5723 85.4106C48.5773 83.8824 48.6616 81.9182 48.4322 80.2957L47.6705 80.4034ZM47.8031 85.408L47.0338 85.4071L47.0241 93.777L47.7933 93.7779L48.5626 93.7788L48.5723 85.4089L47.8031 85.408ZM47.7933 93.7779L47.7872 94.5471C51.2706 94.5752 54.9675 94.6014 58.4586 94.5375L58.4446 93.7684L58.4305 92.9993C54.9627 93.0628 51.2854 93.0368 47.7995 93.0087L47.7933 93.7779ZM58.4446 93.7684L59.2138 93.7699L59.2306 85.2347L58.4613 85.2332L57.6921 85.2317L57.6753 93.7669L58.4446 93.7684ZM58.4613 85.2332L59.2306 85.2339C59.2318 83.9073 59.2862 82.2466 59.1333 80.8364L58.3686 80.9193L57.6038 81.0022C57.7448 82.3023 57.6935 83.8245 57.6921 85.2325L58.4613 85.2332ZM58.3686 80.9193L59.1333 80.8363C59.0917 80.4528 58.9122 80.0624 58.7417 79.7653C58.5631 79.4539 58.3374 79.1472 58.1178 78.9243L57.5699 79.4643L57.022 80.0042C57.1321 80.1159 57.2812 80.3111 57.4073 80.5308C57.5415 80.7648 57.5965 80.9347 57.6038 81.0023L58.3686 80.9193ZM57.5699 79.4643L58.1217 78.9283C57.6185 78.4103 56.9704 78.0508 56.2616 77.8957L56.0972 78.6472L55.9327 79.3987C56.3487 79.4897 56.7268 79.7003 57.0182 80.0003L57.5699 79.4643ZM18.4742 2.85588L18.4742 2.08665C15.32 2.08696 11.2747 1.98032 8.11582 2.1168L8.14902 2.88531L8.18222 3.65383C11.2983 3.5192 15.2521 3.62543 18.4743 3.62511L18.4742 2.85588ZM8.14902 2.88531L8.04326 2.12339C6.14849 2.38638 4.64591 3.1795 3.45379 4.71939L4.06205 5.19028L4.67031 5.66117C5.59355 4.4686 6.71972 3.8603 8.25477 3.64724L8.14902 2.88531ZM4.06205 5.19028L3.45368 4.71953C2.69581 5.69895 2.21647 7.05682 2.17133 8.27519L2.94003 8.30368L3.70873 8.33216C3.74226 7.42727 4.1138 6.38036 4.67041 5.66103L4.06205 5.19028ZM2.94003 8.30368L2.17132 8.2754C2.10418 10.1008 2.11789 12.0058 2.11073 13.8099L2.87995 13.8129L3.64918 13.816C3.65644 11.9874 3.64282 10.124 3.70874 8.33195L2.94003 8.30368ZM2.87995 13.8129L2.11073 13.811L2.08422 24.2452L2.85345 24.2472L3.62268 24.2491L3.64918 13.8149L2.87995 13.8129ZM2.85433 75.8203L2.08511 75.8246L2.11869 81.8411L2.88791 81.8368L3.65712 81.8325L3.62355 75.816L2.85433 75.8203ZM2.88791 81.8368L2.11872 81.8454C2.12801 82.6728 2.10752 84.3685 2.25285 85.2395L3.01159 85.1129L3.77033 84.9863C3.65083 84.2701 3.66769 82.773 3.65709 81.8281L2.88791 81.8368ZM3.01159 85.1129L2.25362 85.244C2.5485 86.9485 3.53467 88.4585 4.98032 89.4328L5.41024 88.7949L5.84015 88.1571C4.73681 87.4134 3.99188 86.2668 3.76956 84.9817L3.01159 85.1129ZM5.41024 88.7949L4.9741 89.4286C5.83794 90.0232 6.83703 90.4019 7.88292 90.5304L7.97674 89.767L8.07056 89.0035C7.26965 88.9051 6.50556 88.615 5.84637 88.1613L5.41024 88.7949ZM7.97674 89.767L7.8871 90.531C9.0309 90.6652 11.0954 90.6108 12.2229 90.6132L12.2245 89.844L12.2262 89.0748C10.9881 89.0721 9.09331 89.1235 8.06638 89.003L7.97674 89.767ZM12.2245 89.844L12.2223 90.6132L19.6293 90.6349L19.6316 89.8656L19.6338 89.0964L12.2268 89.0748L12.2245 89.844ZM19.6316 89.8656L19.6323 90.6349L45.6746 90.6106L45.6739 89.8414L45.6732 89.0722L19.6309 89.0964L19.6316 89.8656ZM45.6739 89.8414L46.4431 89.8409C46.4418 87.8812 46.4894 85.6486 46.4304 83.667L45.6615 83.6899L44.8926 83.7128C44.9507 85.6662 44.9033 87.8308 44.9046 89.8419L45.6739 89.8414ZM45.6615 83.6899L45.6808 82.9209C44.4481 82.89 43.2146 82.9016 41.9988 82.9106C40.7782 82.9196 39.5737 82.926 38.3752 82.8865L38.3498 83.6553L38.3245 84.4241C39.5581 84.4648 40.7918 84.458 42.0101 84.449C43.2333 84.4399 44.4396 84.4287 45.6422 84.4589L45.6615 83.6899ZM38.3498 83.6553L38.3756 82.8865C38.3588 82.8859 38.3104 82.8736 38.2607 82.8233C38.2094 82.7714 38.2128 82.7372 38.2126 82.7527L37.4434 82.7421L36.6742 82.7316C36.6678 83.2037 36.8832 83.618 37.1661 83.9044C37.4506 84.1925 37.8585 84.4085 38.3241 84.4241L38.3498 83.6553ZM37.4434 82.7421L38.2125 82.7531C38.2394 80.869 38.1841 78.8962 38.1496 76.9586C38.1149 75.0114 38.1009 73.0913 38.206 71.2703L37.4381 71.2259L36.6701 71.1816C36.5614 73.0651 36.5766 75.0352 36.6114 76.986C36.6463 78.9464 36.7007 80.8795 36.6742 82.7312L37.4434 82.7421ZM37.4381 71.2259L38.206 71.2703C38.206 71.2713 38.2036 71.3105 38.1587 71.3575C38.1356 71.3817 38.1082 71.3997 38.0823 71.4102C38.057 71.4205 38.0456 71.4187 38.0574 71.4187L38.0574 70.6495L38.0574 69.8803C37.6654 69.8803 37.3071 70.0218 37.0464 70.2946C36.7973 70.5554 36.6874 70.8829 36.6701 71.1816L37.4381 71.2259ZM38.0574 70.6495L38.0574 71.4187C38.2596 71.4187 41.2291 71.4189 44.1482 71.4191C45.6077 71.4193 47.0546 71.4194 48.1366 71.4194C48.6776 71.4195 49.1274 71.4195 49.4419 71.4195C49.5992 71.4196 49.7226 71.4196 49.8068 71.4196C49.8488 71.4196 49.8811 71.4196 49.9028 71.4196C49.9137 71.4196 49.9219 71.4196 49.9274 71.4196C49.9302 71.4196 49.9322 71.4196 49.9336 71.4196C49.9343 71.4196 49.9348 71.4196 49.9352 71.4196C49.9354 71.4196 49.9355 71.4196 49.9356 71.4196C49.9357 71.4196 49.9357 71.4196 49.9358 70.6503C49.9358 69.8811 49.9358 69.8811 49.9357 69.8811C49.9356 69.8811 49.9355 69.8811 49.9353 69.8811C49.935 69.8811 49.9344 69.8811 49.9337 69.8811C49.9324 69.8811 49.9303 69.8811 49.9275 69.8811C49.922 69.8811 49.9138 69.8811 49.9029 69.8811C49.8812 69.8811 49.8489 69.8811 49.8069 69.8811C49.7227 69.8811 49.5993 69.8811 49.442 69.8811C49.1275 69.8811 48.6777 69.881 48.1367 69.881C47.0547 69.8809 45.6078 69.8808 44.1483 69.8807C41.2293 69.8805 38.2596 69.8802 38.0574 69.8803L38.0574 70.6495ZM49.9358 70.6503L49.9387 71.4196L54.0504 71.404L54.0475 70.6348L54.0446 69.8655L49.9329 69.8811L49.9358 70.6503ZM54.0475 70.6348L54.0535 71.404C54.8676 71.3976 55.3931 71.3933 55.7631 71.4324C56.1404 71.4723 56.1525 71.5416 56.1216 71.5055C56.1107 71.4927 56.1766 71.5581 56.2006 71.995C56.2236 72.4133 56.2052 72.9687 56.1973 73.8067L56.9665 73.8139L57.7357 73.8212C57.743 73.0463 57.7634 72.3948 57.7367 71.9106C57.7111 71.4452 57.6392 70.9127 57.2905 70.5052C56.9219 70.0744 56.3965 69.9523 55.9248 69.9024C55.4458 69.8518 54.8109 69.8595 54.0414 69.8656L54.0475 70.6348ZM56.9665 73.8139L56.1973 73.8035C56.1843 74.7618 56.1792 75.7206 56.1831 76.6795L56.9524 76.6763L57.7216 76.6732C57.7177 75.7239 57.7227 74.7742 57.7357 73.8244L56.9665 73.8139ZM56.9524 76.6763L56.67 77.3919C58.0168 77.9234 58.8843 78.5869 59.4263 79.8076L60.1294 79.4954L60.8324 79.1833C60.0762 77.4802 58.823 76.5876 57.2347 75.9608L56.9524 76.6763ZM60.1294 79.4954L59.4242 79.8028C59.5938 80.1919 59.7045 80.6041 59.7531 81.0241L60.5172 80.9357L61.2813 80.8474C61.2154 80.2768 61.0651 79.717 60.8345 79.1881L60.1294 79.4954ZM60.5172 80.9357L59.7535 81.0278C59.8222 81.5979 59.8249 82.1863 59.8152 82.8107L60.5843 82.8226L61.3535 82.8345C61.3633 82.2016 61.363 81.5244 61.2809 80.8436L60.5172 80.9357ZM60.5843 82.8226L59.8152 82.8111C59.7988 83.9009 59.7989 84.9902 59.7986 86.0726C59.7984 87.1569 59.7979 88.2345 59.7808 89.3107L60.5499 89.3229L61.319 89.3352C61.3364 88.245 61.3368 87.1556 61.3371 86.073C61.3373 84.9883 61.3373 83.9106 61.3535 82.8342L60.5843 82.8226ZM60.5499 89.3229L60.9096 90.0029C63.063 88.8638 64.0898 87.4888 64.5183 85.8155C64.7241 85.0119 64.7846 84.1688 64.7972 83.3083C64.8094 82.4721 64.7749 81.5099 64.7718 80.5835L64.0025 80.586L63.2333 80.5886C63.2367 81.6081 63.2712 82.4479 63.2589 83.2858C63.247 84.0995 63.1896 84.8027 63.028 85.4338C62.7216 86.6299 62.0156 87.6774 60.1902 88.643L60.5499 89.3229ZM64.0025 80.586L64.7718 80.5844L64.7603 75.3261L63.991 75.3278L63.2218 75.3295L63.2333 80.5877L64.0025 80.586ZM64.0078 14.2829L64.7771 14.2827C64.7768 13.115 64.8691 11.4688 64.8307 9.98892C64.7913 8.47391 64.6193 6.87901 64.0233 5.58799L63.3249 5.91042L62.6265 6.23285C63.0853 7.22664 63.2545 8.55858 63.2927 10.0289C63.3319 11.5344 63.2383 12.932 63.2386 14.2831L64.0078 14.2829ZM63.3249 5.91042L64.0234 5.58816C63.6773 4.83802 63.0477 4.12801 62.3514 3.57029C61.6533 3.01116 60.8182 2.54908 60.0041 2.35371L59.8246 3.1017L59.6451 3.8497C60.1819 3.97853 60.8159 4.31155 61.3897 4.77108C61.9652 5.23204 62.4103 5.76428 62.6264 6.23269L63.3249 5.91042ZM59.8246 3.1017L59.9624 2.34492C58.7311 2.12063 57.1706 2.06105 55.6474 2.05358C54.8801 2.04982 54.1104 2.05939 53.3836 2.06973C52.6539 2.08011 51.9715 2.09119 51.3664 2.09098L51.3661 2.86021L51.3659 3.62944C51.9852 3.62966 52.6822 3.61832 53.4055 3.60803C54.1318 3.5977 54.8886 3.58835 55.6399 3.59203C57.1537 3.59945 58.5981 3.66018 59.6867 3.85848L59.8246 3.1017ZM45.7225 81.5979L46.4836 81.4864C46.313 80.3209 45.8753 79.3084 45.0633 78.6289C44.2417 77.9414 43.1556 77.6937 41.8986 77.8232L41.9774 78.5883L42.0562 79.3535C43.0261 79.2536 43.6587 79.4596 44.076 79.8088C44.5028 80.1659 44.8242 80.7728 44.9614 81.7093L45.7225 81.5979ZM41.9774 78.5883L41.7587 77.8509C40.8558 78.1186 40.123 78.5267 39.5979 79.1712C39.0745 79.8135 38.8255 80.6073 38.729 81.5158L39.4939 81.597L40.2589 81.6782C40.3367 80.9452 40.5203 80.4746 40.7906 80.143C41.059 79.8135 41.4808 79.5379 42.1961 79.3258L41.9774 78.5883ZM39.4939 81.597L39.4877 82.3662C40.7551 82.3764 42.0226 82.3791 43.2907 82.374L43.2876 81.6048L43.2845 80.8356C42.0227 80.8407 40.7614 80.838 39.5001 80.8278L39.4939 81.597ZM43.2876 81.6048L43.2898 82.374L45.7247 82.3671L45.7225 81.5979L45.7203 80.8286L43.2854 80.8356L43.2876 81.6048ZM54.8355 72.7164L54.8414 71.9472C49.8019 71.909 44.5814 71.888 39.5363 71.9403L39.5443 72.7095L39.5523 73.4787C44.5834 73.4265 49.793 73.4474 54.8297 73.4856L54.8355 72.7164ZM39.5443 72.7095L38.7751 72.7002C38.7562 74.2677 38.7486 75.8361 38.7512 77.4038L39.5204 77.4025L40.2897 77.4013C40.2871 75.8402 40.2947 74.2788 40.3135 72.7188L39.5443 72.7095ZM39.5204 77.4025L39.8993 78.072C41.8588 76.9633 43.477 77.23 46.0422 77.2361L46.0441 76.4669L46.0459 75.6976C43.7243 75.6922 41.5513 75.3696 39.1416 76.733L39.5204 77.4025ZM46.0441 76.4669L46.0397 77.2361C48.6173 77.2508 51.1955 77.2517 53.7737 77.2396L53.7701 76.4703L53.7665 75.7011C51.1935 75.7132 48.6206 75.7123 46.0484 75.6976L46.0441 76.4669ZM53.7701 76.4703L53.7769 77.2395L54.8433 77.23L54.8364 76.4608L54.8296 75.6916L53.7632 75.7011L53.7701 76.4703ZM54.8364 76.4608L55.6057 76.4606L55.6048 72.7162L54.8355 72.7164L54.0663 72.7166L54.0672 76.461L54.8364 76.4608ZM8.91765 54.001L9.68688 54.001L9.69041 20.4591L8.92118 20.459L8.15195 20.459L8.14842 54.0009L8.91765 54.001ZM55.8931 59.4306L56.6623 59.4305L56.6597 19.0499L55.8904 19.0499L55.1212 19.05L55.1238 59.4306L55.8931 59.4306ZM50.0595 9.95295L50.0595 9.18372L22.1655 9.18199L22.1654 9.95122L22.1654 10.7205L50.0594 10.7222L50.0595 9.95295ZM14.0374 0.778556L14.0373 1.54779L47.5476 1.55298L47.5477 0.783749L47.5479 0.0145181L14.0375 0.00932479L14.0374 0.778556ZM66.0495 20.5192L65.2803 20.5193L65.2874 71.593L66.0566 71.5929L66.8258 71.5928L66.8188 20.5191L66.0495 20.5192ZM0.802896 81.2023L1.57213 81.2023L1.56683 13.2667L0.797595 13.2668L0.0283646 13.2668L0.0336655 81.2024L0.802896 81.2023ZM2.85345 24.2472L2.08422 24.2472L2.0851 75.8203L2.85433 75.8203L3.62356 75.8203L3.62268 24.2472L2.85345 24.2472ZM63.991 75.3278L64.7603 75.328L64.7771 14.2831L64.0078 14.2829L63.2386 14.2827L63.2218 75.3276L63.991 75.3278ZM51.3661 2.86021L51.3662 2.09098L18.4743 2.08665L18.4742 2.85588L18.4741 3.62511L51.366 3.62944L51.3661 2.86021Z" fill="#9E9B98" mask="url(#path-1-outside-1_10781_40338)"/>
<path d="M33.3989 41.707L21.1489 53.957C20.6906 54.4154 20.1073 54.6445 19.3989 54.6445C18.6906 54.6445 18.1073 54.4154 17.6489 53.957C17.1906 53.4987 16.9614 52.9154 16.9614 52.207C16.9614 51.4987 17.1906 50.9154 17.6489 50.457L29.8989 38.207L17.6489 25.957C17.1906 25.4987 16.9614 24.9154 16.9614 24.207C16.9614 23.4987 17.1906 22.9154 17.6489 22.457C18.1073 21.9987 18.6906 21.7695 19.3989 21.7695C20.1073 21.7695 20.6906 21.9987 21.1489 22.457L33.3989 34.707L45.6489 22.457C46.1073 21.9987 46.6906 21.7695 47.3989 21.7695C48.1073 21.7695 48.6906 21.9987 49.1489 22.457C49.6073 22.9154 49.8364 23.4987 49.8364 24.207C49.8364 24.9154 49.6073 25.4987 49.1489 25.957L36.8989 38.207L49.1489 50.457C49.6073 50.9154 49.8364 51.4987 49.8364 52.207C49.8364 52.9154 49.6073 53.4987 49.1489 53.957C48.6906 54.4154 48.1073 54.6445 47.3989 54.6445C46.6906 54.6445 46.1073 54.4154 45.6489 53.957L33.3989 41.707Z" fill="#E64A34"/>
</svg>
