<svg width="24" height="24" viewBox="0 0 24 24" fill="none" xmlns="http://www.w3.org/2000/svg">
<path fill-rule="evenodd" clip-rule="evenodd" d="M11.5539 21.8543L11.6218 21.8938L11.649 21.9096C11.7566 21.9689 11.8771 22 11.9995 22C12.1219 22 12.2424 21.9689 12.3501 21.9096L12.3772 21.8948L12.4461 21.8543C12.8253 21.6253 13.1954 21.3808 13.5554 21.1214C14.4873 20.4512 15.3581 19.6969 16.1571 18.8674C18.0422 16.9019 20 13.9486 20 10.1488C20 7.98757 19.1571 5.91491 17.6569 4.38672C16.1566 2.85853 14.1217 2 12 2C9.87827 2 7.84344 2.85853 6.34315 4.38672C4.84285 5.91491 4 7.98757 4 10.1488C4 13.9476 5.95879 16.9019 7.84291 18.8674C8.64159 19.6968 9.51202 20.4512 10.4436 21.1214C10.8039 21.3808 11.1743 21.6253 11.5539 21.8543ZM12 13.1119C12.7715 13.1119 13.5115 12.7998 14.057 12.244C14.6026 11.6883 14.9091 10.9346 14.9091 10.1488C14.9091 9.36287 14.6026 8.60918 14.057 8.05347C13.5115 7.49777 12.7715 7.18557 12 7.18557C11.2285 7.18557 10.4885 7.49777 9.94296 8.05347C9.3974 8.60918 9.09091 9.36287 9.09091 10.1488C9.09091 10.9346 9.3974 11.6883 9.94296 12.244C10.4885 12.7998 11.2285 13.1119 12 13.1119Z" stroke="#A9A1A1" stroke-width="1.5"/>
</svg>
