<svg width="16" height="16" viewBox="0 0 16 16" fill="none" xmlns="http://www.w3.org/2000/svg">
<path d="M8.00941 14.4932L7.99992 14.4985L7.99492 14.4956L7.95172 14.47C7.70353 14.3174 7.46129 14.1545 7.22557 13.9817L7.22547 13.9816C6.60962 13.5305 6.03398 13.0226 5.50558 12.464C4.25653 11.1371 3 9.18607 3 6.70413C3 5.31815 3.53105 3.99244 4.47085 3.01776C5.41005 2.04369 6.67992 1.5 8 1.5C9.32008 1.5 10.5899 2.04369 11.5292 3.01776C12.469 3.99244 13 5.31815 13 6.70413C13 9.1869 11.744 11.1372 10.4944 12.464C9.9658 13.0227 9.38997 13.5305 8.77395 13.9816L8.77361 13.9818C8.53783 14.1548 8.29551 14.3178 8.04723 14.4706L8.00941 14.4932ZM8 9.27836C8.66904 9.27836 9.30683 9.00255 9.77415 8.51789C10.2409 8.03384 10.5 7.3811 10.5 6.70413C10.5 6.02716 10.2409 5.37442 9.77415 4.89038C9.30683 4.40571 8.66904 4.1299 8 4.1299C7.33096 4.1299 6.69317 4.40571 6.22585 4.89038C5.75913 5.37442 5.5 6.02716 5.5 6.70413C5.5 7.3811 5.75913 8.03384 6.22585 8.51789C6.69317 9.00255 7.33096 9.27836 8 9.27836Z" fill="#9E9B98" stroke="#9E9B98"/>
</svg>
