<svg width="16" height="17" viewBox="0 0 16 17" fill="none" xmlns="http://www.w3.org/2000/svg">
<path fill-rule="evenodd" clip-rule="evenodd" d="M5.94556 13.0403C5.64939 13.6434 5.60847 14.4404 6.36343 14.8109L6.45448 14.8558L5.84088 16.1069L5.75082 16.0628C4.85581 15.6235 4.8453 14.6477 5.07517 14.1785L5.69379 12.9162L3.02604 11.606C2.23769 11.2188 1.71944 10.2329 2.07456 9.50979C2.24423 9.16445 2.41431 8.81841 2.58447 8.47285L2.83804 8.59719C2.52414 9.23521 2.72074 9.86647 3.44124 10.2499L6.30933 11.6602L6.92589 10.4024L4.25987 9.09299C3.47158 8.7059 2.95333 7.71988 3.30846 6.99685C3.47799 6.65129 3.64816 6.30538 3.81843 5.95984L4.072 6.08422C3.75812 6.7222 3.95451 7.35346 4.67513 7.73687L7.5416 9.14628L8.1606 7.88358L5.49199 6.57983C4.70282 6.19412 4.18501 5.20321 4.54011 4.47984L4.66041 4.2351L4.66052 4.23488C4.78995 3.97068 4.92005 3.70705 5.05005 3.44304L5.30528 3.56818C4.9914 4.20614 5.18755 4.83858 5.90743 5.22313L8.77755 6.6257L9.39339 5.37084L6.72558 4.06752C5.93654 3.68181 5.41853 2.69088 5.77366 1.96751L5.89393 1.72273L5.89406 1.72251C6.02349 1.45837 6.15359 1.19474 6.28357 0.930664L6.5388 1.05579C6.22492 1.69383 6.42107 2.32621 7.14095 2.71093L10.0106 4.11307C10.3017 3.51241 10.2961 2.8128 9.58818 2.35289L10.2031 1.09535C11.0386 1.61031 11.1056 2.51639 10.8759 2.98515L10.2628 4.23626L10.5898 4.39609C11.3785 4.78145 11.733 5.69226 11.3781 6.41563C11.1583 6.8636 10.9393 7.31077 10.7188 7.75898L9.87364 9.48017L9.55229 10.135L10.6304 10.6651C11.4183 11.0523 11.7747 11.9589 11.4201 12.682L9.95355 15.6694L9.9494 15.6778L9.93907 15.6989L9.9211 15.7359L9.91849 15.7408L9.90816 15.7618L9.89784 15.7828L9.88839 15.8022L9.88773 15.8037L9.8774 15.8247L9.86708 15.8456L9.85688 15.8667L9.856 15.8685L9.84661 15.8875L9.8363 15.9085L9.8261 15.9295L9.82336 15.9348L9.8157 15.9505L9.80539 15.9715L9.79519 15.9925L9.79084 16.0013L9.78485 16.0134L9.77454 16.0345L9.76421 16.0554L9.75817 16.0676L9.754 16.0764L9.74369 16.0974L9.73336 16.1184L9.72553 16.134L9.72298 16.1393L9.71278 16.1603L9.70247 16.1812L9.69301 16.2004L9.69213 16.2024L9.6818 16.2233L9.67149 16.2443L9.65095 16.2863L9.64064 16.3074L9.63024 16.3283L9.62782 16.3333L9.61993 16.3493L9.60959 16.3704L9.59928 16.3913L9.59518 16.3995L9.58895 16.4123L9.57864 16.4334L9.5683 16.4543L9.55799 16.4754L9.54759 16.4964L9.53728 16.5173L9.53 16.5323L9.52695 16.5384L9.33446 16.9307L9.0809 16.8062L9.27338 16.4142L9.28907 16.3819C9.61471 15.7017 9.71521 14.8911 8.82187 14.4525L5.94582 13.04L5.94556 13.0403ZM9.64621 5.49438L9.03099 6.74949L9.35627 6.9084C9.87222 7.16047 10.2025 7.63761 10.2697 8.13993L10.5076 7.65533C10.8454 6.96861 10.948 6.17117 10.0556 5.69441L9.64621 5.49438ZM9.33791 10.0296C9.62096 9.37652 9.6551 8.6519 8.82209 8.20674L8.41429 8.00754L7.79479 9.27079L9.33791 10.0296ZM7.17884 10.5266L6.56201 11.7844L9.39655 13.1782C9.88446 13.418 10.2069 13.857 10.2975 14.3282L10.507 13.9013C10.8449 13.2144 10.9631 12.3852 10.0555 11.9395L7.17884 10.5266ZM12.0208 5.10705L11.8951 5.36C12.5911 5.70106 12.9509 6.3425 12.6394 7.02322L11.7639 8.80614C11.4142 9.51863 11.611 10.3427 12.3758 10.7389C12.8083 9.86019 13.4497 8.53522 13.8944 7.65906C14.259 6.94054 13.9127 6.03534 13.1245 5.64825C12.7477 5.46329 12.3979 5.29183 12.0208 5.10705Z" fill="white"/>
</svg>
