<svg width="24" height="24" viewBox="0 0 24 24" fill="none" xmlns="http://www.w3.org/2000/svg">
<mask id="path-1-inside-1_2094_23972" fill="white">
<path d="M12.3091 10.9639C12.2955 12.0345 13.2632 12.632 13.9922 12.9872C14.7412 13.3516 14.9928 13.5854 14.9898 13.9113C14.9842 14.4101 14.3924 14.6303 13.8385 14.6388C12.8723 14.6538 12.3105 14.378 11.8638 14.1693L11.5157 15.7981C11.9639 16.0046 12.7936 16.1847 13.6541 16.1926C15.6739 16.1926 16.9953 15.1955 17.0024 13.6497C17.0103 11.6878 14.2888 11.5792 14.3074 10.7023C14.3138 10.4364 14.5675 10.1527 15.1235 10.0806C15.3987 10.0441 16.1583 10.0162 17.0196 10.4128L17.3577 8.83698C16.8945 8.66833 16.2992 8.50684 15.558 8.50684C13.657 8.50684 12.3199 9.51743 12.3091 10.9639ZM20.6059 8.64257C20.2371 8.64257 19.9263 8.85771 19.7876 9.18785L16.9024 16.0768H18.9207L19.3223 14.9668H21.7887L22.0216 16.0768H23.8006L22.2482 8.64257H20.6059ZM20.8882 10.6508L21.4707 13.4425H19.8755L20.8882 10.6508ZM9.86198 8.64267L8.27106 16.0767H10.1944L11.7845 8.64248L9.86198 8.64267ZM7.01679 8.64248L5.01494 13.7026L4.20517 9.40019C4.11015 8.91991 3.73492 8.64257 3.31823 8.64257H0.0458347L0 8.85845C0.671808 9.00423 1.4351 9.23935 1.89754 9.49093C2.18054 9.64461 2.26124 9.77896 2.35421 10.1441L3.88795 16.0768H5.92039L9.0364 8.64257L7.01679 8.64248Z"/>
</mask>
<path d="M12.3091 10.9639C12.2955 12.0345 13.2632 12.632 13.9922 12.9872C14.7412 13.3516 14.9928 13.5854 14.9898 13.9113C14.9842 14.4101 14.3924 14.6303 13.8385 14.6388C12.8723 14.6538 12.3105 14.378 11.8638 14.1693L11.5157 15.7981C11.9639 16.0046 12.7936 16.1847 13.6541 16.1926C15.6739 16.1926 16.9953 15.1955 17.0024 13.6497C17.0103 11.6878 14.2888 11.5792 14.3074 10.7023C14.3138 10.4364 14.5675 10.1527 15.1235 10.0806C15.3987 10.0441 16.1583 10.0162 17.0196 10.4128L17.3577 8.83698C16.8945 8.66833 16.2992 8.50684 15.558 8.50684C13.657 8.50684 12.3199 9.51743 12.3091 10.9639ZM20.6059 8.64257C20.2371 8.64257 19.9263 8.85771 19.7876 9.18785L16.9024 16.0768H18.9207L19.3223 14.9668H21.7887L22.0216 16.0768H23.8006L22.2482 8.64257H20.6059ZM20.8882 10.6508L21.4707 13.4425H19.8755L20.8882 10.6508ZM9.86198 8.64267L8.27106 16.0767H10.1944L11.7845 8.64248L9.86198 8.64267ZM7.01679 8.64248L5.01494 13.7026L4.20517 9.40019C4.11015 8.91991 3.73492 8.64257 3.31823 8.64257H0.0458347L0 8.85845C0.671808 9.00423 1.4351 9.23935 1.89754 9.49093C2.18054 9.64461 2.26124 9.77896 2.35421 10.1441L3.88795 16.0768H5.92039L9.0364 8.64257L7.01679 8.64248Z" fill="url(#paint0_linear_2094_23972)" stroke="#8F91A8" stroke-width="0.273092" mask="url(#path-1-inside-1_2094_23972)"/>
<defs>
<linearGradient id="paint0_linear_2094_23972" x1="10.9421" y1="16.3467" x2="11.1645" y2="8.45333" gradientUnits="userSpaceOnUse">
<stop stop-color="#222357"/>
<stop offset="1" stop-color="#254AA5"/>
</linearGradient>
</defs>
</svg>
