<svg width="24" height="24" viewBox="0 0 24 24" fill="none" xmlns="http://www.w3.org/2000/svg">
<path d="M22.4766 12.0625C22.4766 17.2834 18.6599 21.6114 13.6641 22.409V15.122H16.087H16.1072L16.1102 15.1021L16.5752 12.066L16.5793 12.0391H16.552H13.6636V10.0937C13.6636 9.68138 13.7647 9.27746 14.0247 8.97693C14.2842 8.67704 14.7049 8.47656 15.3516 8.47656H16.6763H16.6997V8.45312V5.86891V5.84913L16.6802 5.8458L16.6763 5.86891L16.6802 5.8458L16.6801 5.84579L16.68 5.84576L16.6793 5.84565L16.6767 5.8452L16.6663 5.84348L16.6261 5.83694C16.5909 5.83131 16.5393 5.82328 16.4739 5.81364C16.3431 5.79436 16.1567 5.76866 15.9344 5.74297C15.4898 5.69159 14.9012 5.64016 14.3255 5.64016C13.1217 5.64016 12.1236 6.00531 11.4265 6.70318C10.7294 7.40107 10.3359 8.42899 10.3359 9.74922V12.0391H7.69266H7.66922V12.0625V15.0986V15.122H7.69266H10.3359V22.408C5.34012 21.61 1.52344 17.282 1.52344 12.0625C1.52344 6.27701 6.21451 1.58594 12 1.58594C17.7855 1.58594 22.4766 6.27701 22.4766 12.0625Z" fill="#A9A1A1" stroke="#A9A1A1" stroke-width="0.046875"/>
</svg>
