<svg width="24" height="24" viewBox="0 0 24 24" fill="none" xmlns="http://www.w3.org/2000/svg">
<path d="M3.76842 12L12 20.2316L20.2316 12L12 3.76842L3.76842 12ZM6.16842 15.6L5.32632 14.7579L2.56842 12L5.32632 9.24211L6.16842 8.4V6.16842H8.4L11.9789 2.56842L14.7368 5.32632L15.5789 6.16842H17.8105V8.4L18.6526 9.24211L21.4105 12L18.6526 14.7579L17.8105 15.6V17.8316H15.5789L14.7368 18.6737L11.9789 21.4316L9.22105 18.6737L8.37895 17.8316H6.14737V15.6H6.16842ZM12 2L8.65263 5.34737H5.34737V8.65263L2 12L5.34737 15.3474V18.6526H8.65263L12 22L15.3474 18.6526H18.6526V15.3474L22 12L18.6526 8.65263V5.34737H15.3474L12 2Z" fill="white"/>
<path d="M2.58948 12.0004L6.16842 8.42142V6.16879H8.4L11.9789 2.58984L15.5579 6.16879H17.7895V8.40037L21.3684 11.9793L17.7895 15.5583V17.7898H15.5579L11.9789 21.3688L8.4 17.7898H6.16842V15.5583L2.58948 12.0004ZM6.16842 14.4214C7.5579 12.7372 9.66316 11.6846 12 11.6846C13.8105 11.6846 15.2842 10.2109 15.2842 8.40037C15.2842 7.55826 14.9474 6.77932 14.4211 6.18984L12 3.76879L9.57895 6.16879L6.16842 9.57932L3.74737 12.0004L6.16842 14.4214ZM17.8316 9.60037C16.4421 11.2846 14.3368 12.3372 12 12.3372C10.1895 12.3372 8.71579 13.8109 8.71579 15.6214C8.71579 16.4635 9.05263 17.2425 9.57895 17.8319L12 20.253L14.4211 17.8319L17.8316 14.4214L20.2526 12.0004L17.8316 9.60037Z" fill="#FAAE17"/>
</svg>
