<svg width="24" height="24" viewBox="0 0 24 24" fill="none" xmlns="http://www.w3.org/2000/svg">
<path d="M16.3749 3.22641H16.3748L7.62516 3.22641L7.62509 3.22641C6.45955 3.22989 5.34275 3.69444 4.51859 4.51859C3.69444 5.34275 3.22989 6.45955 3.22641 7.62509V7.62516L3.22641 16.3748L3.22641 16.3749C3.22989 17.5404 3.69444 18.6572 4.51859 19.4814C5.34275 20.3056 6.45955 20.7701 7.62509 20.7736H7.62516H16.3748H16.3749C17.5404 20.7701 18.6572 20.3056 19.4814 19.4814C20.3056 18.6572 20.7701 17.5404 20.7736 16.3749V16.3748V7.62516V7.62509C20.7701 6.45955 20.3056 5.34275 19.4814 4.51859C18.6572 3.69444 17.5404 3.22989 16.3749 3.22641ZM17.6874 7.60172H17.6873C17.4324 7.60172 17.1832 7.52612 16.9712 7.38447C16.7592 7.24283 16.594 7.0415 16.4964 6.80596C16.3988 6.57041 16.3733 6.31123 16.4231 6.06117C16.4728 5.81112 16.5956 5.58143 16.7758 5.40115C16.9561 5.22087 17.1858 5.0981 17.4359 5.04836C17.6859 4.99862 17.9451 5.02415 18.1806 5.12172C18.4162 5.21928 18.6175 5.38451 18.7592 5.59649C18.9008 5.80848 18.9764 6.0577 18.9764 6.31266V6.31271C18.9768 6.48208 18.9437 6.64987 18.879 6.80642C18.8144 6.96298 18.7194 7.10522 18.5997 7.22499C18.4799 7.34476 18.3377 7.43969 18.1811 7.50434C18.0246 7.56899 17.8568 7.60208 17.6874 7.60172ZM12 8.47641H12C11.0658 8.47741 10.1701 8.84896 9.50954 9.50954C8.84896 10.1701 8.47741 11.0658 8.47641 12V12C8.47641 12.6969 8.68306 13.3782 9.07024 13.9576C9.45742 14.5371 10.0077 14.9887 10.6516 15.2554C11.2954 15.5221 12.0039 15.5918 12.6874 15.4559C13.3709 15.3199 13.9988 14.9843 14.4916 14.4916C14.9843 13.9988 15.3199 13.3709 15.4559 12.6874C15.5918 12.0039 15.5221 11.2954 15.2554 10.6516C14.9887 10.0077 14.5371 9.45742 13.9576 9.07024C13.3782 8.68306 12.6969 8.47641 12 8.47641ZM7.62516 1.52344H16.3748C19.7308 1.52344 22.4766 4.26919 22.4766 7.62516V16.3748C22.4766 19.7308 19.7308 22.4766 16.3748 22.4766H7.62516C4.26919 22.4766 1.52344 19.7308 1.52344 16.3748V7.62516C1.52344 4.26919 4.26919 1.52344 7.62516 1.52344ZM17.6873 7.62516C17.8598 7.62553 18.0306 7.59183 18.1901 7.526C18.3495 7.46018 18.4943 7.36351 18.6162 7.24156C18.7382 7.11961 18.8349 6.97477 18.9007 6.81537C18.9665 6.65596 19.0002 6.48512 18.9998 6.31266L17.6873 7.62516ZM9.09628 7.65427C9.95578 7.07997 10.9663 6.77344 12 6.77344C13.3862 6.77344 14.7156 7.32409 15.6957 8.30426C16.6759 9.28443 17.2266 10.6138 17.2266 12C17.2266 13.0337 16.92 14.0442 16.3457 14.9037C15.7714 15.7632 14.9551 16.4331 14.0001 16.8287C13.0451 17.2243 11.9942 17.3278 10.9803 17.1261C9.9665 16.9245 9.03521 16.4267 8.30426 15.6957C7.57332 14.9648 7.07553 14.0335 6.87387 13.0197C6.6722 12.0058 6.7757 10.9549 7.17129 9.99988C7.56687 9.04485 8.23677 8.22857 9.09628 7.65427Z" fill="#A9A1A1" stroke="#A9A1A1" stroke-width="0.046875"/>
</svg>
