<svg width="24" height="24" viewBox="0 0 24 24" fill="none" xmlns="http://www.w3.org/2000/svg">
<path fill-rule="evenodd" clip-rule="evenodd" d="M11.344 12.9317C10.6777 13.4995 10.6893 15.0804 10.7035 16.9142L10.7061 17.4342L10.7074 17.6343C10.7151 19.3674 10.7397 20.8502 11.149 21.5148C11.2846 21.7355 11.5403 21.8968 11.8799 21.9935C11.9677 21.9961 12.0555 22 12.1446 22C12.9866 22 13.804 21.8968 14.5852 21.7032C14.9093 21.5483 15.1431 21.3612 15.2231 21.1663C15.2709 21.0399 15.298 20.8089 15.298 20.5095C15.298 19.3093 14.9416 17.011 14.7712 15.9037L14.6847 15.323L14.6679 15.2082L14.6433 15.0404C14.4987 14.0545 14.2572 12.9963 12.4675 12.7201C11.969 12.6414 11.6023 12.7136 11.344 12.9317ZM8.17123 20.3675C8.23063 20.8308 8.3249 21.1831 8.44886 21.4077C8.63352 21.4825 8.82205 21.5522 9.01317 21.6154C9.18104 21.467 9.28693 21.0528 9.25207 20.0449C9.2017 18.5983 8.95248 16.6909 8.56508 16.7129C8.14669 16.7387 7.98786 18.9144 8.17123 20.3675ZM16.6772 16.789C16.2084 17.0213 16.3905 19.6862 16.8735 20.5353C16.9238 20.6205 17.0271 20.6347 17.1433 20.6153C17.5088 20.3959 17.8574 20.1507 18.188 19.8849C18.2306 19.7984 18.2642 19.6965 18.2887 19.5636C18.3791 19.1029 17.2867 16.4948 16.6772 16.789ZM2 11.9084C2 15.2275 3.65031 18.1634 6.1813 19.961C6.24845 19.8836 6.29881 19.6784 6.34143 19.5081L6.35434 19.4397L6.40857 19.1971C6.61389 18.2344 6.65393 17.291 6.54029 16.1747C6.46927 15.4533 6.35821 15.0223 6.25362 14.6468C6.14773 14.239 6.05733 13.8867 6.06508 13.3395C6.07154 12.8453 6.17355 12.5033 6.28461 12.1394C6.41245 11.7251 6.55578 11.2567 6.57645 10.4437C6.63068 8.86669 6.79468 8.47438 7.26859 8.01626C7.73993 7.56072 7.88456 7.37102 7.88456 7.03549C7.88456 6.70125 7.43905 5.93728 8.22288 5.13331C8.72779 4.61969 9.21849 4.43257 9.57102 4.43257C9.76989 4.43257 9.92614 4.49193 10.0165 4.58614C10.2683 4.84811 10.1973 5.35656 9.69499 6.02891C9.19267 6.70512 9.20816 6.99935 9.23786 7.15421C9.26885 7.31165 9.42252 7.522 9.71694 7.75042C9.94163 7.93238 10.2025 8.13886 10.3704 8.43696C10.688 9.0009 10.8714 9.54033 11.1258 10.2849L11.1968 10.4966L11.2291 10.5792C11.477 11.1689 12.0762 11.378 13.1092 11.378C14.1823 11.378 15.3213 10.6811 15.3213 10.1443C15.3213 9.61131 15.0992 9.54549 15.0992 9.08737C15.0992 8.62924 15.7874 7.30778 16.8257 7.30778C17.3551 7.30778 17.6302 7.68977 17.3745 8.21758C17.124 8.74022 16.6165 9.48613 16.6165 9.8152C16.6165 10.4243 17.5282 9.95328 18.1002 9.48613C18.6826 9.01768 18.8104 8.88734 19.2107 8.1879C19.4535 7.75558 19.8009 7.67299 20.0307 7.78655C20.2864 7.91302 20.4478 8.28855 20.2167 8.8254C20.0359 9.24223 19.5439 9.77133 19.0261 10.3327C18.3314 11.0799 17.5475 11.929 17.5475 12.4736C17.5475 15.2469 19.1191 17.6665 19.3011 17.9324C19.478 18.1956 19.5749 18.2834 19.6278 18.3092C21.0974 16.5929 21.9897 14.3745 22 11.951V11.8645L21.9974 11.68C21.876 6.31282 17.4468 2 12 2C6.47701 2 2 6.4367 2 11.9084Z" fill="#F14634"/>
</svg>
