<svg width="24" height="24" viewBox="0 0 24 24" fill="none" xmlns="http://www.w3.org/2000/svg">
<rect width="24" height="12" transform="translate(0 6)" fill="white"/>
<path d="M5.65438 9.0314C5.41998 9.30162 5.04493 9.51475 4.66989 9.4843C4.62301 9.11893 4.80662 8.73073 5.02149 8.49096C5.25589 8.21313 5.6661 8.01522 5.99817 8C6.03723 8.38059 5.88487 8.75357 5.65438 9.0314ZM5.99426 9.55661C5.45123 9.52617 4.98633 9.85728 4.72849 9.85728C4.46674 9.85728 4.07216 9.57184 3.64243 9.57945C3.08377 9.58706 2.56418 9.89534 2.27899 10.3863C1.69299 11.3682 2.12663 12.8221 2.6931 13.6213C2.97048 14.0171 3.30255 14.451 3.7401 14.4358C4.15421 14.4206 4.31829 14.1732 4.81834 14.1732C5.32231 14.1732 5.46686 14.4358 5.90441 14.4282C6.35758 14.4206 6.64277 14.0324 6.92015 13.6365C7.23659 13.1874 7.36551 12.7498 7.37332 12.7269C7.36551 12.7193 6.49822 12.3958 6.49041 11.4215C6.4826 10.607 7.17408 10.2188 7.20534 10.196C6.81467 9.63273 6.20522 9.57184 5.99426 9.55661ZM9.13134 8.4529V14.3863H10.0768V12.3578H11.3855C12.581 12.3578 13.4209 11.5585 13.4209 10.4015C13.4209 9.24453 12.5966 8.4529 11.4168 8.4529H9.13134ZM10.0768 9.22931H11.1667C11.9871 9.22931 12.4559 9.65557 12.4559 10.4053C12.4559 11.1551 11.9871 11.5852 11.1628 11.5852H10.0768V9.22931ZM15.1477 14.432C15.7415 14.432 16.2923 14.1389 16.5423 13.6746H16.5619V14.3863H17.437V11.4329C17.437 10.5766 16.7338 10.0247 15.6516 10.0247C14.6476 10.0247 13.9053 10.5842 13.878 11.353H14.7296C14.8 10.9876 15.1477 10.7479 15.6243 10.7479C16.2025 10.7479 16.5267 11.0105 16.5267 11.4938V11.8211L15.3469 11.8896C14.2491 11.9543 13.6553 12.392 13.6553 13.1532C13.6553 13.922 14.2686 14.432 15.1477 14.432ZM15.4016 13.7279C14.8976 13.7279 14.5773 13.4919 14.5773 13.1304C14.5773 12.7574 14.8859 12.5404 15.4758 12.5062L16.5267 12.4415V12.7764C16.5267 13.3321 16.0423 13.7279 15.4016 13.7279ZM18.6051 16C19.5271 16 19.9607 15.6575 20.3397 14.6185L22 10.0818H21.039L19.9255 13.5871H19.906L18.7926 10.0818H17.8042L19.406 14.4015L19.32 14.6641C19.1755 15.1094 18.9411 15.2807 18.523 15.2807C18.4488 15.2807 18.3043 15.2731 18.2457 15.2655V15.9772C18.3004 15.9924 18.5348 16 18.6051 16Z" fill="black"/>
</svg>
