<svg width="16" height="16" viewBox="0 0 16 16" fill="none" xmlns="http://www.w3.org/2000/svg">
<path d="M10 12V12.5C10 13.0304 9.78929 13.5391 9.41421 13.9142C9.03914 14.2893 8.53043 14.5 8 14.5C7.46957 14.5 6.96086 14.2893 6.58579 13.9142C6.21071 13.5391 6 13.0304 6 12.5V12M13.365 10.9822C12.5625 10 11.996 9.5 11.996 6.79219C11.996 4.3125 10.7297 3.42906 9.68753 3C9.54909 2.94312 9.41878 2.8125 9.37659 2.67031C9.19378 2.04812 8.68128 1.5 8.00003 1.5C7.31878 1.5 6.80597 2.04844 6.62503 2.67094C6.58284 2.81469 6.45253 2.94312 6.3141 3C5.27066 3.42969 4.00566 4.31 4.00566 6.79219C4.00409 9.5 3.43753 10 2.63503 10.9822C2.30253 11.3891 2.59378 12 3.17534 12H12.8278C13.4063 12 13.6957 11.3872 13.365 10.9822Z" stroke="white" stroke-width="1.5" stroke-linecap="round" stroke-linejoin="round"/>
</svg>
