<svg width="540" height="540" viewBox="0 0 540 540" fill="none" xmlns="http://www.w3.org/2000/svg">
<circle cx="270" cy="270" r="257.04" stroke="#B8E986" stroke-opacity="0.36" stroke-width="25.92"/>
<circle cx="269.999" cy="269.999" r="172.41" fill="#A2DA5A"/>
<path d="M350.709 208.049C352.621 205.553 356.195 205.08 358.691 206.992C361.186 208.905 361.659 212.478 359.747 214.974L260.997 343.862C260.988 343.873 260.979 343.885 260.97 343.897L260.935 343.944C260.924 343.958 260.911 343.971 260.9 343.985C260.86 344.037 260.818 344.089 260.775 344.14C260.756 344.163 260.736 344.187 260.716 344.21C260.684 344.246 260.654 344.284 260.621 344.32C260.61 344.332 260.598 344.343 260.587 344.355C260.55 344.395 260.511 344.434 260.473 344.473C260.446 344.5 260.42 344.527 260.394 344.553C260.356 344.59 260.318 344.625 260.279 344.66C260.243 344.694 260.208 344.727 260.171 344.759C260.131 344.794 260.091 344.828 260.05 344.862C260.022 344.885 259.994 344.908 259.966 344.931C259.926 344.963 259.886 344.993 259.846 345.024C259.804 345.055 259.762 345.087 259.719 345.117C259.695 345.135 259.67 345.151 259.646 345.168C259.595 345.203 259.545 345.238 259.494 345.271C259.462 345.291 259.43 345.31 259.398 345.33C259.348 345.36 259.299 345.39 259.249 345.418C259.223 345.433 259.196 345.448 259.169 345.463C259.117 345.492 259.064 345.521 259.011 345.548C258.964 345.572 258.917 345.594 258.87 345.616C258.84 345.631 258.811 345.646 258.78 345.659C258.724 345.685 258.668 345.709 258.611 345.733C258.58 345.746 258.548 345.759 258.516 345.772C258.468 345.791 258.42 345.809 258.372 345.826C258.337 345.839 258.301 345.852 258.266 345.864C258.216 345.882 258.166 345.898 258.115 345.913C258.072 345.927 258.03 345.94 257.986 345.952C257.946 345.964 257.906 345.974 257.865 345.985C257.822 345.996 257.778 346.007 257.734 346.018C257.678 346.031 257.622 346.043 257.566 346.055C257.533 346.062 257.5 346.068 257.467 346.074C257.412 346.085 257.357 346.093 257.302 346.102C257.266 346.107 257.231 346.113 257.195 346.118C257.129 346.128 257.062 346.136 256.995 346.143C256.976 346.145 256.957 346.147 256.939 346.149C256.86 346.156 256.781 346.161 256.702 346.165C256.69 346.166 256.678 346.167 256.666 346.167C256.132 346.191 255.594 346.14 255.067 346.012C255.057 346.009 255.046 346.007 255.035 346.004C254.782 345.941 254.533 345.859 254.287 345.76C254.273 345.754 254.259 345.749 254.245 345.743C254.176 345.715 254.107 345.685 254.039 345.654C254.019 345.644 253.999 345.636 253.98 345.626C253.916 345.596 253.854 345.564 253.791 345.531C253.772 345.521 253.753 345.511 253.733 345.501C253.674 345.469 253.615 345.436 253.557 345.402C253.532 345.387 253.507 345.373 253.483 345.359C253.423 345.323 253.364 345.286 253.306 345.247C253.286 345.234 253.267 345.221 253.247 345.208C253.148 345.142 253.049 345.074 252.953 345C252.792 344.877 252.641 344.746 252.497 344.61L190.045 287.574C187.724 285.454 187.561 281.853 189.681 279.531C191.801 277.21 195.402 277.047 197.724 279.167L255.672 332.09L350.709 208.049Z" fill="white"/>
</svg>
