<svg width="540" height="540" viewBox="0 0 540 540" fill="none" xmlns="http://www.w3.org/2000/svg">
<path d="M270 0C419.117 4.76765e-06 540 120.883 540 270C540 419.117 419.117 540 270 540C120.883 540 4.76881e-06 419.117 0 270C0 120.883 120.883 0 270 0ZM270 26.0244C135.256 26.0246 26.0246 135.256 26.0244 270C26.0244 404.744 135.256 513.976 270 513.977C404.744 513.977 513.977 404.744 513.977 270C513.976 135.256 404.744 26.0244 270 26.0244Z" fill="black" fill-opacity="0.12"/>
<path d="M270.001 97.5918C365.22 97.5918 442.411 174.782 442.411 270.001C442.411 365.22 365.22 442.411 270.001 442.411C174.782 442.411 97.5918 365.22 97.5918 270.001C97.592 174.782 174.782 97.592 270.001 97.5918ZM332.873 206.927C330.769 204.823 327.358 204.823 325.254 206.927L269.901 262.278L214.549 206.927C212.445 204.823 209.034 204.823 206.93 206.927C204.826 209.031 204.826 212.442 206.93 214.546L262.281 269.897L206.926 325.254C204.822 327.358 204.822 330.77 206.926 332.874C209.03 334.978 212.442 334.978 214.546 332.874L269.901 277.518L325.257 332.874C327.361 334.978 330.773 334.978 332.877 332.874C334.981 330.77 334.981 327.358 332.877 325.254L277.521 269.897L332.873 214.546C334.977 212.442 334.977 209.031 332.873 206.927Z" fill="black" fill-opacity="0.54"/>
</svg>
