<svg width="16" height="16" viewBox="0 0 16 16" fill="none" xmlns="http://www.w3.org/2000/svg">
<g clip-path="url(#clip0_385_12522)">
<path d="M10.3853 2.25462L11.7186 2.95433C13.1531 3.70709 13.8703 4.08347 14.2686 4.75981C14.6668 5.43614 14.6668 6.27776 14.6668 7.96099V8.03897C14.6668 9.7222 14.6668 10.5638 14.2686 11.2402C13.8703 11.9165 13.1531 12.2929 11.7186 13.0456L10.3853 13.7453C9.21489 14.3595 8.62968 14.6666 8.00016 14.6666C7.37065 14.6666 6.78544 14.3595 5.61502 13.7453L4.28169 13.0456C2.84725 12.2929 2.13003 11.9165 1.73176 11.2402C1.3335 10.5638 1.3335 9.7222 1.3335 8.03897V7.96099C1.3335 6.27776 1.3335 5.43614 1.73176 4.75981C2.13003 4.08347 2.84725 3.70709 4.28169 2.95432L5.61502 2.25462C6.78544 1.64042 7.37065 1.33331 8.00016 1.33331C8.62968 1.33331 9.21489 1.64042 10.3853 2.25462Z" stroke="#8F91A8" stroke-width="1.5" stroke-linecap="round"/>
<path d="M14 5L11.3333 6.33333M8 8L2 5M8 8V14.3333M8 8C8 8 9.82843 7.08579 11 6.5C11.1302 6.43491 11.3333 6.33333 11.3333 6.33333M11.3333 6.33333V8.66667M11.3333 6.33333L5 3" stroke="#8F91A8" stroke-width="1.5" stroke-linecap="round"/>
</g>
<defs>
<clipPath id="clip0_385_12522">
<rect width="16" height="16" fill="white"/>
</clipPath>
</defs>
</svg>
