<svg width="24" height="24" viewBox="0 0 24 24" fill="none" xmlns="http://www.w3.org/2000/svg">
<path d="M18.8444 7.875L18.0963 7.82098L18.0963 7.82111L18.8444 7.875ZM12.6569 7.875L13.405 7.82204L13.405 7.82195L12.6569 7.875ZM9.02211 18.7223L9.74982 18.9038L9.74988 18.9036L9.02211 18.7223ZM22.4795 18.7223L21.751 18.9009L21.7511 18.9014L22.4795 18.7223ZM9.37545 8.71594L8.62739 8.66204L8.62739 8.66204L9.37545 8.71594ZM4.4067 8.71594L3.65857 8.76885L3.65857 8.7689L4.4067 8.71594ZM9.34431 15.0256C9.72088 15.1981 10.166 15.0327 10.3385 14.6561C10.5111 14.2796 10.3457 13.8344 9.96911 13.6619L9.34431 15.0256ZM1.51686 17.3789L0.78913 17.1975L0.788874 17.1985L1.51686 17.3789ZM7.21921 18.75C7.63342 18.75 7.96921 18.4142 7.96921 18C7.96921 17.5858 7.63342 17.25 7.21921 17.25V18.75ZM18.0963 7.82111C17.9799 9.43679 16.8052 10.5 15.7506 10.5V12C17.7803 12 19.4341 10.126 19.5924 7.92889L18.0963 7.82111ZM15.7506 10.5C14.6952 10.5 13.5193 9.4365 13.405 7.82204L11.9087 7.92796C12.0644 10.1273 13.7216 12 15.7506 12V10.5ZM13.405 7.82195C13.3482 7.02168 13.5969 6.38815 14.0014 5.95683C14.4078 5.52348 15.013 5.25 15.7506 5.25V3.75C14.6306 3.75 13.6185 4.17238 12.9073 4.93071C12.1942 5.69107 11.8248 6.74504 11.9087 7.92805L13.405 7.82195ZM15.7506 5.25C17.1731 5.25 18.2055 6.30848 18.0963 7.82098L19.5924 7.92902C19.7644 5.54715 18.0434 3.75 15.7506 3.75V5.25ZM15.7505 13.5C12.4984 13.5 9.14444 15.1277 8.29434 18.5411L9.74988 18.9036C10.3717 16.407 12.893 15 15.7505 15V13.5ZM8.2944 18.5409C8.1048 19.3011 8.58011 20.25 9.57148 20.25V18.75C9.59422 18.75 9.62693 18.7562 9.66058 18.7745C9.69288 18.792 9.71531 18.8148 9.7291 18.835C9.75552 18.8738 9.75061 18.9007 9.74982 18.9038L8.2944 18.5409ZM9.57148 20.25H21.9301V18.75H9.57148V20.25ZM21.9301 20.25C22.924 20.25 23.3935 19.2989 23.2078 18.5433L21.7511 18.9014C21.7507 18.8997 21.7454 18.874 21.7716 18.8355C21.7853 18.8154 21.8078 18.7924 21.8404 18.7747C21.8743 18.7562 21.9073 18.75 21.9301 18.75V20.25ZM23.2079 18.5438C22.3578 15.0757 18.9962 13.5 15.7505 13.5V15C18.6156 15 21.1292 16.3643 21.751 18.9009L23.2079 18.5438ZM8.62739 8.66204C8.53833 9.8982 7.63165 10.6875 6.89107 10.6875V12.1875C8.61425 12.1875 9.99319 10.5787 10.1235 8.76983L8.62739 8.66204ZM6.89107 10.6875C6.14974 10.6875 5.24225 9.89789 5.15483 8.66298L3.65857 8.7689C3.78677 10.5799 5.16866 12.1875 6.89107 12.1875V10.6875ZM5.15483 8.66302C5.07365 7.51538 5.83976 6.75 6.89107 6.75V5.25C4.97427 5.25 3.51568 6.74868 3.65857 8.76885L5.15483 8.66302ZM6.89107 6.75C7.93746 6.75 8.70829 7.53928 8.62739 8.66204L10.1235 8.76984C10.2667 6.78291 8.81281 5.25 6.89107 5.25V6.75ZM9.96911 13.6619C8.99786 13.2169 7.95209 13.057 6.89108 13.057V14.557C7.80539 14.557 8.62337 14.6953 9.34431 15.0256L9.96911 13.6619ZM6.89108 13.057C4.25647 13.057 1.49167 14.3789 0.789131 17.1975L2.2446 17.5603C2.71862 15.6585 4.6507 14.557 6.89108 14.557V13.057ZM0.788874 17.1985C0.620249 17.8792 1.04582 18.75 1.95608 18.75V17.25C2.0571 17.25 2.15403 17.3066 2.20658 17.3835C2.25273 17.4511 2.25538 17.5168 2.24486 17.5592L0.788874 17.1985ZM1.95608 18.75H7.21921V17.25H1.95608V18.75Z" fill="#8F91A8"/>
</svg>
