<svg width="24" height="24" viewBox="0 0 24 24" fill="none" xmlns="http://www.w3.org/2000/svg">
<rect x="1" y="1" width="22" height="22" rx="11" stroke="#9E9B98" stroke-width="2"/>
<path d="M15.7735 18.1244C15.6814 18.1248 15.5916 18.0961 15.5168 18.0424L12.0001 15.4929L8.48339 18.0424C8.40826 18.0969 8.31774 18.1261 8.22493 18.1258C8.13212 18.1254 8.04182 18.0956 7.96709 18.0405C7.89235 17.9855 7.83706 17.9081 7.8092 17.8196C7.78134 17.7311 7.78236 17.636 7.8121 17.548L9.18367 13.4856L5.62898 11.0479C5.55198 10.9951 5.49387 10.9192 5.46313 10.831C5.43239 10.7429 5.43064 10.6473 5.45813 10.5581C5.48562 10.4689 5.54091 10.3908 5.61592 10.3353C5.69094 10.2798 5.78174 10.2497 5.87507 10.2494H10.2605L11.5839 6.17659C11.6124 6.08866 11.668 6.01202 11.7428 5.95766C11.8176 5.9033 11.9076 5.87402 12.0001 5.87402C12.0925 5.87402 12.1826 5.9033 12.2573 5.95766C12.3321 6.01202 12.3877 6.08866 12.4162 6.17659L13.7397 10.2508H18.1251C18.2185 10.2508 18.3095 10.2806 18.3848 10.3361C18.46 10.3915 18.5155 10.4695 18.5432 10.5588C18.5708 10.648 18.5692 10.7438 18.5385 10.8321C18.5078 10.9203 18.4496 10.9964 18.3725 11.0492L14.8165 13.4856L16.1872 17.5469C16.2094 17.6127 16.2157 17.6828 16.2054 17.7514C16.1952 17.8201 16.1688 17.8853 16.1284 17.9417C16.088 17.9981 16.0347 18.0441 15.973 18.0759C15.9113 18.1077 15.8429 18.1243 15.7735 18.1244Z" fill="#9E9B98"/>
</svg>
