<svg width="724" height="189" viewBox="0 0 724 189" fill="none" xmlns="http://www.w3.org/2000/svg">
<path d="M467.919 69.0498C476.177 69.0498 482.598 72.0984 487.182 78.1963C491.765 84.2944 494.057 92.6773 494.057 103.344V104.336C494.057 114.754 491.714 123.075 487.027 129.297C482.341 135.519 476.012 138.63 468.043 138.63C461.891 138.63 456.833 136.376 452.869 131.87V163.188H431.996V70.29H451.506L452.125 76.4912C456.13 71.5302 461.395 69.0499 467.919 69.0498ZM601.821 45.8555C609.46 45.8555 616.274 47.6753 622.261 51.3135C628.248 54.9516 632.904 60.1295 636.228 66.8477C639.551 73.5659 641.234 81.2662 641.275 89.9482V94.1025C641.275 102.454 639.892 109.741 637.126 115.963C634.359 122.185 630.539 127.177 625.667 130.939L640.223 142.475L626.782 153.885L607.396 138.257C605.579 138.505 603.762 138.629 601.945 138.629C594.265 138.629 587.452 136.851 581.506 133.296C575.56 129.74 570.925 124.655 567.602 118.04C564.278 111.425 562.554 103.819 562.43 95.2197V90.4443C562.43 81.5557 564.051 73.7418 567.292 67.0029C570.533 60.264 575.158 55.0545 581.166 51.375C587.174 47.6957 594.059 45.8555 601.821 45.8555ZM331.374 69.0498C339.921 69.0498 346.672 71.1371 351.627 75.3125C356.582 79.4881 359.121 85.2149 359.245 92.4912V122.195C359.328 128.355 360.278 133.069 362.095 136.335V137.39H341.222C340.478 136.025 339.818 134.02 339.24 131.374C335.4 136.211 330.032 138.63 323.137 138.63C316.819 138.63 311.451 136.718 307.033 132.894C302.615 129.069 300.405 124.263 300.405 118.475C300.405 111.199 303.09 105.7 308.457 101.979C313.825 98.2587 321.629 96.3975 331.869 96.3975H338.311V92.8633C338.311 86.7033 335.648 83.6231 330.321 83.623C325.366 83.623 322.889 86.062 322.889 90.9404H302.016C302.016 84.4497 304.772 79.1785 310.284 75.127C315.797 71.0754 322.827 69.0498 331.374 69.0498ZM394.819 69.0498C403.656 69.0498 410.758 71.0542 416.126 75.0645C421.494 79.0747 424.178 84.3467 424.178 90.8789H403.243C403.243 85.5044 400.414 82.8165 394.758 82.8164C392.569 82.8164 390.732 83.4269 389.245 84.6465C387.759 85.8661 387.016 87.3851 387.016 89.2041C387.016 91.0645 387.924 92.5739 389.74 93.7314C391.557 94.889 394.458 95.8398 398.442 96.584C402.427 97.3282 405.927 98.2164 408.941 99.25C419.016 102.723 424.054 108.946 424.054 117.917C424.054 124.036 421.339 129.017 415.909 132.862C410.479 136.707 403.449 138.63 394.819 138.63C389.08 138.63 383.96 137.596 379.459 135.529C374.958 133.462 371.448 130.65 368.93 127.095C366.411 123.539 365.151 119.798 365.151 115.87H384.662C384.745 118.971 385.777 121.235 387.759 122.661C389.741 124.087 392.28 124.801 395.377 124.801C398.226 124.801 400.363 124.221 401.787 123.063C403.212 121.906 403.924 120.397 403.924 118.537C403.924 116.759 402.995 115.333 401.137 114.258C399.279 113.183 395.748 112.067 390.546 110.909C385.343 109.752 381.049 108.233 377.663 106.352C374.277 104.47 371.696 102.185 369.921 99.498C368.146 96.8109 367.258 93.7313 367.258 90.2588C367.258 84.0987 369.797 79.0238 374.876 75.0342C379.955 71.0446 386.602 69.0498 394.819 69.0498ZM247 86.9072L254.556 75.4346L274.004 47.0938H300.885L270.412 87.0312L300.885 137.387H275.119L255.919 103.774L247 113.573V137.387H225.26V47.0938H247V86.9072ZM523.309 137.387H502.374V70.2871H523.309V137.387ZM685.884 47.0938C696.578 47.0938 704.94 49.4712 710.969 54.2256C716.997 58.98 720.011 65.6981 720.011 74.3799C720.011 80.664 718.742 85.8735 716.202 90.0078C713.663 94.142 709.688 97.4905 704.279 100.054L723.108 136.456V137.387H699.819L683.902 105.511H672.134V137.387H650.395V47.0938H685.884ZM332.243 107.559C324.976 107.559 321.342 110.825 321.342 117.356C321.342 119.258 321.983 120.798 323.263 121.977C324.543 123.155 326.173 123.744 328.155 123.744C330.757 123.744 332.914 123.187 334.628 122.07C336.341 120.954 337.569 119.693 338.312 118.287V107.559H332.243ZM462.779 85.1729C457.824 85.1729 454.521 86.9504 452.869 90.5059V116.924C454.686 120.645 458.031 122.505 462.903 122.505C469.551 122.505 472.978 116.758 473.185 105.266V103.032C473.184 91.1259 469.716 85.173 462.779 85.1729ZM601.819 62.9102C596.08 62.9102 591.765 65.2049 588.875 69.7939C585.985 74.383 584.519 81.101 584.478 89.9482V94.1035C584.478 102.992 585.943 109.803 588.875 114.537C591.807 119.271 596.163 121.638 601.943 121.638C607.476 121.638 611.72 119.302 614.672 114.63C617.624 109.958 619.121 103.24 619.162 94.4756V90.3203C619.162 81.3491 617.665 74.5378 614.672 69.8867C611.678 65.2356 607.394 62.9102 601.819 62.9102ZM672.135 63.9004V88.707H685.885C690.014 88.707 693.121 87.6214 695.206 85.4512C697.291 83.2807 698.334 80.2515 698.334 76.3652C698.334 72.4794 697.281 69.4305 695.176 67.2188C693.07 65.0069 689.973 63.9004 685.885 63.9004H672.135ZM512.719 42.8164C516.146 42.8165 518.933 43.7673 521.08 45.6689C523.227 47.5707 524.301 50.0098 524.301 52.9863C524.301 55.9628 523.227 58.402 521.08 60.3037C518.933 62.2054 516.146 63.1562 512.719 63.1562C509.292 63.1562 506.504 62.2055 504.356 60.3037C502.21 58.402 501.136 55.9628 501.136 52.9863C501.136 50.0098 502.21 47.5707 504.356 45.6689C506.504 43.7672 509.292 42.8164 512.719 42.8164Z" fill="black"/>
<path d="M11.1045 146.065C11.7012 146.066 12.1886 146.533 12.2217 147.121L12.2236 147.185V170.145H34.6104C35.1858 170.145 35.6598 170.579 35.7227 171.138L35.7275 171.201L35.7295 171.265V180.36C35.7294 180.957 35.2624 181.445 34.6738 181.478L34.6104 181.479H11.1426C5.60823 181.479 1.08653 177.09 0.895508 171.583L0.890625 171.416L0.888672 171.226V147.185C0.888886 146.588 1.35678 146.1 1.94531 146.067L2.00879 146.065H11.1045ZM180.806 146.065C181.403 146.065 181.891 146.533 181.924 147.121L181.925 147.185V171.226C181.925 176.76 177.536 181.283 172.028 181.474L171.861 181.478L171.671 181.479H147.631C147.034 181.479 146.546 181.012 146.513 180.424L146.511 180.36V171.265C146.511 170.668 146.979 170.18 147.567 170.146L147.631 170.145H170.59L170.591 147.185C170.591 146.609 171.025 146.136 171.584 146.073L171.646 146.067L171.71 146.065H180.806ZM127.459 146.065H146.51V136.761H136.19V125.427H157.845V146.775C157.845 152.608 153.291 157.306 147.529 157.399L147.354 157.4H127.017V147.081H107.393V157.4H97.7891C96.8576 157.4 96.098 156.664 96.0596 155.742L96.0576 155.67V135.746H116.124V115.106H127.459V146.065ZM85.0225 95.6123C85.9197 95.6123 86.6629 96.2964 86.7471 97.1904L86.752 97.2656L86.7539 97.3438V106.947H36.3027V146.064H75.4189V116.252H86.7539V155.668C86.7537 156.565 86.07 157.307 85.1758 157.392L85.1006 157.397L85.0225 157.398H35.458C29.7364 157.398 25.1529 152.859 24.9727 147.12L24.9688 146.945L24.9678 146.774V97.3438C24.9678 96.4469 25.6518 95.7044 26.5459 95.6201L26.6211 95.6143L26.6992 95.6123H85.0225ZM67.835 138.479H43.8867V114.532H67.835V138.479ZM126.886 106.947H107.393V126.439H96.0576V97.3438C96.0576 96.4125 96.7938 95.6529 97.7158 95.6143L97.7891 95.6123H126.886V106.947ZM156.115 95.6123C157.047 95.6123 157.807 96.3484 157.846 97.2705L157.848 97.3438V106.947H147.527V117.267H136.192V105.933L146.512 105.932L146.513 95.6123H156.115ZM128.033 86.3096H116.698V74.9756H128.033V86.3096ZM85.0225 24.5225C85.9541 24.5225 86.7144 25.2578 86.7529 26.1797L86.7539 26.2529V84.5771C86.7538 85.5086 86.018 86.2693 85.0957 86.3076L85.0225 86.3086H26.6992C25.7676 86.3085 25.0072 85.5723 24.9688 84.6504L24.9678 84.5771V35.1475C24.9678 29.3146 29.5215 24.6169 35.2832 24.5234L35.458 24.5225H85.0225ZM147.354 24.5225C153.076 24.5225 157.659 29.0626 157.839 34.8018L157.843 34.9756L157.845 35.1475V84.5771C157.845 85.4739 157.161 86.2174 156.267 86.3018L156.191 86.3066L156.113 86.3086H137.336V74.9736H146.51V35.8564H107.393V86.3086H97.7891C96.8922 86.3083 96.1497 85.6242 96.0654 84.7305L96.0596 84.6562L96.0576 84.5771V26.2529C96.0578 25.3563 96.7419 24.6137 97.6357 24.5293L97.7109 24.5244L97.7891 24.5225H147.354ZM36.3018 74.9736H75.4189V35.8564H36.3018V74.9736ZM67.835 67.3887H43.8867V43.4414H67.835V67.3887ZM138.95 67.3887H115.002V43.4414H138.95V67.3887ZM35.1836 0.443359C35.7805 0.44345 36.2678 0.91058 36.3008 1.49902L36.3027 1.5625V10.6592C36.3025 11.2558 35.8357 11.7434 35.2471 11.7764L35.1836 11.7783H12.2236V34.7383C12.2235 35.3137 11.7893 35.7879 11.2305 35.8506L11.168 35.8555L11.1045 35.8574H2.00879C1.41184 35.8574 0.923639 35.3903 0.890625 34.8018L0.888672 34.7383V10.6973C0.888682 5.16276 5.27855 0.640094 10.7861 0.449219L10.9531 0.445312L11.1426 0.443359H35.1836ZM171.671 0.443359C177.205 0.443359 181.728 4.83254 181.919 10.3398L181.924 10.5078L181.925 10.6973V34.7383C181.925 35.335 181.458 35.8225 180.869 35.8555L180.806 35.8574H171.71C171.113 35.8574 170.625 35.3903 170.592 34.8018L170.591 34.7383L170.59 11.7783H147.631C147.055 11.7783 146.581 11.3438 146.519 10.7852L146.513 10.7227L146.511 10.6592V1.5625C146.511 0.965767 146.979 0.478235 147.567 0.445312L147.631 0.443359H171.671Z" fill="#F14635"/>
</svg>
