<svg width="24" height="24" viewBox="0 0 24 24" fill="none" xmlns="http://www.w3.org/2000/svg">
<path d="M18.725 15.35H15.725C15.5179 15.35 15.35 15.5179 15.35 15.725V18.725C15.35 18.9321 15.5179 19.1 15.725 19.1H18.725C18.9321 19.1 19.1 18.9321 19.1 18.725V15.725C19.1 15.5179 18.9321 15.35 18.725 15.35Z" fill="white"/>
<path d="M14.975 12.35H12.725C12.5179 12.35 12.35 12.5179 12.35 12.725V14.975C12.35 15.1821 12.5179 15.35 12.725 15.35H14.975C15.1821 15.35 15.35 15.1821 15.35 14.975V12.725C15.35 12.5179 15.1821 12.35 14.975 12.35Z" fill="white"/>
<path d="M21.725 19.1H19.475C19.2679 19.1 19.1 19.2679 19.1 19.475V21.725C19.1 21.9321 19.2679 22.1 19.475 22.1H21.725C21.9321 22.1 22.1 21.9321 22.1 21.725V19.475C22.1 19.2679 21.9321 19.1 21.725 19.1Z" fill="white"/>
<path d="M21.725 12.35H20.225C20.0179 12.35 19.85 12.5179 19.85 12.725V14.225C19.85 14.4321 20.0179 14.6 20.225 14.6H21.725C21.9321 14.6 22.1 14.4321 22.1 14.225V12.725C22.1 12.5179 21.9321 12.35 21.725 12.35Z" fill="white"/>
<path d="M14.225 19.85H12.725C12.5179 19.85 12.35 20.0179 12.35 20.225V21.725C12.35 21.9321 12.5179 22.1 12.725 22.1H14.225C14.4321 22.1 14.6 21.9321 14.6 21.725V20.225C14.6 20.0179 14.4321 19.85 14.225 19.85Z" fill="white"/>
<path d="M18.725 4.09998H15.725C15.5179 4.09998 15.35 4.26787 15.35 4.47498V7.47498C15.35 7.68208 15.5179 7.84998 15.725 7.84998H18.725C18.9321 7.84998 19.1 7.68208 19.1 7.47498V4.47498C19.1 4.26787 18.9321 4.09998 18.725 4.09998Z" fill="white"/>
<path d="M20.6 1.84998H13.85C13.4358 1.84998 13.1 2.18576 13.1 2.59998V9.34998C13.1 9.76419 13.4358 10.1 13.85 10.1H20.6C21.0142 10.1 21.35 9.76419 21.35 9.34998V2.59998C21.35 2.18576 21.0142 1.84998 20.6 1.84998Z" stroke="white" stroke-width="1.5" stroke-linecap="round" stroke-linejoin="round"/>
<path d="M7.47498 4.09998H4.47498C4.26787 4.09998 4.09998 4.26787 4.09998 4.47498V7.47498C4.09998 7.68208 4.26787 7.84998 4.47498 7.84998H7.47498C7.68208 7.84998 7.84998 7.68208 7.84998 7.47498V4.47498C7.84998 4.26787 7.68208 4.09998 7.47498 4.09998Z" fill="white"/>
<path d="M9.34998 1.84998H2.59998C2.18576 1.84998 1.84998 2.18576 1.84998 2.59998V9.34998C1.84998 9.76419 2.18576 10.1 2.59998 10.1H9.34998C9.76419 10.1 10.1 9.76419 10.1 9.34998V2.59998C10.1 2.18576 9.76419 1.84998 9.34998 1.84998Z" stroke="white" stroke-width="1.5" stroke-linecap="round" stroke-linejoin="round"/>
<path d="M7.47498 15.35H4.47498C4.26787 15.35 4.09998 15.5179 4.09998 15.725V18.725C4.09998 18.9321 4.26787 19.1 4.47498 19.1H7.47498C7.68208 19.1 7.84998 18.9321 7.84998 18.725V15.725C7.84998 15.5179 7.68208 15.35 7.47498 15.35Z" fill="white"/>
<path d="M9.34998 13.1H2.59998C2.18576 13.1 1.84998 13.4358 1.84998 13.85V20.6C1.84998 21.0142 2.18576 21.35 2.59998 21.35H9.34998C9.76419 21.35 10.1 21.0142 10.1 20.6V13.85C10.1 13.4358 9.76419 13.1 9.34998 13.1Z" stroke="white" stroke-width="1.5" stroke-linecap="round" stroke-linejoin="round"/>
</svg>
