<svg width="78" height="16" viewBox="0 0 78 16" fill="none" xmlns="http://www.w3.org/2000/svg">
<g clip-path="url(#clip0_16_15686)">
<mask id="mask0_16_15686" style="mask-type:luminance" maskUnits="userSpaceOnUse" x="0" y="0" width="78" height="16">
<path d="M77.0948 0H0.904297V16H77.0948V0Z" fill="white"/>
</mask>
<g mask="url(#mask0_16_15686)">
<path d="M28.3698 11.2743C28.5984 10.9657 28.7812 10.5829 28.9184 10.1257C29.0555 9.66857 29.1241 9.11429 29.1241 8.46286C29.1241 7.92571 29.0612 7.40571 28.9355 6.90286C28.8212 6.4 28.6327 5.95429 28.3698 5.56571C28.107 5.16571 27.7641 4.85143 27.3412 4.62286C26.9184 4.38286 26.4041 4.26286 25.7984 4.26286C25.1927 4.26286 24.6784 4.38286 24.2555 4.62286C23.8327 4.85143 23.4898 5.16571 23.227 5.56571C22.9641 5.95429 22.7698 6.4 22.6441 6.90286C22.5298 7.40571 22.4727 7.92571 22.4727 8.46286C22.4727 8.97714 22.5298 9.48 22.6441 9.97143C22.7698 10.4514 22.9641 10.8857 23.227 11.2743C23.4898 11.6629 23.8327 11.9771 24.2555 12.2171C24.6784 12.4457 25.1927 12.56 25.7984 12.56C26.0841 12.56 26.3012 12.5486 26.4498 12.5257C26.5984 12.5029 26.7412 12.4571 26.8784 12.3886L25.7298 11.3429L26.9812 10.0057L28.3698 11.2743ZM28.7641 14.1029C27.9527 14.5714 26.9641 14.8057 25.7984 14.8057C24.8612 14.8057 24.0155 14.6457 23.2612 14.3257C22.5184 13.9943 21.8898 13.5429 21.3755 12.9714C20.8612 12.4 20.467 11.7314 20.1927 10.9657C19.9184 10.1886 19.7812 9.35429 19.7812 8.46286C19.7812 7.54857 19.9184 6.70286 20.1927 5.92571C20.467 5.13714 20.8612 4.45143 21.3755 3.86857C21.8898 3.28571 22.5184 2.82857 23.2612 2.49714C24.0155 2.16571 24.8612 2 25.7984 2C26.747 2 27.5927 2.16571 28.3355 2.49714C29.0784 2.82857 29.707 3.28571 30.2212 3.86857C30.7355 4.45143 31.1298 5.13714 31.4041 5.92571C31.6784 6.70286 31.8155 7.54857 31.8155 8.46286C31.8155 9.35429 31.6784 10.1829 31.4041 10.9486C31.1298 11.7143 30.7355 12.3886 30.2212 12.9714L31.747 14.36L30.4955 15.6629L28.7641 14.1029Z" fill="white"/>
<path d="M36.3457 7.82888H39.2943C39.9114 7.82888 40.3743 7.69173 40.6829 7.41746C40.9914 7.14318 41.1457 6.69746 41.1457 6.08032C41.1457 5.48603 40.9914 5.05746 40.6829 4.79461C40.3743 4.52032 39.9114 4.38318 39.2943 4.38318H36.3457V7.82888ZM33.6543 2.29175H40.2543C40.8029 2.29175 41.2943 2.38318 41.7286 2.56603C42.1743 2.73746 42.5514 2.97746 42.86 3.28603C43.18 3.59461 43.42 3.95461 43.58 4.36603C43.7514 4.76603 43.8372 5.20032 43.8372 5.66889C43.8372 6.38889 43.6829 7.01175 43.3743 7.53746C43.0772 8.06316 42.5857 8.46316 41.9 8.73745V8.77173C42.2314 8.86316 42.5057 9.00602 42.7229 9.2003C42.94 9.38316 43.1172 9.60602 43.2543 9.86888C43.3914 10.1203 43.4886 10.4003 43.5457 10.7089C43.6143 11.0174 43.66 11.326 43.6829 11.6346C43.6943 11.8289 43.7057 12.0574 43.7172 12.3203C43.7286 12.5832 43.7457 12.8517 43.7686 13.126C43.8029 13.4003 43.8486 13.6632 43.9057 13.9146C43.9743 14.1546 44.0714 14.3603 44.1972 14.5317H41.5057C41.3572 14.1432 41.2657 13.6803 41.2314 13.1432C41.1972 12.606 41.1457 12.0917 41.0772 11.6003C40.9857 10.9603 40.7914 10.4917 40.4943 10.1946C40.1972 9.89745 39.7114 9.74888 39.0372 9.74888H36.3457V14.5317H33.6543V2.29175Z" fill="white"/>
<path d="M48.7168 8.05173H50.8082C51.1168 8.05173 51.414 8.02888 51.6997 7.98316C51.9854 7.93745 52.2368 7.85173 52.454 7.72602C52.6711 7.58889 52.8425 7.40032 52.9682 7.16032C53.1054 6.92032 53.174 6.60603 53.174 6.21746C53.174 5.82889 53.1054 5.51461 52.9682 5.27461C52.8425 5.03461 52.6711 4.85175 52.454 4.72603C52.2368 4.58889 51.9854 4.49746 51.6997 4.45175C51.414 4.40603 51.1168 4.38318 50.8082 4.38318H48.7168V8.05173ZM46.0254 2.29175H51.5454C52.3111 2.29175 52.9625 2.40603 53.4997 2.63461C54.0368 2.85175 54.4711 3.14318 54.8025 3.50889C55.1454 3.87461 55.3911 4.29175 55.5397 4.76032C55.6997 5.22889 55.7797 5.71461 55.7797 6.21746C55.7797 6.70889 55.6997 7.1946 55.5397 7.67459C55.3911 8.14316 55.1454 8.5603 54.8025 8.92602C54.4711 9.29173 54.0368 9.58888 53.4997 9.81745C52.9625 10.0346 52.3111 10.1432 51.5454 10.1432H48.7168V14.5317H46.0254V2.29175Z" fill="white"/>
<path d="M59.2736 9.8003H62.4451L60.9022 5.30889H60.8679L59.2736 9.8003ZM59.5308 2.29175H62.2908L66.8679 14.5317H64.0736L63.1479 11.806H58.5708L57.6109 14.5317H54.9023L59.5308 2.29175Z" fill="white"/>
<path d="M69.8235 9.76602L65.332 2.29175H68.3492L71.212 7.12603L74.0577 2.29175H77.0577L72.5149 9.83459V14.5317H69.8235V9.76602Z" fill="white"/>
<path d="M0.904297 10.5954V5.4C0.904297 2.42256 3.3555 0 6.36686 0H11.4419C14.4531 0 16.9043 2.42256 16.9043 5.4V16L6.36686 15.9968C3.3555 15.9968 0.904297 13.5744 0.904297 10.5954ZM3.3043 10.5954C3.3043 12.2504 4.67806 13.597 6.3675 13.597L14.5043 13.5994V5.4C14.5043 3.74576 13.1305 2.4 11.4419 2.4H6.36686C4.67806 2.4 3.3043 3.74576 3.3043 5.4V10.5954Z" fill="white"/>
<path d="M5.47656 9.56209V6.43633C5.47656 5.40831 6.32657 4.57153 7.37119 4.57153H10.4391C11.4836 4.57153 12.3337 5.40831 12.3337 6.43633V11.4287L7.37119 11.4258C6.32657 11.4258 5.47656 10.5901 5.47656 9.56209Z" fill="white"/>
</g>
</g>
<defs>
<clipPath id="clip0_16_15686">
<rect width="76.1905" height="16" fill="white" transform="translate(0.904297)"/>
</clipPath>
</defs>
</svg>
