<svg width="24" height="24" viewBox="0 0 24 24" fill="none" xmlns="http://www.w3.org/2000/svg">
<path d="M12 22C10.6334 22 9.34165 21.7375 8.125 21.2125C6.90835 20.6875 5.84585 19.9708 4.9375 19.0625C4.02917 18.1542 3.3125 17.0917 2.7875 15.875C2.2625 14.6583 2 13.3666 2 12C2 10.6166 2.2625 9.31665 2.7875 8.1C3.3125 6.88335 4.02917 5.825 4.9375 4.925C5.84585 4.025 6.90835 3.3125 8.125 2.7875C9.34165 2.2625 10.6334 2 12 2C13.3834 2 14.6833 2.2625 15.9 2.7875C17.1166 3.3125 18.175 4.025 19.075 4.925C19.975 5.825 20.6875 6.88335 21.2125 8.1C21.7375 9.31665 22 10.6166 22 12C22 13.3666 21.7375 14.6583 21.2125 15.875C20.6875 17.0917 19.975 18.1542 19.075 19.0625C18.175 19.9708 17.1166 20.6875 15.9 21.2125C14.6833 21.7375 13.3834 22 12 22ZM12 20.5C14.3667 20.5 16.375 19.6709 18.025 18.0125C19.675 16.3542 20.5 14.35 20.5 12C20.5 9.63335 19.675 7.625 18.025 5.975C16.375 4.325 14.3667 3.5 12 3.5C9.65 3.5 7.64585 4.325 5.9875 5.975C4.32917 7.625 3.5 9.63335 3.5 12C3.5 14.35 4.32917 16.3542 5.9875 18.0125C7.64585 19.6709 9.65 20.5 12 20.5Z" fill="black"/>
</svg>
