<svg width="24" height="24" viewBox="0 0 24 24" fill="none" xmlns="http://www.w3.org/2000/svg">
<path d="M7.50002 2.25L7.83543 1.57918C7.60294 1.46293 7.32684 1.47536 7.10572 1.61201C6.88461 1.74867 6.75002 1.99007 6.75002 2.25H7.50002ZM9.00002 3L8.66461 3.67082C8.87576 3.77639 9.12429 3.77639 9.33543 3.67082L9.00002 3ZM10.5 2.25L10.8359 1.57943C10.6247 1.47361 10.3759 1.47352 10.1646 1.57918L10.5 2.25ZM11.9972 3L11.6613 3.67057C11.8715 3.77585 12.1188 3.77651 12.3295 3.67235L11.9972 3ZM13.5146 2.25L13.8526 1.58049C13.642 1.47418 13.3937 1.47312 13.1822 1.57765L13.5146 2.25ZM15 3L14.662 3.66951C14.8743 3.77668 15.1248 3.77684 15.3372 3.66993L15 3ZM16.4902 2.25L16.8262 1.57947C16.6143 1.4733 16.3647 1.47352 16.153 1.58007L16.4902 2.25ZM17.9869 3L17.6509 3.67053C17.8613 3.77598 18.1091 3.77652 18.32 3.67198L17.9869 3ZM19.5 2.25L19.8354 1.57914C19.625 1.47402 19.3776 1.4736 19.1669 1.57802L19.5 2.25ZM21.0005 3L20.6652 3.67086C20.8763 3.77641 21.1249 3.77638 21.336 3.67078L21.0005 3ZM22.5 2.25L23.25 2.25C23.25 1.99005 23.1154 1.74864 22.8943 1.61199C22.6731 1.47534 22.397 1.46294 22.1645 1.57922L22.5 2.25ZM22.5 18H23.25H22.5ZM18.75 21.75V21V21.75ZM15 15.75H15.75C15.75 15.3358 15.4142 15 15 15V15.75ZM2.25003 15.75L2.24338 16.5H2.25003V15.75ZM1.50003 16.5H2.25006L2.25 16.4934L1.50003 16.5ZM10.5 6C10.0858 6 9.75002 6.33579 9.75002 6.75C9.75002 7.16421 10.0858 7.5 10.5 7.5V6ZM19.5 7.5C19.9142 7.5 20.25 7.16421 20.25 6.75C20.25 6.33579 19.9142 6 19.5 6V7.5ZM13.5 9.75C13.0858 9.75 12.75 10.0858 12.75 10.5C12.75 10.9142 13.0858 11.25 13.5 11.25V9.75ZM19.5 11.25C19.9142 11.25 20.25 10.9142 20.25 10.5C20.25 10.0858 19.9142 9.75 19.5 9.75V11.25ZM8.25002 15.75V2.25H6.75002V15.75H8.25002ZM7.16461 2.92082L8.66461 3.67082L9.33543 2.32918L7.83543 1.57918L7.16461 2.92082ZM9.33543 3.67082L10.8354 2.92082L10.1646 1.57918L8.66461 2.32918L9.33543 3.67082ZM10.1641 2.92057L11.6613 3.67057L12.3331 2.32943L10.8359 1.57943L10.1641 2.92057ZM12.3295 3.67235L13.8469 2.92235L13.1822 1.57765L11.6649 2.32765L12.3295 3.67235ZM13.1765 2.91951L14.662 3.66951L15.338 2.33049L13.8526 1.58049L13.1765 2.91951ZM15.3372 3.66993L16.8274 2.91993L16.153 1.58007L14.6628 2.33007L15.3372 3.66993ZM16.1542 2.92053L17.6509 3.67053L18.3229 2.32947L16.8262 1.57947L16.1542 2.92053ZM18.32 3.67198L19.8331 2.92198L19.1669 1.57802L17.6538 2.32802L18.32 3.67198ZM19.1647 2.92086L20.6652 3.67086L21.3358 2.32914L19.8354 1.57914L19.1647 2.92086ZM21.336 3.67078L22.8355 2.92078L22.1645 1.57922L20.665 2.32922L21.336 3.67078ZM21.75 18C21.75 18.7957 21.434 19.5587 20.8713 20.1213L21.932 21.182C22.7759 20.3381 23.25 19.1935 23.25 18H21.75ZM20.8713 20.1213C20.3087 20.6839 19.5457 21 18.75 21V22.5C19.9435 22.5 21.0881 22.0259 21.932 21.182L20.8713 20.1213ZM18.75 21C17.9544 21 17.1913 20.6839 16.6287 20.1213L15.568 21.182C16.412 22.0259 17.5566 22.5 18.75 22.5V21ZM16.6287 20.1213C16.0661 19.5587 15.75 18.7956 15.75 18H14.25C14.25 19.1935 14.7241 20.3381 15.568 21.182L16.6287 20.1213ZM15.75 18V15.75H14.25V18H15.75ZM15 15H2.25003V16.5H15V15ZM2.25668 15C2.05834 14.9983 1.86164 15.036 1.67805 15.1111L2.24592 16.4995C2.24511 16.4998 2.24425 16.5 2.24338 16.5L2.25668 15ZM1.67805 15.1111C1.49446 15.1862 1.32767 15.2971 1.18742 15.4374L2.24808 16.498C2.24746 16.4987 2.24673 16.4992 2.24592 16.4995L1.67805 15.1111ZM1.18742 15.4374C1.04716 15.5776 0.936252 15.7444 0.861161 15.928L2.24951 16.4959C2.24918 16.4967 2.2487 16.4974 2.24808 16.498L1.18742 15.4374ZM0.861161 15.928C0.786069 16.1116 0.7483 16.3083 0.750059 16.5066L2.25 16.4934C2.25001 16.4942 2.24984 16.4951 2.24951 16.4959L0.861161 15.928ZM0.750029 16.5C0.750029 17.9758 0.81589 19.4785 1.42791 20.6074C1.74945 21.2006 2.21884 21.6898 2.87832 22.0216C3.52584 22.3473 4.31409 22.5 5.25003 22.5V21C4.46894 21 3.92992 20.8715 3.55237 20.6816C3.18678 20.4977 2.9333 20.2369 2.7466 19.8926C2.34214 19.1465 2.25003 18.0242 2.25003 16.5H0.750029ZM5.25003 22.5H18.75V21H5.25003V22.5ZM10.5 7.5H19.5V6H10.5V7.5ZM13.5 11.25H19.5V9.75H13.5V11.25ZM21.75 2.25L21.75 18H23.25L23.25 2.25L21.75 2.25Z" fill="#8F91A8"/>
</svg>
