<svg width="24" height="24" viewBox="0 0 24 24" fill="none" xmlns="http://www.w3.org/2000/svg">
<path d="M18.75 6.93751L17.76 5.78579C16.9206 4.90415 15.9106 4.20252 14.7914 3.7236C13.6722 3.24468 12.4673 2.99849 11.25 3.00001C6.28125 3.00001 2.25 7.03126 2.25 12C2.25 16.9688 6.28125 21 11.25 21C13.1114 20.9999 14.927 20.4229 16.447 19.3484C17.967 18.2739 19.1166 16.7548 19.7377 15" stroke="white" stroke-width="1.5" stroke-miterlimit="10" stroke-linecap="round"/>
<path d="M21.75 4.56666V9.7501C21.75 9.94901 21.671 10.1398 21.5304 10.2804C21.3897 10.4211 21.199 10.5001 21 10.5001H15.8166C15.1482 10.5001 14.8135 9.69244 15.286 9.21994L20.4699 4.03604C20.9424 3.5626 21.75 3.89822 21.75 4.56666Z" fill="white"/>
</svg>
