<svg width="24" height="24" viewBox="0 0 24 24" fill="none" xmlns="http://www.w3.org/2000/svg">
<path d="M24 17.9997C24 18.7069 23.719 19.3852 23.219 19.8853C22.7189 20.3854 22.0406 20.6663 21.3333 20.6663H2.66667C1.95942 20.6663 1.28115 20.3854 0.781049 19.8853C0.280952 19.3852 0 18.7069 0 17.9997V15.333H24V17.9997Z" fill="#CE2028"/>
<path d="M0 8.66699H24V15.3337H0V8.66699Z" fill="#22408C"/>
<path d="M21.3333 3.33301H2.66667C1.95942 3.33301 1.28115 3.61396 0.781049 4.11406C0.280952 4.61415 0 5.29243 0 5.99967L0 8.66634H24V5.99967C24 5.29243 23.719 4.61415 23.219 4.11406C22.7189 3.61396 22.0406 3.33301 21.3333 3.33301Z" fill="#EEEEEE"/>
</svg>
