<svg width="20" height="30" viewBox="0 0 20 30" fill="none" xmlns="http://www.w3.org/2000/svg">
<path fill-rule="evenodd" clip-rule="evenodd" d="M6.59821 22.7056C6.10782 23.8363 6.04006 25.3308 7.29011 26.0255L7.44087 26.1097L6.42489 28.4554L6.27576 28.3728C4.79384 27.549 4.77644 25.7194 5.15705 24.8398L6.18135 22.4728L1.76417 20.0163C0.458841 19.2903 -0.399259 17.4417 0.188743 16.0859C0.469667 15.4383 0.751279 14.7895 1.03304 14.1416L1.45288 14.3747C0.933136 15.571 1.25867 16.7546 2.45164 17.4736L7.20052 20.1178L8.22141 17.7596L3.8071 15.3044C2.50188 14.5786 1.64378 12.7298 2.23179 11.3741C2.51249 10.7262 2.79424 10.0776 3.07618 9.42971L3.49603 9.66292C2.97632 10.8591 3.30149 12.0427 4.49468 12.7616L9.24088 15.4043L10.2658 13.0367L5.8472 10.5922C4.54053 9.86898 3.68315 8.01103 4.27112 6.65471L4.4703 6.19581L4.47049 6.19541C4.68478 5.70003 4.90021 5.20572 5.11545 4.7107L5.53805 4.94534C5.01835 6.14151 5.34311 7.32735 6.53507 8.04837L11.2873 10.6782L12.307 8.32532L7.88973 5.88161C6.58328 5.1584 5.72558 3.30041 6.31358 1.94409L6.51273 1.48512L6.51294 1.48471C6.72724 0.989447 6.94267 0.495134 7.15787 0L7.58047 0.234613C7.06077 1.43094 7.38554 2.61665 8.57749 3.33801L13.329 5.96701C13.8109 4.84078 13.8016 3.52901 12.6295 2.66668L13.6477 0.308784C15.0312 1.27433 15.142 2.97324 14.7617 3.85216L13.7465 6.198L14.288 6.49768C15.5938 7.22023 16.1809 8.92799 15.5932 10.2843C15.2293 11.1243 14.8667 11.9627 14.5015 12.8031L13.1022 16.0303L12.5701 17.2581L14.3552 18.252C15.6597 18.9781 16.25 20.6779 15.6627 22.0338L13.2345 27.6351L13.2276 27.6509L13.2105 27.6904L13.1808 27.7598L13.1765 27.769L13.1593 27.8083L13.1423 27.8477L13.1266 27.8841L13.1255 27.887L13.1084 27.9264L13.0913 27.9656L13.0744 28.0051L13.073 28.0084L13.0574 28.0441L13.0404 28.0835L13.0235 28.1228L13.0189 28.1328L13.0063 28.1622L12.9892 28.2015L12.9723 28.2409L12.9651 28.2574L12.9552 28.2801L12.9381 28.3196L12.921 28.3588L12.911 28.3818L12.9041 28.3982L12.887 28.4375L12.8699 28.477L12.857 28.5063L12.8527 28.5162L12.8358 28.5556L12.8188 28.5948L12.8031 28.6308L12.8017 28.6345L12.7845 28.6737L12.7675 28.7131L12.7335 28.7918L12.7164 28.8313L12.6992 28.8705L12.6952 28.8799L12.6821 28.9099L12.665 28.9495L12.6479 28.9886L12.6411 29.0041L12.6308 29.028L12.6137 29.0676L12.5966 29.1068L12.5795 29.1463L12.5623 29.1857L12.5453 29.2249L12.5332 29.2531L12.5281 29.2644L12.2094 30L11.7896 29.7667L12.1083 29.0317L12.1343 28.9711C12.6735 27.6958 12.8399 26.1759 11.3607 25.3534L6.59864 22.705L6.59821 22.7056ZM12.7256 8.55697L11.707 10.9103L12.2456 11.2083C13.0998 11.6809 13.6466 12.5755 13.758 13.5174L14.1518 12.6088C14.7112 11.3211 14.881 9.82594 13.4035 8.93202L12.7256 8.55697ZM12.2151 17.0605C12.6838 15.836 12.7403 14.4773 11.3611 13.6426L10.6859 13.2691L9.6601 15.6377L12.2151 17.0605ZM8.64023 17.9925L7.61891 20.3508L12.3123 22.9641C13.1201 23.4137 13.6541 24.2369 13.804 25.1204L14.1509 24.3199C14.7104 23.0319 14.9061 21.4773 13.4033 20.6416L8.64023 17.9925ZM16.6574 7.83072L16.4493 8.305C17.6017 8.94448 18.1974 10.1472 17.6817 11.4235L16.2321 14.7665C15.6529 16.1024 15.9789 17.6477 17.2451 18.3904C17.9613 16.7429 19.0233 14.2585 19.7596 12.6157C20.3634 11.2685 19.79 9.57127 18.4849 8.84547C17.861 8.49868 17.2817 8.17718 16.6574 7.83072Z" fill="white"/>
</svg>
