<svg width="25" height="24" viewBox="0 0 25 24" fill="none" xmlns="http://www.w3.org/2000/svg">
<path d="M13.0455 9.01453C12.43 8.95374 11.8107 9.08469 11.2725 9.38945C10.7343 9.69421 10.3034 10.1579 10.0389 10.717C9.77434 11.2761 9.68909 11.9033 9.79479 12.5127C9.9005 13.1221 10.192 13.684 10.6293 14.1213C11.0667 14.5587 11.6286 14.8502 12.238 14.9559C12.8474 15.0616 13.4746 14.9763 14.0337 14.7118C14.5928 14.4473 15.0565 14.0164 15.3612 13.4782C15.666 12.94 15.7969 12.3207 15.7361 11.7052C15.6668 11.0151 15.3611 10.3703 14.8707 9.87995C14.3804 9.38958 13.7355 9.08384 13.0455 9.01453ZM20.2689 12C20.267 12.3261 20.2431 12.6517 20.1972 12.9745L22.3164 14.6367C22.4087 14.7132 22.4709 14.8199 22.4919 14.9379C22.513 15.056 22.4915 15.1776 22.4313 15.2812L20.4264 18.75C20.3656 18.8527 20.2704 18.9305 20.1577 18.9699C20.045 19.0093 19.9221 19.0076 19.8105 18.9652L17.7058 18.1177C17.5898 18.0714 17.464 18.0547 17.3399 18.0691C17.2158 18.0834 17.0972 18.1283 16.9947 18.1997C16.6735 18.4209 16.336 18.6174 15.985 18.7875C15.8747 18.8411 15.7793 18.9211 15.7072 19.0203C15.6351 19.1196 15.5885 19.2351 15.5716 19.3566L15.2561 21.6014C15.2354 21.72 15.1742 21.8276 15.0829 21.906C14.9915 21.9844 14.8758 22.0287 14.7555 22.0312H10.7458C10.6275 22.0292 10.5134 21.9869 10.4223 21.9113C10.3312 21.8357 10.2686 21.7314 10.2447 21.6155L9.92973 19.3739C9.91204 19.2511 9.86427 19.1345 9.79067 19.0346C9.71707 18.9346 9.61992 18.8544 9.50785 18.8011C9.15733 18.6319 8.82094 18.4349 8.50192 18.2119C8.39977 18.1408 8.28155 18.0963 8.15791 18.0823C8.03426 18.0683 7.90908 18.0853 7.79364 18.1317L5.68942 18.9788C5.57791 19.0212 5.45499 19.023 5.34231 18.9837C5.22964 18.9444 5.13444 18.8666 5.07348 18.7641L3.06864 15.2953C3.00836 15.1917 2.98682 15.07 3.00785 14.952C3.02888 14.834 3.09112 14.7272 3.18348 14.6508L4.97457 13.2445C5.0727 13.1666 5.14982 13.0655 5.19893 12.9502C5.24805 12.835 5.2676 12.7093 5.25582 12.5845C5.23895 12.3891 5.22864 12.1941 5.22864 11.9986C5.22864 11.8031 5.23848 11.6109 5.25582 11.4197C5.26632 11.2957 5.2458 11.1711 5.19613 11.057C5.14646 10.9429 5.0692 10.843 4.97129 10.7662L3.18114 9.36C3.09027 9.28317 3.02935 9.17681 3.00904 9.05957C2.98872 8.94232 3.01032 8.82167 3.07004 8.71875L5.07489 5.25C5.13577 5.14734 5.23094 5.06946 5.34362 5.0301C5.4563 4.99074 5.57926 4.99242 5.69082 5.03484L7.79551 5.88234C7.91157 5.92856 8.03729 5.94525 8.16139 5.93094C8.2855 5.91662 8.40411 5.87174 8.5066 5.80031C8.82782 5.57912 9.16535 5.38262 9.51629 5.2125C9.62662 5.15887 9.72206 5.07891 9.79416 4.97966C9.86627 4.88042 9.91283 4.76494 9.92973 4.64344L10.2452 2.39859C10.2659 2.28004 10.3272 2.17236 10.4185 2.09396C10.5098 2.01555 10.6255 1.9713 10.7458 1.96875H14.7555C14.8738 1.9708 14.988 2.01309 15.079 2.08867C15.1701 2.16425 15.2328 2.2686 15.2566 2.38453L15.5716 4.62609C15.5893 4.74894 15.6371 4.86551 15.7107 4.96544C15.7843 5.06537 15.8814 5.14557 15.9935 5.19891C16.344 5.3681 16.6804 5.56514 16.9994 5.78813C17.1016 5.85919 17.2198 5.90373 17.3434 5.91772C17.4671 5.93172 17.5923 5.91473 17.7077 5.86828L19.8119 5.02125C19.9234 4.97879 20.0463 4.97704 20.159 5.01631C20.2717 5.05558 20.3669 5.13336 20.4279 5.23594L22.4327 8.70469C22.493 8.80832 22.5145 8.92999 22.4935 9.04802C22.4725 9.16604 22.4102 9.27278 22.3179 9.34922L20.5268 10.7555C20.4282 10.8331 20.3506 10.9342 20.3011 11.0494C20.2516 11.1647 20.2317 11.2905 20.2432 11.4155C20.2586 11.6095 20.2689 11.8045 20.2689 12Z" stroke="#303240" stroke-width="1.5" stroke-linecap="round" stroke-linejoin="round"/>
</svg>
