<svg width="25" height="30" viewBox="0 0 25 30" fill="none" xmlns="http://www.w3.org/2000/svg">
<path fill-rule="evenodd" clip-rule="evenodd" d="M18.5872 7.21736C17.2881 6.58084 16.2934 6.26243 15.0274 6.07779C14.3132 5.97362 12.5237 5.9742 11.9052 6.07878C10.6081 6.29803 9.54823 6.64492 8.34529 7.24397C6.71019 8.05819 5.52662 8.9226 4.25621 10.2304C2.77058 11.7597 2.27885 12.7178 2.14421 14.3456C2.04553 15.5384 2.19685 17.5467 2.50796 19.1745C2.54117 19.3481 2.56165 19.495 2.55348 19.5009C2.54531 19.5067 2.05277 19.6359 1.45897 19.7879C0.20093 20.1101 0 20.2185 0 20.5753C0 20.7122 0.0466282 20.8572 0.120977 20.9517C0.277203 21.1503 0.497274 21.1521 1.19402 20.9601C2.33925 20.6444 2.64966 20.5867 2.72138 20.6763C2.75768 20.7216 2.83244 21.0009 2.88753 21.2968C3.05134 22.1774 3.15557 22.5061 3.30141 22.6016C3.47678 22.7165 3.8016 22.6544 3.97172 22.4733C4.08902 22.3485 4.09783 22.2976 4.06217 21.95C4.04052 21.7382 3.96961 21.2999 3.90466 20.9759C3.81584 20.5328 3.80364 20.3765 3.85546 20.3444C4.02762 20.238 6.87704 19.8374 8.63708 19.6721C10.0034 19.5438 14.5817 19.4904 16.2242 19.5836C17.4401 19.6526 19.3985 19.8297 20.1921 19.9425C21.1377 20.0768 22.4721 20.3014 23.1323 20.4374C23.8376 20.5827 24.1969 20.6126 24.3122 20.5356C24.511 20.4028 24.6095 19.9184 24.8353 17.9605C25.0417 16.1716 25.0547 14.6412 24.8711 13.7326C24.5975 12.3788 24.1305 11.6171 22.6526 10.1139C21.5239 8.96601 20.1319 7.97415 18.5872 7.21736ZM10.633 7.51948C10.6518 7.42254 11.2076 7.28289 12.1678 7.1339C12.8714 7.02477 14.2086 7.01999 14.7939 7.12457C15.6508 7.27758 16.1938 7.4079 16.2718 7.47933C16.3753 7.57387 16.086 7.68924 15.3483 7.8478C14.3712 8.05778 13.4513 8.12361 12.6743 8.03928C11.3683 7.89741 10.5979 7.70127 10.633 7.51948ZM15.29 8.97465C16.1019 8.78709 16.8396 8.52897 17.3033 8.27009C17.528 8.14467 17.7425 8.04004 17.78 8.03759C18.0103 8.02247 19.8537 9.14873 20.8049 9.88569C22.0409 10.8434 23.1673 12.1228 23.5665 13.0228C23.8735 13.7148 23.9937 15.2221 23.8736 16.8744C23.8011 17.872 23.6195 19.2731 23.5543 19.3384C23.5141 19.3786 23.3116 19.3515 21.7094 19.0912C21.2119 19.0104 20.621 18.9179 20.3963 18.8856C20.1717 18.8533 19.9439 18.8132 19.8902 18.7965C19.8014 18.7688 19.7902 18.5435 19.7677 16.3321C19.7499 14.5848 19.7218 13.8275 19.668 13.6479C19.5574 13.2781 19.1565 12.8627 18.7659 12.7132C18.3151 12.5407 17.5434 12.4501 16.7761 12.4794C16.2158 12.5009 16.0793 12.5266 15.8001 12.6632C15.3711 12.873 15.0395 13.2037 14.9063 13.5545C14.8087 13.8112 14.7959 14.0694 14.7782 16.1304L14.7585 18.4209H13.0805C10.3562 18.4209 7.52721 18.6442 4.9107 19.0656C4.31218 19.162 3.77149 19.2468 3.7091 19.254C3.60884 19.2656 3.58386 19.1971 3.49353 18.6632C3.17168 16.7614 3.07433 15.0151 3.23599 14.044C3.40418 13.0339 3.63971 12.5342 4.36365 11.6513C5.0014 10.8736 6.39745 9.64922 7.32401 9.05501C7.90503 8.68239 9.01186 8.09145 9.12869 8.09145C9.17667 8.09145 9.44675 8.21039 9.72891 8.35582C10.3106 8.65555 10.8964 8.85414 11.6499 9.00716C12.4482 9.16922 14.528 9.15066 15.29 8.97465ZM15.8736 18.4502V14.1901C15.9125 13.9664 16.2762 13.4255 17.4201 13.5189C18.5639 13.6123 18.7915 14.2776 18.7623 14.511V18.6545C18.6667 18.6503 18.4983 18.6338 18.2731 18.6116C17.9711 18.5818 17.567 18.542 17.0991 18.5086C16.4202 18.4601 16.0486 18.4502 15.8736 18.4502Z" fill="white"/>
</svg>
