<svg width="24" height="25" viewBox="0 0 24 25" fill="none" xmlns="http://www.w3.org/2000/svg">
<path d="M8.25 20.54C8.66421 20.54 9 20.2043 9 19.79C9 19.3758 8.66421 19.04 8.25 19.04C7.83579 19.04 7.5 19.3758 7.5 19.79C7.5 20.2043 7.83579 20.54 8.25 20.54Z" stroke="#303240" stroke-width="1.5" stroke-linecap="round" stroke-linejoin="round"/>
<path d="M18.75 20.54C19.1642 20.54 19.5 20.2043 19.5 19.79C19.5 19.3758 19.1642 19.04 18.75 19.04C18.3358 19.04 18 19.3758 18 19.79C18 20.2043 18.3358 20.54 18.75 20.54Z" stroke="#303240" stroke-width="1.5" stroke-linecap="round" stroke-linejoin="round"/>
<path d="M2.25 4.04004H5.25L7.5 16.79H19.5" stroke="#303240" stroke-width="1.5" stroke-linecap="round" stroke-linejoin="round"/>
<path d="M7.5 13.79H19.1925C19.2792 13.7901 19.3633 13.7601 19.4304 13.7051C19.4975 13.6502 19.5434 13.5737 19.5605 13.4886L20.9105 6.73863C20.9214 6.6842 20.92 6.62804 20.9066 6.57418C20.8931 6.52033 20.8679 6.47013 20.8327 6.42721C20.7975 6.3843 20.7532 6.34973 20.703 6.32601C20.6528 6.30228 20.598 6.29 20.5425 6.29004H6" stroke="#303240" stroke-width="1.5" stroke-linecap="round" stroke-linejoin="round"/>
</svg>
