<svg width="32" height="32" viewBox="0 0 32 32" fill="none" xmlns="http://www.w3.org/2000/svg">
<path d="M16.0026 28.0007C15.6866 28.0023 15.3776 27.9074 15.1169 27.7287C14.8563 27.55 14.6563 27.296 14.5439 27.0007L12.0539 20.5257C12.0034 20.3952 11.9263 20.2767 11.8274 20.1778C11.7285 20.0789 11.61 20.0017 11.4795 19.9513L5.00263 17.4594C4.70759 17.3462 4.45383 17.1462 4.27483 16.8857C4.09582 16.6253 4 16.3167 4 16.0007C4 15.6847 4.09582 15.3761 4.27483 15.1156C4.45383 14.8552 4.70759 14.6552 5.00263 14.5419L11.4776 12.0519C11.6081 12.0015 11.7266 11.9243 11.8255 11.8254C11.9244 11.7265 12.0016 11.608 12.052 11.4776L14.5439 5.00068C14.6571 4.70564 14.8572 4.45188 15.1176 4.27287C15.378 4.09387 15.6866 3.99805 16.0026 3.99805C16.3186 3.99805 16.6272 4.09387 16.8877 4.27287C17.1481 4.45188 17.3481 4.70564 17.4614 5.00068L19.9514 11.4757C20.0018 11.6062 20.079 11.7246 20.1779 11.8236C20.2768 11.9225 20.3953 11.9996 20.5258 12.0501L26.9633 14.5269C27.2703 14.6407 27.5348 14.8464 27.7208 15.1159C27.9068 15.3854 28.0052 15.7057 28.0026 16.0332C27.9979 16.3437 27.9 16.6456 27.7217 16.8999C27.5434 17.1542 27.2929 17.3491 27.0026 17.4594L20.5276 19.9494C20.3972 19.9999 20.2787 20.077 20.1797 20.1759C20.0808 20.2748 20.0037 20.3933 19.9533 20.5238L17.4614 27.0007C17.3489 27.296 17.149 27.55 16.8883 27.7287C16.6277 27.9074 16.3187 28.0023 16.0026 28.0007Z" fill="white"/>
</svg>
