<svg width="24" height="24" viewBox="0 0 24 24" fill="none" xmlns="http://www.w3.org/2000/svg">
<path d="M21 21V11.25" stroke="white" stroke-width="1.5" stroke-linecap="round" stroke-linejoin="round"/>
<path d="M3 11.25V21" stroke="white" stroke-width="1.5" stroke-linecap="round" stroke-linejoin="round"/>
<path d="M17.9281 2.25H6.07157C5.05017 2.25 4.12767 2.8125 3.7311 3.67781L1.70142 8.10938C1.01798 9.60047 2.15282 11.2898 3.91345 11.3438C3.9447 11.3438 3.97595 11.3438 4.0072 11.3438C5.47907 11.3438 6.67204 10.1634 6.67204 8.89547C6.67204 10.1611 7.86548 11.3438 9.33735 11.3438C10.8092 11.3438 11.9999 10.2478 11.9999 8.89547C11.9999 10.1611 13.1928 11.3438 14.6647 11.3438C16.1366 11.3438 17.33 10.2478 17.33 8.89547C17.33 10.2478 18.523 11.3438 19.9949 11.3438C20.0261 11.3438 20.0566 11.3438 20.0863 11.3438C21.8469 11.2889 22.9817 9.59953 22.2983 8.10938L20.2686 3.67781C19.872 2.8125 18.9495 2.25 17.9281 2.25Z" stroke="white" stroke-width="1.5" stroke-linecap="round" stroke-linejoin="round"/>
<path d="M1.5 21.75H22.5" stroke="white" stroke-width="1.5" stroke-linecap="round" stroke-linejoin="round"/>
<path d="M6.375 13.5H10.125C10.4234 13.5 10.7095 13.6185 10.9205 13.8295C11.1315 14.0405 11.25 14.3266 11.25 14.625V18.75H5.25V14.625C5.25 14.3266 5.36853 14.0405 5.5795 13.8295C5.79048 13.6185 6.07663 13.5 6.375 13.5Z" stroke="white" stroke-width="1.5" stroke-linecap="round" stroke-linejoin="round"/>
<path d="M13.5 21.75V14.625C13.5 14.3266 13.6185 14.0405 13.8295 13.8295C14.0405 13.6185 14.3266 13.5 14.625 13.5H17.625C17.9234 13.5 18.2095 13.6185 18.4205 13.8295C18.6315 14.0405 18.75 14.3266 18.75 14.625V21.75" stroke="white" stroke-width="1.5" stroke-linecap="round" stroke-linejoin="round"/>
</svg>
