<svg width="24" height="25" viewBox="0 0 24 25" fill="none" xmlns="http://www.w3.org/2000/svg">
<path d="M19.2059 19.2606L22 22.0547M3 5.29004H20.8824M3 11.9959H7.47059M3 18.7018H7.47059M10.8235 15.3489C10.8235 16.5345 11.2945 17.6716 12.1329 18.51C12.9713 19.3484 14.1084 19.8195 15.2941 19.8195C16.4798 19.8195 17.6169 19.3484 18.4553 18.51C19.2937 17.6716 19.7647 16.5345 19.7647 15.3489C19.7647 14.1632 19.2937 13.0261 18.4553 12.1877C17.6169 11.3493 16.4798 10.8783 15.2941 10.8783C14.1084 10.8783 12.9713 11.3493 12.1329 12.1877C11.2945 13.0261 10.8235 14.1632 10.8235 15.3489Z" stroke="#303240" stroke-width="2" stroke-linecap="round" stroke-linejoin="round"/>
</svg>
