<svg width="23" height="30" viewBox="0 0 23 30" fill="none" xmlns="http://www.w3.org/2000/svg">
<path fill-rule="evenodd" clip-rule="evenodd" d="M0.186237 29.9998C3.95519 29.9995 7.72464 29.9995 11.4939 29.9995C13.3829 29.9995 15.2719 29.9996 17.161 29.9998C19.05 29.9999 20.939 30 22.828 30C22.8632 30 22.8982 30 22.9334 29.9983C22.975 29.996 22.9977 29.9737 22.9992 29.9325C23.0003 29.9025 23 29.8721 23 29.8421C22.9977 28.9104 22.995 27.9787 22.9924 27.0471C22.9913 26.5475 22.99 26.0477 22.9888 25.5479C22.988 25.2108 22.9872 24.8737 22.9864 24.5367C22.986 24.3047 22.9855 24.0728 22.9851 23.8409C22.9839 23.2101 22.9826 22.5794 22.9818 21.9486C22.9791 20.2537 22.9769 18.5584 22.975 16.8635C22.9743 16.285 22.9738 15.7066 22.9734 15.1281C22.9724 13.8216 22.9714 12.515 22.9675 11.2083C22.9663 10.8857 22.9463 10.5624 22.9236 10.24C22.8824 9.65842 22.7721 9.08768 22.6293 8.52206C22.4379 7.76316 22.1667 7.03269 21.8161 6.33132C21.0247 4.74874 19.9184 3.41754 18.4974 2.33987C17.2592 1.40074 15.8797 0.743558 14.3669 0.355649C13.7074 0.186446 13.0362 0.0778656 12.3562 0.0310689C11.3976 -0.0349686 10.4419 0.00109603 9.49538 0.169816C9.11244 0.238247 8.73393 0.335137 8.3568 0.431673L8.33084 0.438316C7.72267 0.593693 7.13912 0.818781 6.57251 1.08332C5.38029 1.63995 4.3159 2.37603 3.38139 3.29291C2.48538 4.1719 1.75452 5.16623 1.19322 6.28142C0.810948 7.041 0.510607 7.82949 0.324394 8.65684C0.236458 9.04736 0.156006 9.44088 0.099679 9.83701C0.0210975 10.3885 -0.000860712 10.9448 2.55455e-05 11.5019C0.000598018 11.8696 0.00145096 12.2373 0.00230392 12.6051C0.00365176 13.1863 0.00499962 13.7674 0.00524086 14.3484C0.00553627 19.5073 0.00553627 24.6662 0.00524086 29.8252C0.00524086 29.9137 0.00257374 29.9574 0.0233319 29.9789C0.0444023 30.0008 0.089608 29.9998 0.186237 29.9998ZM22.13 24.0333C22.1345 24.0344 22.1398 24.0356 22.1462 24.0369C22.1471 24.0471 22.1483 24.0575 22.1494 24.0682C22.1521 24.0928 22.155 24.1185 22.155 24.1444C22.1557 24.5839 22.1557 25.0234 22.1554 25.4628C22.1549 25.5983 22.1527 25.6008 22.0159 25.6008C21.1559 25.6012 20.2959 25.6012 19.4357 25.6008C19.4098 25.6008 19.3839 25.599 19.3533 25.5969C19.3384 25.5959 19.3224 25.5948 19.3047 25.5938C19.3076 25.5797 19.3097 25.5666 19.3116 25.5543C19.3155 25.5298 19.319 25.5085 19.3272 25.4892C19.4656 25.1768 19.578 24.8564 19.6585 24.5253C19.6793 24.4396 19.6943 24.4299 19.8006 24.4296C20.0823 24.4286 20.3643 24.4289 20.646 24.4292L20.7483 24.4293C21.2292 24.4304 21.6783 24.3254 22.0756 24.0476C22.0858 24.0402 22.0982 24.0343 22.1104 24.0309C22.1154 24.0297 22.1211 24.0311 22.13 24.0333ZM12.8972 8.86388C12.8899 8.88465 12.8825 8.90611 12.8749 8.92872C12.8424 8.90782 12.8105 8.88756 12.7791 8.86764C12.6914 8.81192 12.608 8.75893 12.5274 8.70238C12.5041 8.68575 12.4923 8.64911 12.4824 8.6182L12.4809 8.61343C12.3872 8.32714 12.294 8.04036 12.2025 7.75339C12.1226 7.5023 12.0433 7.25095 11.9639 6.99966C11.9059 6.8159 11.8479 6.63217 11.7897 6.4486C11.7546 6.33838 11.7192 6.22827 11.6837 6.11818C11.6466 6.00296 11.6096 5.88776 11.5729 5.77246C11.5662 5.75157 11.5619 5.72994 11.5566 5.70299C11.5538 5.68866 11.5507 5.67282 11.5468 5.65479C11.5775 5.65479 11.6069 5.65421 11.6353 5.65366C11.6939 5.6525 11.7483 5.65143 11.8025 5.65566C12.4096 5.70381 12.9981 5.82806 13.5559 6.075C13.6197 6.10328 13.6513 6.11711 13.6621 6.14039C13.6731 6.16422 13.6624 6.19795 13.6421 6.26721C13.5698 6.51276 13.4997 6.75902 13.4297 7.00499C13.4138 7.0611 13.3978 7.1172 13.3818 7.17327C13.3303 7.3545 13.2791 7.53573 13.228 7.71689C13.1892 7.85458 13.1503 7.99222 13.1113 8.1298C13.1024 8.16115 13.0936 8.1925 13.0847 8.22386C13.035 8.39957 12.9853 8.57539 12.9346 8.75072C12.9237 8.78806 12.9109 8.82474 12.8972 8.86388ZM8.69737 6.53709C8.68438 6.52278 8.67069 6.50771 8.6557 6.49172C9.25727 6.10642 9.88632 5.85397 10.5825 5.73379C10.8859 6.62582 11.1831 7.50104 11.4796 8.37664C11.4828 8.38601 11.4809 8.39703 11.4786 8.41077C11.4773 8.4183 11.4759 8.42666 11.4751 8.43601C11.4613 8.43777 11.4478 8.43932 11.4344 8.44086C11.4088 8.4438 11.3838 8.44668 11.3587 8.4508C11.3207 8.45701 11.2827 8.46286 11.2446 8.46871C11.14 8.4848 11.0353 8.50089 10.9322 8.52457C10.8544 8.54275 10.8011 8.53086 10.7449 8.47526C10.6601 8.39107 10.5724 8.30983 10.4848 8.22857C10.4415 8.18852 10.3983 8.14846 10.3554 8.10804C9.82664 7.60991 9.29785 7.11149 8.76974 6.61306C8.74529 6.58982 8.72264 6.5649 8.69737 6.53709ZM0.860087 29.1747V28.3183H5.4956C5.49799 28.3299 5.50077 28.3408 5.50342 28.3513C5.50874 28.3722 5.51356 28.3912 5.51382 28.41C5.51609 28.6299 5.51786 28.8498 5.51756 29.0698C5.51707 29.1642 5.5089 29.1702 5.41131 29.1747C5.39677 29.1752 5.38217 29.175 5.36748 29.1748C5.36009 29.1748 5.35268 29.1747 5.34524 29.1747H0.860087ZM17.9904 27.4888C17.9775 27.4875 17.9616 27.486 17.9406 27.4842C17.9564 27.4662 17.9696 27.4508 17.9811 27.4372C18.0021 27.4126 18.018 27.394 18.0353 27.3768C18.2971 27.1199 18.5335 26.842 18.7386 26.5401C18.7938 26.4588 18.8532 26.4281 18.9528 26.4285C19.5866 26.4313 20.2204 26.4311 20.854 26.4308C21.033 26.4308 21.2121 26.4307 21.3911 26.4307C21.4558 26.4307 21.5205 26.4306 21.5852 26.4305C21.7358 26.4302 21.8864 26.43 22.0371 26.4311C22.1497 26.4314 22.1546 26.437 22.1549 26.5501C22.156 26.822 22.156 27.0939 22.1549 27.3653C22.1546 27.485 22.1482 27.4917 22.0295 27.4917C21.004 27.4923 19.9786 27.4922 18.9532 27.4922C18.6475 27.4921 18.3418 27.4921 18.0361 27.4921C18.0234 27.4921 18.0107 27.4909 17.9904 27.4888ZM11.9238 9.38753C11.9275 9.37882 11.9323 9.36744 11.9381 9.35164C11.9633 9.36359 11.9879 9.37449 12.0119 9.38511C12.0624 9.40746 12.11 9.42853 12.1538 9.45548C12.5784 9.71547 12.771 10.1004 12.7718 10.5836C12.7731 11.2015 12.7729 11.8195 12.7727 12.4374C12.7726 12.6641 12.7726 12.8908 12.7726 13.1175V14.5587C12.6724 14.5965 12.1191 14.6065 11.9404 14.5784C11.937 14.5758 11.9337 14.5728 11.9306 14.5699C11.9279 14.5665 11.924 14.5631 11.9237 14.5594C11.9228 14.552 11.9217 14.5445 11.9207 14.537C11.9175 14.5147 11.9143 14.4923 11.9143 14.4701C11.9143 12.7852 11.9146 11.0999 11.9154 9.41467C11.9154 9.40762 11.9184 9.40052 11.9238 9.38753ZM13.7198 15.4147H14.7813C14.7862 15.4614 14.791 15.5067 14.7956 15.5511C14.8076 15.6647 14.8189 15.7721 14.8295 15.8798C14.8578 16.1764 14.9187 16.4679 15.0085 16.7517C15.1142 17.0863 15.2258 17.4194 15.3374 17.7524C15.3901 17.91 15.4429 18.0675 15.495 18.2251C15.6148 18.5864 15.6979 18.9558 15.7512 19.3315C15.7579 19.3786 15.7591 19.4261 15.7602 19.4735C15.7604 19.4844 15.7575 19.4952 15.7539 19.5087C15.7519 19.516 15.7497 19.524 15.7477 19.5333C15.7382 19.5344 15.7287 19.5356 15.7192 19.5369C15.6956 19.5401 15.672 19.5433 15.6481 19.5433C15.367 19.5444 15.0856 19.5444 14.8046 19.5436C14.6893 19.5433 14.6829 19.5388 14.6732 19.4324C14.6127 18.7759 14.4344 18.1474 14.2173 17.5265C14.0763 17.1238 13.9422 16.7181 13.8319 16.3066C13.7837 16.1275 13.7617 15.9416 13.7396 15.7558C13.7311 15.6842 13.7226 15.6126 13.7126 15.5415C13.7088 15.5142 13.7122 15.4857 13.7156 15.4564C13.7172 15.4427 13.7188 15.4288 13.7198 15.4147ZM17.8063 19.468C17.8055 19.4899 17.8046 19.5129 17.8046 19.5375H16.7346C16.729 19.4968 16.7232 19.4564 16.7175 19.4162C16.7049 19.3286 16.6925 19.242 16.6824 19.1551C16.6424 18.8072 16.5657 18.4666 16.4592 18.134C16.3791 17.8833 16.2948 17.6338 16.2106 17.3843C16.1309 17.1482 16.0511 16.9121 15.9749 16.6749C15.8589 16.3129 15.7778 15.9424 15.7558 15.5619C15.7541 15.5314 15.7545 15.5007 15.755 15.4676C15.7553 15.4512 15.7555 15.4343 15.7555 15.4165H16.8291C16.831 15.4309 16.8332 15.4446 16.8353 15.4578C16.8395 15.4847 16.8434 15.5096 16.8449 15.5344C16.8819 16.1542 17.0363 16.7487 17.2408 17.3329C17.2667 17.4072 17.293 17.4814 17.3193 17.5557C17.4568 17.9445 17.5944 18.3334 17.6898 18.7349C17.731 18.909 17.7603 19.0859 17.7896 19.2625C17.7941 19.2898 17.7986 19.317 17.8032 19.3442C17.8094 19.3831 17.8079 19.4232 17.8063 19.468ZM13.6599 10.7755L13.616 10.7514C13.616 10.7382 13.6159 10.7251 13.6159 10.7119C13.6157 10.6791 13.6155 10.6463 13.6164 10.6134C13.6209 10.3965 13.5926 10.1843 13.5375 9.9744C13.5284 9.93949 13.5311 9.89724 13.542 9.86244C13.6636 9.48065 13.7859 9.09924 13.9083 8.7178C14.0016 8.427 14.095 8.13617 14.1879 7.84515C14.2651 7.60373 14.3411 7.36197 14.4186 7.11547C14.4647 6.96856 14.5115 6.81996 14.5593 6.66875C14.5763 6.67873 14.5928 6.68762 14.6087 6.69615C14.64 6.71299 14.6687 6.72843 14.6938 6.74813C15.0005 6.98802 15.2808 7.25545 15.5191 7.56108C15.638 7.7132 15.7459 7.87364 15.8538 8.03405C15.8764 8.06767 15.899 8.10128 15.9217 8.13482C15.9833 8.22635 15.9796 8.23041 15.9061 8.31063L15.9051 8.31176L14.5204 9.81825C14.2589 10.1031 13.998 10.3882 13.7373 10.6742C13.7171 10.6961 13.6997 10.7204 13.6822 10.7448C13.6748 10.7551 13.6675 10.7653 13.6599 10.7755ZM0.90744 27.4873C0.892704 27.486 0.876576 27.4845 0.858315 27.4832V26.441C0.873506 26.4398 0.887949 26.4382 0.901903 26.4367C0.928471 26.4338 0.953262 26.4311 0.978055 26.4311C2.42998 26.4307 3.88152 26.4307 5.33354 26.4307H5.37891C5.51067 26.4307 5.51382 26.4341 5.51412 26.5594C5.51491 26.8268 5.5153 27.0942 5.51412 27.3616C5.51372 27.485 5.50614 27.4917 5.37852 27.4917C3.91147 27.4921 2.44472 27.4921 0.977566 27.4917C0.955818 27.4917 0.933867 27.4897 0.90744 27.4873ZM2.53041 17.9503C2.53451 17.9448 2.53996 17.9377 2.54673 17.9275C2.5836 17.9549 2.61973 17.9816 2.65536 18.0079C2.71577 18.0524 2.77473 18.0959 2.83339 18.14C3.03173 18.2895 3.22999 18.439 3.42823 18.5885C4.08255 19.082 4.7367 19.5753 5.39299 20.066C5.4828 20.1332 5.51914 20.204 5.51717 20.3149C5.51252 20.5781 5.51328 20.8413 5.51404 21.1046C5.51433 21.2035 5.51461 21.3023 5.51461 21.4012C5.51461 21.4084 5.51473 21.4156 5.51485 21.4229C5.51515 21.4413 5.51545 21.46 5.51382 21.4786C5.50772 21.5551 5.49038 21.5718 5.41446 21.5544C5.36698 21.5436 5.31926 21.5334 5.27153 21.5233C5.13053 21.4933 4.98948 21.4634 4.85425 21.4168C3.98395 21.1179 3.32861 20.5679 2.89986 19.7649C2.64944 19.2957 2.52379 18.7939 2.51808 18.2639C2.51745 18.1851 2.51875 18.1065 2.52006 18.0278C2.52039 18.0075 2.52073 17.9872 2.52103 17.9669C2.52103 17.9626 2.52418 17.9585 2.53041 17.9503ZM19.86 23.7132C19.8518 23.7115 19.8445 23.71 19.8383 23.7091C19.8409 23.5967 19.8441 23.4854 19.8473 23.375C19.8542 23.1403 19.8609 22.9093 19.8609 22.6784C19.8607 22.3646 19.8552 22.0507 19.8496 21.737C19.8469 21.5855 19.8442 21.4339 19.8421 21.2825C19.8416 21.247 19.8417 21.2118 19.8417 21.1735C19.8417 21.1617 19.8417 21.1496 19.8417 21.1371C19.8584 21.1353 19.8732 21.1335 19.8867 21.1317C19.9138 21.1283 19.9361 21.1255 19.9584 21.1255C20.0592 21.1253 20.16 21.1259 20.2608 21.1266C20.4543 21.1277 20.6477 21.1289 20.8408 21.1241C21.4143 21.1096 22.008 21.5157 22.1259 22.1884C22.2599 22.9525 21.7546 23.5886 21.0445 23.7116C21.0101 23.7175 20.9746 23.7198 20.9394 23.7198C20.6014 23.7214 20.2633 23.7221 19.9252 23.7217C19.902 23.7217 19.8788 23.717 19.86 23.7132ZM8.87638 19.9863C8.29421 20.8879 7.45916 21.4068 6.36591 21.5744C6.36447 21.553 6.36294 21.5341 6.36154 21.5169C6.35879 21.4832 6.35656 21.4557 6.35656 21.428C6.35643 21.3062 6.3565 21.1844 6.35658 21.0625C6.35674 20.8005 6.35689 20.5384 6.35508 20.2763C6.35459 20.2014 6.37615 20.1496 6.44006 20.1016C7.21146 19.5203 7.98175 18.9371 8.752 18.354C8.92754 18.2211 9.10309 18.0882 9.27864 17.9554C9.29352 17.9442 9.30887 17.9338 9.32448 17.9232C9.33377 17.9168 9.34316 17.9105 9.3526 17.9038C9.51321 18.2488 9.24949 19.4085 8.87638 19.9863ZM11.9213 15.4698C11.9229 15.4527 11.9246 15.4351 11.9261 15.4167H12.7279C12.7302 15.4237 12.7329 15.4305 12.7355 15.4371C12.7412 15.451 12.7465 15.4643 12.7471 15.4779C12.766 15.88 12.8256 16.276 12.9383 16.6625C12.9996 16.8729 13.0679 17.0811 13.1362 17.2894C13.174 17.4046 13.2118 17.5198 13.2484 17.6353C13.2783 17.7296 13.3087 17.8237 13.3391 17.9177C13.4307 18.201 13.5221 18.4841 13.6012 18.7705C13.6435 18.9236 13.666 19.0823 13.6885 19.2407C13.697 19.3002 13.7055 19.3597 13.715 19.4189C13.7188 19.4433 13.7162 19.4688 13.7134 19.4959C13.7121 19.5088 13.7108 19.522 13.71 19.5357C13.6939 19.5369 13.6794 19.5382 13.6657 19.5395C13.6402 19.5419 13.6181 19.5439 13.5959 19.5439C13.0863 19.5442 12.5768 19.5442 12.0672 19.5442C12.0409 19.5442 12.0148 19.5439 11.9883 19.5432C11.9396 19.542 11.9176 19.5134 11.9151 19.4689C11.9135 19.4433 11.9135 19.4177 11.9136 19.3919C11.9136 19.3874 11.9136 19.3829 11.9136 19.3784C11.9136 18.1104 11.9136 16.8423 11.9144 15.5743C11.9144 15.5403 11.9177 15.5062 11.9213 15.4698ZM5.51907 10.4885C5.51695 10.5064 5.51453 10.527 5.51195 10.5515C5.49341 10.5377 5.47784 10.5264 5.46436 10.5167C5.43968 10.4988 5.42205 10.4861 5.40619 10.4718C4.64667 9.78035 3.88695 9.08874 3.12782 8.39665C3.03515 8.3122 3.0356 8.31101 3.07986 8.19466L3.08243 8.18791C3.42088 7.29664 3.90093 6.48524 4.50763 5.74491C4.54247 5.7021 4.57957 5.66083 4.62175 5.61392C4.64131 5.59216 4.66196 5.56919 4.68399 5.54428C4.6939 5.57628 4.70326 5.60526 4.712 5.63232C4.72827 5.68268 4.74238 5.72638 4.75391 5.77053C4.86794 6.20814 4.98118 6.64574 5.09383 7.08374C5.19587 7.48044 5.29754 7.87724 5.39923 8.27409C5.46536 8.53216 5.53149 8.79024 5.59772 9.04833C5.60639 9.0813 5.61584 9.11475 5.62864 9.14705C5.68497 9.29005 5.66104 9.43285 5.62893 9.57605C5.56709 9.85054 5.53765 10.1283 5.52662 10.4087C5.52568 10.4325 5.52286 10.4564 5.51907 10.4885ZM8.46991 2.9864C8.48186 2.984 8.49578 2.98119 8.51262 2.97742C8.39997 3.30007 8.29657 3.59661 8.19347 3.89286C8.02311 4.38142 7.85315 4.86979 7.68318 5.35825C7.64897 5.45651 7.6148 5.55479 7.58064 5.65307C7.48315 5.93352 7.38566 6.21398 7.28693 6.49385C7.27551 6.52537 7.25591 6.55689 7.23208 6.58096C6.86753 6.94557 6.55596 7.34934 6.29836 7.79226C6.24488 7.78993 6.23657 7.75378 6.22914 7.72147C6.22826 7.71766 6.22739 7.71391 6.22647 7.71027C6.18077 7.53018 6.13581 7.34975 6.09085 7.16933C6.05037 7.00685 6.00988 6.84438 5.96887 6.68219C5.92085 6.49251 5.87176 6.3034 5.82265 6.11424C5.79924 6.02407 5.77582 5.93389 5.75252 5.84362C5.72532 5.73826 5.6983 5.63283 5.67128 5.5274C5.61163 5.29469 5.55199 5.06198 5.49038 4.82995C5.47148 4.75908 5.50023 4.71799 5.55046 4.67458C6.10683 4.19356 6.71273 3.78409 7.37073 3.44955C7.70948 3.27706 8.05827 3.12545 8.41779 2.99927C8.43249 2.99394 8.44784 2.99085 8.46991 2.9864ZM8.68496 5.50814C8.67676 5.50962 8.66722 5.51133 8.6558 5.51382C8.65799 5.50125 8.65961 5.48973 8.66111 5.47903C8.66422 5.45696 8.66683 5.43835 8.67293 5.4211C8.92562 4.69759 9.17909 3.97437 9.43325 3.25105C9.45796 3.18036 9.48342 3.10997 9.50887 3.03962C9.54496 2.93983 9.58102 2.8401 9.61493 2.73967C9.63501 2.67953 9.66633 2.64907 9.73211 2.6365C10.4721 2.49631 11.2166 2.43771 11.9705 2.4819C12.3347 2.50298 12.6951 2.54455 13.0551 2.6016C13.0691 2.64631 13.0418 2.66883 13.0156 2.69038C13.0089 2.69586 13.0023 2.70128 12.9965 2.70699C12.6976 2.9985 12.3982 3.28963 12.0978 3.57969C11.9379 3.7342 11.7777 3.88845 11.6174 4.04269C11.3577 4.29276 11.098 4.54282 10.8393 4.79399C10.7797 4.85151 10.7165 4.88255 10.633 4.89299C10.2577 4.93824 9.89006 5.02246 9.53694 5.15376C9.34839 5.22383 9.16401 5.30501 8.97953 5.38624C8.89241 5.4246 8.80526 5.46297 8.71764 5.50019C8.7087 5.50388 8.69869 5.50568 8.68496 5.50814ZM22.1463 29.1521C22.0459 29.1792 12.1033 29.1874 11.9217 29.1603V28.3144C11.937 28.3199 11.9514 28.3246 11.965 28.329C11.9911 28.3375 12.0143 28.345 12.0354 28.3558C12.4527 28.572 12.8939 28.7259 13.3562 28.8154C13.814 28.9036 14.2757 28.9373 14.7444 28.8987C15.4315 28.8421 16.0778 28.6581 16.69 28.3506C16.7384 28.3261 16.798 28.3117 16.8524 28.3117C18.5778 28.3095 20.3038 28.3095 22.0292 28.3098C22.15 28.3098 22.1546 28.3146 22.1554 28.434C22.1562 28.6455 22.1558 28.8565 22.155 29.0679C22.155 29.0885 22.1521 29.1092 22.1494 29.1289C22.1482 29.1368 22.1472 29.1446 22.1463 29.1521ZM13.6374 3.42747C13.8287 3.24414 14.0199 3.06087 14.2111 2.87764C15.3484 3.23887 16.354 3.78341 17.27 4.53593C17.2493 4.54446 17.2302 4.55269 17.2122 4.56048C17.1737 4.57705 17.1398 4.59165 17.1049 4.60303C16.5273 4.79041 15.9494 4.97692 15.3711 5.16275C15.2648 5.19676 15.1583 5.23015 15.0518 5.26355C14.8333 5.33205 14.6147 5.4006 14.3981 5.47457C14.3175 5.50203 14.2579 5.48907 14.1872 5.45823C14.1505 5.44227 14.1138 5.42623 14.0771 5.41019C13.8861 5.32672 13.695 5.24317 13.4998 5.1701C13.1134 5.02623 12.713 4.93351 12.3027 4.88458C12.2757 4.88135 12.2489 4.87597 12.2201 4.87018C12.2084 4.86783 12.1964 4.8654 12.1838 4.86302C12.1857 4.85486 12.1868 4.84696 12.1878 4.83973C12.1897 4.82589 12.1913 4.81445 12.1978 4.8081C12.6774 4.34744 13.1576 3.88728 13.6374 3.42747ZM6.52839 9.39544C6.76443 8.52979 7.20903 7.78037 7.8625 7.12937L9.98656 9.05655C9.97587 9.06933 9.96632 9.08027 9.95767 9.09016C9.94252 9.10751 9.93016 9.12166 9.91931 9.13699C9.88962 9.17875 9.85936 9.22019 9.82909 9.26163C9.74961 9.37046 9.67009 9.47935 9.60085 9.59432C9.55476 9.67032 9.50563 9.71963 9.42064 9.74602C9.17575 9.82197 8.93149 9.89976 8.68734 9.97752C8.56099 10.0178 8.43466 10.058 8.30829 10.098C7.92149 10.2202 7.53469 10.3421 7.14788 10.4641C7.05118 10.4946 6.95448 10.5251 6.85778 10.5556C6.76438 10.5848 6.67085 10.6138 6.57337 10.644C6.50651 10.6647 6.4378 10.686 6.36601 10.7084C6.341 10.2492 6.41288 9.81902 6.52839 9.39544ZM6.37133 11.6827L9.37456 10.7306C9.3761 10.7538 9.3778 10.7742 9.37935 10.7927C9.38197 10.824 9.38416 10.8501 9.3844 10.8761C9.38449 11.0118 9.38437 11.1475 9.38426 11.2831C9.38398 11.6303 9.38369 11.9775 9.38667 12.3248C9.38745 12.4122 9.35644 12.4675 9.28849 12.5202C8.6403 13.0202 7.99388 13.5221 7.34745 14.024C7.24683 14.1022 7.1462 14.1803 7.04557 14.2584C6.9753 14.3128 6.90506 14.3673 6.83483 14.4218C6.71219 14.5169 6.58957 14.612 6.46684 14.7068C6.44767 14.7216 6.42751 14.7351 6.40629 14.7493C6.3983 14.7546 6.39016 14.7601 6.38186 14.7657C6.35163 14.6693 6.34218 11.8629 6.37133 11.6827ZM2.51621 13.691L2.54978 13.681C2.59761 13.718 2.64544 13.755 2.69329 13.7919C2.85183 13.9145 3.01042 14.037 3.16859 14.1601C3.31939 14.2775 3.47015 14.3949 3.62089 14.5123C4.21623 14.9759 4.81143 15.4394 5.40846 15.9007C5.48507 15.96 5.51717 16.0212 5.51687 16.1176C5.51453 16.7272 5.51451 17.3369 5.51449 17.9466C5.51448 18.2335 5.51447 18.5204 5.51421 18.8073C5.51421 18.838 5.51212 18.869 5.50948 18.908C5.50824 18.9264 5.50687 18.9466 5.50555 18.9693C5.48624 18.9571 5.46964 18.947 5.45494 18.9381C5.42899 18.9223 5.40894 18.9102 5.39034 18.8962L3.81516 17.7057C3.70504 17.6224 3.59503 17.539 3.48503 17.4555C3.19921 17.2387 2.91339 17.0219 2.62541 16.8082C2.54791 16.7506 2.51473 16.6924 2.51502 16.5941C2.51796 15.8849 2.51733 15.1755 2.51669 14.4659C2.51649 14.2486 2.5163 14.0313 2.51621 13.814V13.691ZM6.40777 18.9454C6.39654 18.9524 6.38394 18.9603 6.36936 18.9697C6.36741 18.9504 6.36513 18.9332 6.36303 18.9174C6.35949 18.8907 6.35646 18.8679 6.35646 18.8451C6.35632 18.5356 6.35624 18.2262 6.35615 17.9169C6.35598 17.2996 6.3558 16.6824 6.35528 16.065C6.35528 16.0019 6.36729 15.9553 6.42558 15.9111C6.90229 15.5517 7.37634 15.189 7.84881 14.8244C8.14933 14.5921 8.44876 14.3584 8.74819 14.1246C8.93306 13.9803 9.11793 13.836 9.30306 13.692C9.31321 13.6842 9.32476 13.6782 9.34087 13.6698C9.34994 13.6651 9.36046 13.6596 9.37298 13.6527C9.37454 13.669 9.37622 13.6837 9.37777 13.6974C9.38111 13.7269 9.38391 13.7515 9.38391 13.7762C9.38418 14.0935 9.38423 14.4108 9.38428 14.7282C9.38438 15.3461 9.38449 15.964 9.38618 16.582C9.38618 16.6677 9.35978 16.7237 9.28878 16.7767C8.64499 17.2602 8.00257 17.7458 7.36008 18.2314C7.17855 18.3686 6.99701 18.5058 6.81544 18.643L6.79154 18.6611C6.68125 18.7444 6.57101 18.8277 6.46035 18.9103C6.44505 18.922 6.42884 18.9322 6.40777 18.9454ZM2.73616 9.35083C2.74048 9.34751 2.74693 9.34257 2.75638 9.33462C2.7661 9.34194 2.77594 9.34899 2.78572 9.35599C2.80707 9.37127 2.82814 9.38635 2.84698 9.40365C3.15906 9.68845 3.47102 9.97334 3.78298 10.2582C4.33309 10.7606 4.88317 11.2629 5.43377 11.7647C5.4897 11.8154 5.51609 11.8688 5.51569 11.9445C5.51482 12.4763 5.51474 13.0079 5.51465 13.5396C5.5146 13.9093 5.51454 14.2791 5.51421 14.6488C5.51421 14.6702 5.51116 14.6914 5.50726 14.7186C5.50518 14.7331 5.50285 14.7492 5.50063 14.768C5.48283 14.7563 5.46704 14.7466 5.45271 14.7377C5.42936 14.7233 5.40987 14.7112 5.39181 14.6974C4.86828 14.2902 4.34508 13.8825 3.82184 13.4749L3.66785 13.3549C3.57232 13.2805 3.4769 13.2059 3.38149 13.1314C3.12645 12.9322 2.87144 12.733 2.61438 12.5359C2.54634 12.484 2.51315 12.4314 2.51394 12.3431C2.51616 12.1604 2.51562 11.9775 2.51507 11.7946C2.51441 11.572 2.51375 11.3493 2.51808 11.1267C2.52822 10.5785 2.57667 10.0337 2.69936 9.49705C2.70551 9.4702 2.71089 9.44322 2.71625 9.41629C2.72009 9.39705 2.72391 9.37783 2.72802 9.35869C2.72841 9.35677 2.73043 9.35522 2.73616 9.35083ZM20.281 9.4983C20.2801 9.50768 20.2791 9.51903 20.2784 9.53331C20.2054 9.50133 20.1348 9.47051 20.0657 9.44037C19.9396 9.38531 19.8186 9.33251 19.6981 9.27902C19.4001 9.14696 19.1021 9.01477 18.8042 8.88258C18.1759 8.60385 17.5475 8.3251 16.9191 8.04742C16.839 8.01223 16.7842 7.96175 16.7426 7.88576C16.4016 7.26406 15.9543 6.7259 15.4134 6.26228C15.3923 6.24429 15.3724 6.22488 15.3505 6.20349C15.3426 6.1958 15.3344 6.18785 15.3259 6.17961C15.3339 6.17277 15.3405 6.16636 15.3462 6.16074C15.3563 6.15082 15.364 6.14335 15.3731 6.14026C15.6184 6.06201 15.8637 5.98418 16.109 5.90635C16.3848 5.81887 16.6605 5.73139 16.9362 5.64329C17.1519 5.57424 17.3672 5.50395 17.5826 5.43365C17.6914 5.39813 17.8003 5.36259 17.9092 5.32722C17.9194 5.32386 17.93 5.32164 17.9406 5.31942C17.9559 5.31621 17.9711 5.31301 17.9848 5.30643C18.0496 5.27501 18.0917 5.30246 18.1313 5.351C18.2095 5.44715 18.2891 5.54218 18.3688 5.63721C18.5374 5.83833 18.7059 6.03937 18.8604 6.25068C19.2811 6.82664 19.6113 7.45298 19.8716 8.11471C20.0446 8.55319 20.1722 9.00443 20.281 9.46137C20.2834 9.47115 20.2825 9.48163 20.281 9.4983ZM17.8053 15.4621C17.8055 15.4457 17.8057 15.428 17.8057 15.4084L21.9935 15.4083C22.0024 15.4083 22.0116 15.4077 22.0208 15.407C22.0433 15.4054 22.066 15.4038 22.0845 15.4117C22.1116 15.4231 22.1385 15.4495 22.1505 15.4758C22.1589 15.4942 22.1575 15.5171 22.1562 15.5399C22.1557 15.5484 22.1552 15.5569 22.1552 15.5652V20.7148C22.1552 20.7389 22.1537 20.763 22.1519 20.7914C22.1508 20.8076 22.1497 20.8252 22.1488 20.8451C22.1358 20.8395 22.124 20.8351 22.1132 20.831C22.093 20.8234 22.0763 20.8171 22.0622 20.8073C21.7003 20.5564 21.2999 20.4234 20.8557 20.4237L19.8661 20.4234C19.8352 20.3537 19.8382 20.2854 19.8411 20.2186C19.8423 20.1914 19.8434 20.1645 19.8423 20.1378C19.8397 20.0691 19.8404 20.0002 19.841 19.9314C19.8413 19.901 19.8415 19.8707 19.8415 19.8404V19.5474H18.7907C18.7876 19.5305 18.7844 19.5148 18.7813 19.4998C18.7751 19.4694 18.7695 19.4422 18.767 19.4147C18.7129 18.819 18.5592 18.2455 18.367 17.6804C18.3489 17.6273 18.3308 17.5743 18.3126 17.5212C18.1915 17.1667 18.0702 16.8119 17.9621 16.4535C17.8734 16.1602 17.8217 15.8575 17.8061 15.5508C17.8047 15.5228 17.805 15.495 17.8053 15.4621ZM9.69823 23.965C10.2225 23.6746 10.8975 23.4206 11.0755 23.4402V29.1488C10.9768 29.1811 6.50948 29.187 6.36168 29.1524C6.41849 28.3357 6.61436 27.5535 6.97674 26.8126C7.57841 25.5824 8.48879 24.6348 9.69823 23.965ZM6.3955 26.1022C6.38893 26.1068 6.37988 26.1131 6.36738 26.1227C6.36568 26.1048 6.36378 26.0887 6.36203 26.0738C6.35869 26.0456 6.35587 26.0216 6.35587 25.9976C6.35546 25.0364 6.35573 24.0757 6.356 23.1148C6.35606 22.9241 6.35611 22.7333 6.35616 22.5425L6.35587 22.5165C6.3588 22.4058 6.36252 22.4052 6.4707 22.387L6.47255 22.3866C6.50794 22.3807 6.54337 22.375 6.5788 22.3692C6.72081 22.3461 6.8628 22.323 7.00214 22.2895C7.76659 22.1052 8.42271 21.7314 8.97909 21.1865C9.44408 20.7317 9.78056 20.1966 9.9971 19.5895C10.1671 19.1128 10.2286 18.6187 10.2283 18.1152C10.2277 16.8469 10.2277 15.5787 10.2277 14.3105C10.2277 13.0423 10.2277 11.774 10.2271 10.5058C10.2271 9.97507 10.5123 9.62864 10.9656 9.38876C10.982 9.38007 11.0015 9.37672 11.0264 9.37244C11.0397 9.37015 11.0546 9.3676 11.0713 9.36382C11.0729 9.38281 11.0747 9.40094 11.0766 9.41848C11.0801 9.453 11.0835 9.48527 11.0835 9.51745C11.084 10.1719 11.0839 10.8263 11.0838 11.4806C11.0838 11.7192 11.0837 11.9577 11.0837 12.1963V22.3546C11.0837 22.365 11.0837 22.3754 11.0836 22.3857C11.0833 22.41 11.0831 22.4342 11.0841 22.4585C11.0864 22.5248 11.055 22.5579 10.9885 22.5753C9.35752 23.0011 8.03128 23.8771 7.00204 25.1874C6.7795 25.4707 6.57704 25.7681 6.4116 26.0882C6.40954 26.0924 6.40524 26.0954 6.3955 26.1022ZM16.3841 9.33277C16.3956 9.32251 16.4077 9.31171 16.4206 9.3C16.4803 9.4191 16.5037 9.53807 16.5268 9.65523C16.5317 9.68036 16.5366 9.70541 16.5419 9.73036C16.6458 10.2234 16.6461 10.7236 16.6458 11.224C16.6454 11.7888 16.6451 12.3537 16.6466 12.9185C16.6466 12.9738 16.6523 13.0305 16.667 13.0836C16.7285 13.305 16.9318 13.3878 17.0817 13.3781C17.268 13.3667 17.4432 13.2583 17.4779 13.0288C17.485 12.9824 17.487 12.9346 17.487 12.8875C17.4872 12.724 17.4878 12.5606 17.4884 12.3972C17.49 11.9525 17.4916 11.5079 17.4855 11.0632C17.4853 11.0463 17.485 11.0294 17.4848 11.0125C17.4794 10.6072 17.474 10.2008 17.4073 9.79949C17.3863 9.67309 17.3576 9.5478 17.329 9.42254C17.3154 9.36307 17.3018 9.3036 17.289 9.24402C17.2854 9.22697 17.2828 9.20967 17.2797 9.1885C17.2777 9.17462 17.2754 9.15908 17.2724 9.14086C17.2853 9.14571 17.297 9.15003 17.3078 9.15401C17.3357 9.16431 17.3577 9.17242 17.3789 9.18204C17.6271 9.29413 17.8753 9.40634 18.1234 9.51856C18.8581 9.85075 19.5929 10.183 20.329 10.5124C20.4157 10.5512 20.4461 10.5999 20.4472 10.6881C20.4487 10.7915 20.4529 10.895 20.4571 10.9984C20.4622 11.1233 20.4672 11.2481 20.4676 11.3728C20.4693 12.13 20.4691 12.8874 20.4689 13.6447C20.4688 13.9051 20.4687 14.1655 20.4687 14.4259V14.5735C20.4539 14.5759 20.4404 14.5785 20.4277 14.581C20.4012 14.5861 20.3785 14.5905 20.3558 14.5905C18.6336 14.5911 16.9112 14.591 15.1831 14.591C14.661 14.5909 14.1383 14.5909 13.6149 14.5909V14.4318C13.6149 14.2532 13.615 14.0747 13.6151 13.8962C13.6154 13.3416 13.6158 12.7872 13.6129 12.2325C13.6126 12.1391 13.639 12.0715 13.7062 12.0048C14.262 11.4529 14.8159 10.8989 15.3697 10.345C15.4743 10.2404 15.5788 10.1359 15.6833 10.0313C15.7895 9.92511 15.8953 9.81863 16.0012 9.71215C16.1071 9.60572 16.2129 9.4993 16.319 9.39311C16.3389 9.37313 16.3602 9.35412 16.3841 9.33277ZM18.9997 20.3186C19.0178 20.32 19.0367 20.3214 19.0567 20.3226C19.0575 20.3363 19.0584 20.3493 19.0592 20.3617C19.0615 20.3976 19.0635 20.4288 19.0637 20.4599C19.0637 20.7171 19.0636 20.9744 19.0634 21.2316C19.0631 21.9188 19.0627 22.606 19.0649 23.293C19.0656 23.5585 19.0184 23.817 18.9622 24.0733C18.8231 24.709 18.5894 25.3103 18.2483 25.8691C17.8312 26.5522 17.2964 27.1261 16.6048 27.551C16.1269 27.8444 15.6114 28.0387 15.0539 28.127C14.5455 28.2078 14.0378 28.2041 13.5343 28.1077C13.0001 28.0053 12.5034 27.8046 12.0408 27.5213C11.9479 27.4642 11.9111 27.4031 11.9111 27.294C11.9142 26.0117 11.914 24.7291 11.9139 23.4467C11.9138 23.1465 11.9138 22.8462 11.9138 22.546V20.4891C11.9138 20.4801 11.9139 20.4711 11.9139 20.4621C11.9141 20.4409 11.9142 20.4197 11.9135 20.3986C11.9111 20.3377 11.9425 20.3125 12.0015 20.3136C12.0179 20.3139 12.0343 20.3137 12.0507 20.3135C12.0608 20.3134 12.0708 20.3133 12.0808 20.3133C12.8376 20.3133 13.5945 20.3132 14.3513 20.3132C15.8651 20.3131 17.3788 20.313 18.8928 20.3133C18.9275 20.3133 18.962 20.3158 18.9997 20.3186ZM22.1379 14.4163V14.584L21.3162 14.5842C21.3153 14.566 21.3143 14.5485 21.3133 14.5313C21.3109 14.4911 21.3087 14.4531 21.3087 14.415C21.3084 14.0621 21.3087 13.7093 21.309 13.3564C21.3096 12.5792 21.3103 11.802 21.3049 11.0248C21.3031 10.7153 21.2758 10.4046 21.2361 10.0972C21.1953 9.77754 21.1319 9.45963 21.0662 9.14327C20.9626 8.64446 20.802 8.16161 20.609 7.68987C20.2935 6.9184 19.8838 6.19895 19.3772 5.53249C18.6823 4.61782 17.8505 3.84606 16.8805 3.2174C16.1704 2.75707 15.4101 2.39633 14.6036 2.13189C14.1167 1.97197 13.6188 1.85227 13.1112 1.77096C12.3492 1.64933 11.5843 1.6063 10.8138 1.66122C10.2262 1.70308 9.64467 1.78875 9.07402 1.93233C7.88899 2.22984 6.79476 2.72304 5.79949 3.42219C4.58729 4.27371 3.61733 5.33853 2.89395 6.61838C2.51995 7.27962 2.23251 7.97577 2.0263 8.70489C1.86963 9.25862 1.75964 9.82124 1.71316 10.3931C1.68224 10.7792 1.678 11.1683 1.67534 11.5562C1.67152 12.1129 1.67235 12.6696 1.67318 13.2263C1.67349 13.4288 1.67379 13.6313 1.67387 13.8338C1.67422 14.2698 1.67474 14.7058 1.67525 15.1418C1.67645 16.1595 1.67765 17.177 1.67682 18.1946C1.67574 19.1981 1.99075 20.0934 2.63289 20.8712C3.14466 21.4909 3.78798 21.9345 4.5608 22.1926C4.832 22.2831 5.10772 22.3498 5.39221 22.3832C5.50398 22.3965 5.51412 22.4073 5.51412 22.5234C5.51491 23.507 5.51491 24.4905 5.51412 25.4741C5.51412 25.5983 5.50959 25.6008 5.36227 25.6008C4.22182 25.6012 3.08108 25.6012 1.94062 25.6012H1.92271C1.77559 25.6012 1.62837 25.6011 1.48116 25.601C1.33394 25.6009 1.18672 25.6008 1.0396 25.6008C1.02139 25.6008 1.00494 25.601 0.990066 25.6012C0.85132 25.6029 0.850437 25.6029 0.850437 25.4214C0.850942 24.1428 0.850866 22.8642 0.850789 21.5855C0.850761 21.1215 0.850733 20.6574 0.850733 20.1934C0.850733 19.6845 0.850821 19.1756 0.850908 18.6666C0.851083 17.6487 0.851258 16.6306 0.850733 15.6123C0.850229 14.9723 0.849299 14.3323 0.848369 13.6923C0.8473 12.9564 0.84623 12.2204 0.845809 11.4845C0.845514 11.0016 0.852209 10.518 0.917989 10.0384C0.963779 9.7058 1.0273 9.37542 1.09406 9.04601C1.21981 8.42334 1.42227 7.82397 1.6719 7.23872C2.14821 6.12315 2.80444 5.12069 3.63496 4.22798C4.68094 3.10331 5.92071 2.24589 7.34473 1.64623C7.93399 1.39813 8.54394 1.20775 9.17022 1.07239C9.66318 0.965939 10.1612 0.881338 10.6668 0.859487C11.0571 0.84247 11.448 0.825452 11.8382 0.830577C12.2816 0.836861 12.7224 0.885495 13.1616 0.95337C13.5696 1.01641 13.9728 1.10053 14.3693 1.20998C15.0334 1.39281 15.674 1.63724 16.2892 1.94403C17.6238 2.60904 18.766 3.50988 19.7172 4.64286C20.4998 5.57522 21.0989 6.61152 21.5148 7.75011C21.6632 8.15619 21.789 8.56818 21.8815 8.98915C21.9517 9.30861 22.0012 9.6327 22.05 9.95651C22.133 10.5083 22.141 11.0643 22.1387 11.6214C22.1363 12.2702 22.1369 12.9189 22.1374 13.5677C22.1377 13.8506 22.1379 14.1334 22.1379 14.4163Z" fill="white"/>
</svg>
