<svg width="24" height="24" viewBox="0 0 24 24" fill="none" xmlns="http://www.w3.org/2000/svg">
<path d="M12.75 6C12.75 5.58579 12.4142 5.25 12 5.25C11.5858 5.25 11.25 5.58579 11.25 6H12.75ZM12 12.75H11.25C11.25 13.1642 11.5858 13.5 12 13.5V12.75ZM16.5 13.5C16.9142 13.5 17.25 13.1642 17.25 12.75C17.25 12.3358 16.9142 12 16.5 12V13.5ZM12 2.25C6.61704 2.25 2.25 6.61704 2.25 12H3.75C3.75 7.44546 7.44546 3.75 12 3.75V2.25ZM2.25 12C2.25 17.383 6.61704 21.75 12 21.75V20.25C7.44546 20.25 3.75 16.5545 3.75 12H2.25ZM12 21.75C17.383 21.75 21.75 17.383 21.75 12H20.25C20.25 16.5545 16.5545 20.25 12 20.25V21.75ZM21.75 12C21.75 6.61704 17.383 2.25 12 2.25V3.75C16.5545 3.75 20.25 7.44546 20.25 12H21.75ZM11.25 6V12.75H12.75V6H11.25ZM12 13.5H16.5V12H12V13.5Z" fill="white"/>
</svg>
