<svg width="16" height="22" viewBox="0 0 16 22" fill="none" xmlns="http://www.w3.org/2000/svg">
<path fill-rule="evenodd" clip-rule="evenodd" d="M0.129556 21.9999C2.75144 21.9996 5.37366 21.9996 7.99575 21.9996C9.30984 21.9996 10.624 21.9997 11.9381 21.9998C13.2522 21.9999 14.5663 22 15.8804 22C15.9048 22 15.9292 22 15.9537 21.9987C15.9826 21.9971 15.9984 21.9807 15.9994 21.9505C16.0002 21.9285 16 21.9062 16 21.8842C15.9984 21.201 15.9966 20.5177 15.9947 19.8345C15.9939 19.4681 15.9931 19.1016 15.9922 18.7351C15.9916 18.4879 15.9911 18.2407 15.9905 17.9936C15.9902 17.8235 15.9899 17.6534 15.9896 17.4833C15.9888 17.0207 15.9879 16.5582 15.9874 16.0957C15.9855 14.8527 15.9839 13.6095 15.9826 12.3665C15.9821 11.9423 15.9818 11.5181 15.9815 11.094C15.9808 10.1358 15.9801 9.17769 15.9774 8.21944C15.9765 7.98283 15.9626 7.74573 15.9468 7.50933C15.9182 7.08284 15.8415 6.6643 15.7421 6.24951C15.609 5.69298 15.4203 5.1573 15.1764 4.64296C14.6259 3.48241 13.8562 2.5062 12.8677 1.7159C12.0064 1.02721 11.0467 0.545276 9.99439 0.260809C9.53556 0.136727 9.06864 0.0571015 8.59563 0.0227839C7.92875 -0.0256436 7.26394 0.000803623 6.60548 0.124531C6.33909 0.174714 6.07577 0.245767 5.81342 0.31656L5.79537 0.321432C5.37229 0.435375 4.96634 0.600439 4.57218 0.794433C3.74281 1.20263 3.00236 1.74242 2.35227 2.4148C1.72896 3.05939 1.22053 3.78857 0.830066 4.60638C0.564138 5.1634 0.355205 5.74162 0.225665 6.34835C0.164492 6.63473 0.108526 6.92331 0.0693419 7.2138C0.0146765 7.61824 -0.000598756 8.02615 1.77708e-05 8.4347C0.000416013 8.70436 0.00100937 8.97406 0.00160273 9.24375C0.00254035 9.66993 0.003478 10.0961 0.00364581 10.5222C0.00385132 14.3053 0.00385132 18.0886 0.00364581 21.8718C0.00364581 21.9367 0.00179043 21.9687 0.0162309 21.9845C0.0308886 22.0006 0.062336 21.9999 0.129556 21.9999ZM15.3948 17.6244C15.3979 17.6252 15.4016 17.6261 15.4061 17.6271C15.4067 17.6345 15.4075 17.6422 15.4083 17.65C15.4102 17.6681 15.4122 17.6869 15.4122 17.7059C15.4126 18.0282 15.4126 18.3505 15.4124 18.6728C15.4121 18.7721 15.4106 18.7739 15.3154 18.7739C14.7171 18.7742 14.1189 18.7742 13.5205 18.7739C13.5025 18.7739 13.4844 18.7726 13.4632 18.7711C13.4528 18.7703 13.4416 18.7695 13.4293 18.7688C13.4314 18.7585 13.4328 18.7489 13.4342 18.7398C13.4369 18.7219 13.4393 18.7062 13.445 18.6921C13.5413 18.463 13.6195 18.228 13.6755 17.9852C13.6899 17.9224 13.7004 17.9153 13.7743 17.9151C13.9703 17.9143 14.1664 17.9145 14.3625 17.9147L14.4336 17.9148C14.7682 17.9156 15.0805 17.8386 15.3569 17.6349C15.3641 17.6295 15.3727 17.6251 15.3811 17.6227C15.3846 17.6218 15.3886 17.6228 15.3948 17.6244ZM8.97196 6.50018C8.96692 6.51541 8.96171 6.53114 8.95643 6.54773C8.93381 6.5324 8.91162 6.51754 8.88982 6.50293C8.82881 6.46207 8.7708 6.42322 8.71469 6.38174C8.69847 6.36955 8.69031 6.34268 8.68342 6.32002L8.68236 6.31651C8.61721 6.10657 8.55234 5.89627 8.4887 5.68582C8.43314 5.50169 8.37793 5.31736 8.32273 5.13308C8.28237 4.99832 8.24201 4.86359 8.20153 4.72897C8.1771 4.64814 8.15245 4.5674 8.12781 4.48667C8.10202 4.40217 8.07623 4.31769 8.05069 4.23314C8.04604 4.21782 8.04308 4.20195 8.0394 4.18219C8.03744 4.17168 8.03527 4.16007 8.03254 4.14685C8.05393 4.14685 8.07436 4.14642 8.09413 4.14601C8.13486 4.14517 8.17276 4.14438 8.21044 4.14749C8.63276 4.1828 9.04213 4.27391 9.4302 4.455C9.47461 4.47574 9.49657 4.48588 9.50407 4.50295C9.51174 4.52043 9.50425 4.54516 9.49014 4.59596C9.43988 4.77603 9.39113 4.95662 9.34243 5.13699C9.33132 5.17814 9.32021 5.21928 9.30909 5.2604C9.27324 5.3933 9.23766 5.5262 9.20209 5.65905C9.17506 5.76002 9.14804 5.86096 9.12091 5.96185C9.11474 5.98484 9.10857 6.00783 9.1024 6.03083C9.06783 6.15969 9.03323 6.28862 8.99795 6.4172C8.99039 6.44458 8.98147 6.47147 8.97196 6.50018ZM6.05035 4.79386C6.04131 4.78337 6.03178 4.77232 6.02136 4.76059C6.43984 4.47804 6.87744 4.29291 7.36176 4.20478C7.57281 4.85894 7.77956 5.50076 7.98582 6.14287C7.98803 6.14974 7.98673 6.15782 7.9851 6.1679C7.98421 6.17342 7.98322 6.17955 7.98267 6.1864C7.97308 6.1877 7.96366 6.18884 7.95434 6.18997C7.93655 6.19212 7.91914 6.19423 7.9017 6.19725C7.87529 6.20181 7.84882 6.2061 7.82236 6.21039C7.74956 6.22219 7.67675 6.23398 7.60501 6.25135C7.55089 6.26468 7.51383 6.25596 7.47472 6.21519C7.41571 6.15345 7.35473 6.09387 7.29375 6.03428C7.26368 6.00491 7.23362 5.97554 7.20378 5.9459C6.83592 5.5806 6.46807 5.21509 6.10068 4.84958C6.08368 4.83254 6.06792 4.81426 6.05035 4.79386ZM0.598321 21.3948V20.7668H3.82303C3.82469 20.7753 3.82662 20.7833 3.82847 20.7909C3.83216 20.8063 3.83552 20.8202 3.8357 20.834C3.83728 20.9953 3.83851 21.1565 3.8383 21.3178C3.83796 21.3871 3.83228 21.3915 3.76439 21.3948C3.75427 21.3951 3.74412 21.395 3.7339 21.3949C3.72876 21.3948 3.7236 21.3948 3.71843 21.3948H0.598321ZM12.5151 20.1585C12.5061 20.1575 12.495 20.1564 12.4804 20.1551C12.4914 20.1418 12.5006 20.1306 12.5086 20.1206C12.5232 20.1025 12.5342 20.0889 12.5463 20.0763C12.7284 19.8879 12.8929 19.6841 13.0356 19.4628C13.0739 19.4031 13.1152 19.3806 13.1846 19.3809C13.6255 19.383 14.0664 19.3828 14.5071 19.3826C14.6317 19.3826 14.7562 19.3825 14.8808 19.3825C14.9258 19.3825 14.9708 19.3824 15.0158 19.3823C15.1206 19.3822 15.2253 19.382 15.3302 19.3828C15.4085 19.383 15.4119 19.3871 15.4121 19.4701C15.4129 19.6695 15.4129 19.8688 15.4121 20.0679C15.4119 20.1556 15.4074 20.1606 15.3249 20.1606C14.6115 20.161 13.8982 20.1609 13.1848 20.1609C12.9722 20.1609 12.7595 20.1609 12.5469 20.1609C12.538 20.1609 12.5292 20.16 12.5151 20.1585ZM8.29484 6.88419C8.29741 6.8778 8.30075 6.86946 8.30477 6.85787C8.32228 6.86663 8.33941 6.87463 8.35608 6.88241C8.3912 6.8988 8.42432 6.91426 8.45479 6.93402C8.75017 7.12468 8.88416 7.40695 8.88471 7.76132C8.88566 8.21443 8.88552 8.66762 8.88537 9.12077C8.88531 9.28702 8.88526 9.45327 8.88526 9.61951V10.6764C8.81559 10.7041 8.43068 10.7114 8.30634 10.6908C8.30397 10.6889 8.30172 10.6867 8.29955 10.6846C8.2977 10.6821 8.29497 10.6796 8.29477 10.6769C8.29411 10.6714 8.29337 10.666 8.29263 10.6605C8.29042 10.6441 8.28819 10.6277 8.28819 10.6114C8.28819 9.37581 8.28839 8.13995 8.28894 6.90409C8.28894 6.89892 8.29103 6.89372 8.29484 6.88419ZM9.54419 11.3041H10.2827C10.286 11.3383 10.2894 11.3716 10.2926 11.4041C10.3009 11.4874 10.3088 11.5662 10.3161 11.6452C10.3359 11.8627 10.3782 12.0765 10.4407 12.2846C10.5142 12.5299 10.5918 12.7742 10.6695 13.0185C10.7062 13.134 10.7429 13.2495 10.7792 13.3651C10.8625 13.6301 10.9203 13.9009 10.9573 14.1764C10.962 14.211 10.9628 14.2458 10.9636 14.2806C10.9638 14.2886 10.9617 14.2965 10.9592 14.3064C10.9579 14.3117 10.9563 14.3176 10.9549 14.3244C10.9483 14.3252 10.9417 14.3261 10.9351 14.3271C10.9187 14.3294 10.9022 14.3317 10.8856 14.3317C10.6901 14.3326 10.4943 14.3326 10.2988 14.332C10.2187 14.3317 10.2142 14.3285 10.2074 14.2504C10.1654 13.769 10.0413 13.3081 9.89027 12.8527C9.79224 12.5574 9.69894 12.2599 9.62222 11.9582C9.58868 11.8268 9.57333 11.6905 9.55797 11.5542C9.55205 11.5018 9.54614 11.4493 9.53919 11.3971C9.53657 11.3771 9.53889 11.3562 9.54129 11.3347C9.5424 11.3246 9.54354 11.3144 9.54419 11.3041ZM12.387 14.2765C12.3864 14.2926 12.3858 14.3095 12.3858 14.3275H11.6415C11.6376 14.2976 11.6335 14.268 11.6295 14.2385C11.6208 14.1743 11.6122 14.1108 11.6052 14.047C11.5773 13.7919 11.524 13.5422 11.4499 13.2983C11.3941 13.1144 11.3355 12.9314 11.2769 12.7485C11.2215 12.5753 11.166 12.4022 11.113 12.2283C11.0323 11.9628 10.9758 11.6911 10.9606 11.412C10.9594 11.3897 10.9597 11.3672 10.96 11.3429C10.9602 11.3309 10.9604 11.3185 10.9604 11.3055H11.7072C11.7085 11.316 11.71 11.3261 11.7115 11.3358C11.7144 11.3555 11.7171 11.3737 11.7182 11.3919C11.744 11.8464 11.8514 12.2824 11.9936 12.7108C12.0116 12.7653 12.0299 12.8197 12.0482 12.8742C12.1439 13.1593 12.2396 13.4445 12.306 13.7389C12.3346 13.8666 12.355 13.9964 12.3754 14.1259C12.3785 14.1458 12.3816 14.1658 12.3848 14.1857C12.3892 14.2142 12.3881 14.2437 12.387 14.2765ZM9.50254 7.902L9.47199 7.88434C9.47199 7.87468 9.47194 7.86504 9.4719 7.85541C9.47179 7.83131 9.47168 7.80727 9.47226 7.78316C9.47541 7.62413 9.45575 7.46849 9.41739 7.31456C9.41109 7.28896 9.41294 7.25798 9.42054 7.23245C9.50508 6.95248 9.59022 6.67278 9.67536 6.39306C9.74028 6.1798 9.80519 5.96653 9.86985 5.75311C9.92355 5.57607 9.97641 5.39878 10.0303 5.21801C10.0624 5.11028 10.0949 5.00131 10.1282 4.89042C10.14 4.89774 10.1515 4.90426 10.1626 4.91051C10.1843 4.92286 10.2043 4.93418 10.2218 4.94863C10.4351 5.12455 10.6301 5.32067 10.7959 5.54479C10.8786 5.65634 10.9537 5.774 11.0287 5.89163C11.0445 5.91629 11.0602 5.94094 11.076 5.96554C11.1188 6.03265 11.1162 6.03564 11.0651 6.09446L11.0644 6.09529L10.1011 7.20005C9.91924 7.40893 9.73771 7.61803 9.55638 7.82776C9.54235 7.84383 9.53022 7.86166 9.51806 7.87953C9.51294 7.88706 9.50781 7.89459 9.50254 7.902ZM0.631263 20.1574C0.621011 20.1564 0.609792 20.1553 0.597089 20.1544V19.3901C0.607656 19.3892 0.617704 19.388 0.62741 19.3869C0.645893 19.3848 0.663139 19.3828 0.680386 19.3828C1.69042 19.3825 2.70019 19.3825 3.71029 19.3825H3.74185C3.83351 19.3825 3.8357 19.385 3.83591 19.4769C3.83646 19.673 3.83673 19.869 3.83591 20.0652C3.83563 20.1556 3.83036 20.1606 3.74158 20.1606C2.72102 20.1609 1.70067 20.1609 0.680046 20.1606C0.664917 20.1606 0.649647 20.1591 0.631263 20.1574ZM1.76028 13.1635C1.76314 13.1595 1.76693 13.1543 1.77164 13.1468C1.79729 13.1669 1.82242 13.1865 1.84721 13.2058C1.88923 13.2384 1.93025 13.2704 1.97105 13.3027C2.10903 13.4123 2.24695 13.5219 2.38486 13.6316C2.84003 13.9935 3.29509 14.3552 3.75165 14.7151C3.81412 14.7643 3.8394 14.8163 3.83803 14.8976C3.83479 15.0906 3.83532 15.2836 3.83585 15.4767C3.83605 15.5492 3.83625 15.6217 3.83625 15.6942C3.83625 15.6995 3.83633 15.7048 3.83642 15.7101C3.83662 15.7237 3.83683 15.7373 3.8357 15.751C3.83146 15.8071 3.8194 15.8193 3.76658 15.8065C3.73355 15.7986 3.70035 15.7912 3.66715 15.7838C3.56906 15.7618 3.47094 15.7398 3.37687 15.7056C2.77144 15.4865 2.31555 15.0831 2.01729 14.4942C1.84309 14.1502 1.75568 13.7822 1.75171 13.3935C1.75127 13.3358 1.75218 13.2781 1.75308 13.2204C1.75332 13.2055 1.75355 13.1906 1.75376 13.1757C1.75376 13.1726 1.75595 13.1695 1.76028 13.1635ZM13.8156 17.3896C13.81 17.3884 13.8048 17.3873 13.8005 17.3867C13.8023 17.3042 13.8046 17.2226 13.8068 17.1417C13.8116 16.9695 13.8163 16.8001 13.8163 16.6309C13.8162 16.4007 13.8123 16.1705 13.8084 15.9405C13.8065 15.8293 13.8047 15.7182 13.8032 15.6071C13.8029 15.5811 13.8029 15.5553 13.8029 15.5273C13.8029 15.5186 13.8029 15.5097 13.8029 15.5005C13.8145 15.4992 13.8248 15.4979 13.8343 15.4966C13.8531 15.4941 13.8686 15.4921 13.8841 15.4921C13.9542 15.4919 14.0244 15.4924 14.0945 15.4928C14.229 15.4937 14.3636 15.4945 14.498 15.491C14.8969 15.4804 15.3099 15.7782 15.3919 16.2715C15.4852 16.8318 15.1336 17.2983 14.6396 17.3885C14.6157 17.3929 14.591 17.3945 14.5666 17.3945C14.3314 17.3957 14.0962 17.3962 13.861 17.3959C13.8449 17.3959 13.8287 17.3925 13.8156 17.3896ZM6.17487 14.6566C5.76988 15.3178 5.18898 15.6983 4.42846 15.8212C4.42746 15.8055 4.42639 15.7917 4.42542 15.779C4.42351 15.7543 4.42195 15.7342 4.42195 15.7139C4.42186 15.6245 4.42192 15.5352 4.42197 15.4459C4.42208 15.2537 4.42219 15.0615 4.42092 14.8693C4.42058 14.8144 4.43558 14.7764 4.48004 14.7412C5.01667 14.3149 5.55252 13.8872 6.08835 13.4596C6.21046 13.3622 6.33258 13.2647 6.45471 13.1673C6.46506 13.1591 6.47573 13.1514 6.4866 13.1437C6.49306 13.139 6.49959 13.1343 6.50615 13.1295C6.61788 13.3825 6.43443 14.2329 6.17487 14.6566ZM8.29304 11.3445C8.29421 11.332 8.2954 11.3191 8.29641 11.3056H8.85416C8.85577 11.3107 8.85766 11.3157 8.8595 11.3205C8.86342 11.3307 8.86715 11.3405 8.86752 11.3505C8.88067 11.6453 8.92218 11.9357 9.00055 12.2191C9.04321 12.3734 9.09073 12.5262 9.13825 12.6789C9.16453 12.7634 9.19081 12.8478 9.21627 12.9326C9.2371 13.0017 9.25825 13.0707 9.2794 13.1397C9.34306 13.3474 9.40669 13.555 9.46171 13.7651C9.49113 13.8773 9.50681 13.9937 9.52246 14.1098C9.52835 14.1535 9.53423 14.1971 9.54084 14.2405C9.54353 14.2584 9.54172 14.2771 9.53978 14.297C9.53886 14.3064 9.53792 14.3161 9.53741 14.3262C9.52622 14.3271 9.51607 14.328 9.5066 14.329C9.48885 14.3307 9.47346 14.3322 9.45801 14.3322C9.10351 14.3324 8.74908 14.3324 8.39457 14.3324C8.37628 14.3324 8.35813 14.3322 8.33971 14.3317C8.3058 14.3308 8.29052 14.3098 8.28874 14.2772C8.28763 14.2584 8.28766 14.2397 8.2877 14.2207C8.2877 14.2174 8.28771 14.2141 8.28771 14.2108C8.28771 13.281 8.28771 12.351 8.28826 11.4212C8.28826 11.3962 8.29057 11.3712 8.29304 11.3445ZM3.83935 7.69158C3.83788 7.70473 3.83619 7.71978 3.8344 7.73779C3.82151 7.72762 3.81067 7.71936 3.80129 7.71222C3.78413 7.69914 3.77186 7.68979 3.76083 7.67929C3.23247 7.17226 2.70397 6.66508 2.17588 6.15755C2.11141 6.09562 2.11172 6.09474 2.14251 6.00942L2.1443 6.00446C2.37974 5.35087 2.71369 4.75584 3.13574 4.21293C3.15998 4.18154 3.18579 4.15128 3.21513 4.11687C3.22874 4.10092 3.24311 4.08407 3.25843 4.0658C3.26532 4.08927 3.27183 4.11053 3.27791 4.13037C3.28923 4.1673 3.29905 4.19934 3.30707 4.23172C3.38639 4.55263 3.46517 4.87354 3.54354 5.19474C3.61452 5.48565 3.68525 5.77665 3.75599 6.06767C3.80199 6.25692 3.84799 6.44618 3.89407 6.63544C3.90009 6.65962 3.90667 6.68415 3.91558 6.70783C3.95476 6.8127 3.93811 6.91743 3.91578 7.02243C3.87276 7.22373 3.85228 7.42744 3.84461 7.63306C3.84395 7.65053 3.84199 7.66801 3.83935 7.69158ZM5.89211 2.19003C5.90043 2.18826 5.91011 2.18621 5.92182 2.18344C5.84346 2.42005 5.77153 2.63751 5.6998 2.85476C5.58129 3.21304 5.46306 3.57118 5.34482 3.92939C5.32102 4.00144 5.29725 4.07351 5.27349 4.14559C5.20567 4.35125 5.13785 4.55692 5.06917 4.76215C5.06122 4.78527 5.04759 4.80838 5.03101 4.82604C4.77741 5.09342 4.56067 5.38951 4.38146 5.71432C4.34427 5.71261 4.33848 5.6861 4.33331 5.66241C4.3327 5.65962 4.3321 5.65687 4.33146 5.6542C4.29967 5.52213 4.26839 5.38981 4.23711 5.25751C4.20895 5.13835 4.18079 5.01921 4.15225 4.90028C4.11885 4.76117 4.0847 4.6225 4.05054 4.48378C4.03425 4.41765 4.01796 4.35152 4.00176 4.28532C3.98283 4.20806 3.96403 4.13074 3.94524 4.05343C3.90374 3.88278 3.86225 3.71212 3.8194 3.54197C3.80624 3.48999 3.82625 3.45986 3.86119 3.42802C4.24823 3.07528 4.66973 2.775 5.12746 2.52967C5.36311 2.40318 5.60575 2.292 5.85586 2.19947C5.86608 2.19556 5.87676 2.19329 5.89211 2.19003ZM6.04171 4.03931C6.036 4.04039 6.02937 4.04164 6.02143 4.04347C6.02295 4.03425 6.02407 4.0258 6.02512 4.01795C6.02728 4.00177 6.0291 3.98813 6.03335 3.97547C6.20912 3.4449 6.38545 2.91454 6.56226 2.3841C6.57945 2.33227 6.59716 2.28065 6.61486 2.22905C6.63997 2.15587 6.66506 2.08274 6.68864 2.00909C6.70262 1.96499 6.7244 1.94265 6.77016 1.93344C7.28496 1.83063 7.80285 1.78766 8.3273 1.82006C8.58063 1.83552 8.83135 1.86601 9.0818 1.90784C9.09157 1.94063 9.07252 1.95714 9.0543 1.97295C9.04966 1.97697 9.04508 1.98094 9.04103 1.98512C8.83313 2.1989 8.62481 2.41239 8.41588 2.62511C8.3046 2.73841 8.19315 2.85153 8.0817 2.96464C7.901 3.14802 7.72031 3.3314 7.54041 3.51559C7.4989 3.55778 7.45499 3.58054 7.3969 3.5882C7.13576 3.62138 6.88004 3.68314 6.63439 3.77942C6.50322 3.83081 6.37496 3.89034 6.24663 3.94991C6.18602 3.97804 6.1254 4.00618 6.06445 4.03347C6.05823 4.03618 6.05126 4.0375 6.04171 4.03931ZM15.4061 21.3782C15.3363 21.3981 8.41971 21.4041 8.29333 21.3842V20.7639C8.30402 20.7679 8.31403 20.7714 8.32347 20.7746C8.34167 20.7808 8.35774 20.7863 8.37245 20.7943C8.66276 20.9528 8.96965 21.0657 9.29128 21.1313C9.60975 21.1959 9.93089 21.2207 10.257 21.1924C10.735 21.1508 11.1846 21.0159 11.6104 20.7904C11.6441 20.7725 11.6856 20.7619 11.7234 20.7619C12.9237 20.7603 14.1244 20.7603 15.3247 20.7605C15.4087 20.7605 15.4119 20.7641 15.4124 20.8516C15.413 21.0067 15.4127 21.1614 15.4122 21.3165C15.4122 21.3316 15.4101 21.3468 15.4082 21.3612C15.4075 21.367 15.4067 21.3727 15.4061 21.3782ZM9.48687 2.51348C9.61995 2.37903 9.75299 2.24464 9.88595 2.11027C10.6772 2.37517 11.3767 2.7745 12.0139 3.32635C11.9995 3.3326 11.9863 3.33864 11.9737 3.34435C11.9469 3.35651 11.9234 3.36721 11.899 3.37555C11.4973 3.51297 11.0952 3.64974 10.6929 3.78602C10.619 3.81096 10.5449 3.83544 10.4708 3.85994C10.3188 3.91017 10.1667 3.96044 10.016 4.01468C9.96 4.03482 9.91856 4.02532 9.86938 4.0027C9.84383 3.991 9.8183 3.97923 9.79277 3.96747C9.65991 3.90626 9.52693 3.84499 9.39116 3.79141C9.12235 3.6859 8.84382 3.6179 8.55843 3.58203C8.53959 3.57966 8.521 3.57571 8.50097 3.57147C8.49282 3.56974 8.48443 3.56796 8.47568 3.56621C8.47702 3.56023 8.47778 3.55444 8.47848 3.54913C8.47981 3.53899 8.48091 3.5306 8.48541 3.52594C8.81903 3.18812 9.15308 2.85067 9.48687 2.51348ZM4.54149 6.88999C4.70569 6.25518 5.01498 5.7056 5.46957 5.22821L6.94717 6.64147C6.93973 6.65084 6.93309 6.65886 6.92708 6.66612C6.91654 6.67884 6.90793 6.68922 6.90039 6.70046C6.87974 6.73108 6.85869 6.76147 6.83763 6.79186C6.78234 6.87167 6.72702 6.95152 6.67885 7.03584C6.64679 7.09157 6.61261 7.12773 6.55349 7.14708C6.38313 7.20278 6.21321 7.25983 6.04337 7.31685C5.95547 7.34636 5.86759 7.37587 5.77968 7.40517C5.5106 7.4948 5.24152 7.58424 4.97244 7.67368C4.90517 7.69604 4.8379 7.7184 4.77063 7.74076C4.70566 7.76221 4.64059 7.78346 4.57278 7.80561C4.52627 7.8208 4.47847 7.83641 4.42853 7.85279C4.41113 7.51607 4.46114 7.20062 4.54149 6.88999ZM4.43223 8.56729L6.52143 7.8691C6.5225 7.88614 6.52369 7.90107 6.52477 7.91468C6.52659 7.93758 6.52811 7.95673 6.52828 7.97581C6.52834 8.0753 6.52826 8.1748 6.52818 8.27429C6.52798 8.5289 6.52779 8.78351 6.52985 9.03817C6.5304 9.10226 6.50883 9.14282 6.46156 9.18146C6.01065 9.54811 5.56096 9.9162 5.11127 10.2843C5.04127 10.3416 4.97127 10.3989 4.90127 10.4562C4.85238 10.4961 4.80352 10.536 4.75467 10.576C4.66935 10.6457 4.58405 10.7154 4.49867 10.785C4.48533 10.7958 4.47131 10.8057 4.45655 10.8161C4.45099 10.8201 4.44533 10.8241 4.43956 10.8282C4.41853 10.7575 4.41195 8.69946 4.43223 8.56729ZM1.7504 10.04L1.77376 10.0327C1.80703 10.0599 1.84031 10.087 1.87359 10.1141C1.98388 10.2039 2.0942 10.2938 2.20424 10.3841C2.30914 10.4701 2.41401 10.5562 2.51888 10.6423C2.93303 10.9823 3.34708 11.3222 3.7624 11.6605C3.8157 11.704 3.83803 11.7489 3.83782 11.8196C3.83619 12.2666 3.83618 12.7137 3.83616 13.1608C3.83616 13.3712 3.83615 13.5816 3.83597 13.792C3.83597 13.8146 3.83452 13.8373 3.83268 13.8659C3.83182 13.8794 3.83087 13.8941 3.82995 13.9108C3.81652 13.9019 3.80497 13.8945 3.79474 13.8879C3.77669 13.8764 3.76274 13.8675 3.7498 13.8572L2.65403 12.9842C2.57742 12.9231 2.50089 12.8619 2.42437 12.8007C2.22554 12.6417 2.02671 12.4827 1.82637 12.326C1.77246 12.2838 1.74938 12.2411 1.74958 12.169C1.75163 11.6489 1.75118 11.1287 1.75074 10.6084C1.7506 10.449 1.75047 10.2897 1.7504 10.1303V10.04ZM4.45758 13.8933C4.44977 13.8984 4.441 13.9042 4.43086 13.9111C4.42951 13.8969 4.42792 13.8843 4.42646 13.8727C4.42399 13.8532 4.42188 13.8365 4.42188 13.8197C4.42179 13.5928 4.42173 13.3659 4.42167 13.139C4.42155 12.6864 4.42143 12.2338 4.42106 11.781C4.42106 11.7347 4.42942 11.7005 4.46997 11.6681C4.80159 11.4046 5.13137 11.1386 5.46004 10.8712C5.6691 10.7009 5.8774 10.5295 6.0857 10.3581C6.2143 10.2522 6.34291 10.1464 6.4717 10.0408C6.47875 10.0351 6.48679 10.0307 6.498 10.0245C6.50431 10.0211 6.51162 10.0171 6.52033 10.012C6.52142 10.0239 6.52259 10.0347 6.52367 10.0448C6.52599 10.0664 6.52794 10.0844 6.52794 10.1026C6.52812 10.3352 6.52816 10.5679 6.5282 10.8007C6.52827 11.2538 6.52834 11.707 6.52951 12.1601C6.52951 12.223 6.51115 12.264 6.46176 12.3029C6.0139 12.6575 5.567 13.0136 5.12005 13.3697C4.99377 13.4703 4.86749 13.5709 4.74117 13.6715L4.72455 13.6848C4.64783 13.7459 4.57114 13.8069 4.49415 13.8676C4.48352 13.8761 4.47224 13.8836 4.45758 13.8933ZM1.90341 6.85727C1.90642 6.85484 1.91091 6.85122 1.91748 6.84539C1.92424 6.85076 1.93109 6.85592 1.93789 6.86106C1.95275 6.87226 1.9674 6.88332 1.98051 6.89601C2.19761 7.10487 2.41463 7.31378 2.63164 7.52269C3.01433 7.8911 3.39699 8.25947 3.78001 8.62742C3.81892 8.66464 3.83728 8.70378 3.837 8.7593C3.8364 9.14926 3.83634 9.53915 3.83628 9.92906C3.83624 10.2002 3.8362 10.4713 3.83597 10.7425C3.83597 10.7581 3.83385 10.7737 3.83114 10.7936C3.82969 10.8042 3.82807 10.8161 3.82652 10.8298C3.81414 10.8213 3.80316 10.8142 3.79319 10.8077C3.77695 10.7971 3.76339 10.7882 3.75082 10.7781C3.38663 10.4794 3.02267 10.1805 2.65867 9.88156L2.55155 9.79358C2.48509 9.739 2.41872 9.68435 2.35234 9.6297C2.17492 9.48362 1.99752 9.33755 1.8187 9.19302C1.77137 9.15494 1.74828 9.11637 1.74883 9.05164C1.75037 8.91759 1.74999 8.78349 1.74962 8.64938C1.74916 8.48611 1.7487 8.32282 1.75171 8.15959C1.75876 7.75757 1.79246 7.35802 1.87782 6.96451C1.88209 6.94482 1.88583 6.92503 1.88957 6.90528C1.89223 6.89117 1.8949 6.87707 1.89775 6.86304C1.89775 6.86304 1.89943 6.86049 1.90341 6.85727ZM14.1085 6.96542C14.1079 6.9723 14.1072 6.98062 14.1067 6.99109C14.0559 6.96764 14.0068 6.94504 13.9588 6.92294C13.871 6.88256 13.7868 6.84384 13.703 6.80462C13.4957 6.70777 13.2884 6.61083 13.0812 6.5139C12.6441 6.30949 12.207 6.10507 11.7698 5.90144C11.7141 5.87563 11.6759 5.83862 11.647 5.78289C11.4098 5.32698 11.0987 4.93232 10.7224 4.59234C10.7077 4.57914 10.6939 4.56492 10.6786 4.54923C10.6731 4.54359 10.6674 4.53775 10.6615 4.53172C10.6671 4.5267 10.6716 4.522 10.6756 4.51788C10.6827 4.5106 10.688 4.50512 10.6944 4.50286C10.8649 4.44547 11.0356 4.3884 11.2063 4.33132C11.3981 4.26717 11.5899 4.20302 11.7817 4.13841C11.9318 4.08778 12.0816 4.03623 12.2314 3.98468C12.3071 3.95862 12.3828 3.93257 12.4586 3.90663C12.4657 3.90417 12.4731 3.90253 12.4804 3.90091C12.4911 3.89855 12.5017 3.89621 12.5112 3.89138C12.5563 3.86834 12.5855 3.88847 12.6131 3.92407C12.6675 3.99457 12.7229 4.06427 12.7783 4.13395C12.8956 4.28144 13.0128 4.42887 13.1202 4.58383C13.413 5.00621 13.6427 5.46552 13.8237 5.95079C13.9441 6.27234 14.0328 6.60325 14.1085 6.93834C14.1102 6.94551 14.1095 6.9532 14.1085 6.96542ZM12.3863 11.3389C12.3864 11.3268 12.3866 11.3139 12.3866 11.2995L15.2998 11.2994C15.306 11.2994 15.3124 11.299 15.3188 11.2985C15.3345 11.2973 15.3503 11.2961 15.3631 11.3019C15.382 11.3103 15.4007 11.3296 15.4091 11.3489C15.4149 11.3624 15.4139 11.3792 15.413 11.396C15.4126 11.4022 15.4123 11.4084 15.4123 11.4144V15.1909C15.4123 15.2085 15.4112 15.2262 15.41 15.247C15.4093 15.2589 15.4085 15.2718 15.4078 15.2864C15.3988 15.2823 15.3906 15.2791 15.3831 15.2761C15.369 15.2705 15.3574 15.2659 15.3476 15.2587C15.0959 15.0747 14.8173 14.9772 14.5083 14.9774L13.8199 14.9772C13.7984 14.9261 13.8005 14.876 13.8025 14.8269C13.8033 14.807 13.8041 14.7873 13.8034 14.7677C13.8016 14.7173 13.802 14.6668 13.8024 14.6164C13.8026 14.5941 13.8028 14.5718 13.8028 14.5496V14.3348H13.0718C13.0697 14.3224 13.0674 14.3108 13.0653 14.2998C13.0609 14.2776 13.057 14.2576 13.0553 14.2374C13.0177 13.8006 12.9108 13.38 12.7771 12.9656C12.7645 12.9267 12.7518 12.8878 12.7392 12.8489C12.6549 12.5889 12.5706 12.3288 12.4954 12.0659C12.4336 11.8508 12.3977 11.6289 12.3869 11.404C12.3859 11.3834 12.3861 11.363 12.3863 11.3389ZM6.7466 17.5743C7.11131 17.3614 7.5809 17.1751 7.70468 17.1895V21.3758C7.63604 21.3994 4.52834 21.4038 4.42551 21.3785C4.46504 20.7795 4.60129 20.2059 4.85338 19.6626C5.27194 18.7605 5.90524 18.0655 6.7466 17.5743ZM4.44905 19.1416C4.44447 19.145 4.43818 19.1496 4.42948 19.1567C4.4283 19.1435 4.42698 19.1317 4.42576 19.1208C4.42344 19.1001 4.42147 19.0825 4.42147 19.0649C4.42119 18.3601 4.42138 17.6555 4.42157 16.9509C4.4216 16.811 4.42164 16.6711 4.42168 16.5312L4.42147 16.5121C4.42352 16.4309 4.4261 16.4305 4.50135 16.4171L4.50265 16.4169C4.52726 16.4125 4.55191 16.4083 4.57656 16.4041C4.67535 16.3871 4.77412 16.3702 4.87106 16.3456C5.40284 16.2105 5.85928 15.9364 6.24632 15.5367C6.56979 15.2033 6.80387 14.8108 6.95451 14.3656C7.07274 14.0161 7.11556 13.6537 7.11535 13.2845C7.11494 12.3544 7.11494 11.4244 7.11494 10.4944C7.11494 9.56433 7.11494 8.6343 7.11453 7.70425C7.11453 7.31505 7.31291 7.06101 7.62823 6.88509C7.63965 6.87872 7.65325 6.87626 7.67055 6.87312C7.67982 6.87144 7.69016 6.86957 7.7018 6.8668C7.70286 6.88073 7.70417 6.89402 7.70543 6.90688C7.70791 6.9322 7.71023 6.95586 7.71023 6.97947C7.71058 7.4594 7.71053 7.9393 7.71047 8.41911C7.71045 8.59407 7.71043 8.76901 7.71043 8.94393V16.3934C7.71043 16.401 7.71037 16.4086 7.7103 16.4162C7.71014 16.434 7.70999 16.4517 7.71071 16.4696C7.71228 16.5182 7.69043 16.5424 7.64419 16.5552C6.50958 16.8675 5.58698 17.5099 4.87099 18.4707C4.71617 18.6785 4.57533 18.8966 4.46024 19.1314C4.45881 19.1344 4.45582 19.1367 4.44905 19.1416ZM11.3976 6.84403C11.4057 6.83651 11.4141 6.82859 11.423 6.82C11.4645 6.90734 11.4808 6.99459 11.4969 7.0805C11.5003 7.09893 11.5037 7.1173 11.5074 7.1356C11.5797 7.49714 11.5799 7.86399 11.5797 8.23092C11.5794 8.64514 11.5792 9.05937 11.5802 9.47359C11.5802 9.51414 11.5842 9.5557 11.5944 9.59462C11.6372 9.75699 11.7786 9.81769 11.8829 9.8106C12.0125 9.80223 12.1344 9.72274 12.1585 9.55442C12.1635 9.52046 12.1648 9.48536 12.1648 9.45083C12.165 9.33097 12.1654 9.21112 12.1658 9.09129C12.1669 8.76518 12.1681 8.43915 12.1638 8.11301C12.1637 8.10063 12.1635 8.08824 12.1633 8.07585C12.1596 7.7786 12.1558 7.48055 12.1094 7.18629C12.0948 7.0936 12.0749 7.00172 12.0549 6.90986C12.0455 6.86625 12.036 6.82264 12.0272 6.77895C12.0246 6.76644 12.0229 6.75376 12.0207 6.73823C12.0193 6.72805 12.0177 6.71666 12.0156 6.7033C12.0245 6.70686 12.0327 6.71002 12.0402 6.71294C12.0596 6.7205 12.0749 6.72645 12.0897 6.7335C12.2623 6.8157 12.435 6.89798 12.6076 6.98027C13.1187 7.22388 13.6298 7.46755 14.1419 7.70907C14.2023 7.73757 14.2234 7.77324 14.2241 7.83797C14.2252 7.91379 14.2281 7.98965 14.231 8.06551C14.2345 8.15706 14.2381 8.24861 14.2384 8.34004C14.2395 8.89535 14.2394 9.45075 14.2392 10.0061C14.2392 10.1971 14.2391 10.388 14.2391 10.579V10.6873C14.2288 10.689 14.2194 10.6909 14.2106 10.6927C14.1921 10.6965 14.1764 10.6997 14.1605 10.6997C12.9625 10.7001 11.7643 10.7001 10.5622 10.7C10.1989 10.7 9.83531 10.7 9.47123 10.7V10.5833C9.47123 10.4524 9.47131 10.3215 9.47138 10.1905C9.47161 9.78387 9.47184 9.37726 9.46987 8.97052C9.46966 8.90203 9.48802 8.85247 9.53474 8.80354C9.92141 8.39879 10.3067 7.99252 10.692 7.58632C10.7647 7.50965 10.8374 7.43298 10.9101 7.35632C10.984 7.27841 11.0576 7.20033 11.1313 7.12224C11.2049 7.0442 11.2785 6.96615 11.3523 6.88828C11.3662 6.87363 11.381 6.85969 11.3976 6.84403ZM13.2172 14.9003C13.2298 14.9013 13.2429 14.9023 13.2568 14.9032C13.2574 14.9133 13.258 14.9228 13.2585 14.9319C13.2602 14.9582 13.2616 14.9811 13.2617 15.0039C13.2617 15.1925 13.2616 15.3812 13.2615 15.5699C13.2613 16.0738 13.261 16.5777 13.2625 17.0815C13.263 17.2762 13.2302 17.4658 13.1911 17.6537C13.0944 18.1199 12.9317 18.5609 12.6944 18.9707C12.4043 19.4716 12.0323 19.8924 11.5512 20.2041C11.2187 20.4192 10.8601 20.5617 10.4723 20.6264C10.1186 20.6857 9.76546 20.683 9.41513 20.6123C9.04357 20.5372 8.69804 20.3901 8.37621 20.1823C8.31155 20.1404 8.28599 20.0956 8.28599 20.0156C8.28816 19.0752 8.28803 18.1347 8.28791 17.1943C8.28788 16.9741 8.28785 16.7539 8.28785 16.5337V15.0253C8.28785 15.0187 8.2879 15.0121 8.28794 15.0055C8.28806 14.99 8.28817 14.9745 8.28764 14.9589C8.286 14.9143 8.30785 14.8958 8.34888 14.8966C8.3603 14.8968 8.37171 14.8967 8.3831 14.8966C8.39009 14.8965 8.39707 14.8964 8.40403 14.8964C8.93053 14.8964 9.45704 14.8964 9.98354 14.8963C11.0366 14.8963 12.0896 14.8962 13.1428 14.8964C13.1669 14.8964 13.1909 14.8983 13.2172 14.9003ZM15.4003 10.572V10.6949L14.8286 10.6951C14.828 10.6818 14.8273 10.6689 14.8266 10.6563C14.825 10.6268 14.8234 10.599 14.8234 10.571C14.8232 10.3122 14.8234 10.0535 14.8236 9.7947C14.8241 9.22476 14.8245 8.65483 14.8208 8.08486C14.8195 7.8579 14.8006 7.63001 14.773 7.40461C14.7445 7.1702 14.7005 6.93707 14.6547 6.70507C14.5826 6.33927 14.471 5.98518 14.3367 5.63924C14.1172 5.07349 13.8322 4.5459 13.4798 4.05716C12.9964 3.3864 12.4178 2.82045 11.7429 2.35943C11.249 2.02185 10.72 1.75731 10.159 1.56339C9.82032 1.44611 9.47397 1.35833 9.12084 1.2987C8.59076 1.20951 8.05864 1.17795 7.52267 1.21823C7.11384 1.24893 6.70933 1.31175 6.31236 1.41704C5.48799 1.63521 4.72679 1.9969 4.03443 2.5096C3.19116 3.13405 2.5164 3.91492 2.01318 4.85348C1.75301 5.33839 1.55305 5.8489 1.4096 6.38359C1.30061 6.78966 1.2241 7.20225 1.19176 7.62164C1.17025 7.90476 1.16731 8.19008 1.16546 8.47455C1.16279 8.88281 1.16337 9.29106 1.16395 9.69932C1.16416 9.8478 1.16437 9.99628 1.16443 10.1448C1.16468 10.4645 1.16503 10.7843 1.16539 11.104C1.16623 11.8503 1.16706 12.5965 1.16648 13.3427C1.16573 14.0786 1.38487 14.7352 1.83158 15.3055C2.18759 15.76 2.63512 16.0853 3.17273 16.2746C3.36139 16.3409 3.5532 16.3899 3.7511 16.4143C3.82885 16.4241 3.83591 16.432 3.83591 16.5171C3.83646 17.2384 3.83646 17.9597 3.83591 18.681C3.83591 18.7721 3.83276 18.7739 3.73028 18.7739C2.93692 18.7742 2.14336 18.7742 1.35 18.7742H1.33754C1.23519 18.7742 1.13278 18.7741 1.03037 18.7741C0.927957 18.774 0.825545 18.7739 0.723202 18.7739C0.710535 18.7739 0.699087 18.7741 0.688742 18.7742C0.592222 18.7755 0.591608 18.7755 0.591608 18.6423C0.59196 17.7047 0.591906 16.7671 0.591853 15.8294C0.591834 15.4891 0.591814 15.1488 0.591814 14.8085C0.591814 14.4353 0.591875 14.0621 0.591936 13.6889C0.592058 12.9424 0.59218 12.1958 0.591814 11.449C0.591464 10.9797 0.590817 10.5104 0.59017 10.041C0.589426 9.50133 0.588682 8.96164 0.588389 8.42194C0.588183 8.06784 0.592841 7.71318 0.638601 7.3615C0.670455 7.11759 0.71464 6.87531 0.761085 6.63374C0.848564 6.17712 0.989405 5.73758 1.16306 5.3084C1.49441 4.49031 1.95091 3.75517 2.52867 3.10052C3.2563 2.27576 4.11876 1.64698 5.10938 1.20724C5.5193 1.0253 5.94361 0.885687 6.37929 0.786421C6.72221 0.708355 7.06863 0.646314 7.42039 0.63029C7.69187 0.617811 7.96383 0.605332 8.23524 0.60909C8.54371 0.613698 8.85039 0.649363 9.15591 0.699138C9.43972 0.745367 9.72018 0.807054 9.99604 0.887317C10.458 1.0214 10.9036 1.20064 11.3316 1.42562C12.2601 1.9133 13.0546 2.57391 13.7163 3.40477C14.2608 4.08849 14.6775 4.84844 14.9668 5.68341C15.07 5.98121 15.1576 6.28333 15.2219 6.59205C15.2708 6.82631 15.3051 7.06398 15.3391 7.30144C15.3969 7.70609 15.4024 8.11379 15.4008 8.52234C15.3992 8.99813 15.3996 9.47389 15.4 9.94966C15.4001 10.1571 15.4003 10.3645 15.4003 10.572Z" fill="white"/>
</svg>
