<svg width="24" height="24" viewBox="0 0 24 24" fill="none" xmlns="http://www.w3.org/2000/svg">
<path d="M20.2503 22.4766H20.25L3.75002 22.4766L3.74972 22.4766C3.53723 22.4793 3.3268 22.4347 3.13374 22.3459C2.94067 22.2571 2.76983 22.1264 2.63364 21.9633L2.63363 21.9632C2.33377 21.6048 2.21234 21.1146 2.30215 20.6179L2.30215 20.6179C2.69659 18.4298 3.92743 16.5916 5.86302 15.3008C7.58291 14.1546 9.76222 13.5234 12 13.5234C14.2378 13.5234 16.4171 14.1551 18.137 15.3008C20.0726 16.5912 21.3035 18.4293 21.6979 20.6174C21.7877 21.1142 21.6663 21.6043 21.3664 21.9628L21.3664 21.9628C21.2303 22.126 21.0594 22.2568 20.8664 22.3457C20.6733 22.4346 20.4628 22.4793 20.2503 22.4766ZM12 1.52344C13.4001 1.52344 14.6678 2.0633 15.5753 3.04311C16.494 4.03505 16.9421 5.37056 16.8362 6.80358C16.6254 9.65898 14.4566 11.9766 12 11.9766C9.54345 11.9766 7.37086 9.65849 7.1634 6.80268C7.05883 5.3564 7.50419 4.01811 8.41721 3.03375C9.32046 2.06009 10.5924 1.52344 12 1.52344Z" fill="white" stroke="white" stroke-width="0.046875"/>
</svg>
