<svg width="24" height="24" viewBox="0 0 24 24" fill="none" xmlns="http://www.w3.org/2000/svg">
<path d="M17.625 6.75L18.373 6.80546L18.373 6.8054L17.625 6.75ZM9.37504 6.75L8.62701 6.8044L8.62702 6.80446L9.37504 6.75ZM4.5169 20.7469L5.25463 20.882L5.25499 20.88L4.5169 20.7469ZM22.4836 20.7469L23.2217 20.6137L23.2217 20.6137L22.4836 20.7469ZM4.875 8.25C4.875 7.83579 4.53921 7.5 4.125 7.5C3.71079 7.5 3.375 7.83579 3.375 8.25H4.875ZM3.375 13.5C3.375 13.9142 3.71079 14.25 4.125 14.25C4.53921 14.25 4.875 13.9142 4.875 13.5H3.375ZM6.75 11.625C7.16421 11.625 7.5 11.2892 7.5 10.875C7.5 10.4608 7.16421 10.125 6.75 10.125V11.625ZM1.5 10.125C1.08579 10.125 0.75 10.4608 0.75 10.875C0.75 11.2892 1.08579 11.625 1.5 11.625V10.125ZM16.8771 6.69454C16.7141 8.89219 15.0676 10.5 13.5 10.5V12C16.0575 12 18.1684 9.56437 18.373 6.80546L16.8771 6.69454ZM13.5 10.5C11.9318 10.5 10.283 8.89188 10.1231 6.69554L8.62702 6.80446C8.82805 9.56562 10.9433 12 13.5 12V10.5ZM10.1231 6.6956C9.967 4.54968 11.4536 3 13.5 3V1.5C10.5777 1.5 8.40808 3.79407 8.62701 6.8044L10.1231 6.6956ZM13.5 3C15.5418 3 17.0329 4.59156 16.8771 6.6946L18.373 6.8054C18.5922 3.84594 16.4271 1.5 13.5 1.5V3ZM13.5 13.5C9.20896 13.5 4.63252 15.8802 3.77881 20.6138L5.25499 20.88C5.93316 17.1198 9.63484 15 13.5 15V13.5ZM3.77917 20.6118C3.70096 21.0388 3.77586 21.4955 4.0289 21.8645C4.29326 22.2501 4.72883 22.5 5.2505 22.5V21C5.23373 21 5.23713 20.9969 5.24971 21.0036C5.26126 21.0098 5.2663 21.0167 5.266 21.0163C5.26498 21.0148 5.25795 21.0035 5.25332 20.9792C5.24873 20.9551 5.24732 20.9219 5.25463 20.882L3.77917 20.6118ZM5.2505 22.5H21.75V21H5.2505V22.5ZM21.75 22.5C22.272 22.5 22.7073 22.2498 22.9714 21.8641C23.2239 21.4954 23.2985 21.0395 23.2217 20.6137L21.7455 20.88C21.7528 20.9205 21.7514 20.9542 21.7467 20.9788C21.742 21.0036 21.7348 21.0151 21.7337 21.0166C21.7334 21.0171 21.7385 21.0101 21.7503 21.0038C21.7632 20.9969 21.7668 21 21.75 21V22.5ZM23.2217 20.6137C22.3675 15.8802 17.7911 13.5 13.5 13.5V15C17.3652 15 21.0669 17.1198 21.7455 20.8801L23.2217 20.6137ZM3.375 8.25V13.5H4.875V8.25H3.375ZM6.75 10.125H1.5V11.625H6.75V10.125Z" fill="white"/>
</svg>
