<svg width="24" height="24" viewBox="0 0 24 24" fill="none" xmlns="http://www.w3.org/2000/svg">
<path d="M16.125 6.75L16.873 6.80546L16.873 6.8054L16.125 6.75ZM7.87504 6.75L7.12701 6.8044L7.12702 6.80446L7.87504 6.75ZM3.01699 20.7469L3.75507 20.88L3.75508 20.88L3.01699 20.7469ZM20.9837 20.7469L21.7218 20.6137L21.7218 20.6137L20.9837 20.7469ZM15.3771 6.69454C15.2141 8.89219 13.5676 10.5 12 10.5V12C14.5575 12 16.6684 9.56437 16.873 6.80546L15.3771 6.69454ZM12 10.5C10.4318 10.5 8.78297 8.89188 8.62306 6.69554L7.12702 6.80446C7.32805 9.56562 9.44332 12 12 12V10.5ZM8.62306 6.6956C8.467 4.54968 9.95359 3 12 3V1.5C9.07773 1.5 6.90808 3.79407 7.12701 6.8044L8.62306 6.6956ZM12 3C14.0418 3 15.5329 4.59156 15.3771 6.6946L16.873 6.8054C17.0922 3.84594 14.9271 1.5 12 1.5V3ZM12.0001 13.5C7.70904 13.5 3.13261 15.8802 2.2789 20.6138L3.75508 20.88C4.43324 17.1198 8.13493 15 12.0001 15V13.5ZM2.2789 20.6137C2.20209 21.0395 2.27672 21.4953 2.52909 21.864C2.79299 22.2496 3.22812 22.5 3.75011 22.5V21C3.7336 21 3.73736 20.997 3.75027 21.0039C3.76214 21.0102 3.76726 21.0173 3.76692 21.0168C3.76584 21.0152 3.75866 21.0037 3.75392 20.9789C3.74922 20.9543 3.74778 20.9205 3.75507 20.88L2.2789 20.6137ZM3.75011 22.5H20.2501V21H3.75011V22.5ZM20.2501 22.5C20.7721 22.5 21.2074 22.2498 21.4715 21.8641C21.724 21.4954 21.7986 21.0395 21.7218 20.6137L20.2456 20.88C20.2529 20.9205 20.2515 20.9542 20.2468 20.9788C20.242 21.0036 20.2349 21.0151 20.2338 21.0166C20.2335 21.0171 20.2386 21.0101 20.2504 21.0038C20.2632 20.9969 20.2669 21 20.2501 21V22.5ZM21.7218 20.6137C20.8676 15.8802 16.2912 13.5 12.0001 13.5V15C15.8653 15 19.567 17.1198 20.2456 20.8801L21.7218 20.6137Z" fill="#9E9B98"/>
</svg>
