<svg width="24" height="24" viewBox="0 0 24 24" fill="none" xmlns="http://www.w3.org/2000/svg">
<path d="M4.01121 20.918H19.989C20.2485 20.9179 20.5036 20.8506 20.7293 20.7224C20.9549 20.5943 21.1435 20.4099 21.2766 20.1871C21.4096 19.9643 21.4826 19.7108 21.4884 19.4513C21.4941 19.1919 21.4325 18.9354 21.3095 18.7069L13.321 3.87094C12.7543 2.81906 11.2459 2.81906 10.6792 3.87094L2.69074 18.7069C2.56772 18.9354 2.50608 19.1919 2.51185 19.4513C2.51761 19.7108 2.59059 19.9643 2.72365 20.1871C2.8567 20.4099 3.04529 20.5943 3.27097 20.7224C3.49664 20.8506 3.7517 20.9179 4.01121 20.918Z" stroke="#47ADFF" stroke-width="1.5" stroke-linecap="round" stroke-linejoin="round"/>
<path d="M11.7309 9.1588L12 14.8776L12.2686 9.16115C12.2702 9.1246 12.2644 9.0881 12.2515 9.05388C12.2385 9.01966 12.2188 8.98843 12.1934 8.96211C12.168 8.93578 12.1375 8.91492 12.1037 8.90078C12.07 8.88665 12.0337 8.87954 11.9971 8.8799C11.9612 8.88025 11.9257 8.8878 11.8927 8.9021C11.8597 8.9164 11.83 8.93716 11.8052 8.96316C11.7803 8.98915 11.761 9.01986 11.7482 9.05346C11.7355 9.08707 11.7296 9.12288 11.7309 9.1588Z" stroke="#47ADFF" stroke-width="1.5" stroke-linecap="round" stroke-linejoin="round"/>
<path d="M12 18.5977C11.8192 18.5977 11.6425 18.544 11.4922 18.4436C11.3419 18.3432 11.2247 18.2004 11.1555 18.0334C11.0863 17.8664 11.0682 17.6826 11.1035 17.5053C11.1388 17.328 11.2258 17.1651 11.3537 17.0373C11.4815 16.9094 11.6444 16.8224 11.8217 16.7871C11.999 16.7518 12.1828 16.7699 12.3498 16.8391C12.5168 16.9083 12.6596 17.0255 12.76 17.1758C12.8605 17.3261 12.9141 17.5028 12.9141 17.6836C12.9141 17.926 12.8178 18.1585 12.6463 18.3299C12.4749 18.5014 12.2424 18.5977 12 18.5977Z" fill="#47ADFF" stroke="#47ADFF" stroke-width="0.046875"/>
</svg>
